<svg width="474" height="97" viewBox="0 0 474 97" fill="none" xmlns="http://www.w3.org/2000/svg">
<path d="M1.35106 96H10.8711C11.4151 96 11.9591 95.728 12.0951 95.184L20.1191 72.608H64.4551L72.3431 95.048C72.6151 95.728 73.1591 96 73.7031 96H83.3591C84.1751 96 84.4471 95.456 84.1751 94.776L49.7671 1.616C49.4951 0.935992 48.8151 0.799994 48.4071 0.799994H36.3031C35.8951 0.799994 35.2151 0.935992 35.0791 1.616L0.535063 94.776C0.263063 95.456 0.535063 96 1.35106 96ZM23.6551 62.544L42.0151 11H42.5591L60.7831 62.544H23.6551ZM118.273 96H132.553C133.233 96 133.641 95.592 133.641 94.912V87.976C133.641 87.432 133.233 87.024 132.553 87.024H114.465V36.16H132.553C133.233 36.16 133.641 35.616 133.641 35.072V28.136C133.641 27.456 133.233 27.048 132.553 27.048H114.465V7.73599C114.465 7.05599 114.057 6.648 113.377 6.648H104.265C103.585 6.648 103.177 7.05599 103.177 7.73599V27.048H90.2568C89.7128 27.048 89.3048 27.456 89.3048 28.136V35.072C89.3048 35.616 89.7128 36.16 90.2568 36.16H103.177V80.904C103.177 90.696 108.481 96 118.273 96ZM174.681 96H190.593C191.273 96 191.953 95.592 192.225 94.776L198.209 76.416H237.649L243.633 94.776C243.905 95.728 244.721 96 245.401 96H261.585C262.673 96 263.081 95.32 262.809 94.368L230.169 2.02399C229.897 1.208 229.081 0.799994 228.401 0.799994H207.865C207.185 0.799994 206.369 1.208 206.097 2.02399L173.457 94.368C173.185 95.32 173.457 96 174.681 96ZM203.105 61.32L217.657 16.44H218.201L232.753 61.32H203.105ZM305.066 96.952C324.242 96.952 336.074 88.112 338.522 74.784C338.658 73.968 338.114 73.696 337.026 73.696H321.794C320.978 73.696 320.434 73.968 320.162 74.92C318.394 80.088 313.362 83.216 305.338 83.216C294.866 83.216 288.882 77.096 287.93 66.352H337.434C338.25 66.352 338.93 65.672 338.93 64.856V61.048C338.93 38.88 326.146 25.416 305.066 25.416C282.898 25.416 268.754 39.424 268.754 61.32C268.754 83.08 282.762 96.952 305.066 96.952ZM287.93 55.2C289.018 44.728 295.002 39.152 305.202 39.152C314.314 39.152 320.026 45 320.706 55.2H287.93ZM352.537 96H368.313C369.129 96 369.673 95.456 369.673 94.504V41.328H392.793C393.745 41.328 394.289 40.784 394.289 39.832V27.864C394.289 26.912 393.745 26.368 392.793 26.368H371.849C358.385 26.368 351.041 33.712 351.041 47.176V94.504C351.041 95.456 351.585 96 352.537 96ZM437.341 96.952C458.965 96.952 473.517 82.672 473.517 61.32C473.517 39.832 459.101 25.416 437.341 25.416C415.717 25.416 401.3 39.832 401.3 61.32C401.3 82.672 415.717 96.952 437.341 96.952ZM420.341 61.32C420.341 47.312 426.461 39.424 437.341 39.424C448.221 39.424 454.477 47.312 454.477 61.32C454.477 75.056 448.085 82.944 437.341 82.944C426.461 82.944 420.341 75.056 420.341 61.32Z" fill="white"/>
</svg>
