<svg width="779" height="96" viewBox="0 0 779 96" fill="none" xmlns="http://www.w3.org/2000/svg">
<path d="M5.69313 96H12.4931C17.3891 96 17.9331 95.456 17.9331 90.56V85.12C17.9331 80.224 18.0691 79.136 19.5651 74.512L35.3411 22.288C36.8371 17.664 37.5171 17.12 42.4131 17.12H47.8531C52.7491 17.12 53.4291 17.664 54.9251 22.288L70.7011 74.512C72.1971 79.136 72.3331 80.224 72.3331 85.12V90.56C72.3331 95.456 72.8771 96 77.7731 96H84.5731C89.4691 96 90.0131 95.456 90.0131 90.56V85.12C90.0131 80.224 89.8771 79.136 88.3811 74.512L68.9331 11.136C66.8931 4.47199 61.9971 0.799994 54.9251 0.799994H42.4131C37.5171 0.799994 36.9731 1.34399 36.9731 6.24V11.68C36.9731 16.576 36.4291 17.12 31.5331 17.12H24.7331C19.8371 17.12 19.1571 17.664 17.6611 22.288L1.88513 74.512C0.389125 79.136 0.253125 80.224 0.253125 85.12V90.56C0.253125 95.456 0.797125 96 5.69313 96ZM139.616 96H165.32C170.216 96 170.76 95.456 170.76 90.56V85.12C170.76 80.224 170.216 79.68 165.32 79.68H139.616C134.72 79.68 134.176 79.136 134.176 74.24V49.76C134.176 44.864 134.72 44.32 139.616 44.32H165.32C170.216 44.32 170.76 43.776 170.76 38.88V33.44C170.76 28.544 170.216 28 165.32 28H139.616C134.72 28 134.176 27.456 134.176 22.56V13.72C134.176 8.824 133.632 8.27999 128.736 8.27999C123.84 8.27999 123.16 8.824 121.528 13.448L119.216 20.248C117.176 25.96 114.456 28.544 108.608 30.176L102.08 31.944C97.3199 33.304 96.7759 33.984 96.7759 38.88C96.7759 43.776 97.3199 44.32 102.216 44.32H111.056C115.952 44.32 116.496 44.864 116.496 49.76V74.24C116.496 79.136 117.04 79.68 121.936 79.68H128.736C133.632 79.68 134.176 80.224 134.176 85.12V90.56C134.176 95.456 134.72 96 139.616 96ZM241.435 96H248.235C253.131 96 253.675 95.456 253.675 90.56V85.12C253.675 80.224 253.811 79.136 255.307 74.512L271.083 22.288C272.579 17.664 273.259 17.12 278.155 17.12H283.595C288.491 17.12 289.171 17.664 290.667 22.288L306.443 74.512C307.939 79.136 308.075 80.224 308.075 85.12V90.56C308.075 95.456 308.619 96 313.515 96H320.315C325.211 96 325.755 95.456 325.755 90.56V85.12C325.755 80.224 325.619 79.136 324.123 74.512L304.675 11.136C302.635 4.47199 297.739 0.799994 290.667 0.799994H278.155C273.259 0.799994 272.715 1.34399 272.715 6.24V11.68C272.715 16.576 272.171 17.12 267.275 17.12H260.475C255.579 17.12 254.899 17.664 253.403 22.288L237.627 74.512C236.131 79.136 235.995 80.224 235.995 85.12V90.56C235.995 95.456 236.539 96 241.435 96ZM443.499 0.799994H424.867C419.971 0.799994 419.019 1.208 415.891 5.016L406.643 16.032C406.099 16.848 405.419 17.12 404.467 17.12H402.699C401.747 17.12 401.339 16.712 401.339 15.76V6.24C401.339 1.34399 400.795 0.799994 395.899 0.799994H380.939C376.043 0.799994 375.091 1.208 371.691 4.60799L354.827 21.472C351.427 24.872 350.883 25.824 350.203 30.72L340.955 90.56C340.275 95.456 340.683 96 345.579 96H353.739C358.635 96 359.179 95.456 359.859 90.56L368.019 22.56C368.699 17.664 369.243 17.12 374.139 17.12H394.539C399.435 17.12 399.979 17.664 399.979 22.56V90.56C399.979 95.456 400.523 96 405.419 96H412.219C417.115 96 417.659 95.456 417.659 90.56V22.56C417.659 17.664 418.203 17.12 423.099 17.12H443.499C448.395 17.12 448.939 17.664 449.619 22.56L457.779 90.56C458.459 95.456 459.003 96 463.899 96H472.059C476.955 96 477.363 95.456 476.819 90.56L467.299 22.56C466.755 17.664 466.075 17.12 461.179 17.12H454.379C449.483 17.12 448.939 16.576 448.939 11.68V6.24C448.939 1.34399 448.395 0.799994 443.499 0.799994ZM498.725 96H517.085C521.981 96 522.525 95.456 522.525 90.56V85.12C522.525 80.224 523.069 79.68 527.965 79.68H534.765C539.661 79.68 540.205 80.224 540.205 85.12V90.56C540.205 95.456 540.749 96 545.645 96H564.005C568.901 96 569.445 95.456 569.445 90.56V85.12C569.445 80.224 568.901 79.68 564.005 79.68H545.645C540.749 79.68 540.205 79.136 540.205 74.24V22.56C540.205 17.664 540.749 17.12 545.645 17.12H564.005C568.901 17.12 569.445 16.576 569.445 11.68V6.24C569.445 1.34399 568.901 0.799994 564.005 0.799994H545.645C540.749 0.799994 540.205 1.34399 540.205 6.24V11.68C540.205 16.576 539.661 17.12 534.765 17.12H527.965C523.069 17.12 522.525 16.576 522.525 11.68V6.24C522.525 1.34399 521.981 0.799994 517.085 0.799994H498.725C493.829 0.799994 493.285 1.34399 493.285 6.24V11.68C493.285 16.576 493.829 17.12 498.725 17.12H517.085C521.981 17.12 522.525 17.664 522.525 22.56V74.24C522.525 79.136 521.981 79.68 517.085 79.68H498.725C493.829 79.68 493.285 80.224 493.285 85.12V90.56C493.285 95.456 493.829 96 498.725 96ZM617.003 96H655.083C667.187 96 672.763 90.424 672.763 78.32V73.016C672.763 68.12 672.627 67.032 670.995 62.408L667.731 53.024C666.099 48.4 665.419 47.856 660.523 47.856C655.627 47.856 655.083 48.4 655.083 53.296V74.24C655.083 79.136 654.539 79.68 649.643 79.68H610.203C605.307 79.68 604.763 79.136 604.763 74.24V22.56C604.763 17.664 605.307 17.12 610.203 17.12H659.163C664.059 17.12 664.603 16.576 664.603 11.68V6.24C664.603 1.34399 664.059 0.799994 659.163 0.799994H610.203C605.307 0.799994 604.763 1.34399 604.763 6.24V11.68C604.763 16.576 604.219 17.12 599.323 17.12H592.523C587.627 17.12 587.083 17.664 587.083 22.56V66.08C587.083 70.976 587.491 71.928 590.891 75.328L607.755 92.192C611.155 95.592 612.107 96 617.003 96ZM694.459 96H701.259C706.155 96 706.699 95.456 706.699 90.56V85.12C706.699 80.224 706.835 79.136 708.331 74.512L724.107 22.288C725.603 17.664 726.283 17.12 731.179 17.12H736.619C741.515 17.12 742.195 17.664 743.691 22.288L759.467 74.512C760.963 79.136 761.099 80.224 761.099 85.12V90.56C761.099 95.456 761.643 96 766.539 96H773.339C778.235 96 778.779 95.456 778.779 90.56V85.12C778.779 80.224 778.643 79.136 777.147 74.512L757.699 11.136C755.659 4.47199 750.763 0.799994 743.691 0.799994H731.179C726.283 0.799994 725.739 1.34399 725.739 6.24V11.68C725.739 16.576 725.195 17.12 720.299 17.12H713.499C708.603 17.12 707.923 17.664 706.427 22.288L690.651 74.512C689.155 79.136 689.019 80.224 689.019 85.12V90.56C689.019 95.456 689.563 96 694.459 96Z" fill="white"/>
</svg>
