<svg width="660" height="99" viewBox="0 0 660 99" fill="none" xmlns="http://www.w3.org/2000/svg">
<path d="M0.4295 97L36.3335 1.79999H51.1575L86.9255 97H73.5975L64.4855 71.704H22.8695L13.7575 97H0.4295ZM26.8135 60.824H60.5415L44.0855 14.992H43.4055L26.8135 60.824ZM125.507 98.496C109.731 98.496 103.067 92.92 103.067 77.28V37.432H91.235V28.456L100.619 27.64C102.795 27.368 104.155 26.144 104.427 23.968L105.923 8.6H115.307V27.232H139.515V37.432H115.307V75.24C115.307 85.44 118.435 88.16 128.091 88.16C131.763 88.16 136.523 87.752 141.419 86.8V96.184C137.475 97.408 131.219 98.496 125.507 98.496ZM220.107 98.496C190.595 98.496 175.227 82.04 175.227 49.4C175.227 16.896 190.595 0.303997 220.107 0.303997C228.539 0.303997 236.019 1.528 244.451 4.38399V22.064C236.019 20.296 229.219 19.344 222.963 19.344C205.419 19.344 197.939 27.776 197.939 49.4C197.939 71.16 205.419 79.456 222.963 79.456C230.715 79.456 237.787 78.504 245.811 76.328V93.464C238.603 96.864 229.899 98.496 220.107 98.496ZM257.132 97V1.79999H278.892V37.432H279.708C285.284 28.728 291.676 25.192 302.148 25.192C316.836 25.192 323.772 32.808 323.772 50.08V97H302.012V54.84C302.012 45.728 299.02 42.192 290.996 42.192C286.508 42.192 282.156 43.688 278.892 46.136V97H257.132ZM338.147 97V26.688H357.867L359.907 39.2H360.723C364.531 29.816 370.379 25.192 378.539 25.192C381.395 25.192 383.435 25.464 385.203 26.28V46.816C383.027 46.408 380.171 46.272 377.315 46.272C369.835 46.272 363.851 48.448 359.907 52.528V97H338.147ZM425.743 98.496C402.759 98.496 390.655 85.848 390.655 61.912C390.655 37.84 402.759 25.192 425.743 25.192C448.727 25.192 460.967 37.84 460.967 61.912C460.967 85.848 448.727 98.496 425.743 98.496ZM425.743 81.496C434.719 81.496 438.527 75.92 438.527 61.912C438.527 47.768 434.719 42.192 425.743 42.192C416.903 42.192 412.959 47.768 412.959 61.912C412.959 75.92 416.903 81.496 425.743 81.496ZM472.554 97V26.688H492.274L494.314 37.432H495.13C500.57 28.728 506.962 25.192 517.026 25.192C527.634 25.192 534.298 29.408 537.154 37.976H537.97C542.866 29.408 550.618 25.192 561.09 25.192C574.962 25.192 582.034 33.488 582.034 50.08V97H560.274V54.84C560.274 45.728 557.418 42.192 549.802 42.192C545.722 42.192 541.506 43.688 538.106 46.408L538.242 49.944V97H516.482V54.84C516.482 45.728 513.49 42.192 505.874 42.192C501.114 42.192 496.762 43.96 494.314 46.952V97H472.554ZM628.424 98.496C605.032 98.496 592.928 85.848 592.928 61.912C592.928 37.84 604.896 25.192 627.336 25.192C649.096 25.192 659.16 36.752 659.16 61.912V69.664H615.368C616.456 77.824 621.76 81.768 632.368 81.768C639.848 81.768 648.28 80.68 655.352 78.504V94.144C647.328 97.136 638.624 98.496 628.424 98.496ZM615.232 56.064H638.624C638.08 46.408 634.816 41.92 627.336 41.92C619.448 41.92 615.912 46.544 615.232 56.064Z" fill="white"/>
</svg>
