<svg width="765" height="103" viewBox="0 0 765 103" fill="none" xmlns="http://www.w3.org/2000/svg">
<path d="M0.0228439 101H11.5828L22.4628 72.44H65.0308L76.0468 101H87.6069L50.0708 5.79999H37.2868L0.0228439 101ZM26.2708 62.24L43.6788 16.68L61.2228 62.24H26.2708ZM106.433 101H116.633V44.424H132.953V35.176H116.633V15.048H106.433V35.176H92.9693V44.424H106.433V101ZM225.823 102.632C241.871 102.632 255.743 98.008 265.671 89.44V47.824H224.871V63.872H248.535V79.92C243.367 83.592 235.751 85.496 225.823 85.496C206.647 85.496 194.135 72.848 194.135 53.4C194.135 34.904 206.919 21.848 225.007 21.848C237.519 21.848 247.719 28.648 251.527 39.528L268.391 31.232C262.815 14.776 245.679 4.168 225.007 4.168C196.583 4.168 175.503 25.112 175.503 53.4C175.503 82.096 196.447 102.632 225.823 102.632ZM314.703 102.632C329.935 102.632 342.855 93.792 346.527 81.008L331.567 75.704C329.391 83.184 322.727 87.808 314.703 87.808C304.911 87.808 298.383 81.824 297.023 71.624H346.119C346.255 70.264 346.391 68.632 346.391 66.32C346.391 45.24 334.151 32.048 314.431 32.048C294.439 32.048 279.887 46.872 279.887 67.408C279.887 87.808 294.439 102.632 314.703 102.632ZM297.567 60.2C299.743 51.768 305.863 46.6 314.431 46.6C323.135 46.6 328.847 51.768 330.071 60.2H297.567ZM392.143 102.632C412.407 102.632 427.231 87.536 427.231 67.408C427.231 47.008 412.407 32.048 392.143 32.048C371.879 32.048 356.919 47.008 356.919 67.408C356.919 87.536 371.879 102.632 392.143 102.632ZM374.327 67.408C374.327 55.848 381.535 47.96 392.143 47.96C402.615 47.96 409.823 55.848 409.823 67.408C409.823 78.832 402.615 86.72 392.143 86.72C381.535 86.72 374.327 78.832 374.327 67.408ZM468.686 102.632C477.934 102.632 485.958 98.416 489.63 92.024V101H506.902V3.08H489.63V41.84C486.094 35.992 477.798 32.048 468.686 32.048C449.918 32.048 437.27 46.328 437.27 67.408C437.27 88.352 449.918 102.632 468.686 102.632ZM454.678 67.408C454.678 55.984 461.886 47.96 472.358 47.96C482.966 47.96 490.174 55.984 490.174 67.408C490.174 78.696 482.83 86.72 472.358 86.72C461.886 86.72 454.678 78.696 454.678 67.408ZM556.422 102.632C571.654 102.632 584.574 93.792 588.246 81.008L573.286 75.704C571.11 83.184 564.446 87.808 556.422 87.808C546.63 87.808 540.102 81.824 538.742 71.624H587.838C587.974 70.264 588.11 68.632 588.11 66.32C588.11 45.24 575.87 32.048 556.15 32.048C536.158 32.048 521.606 46.872 521.606 67.408C521.606 87.808 536.158 102.632 556.422 102.632ZM539.286 60.2C541.462 51.768 547.582 46.6 556.15 46.6C564.854 46.6 570.566 51.768 571.79 60.2H539.286ZM625.837 102.632C641.613 102.632 651.677 94.2 651.677 81.008C651.677 69.992 645.557 63.736 631.821 61.016L623.661 59.248C618.765 58.296 616.181 55.984 616.181 52.448C616.181 47.824 619.581 44.968 625.021 44.968C631.413 44.968 635.493 48.368 636.445 54.488L650.997 51.088C649.229 39.664 638.893 32.048 625.021 32.048C610.061 32.048 599.997 40.616 599.997 53.4C599.997 63.872 606.933 71.216 619.173 73.664L627.469 75.432C633.181 76.656 635.493 78.696 635.493 82.64C635.493 86.992 631.957 89.712 625.973 89.712C618.901 89.712 614.005 85.768 613.053 79.24L598.229 82.504C599.453 94.064 611.149 102.632 625.837 102.632ZM665.949 101H683.221V33.68H665.949V101ZM663.909 11.648C663.909 17.496 668.669 22.256 674.517 22.256C680.501 22.256 685.261 17.496 685.261 11.648C685.261 5.664 680.501 0.903992 674.517 0.903992C668.669 0.903992 663.909 5.664 663.909 11.648ZM732.664 102.632C747.896 102.632 760.816 93.52 764.488 80.192L748.984 75.024C746.944 82.232 740.416 86.72 732.664 86.72C722.328 86.72 715.256 78.832 715.256 67.408C715.256 55.848 722.328 47.96 732.664 47.96C740.552 47.96 746.4 52.312 748.44 59.792L764.216 54.76C760.544 40.888 748.304 32.048 732.664 32.048C712.4 32.048 697.848 46.872 697.848 67.408C697.848 87.808 712.4 102.632 732.664 102.632Z" fill="white"/>
</svg>
