<svg width="560" height="103" viewBox="0 0 560 103" fill="none" xmlns="http://www.w3.org/2000/svg">
<path d="M0.602188 102H12.2982L20.5942 78.608H64.9302L73.2262 102H85.1942L49.9702 6.79999H35.9622L0.602188 102ZM24.2662 68.544L42.6262 17H43.0342L61.3942 68.544H24.2662ZM123.356 102H134.508V93.024H124.716C118.596 93.024 115.332 89.76 115.332 83.504V42.16H134.508V33.048H115.332V12.648H104.588V28.832C104.588 31.552 102.956 33.048 100.372 33.048H90.172V42.16H104.044V82.688C104.044 95.336 110.708 102 123.356 102ZM242.46 102H261.772V6.79999H242.46V45.968H201.252V6.79999H182.076V102H201.252V61.336H242.46V102ZM299.537 102.952C309.057 102.952 317.081 99.008 321.841 91.8H322.521V102H340.337V58.752C340.337 40.8 330.137 31.416 310.825 31.416C292.465 31.416 280.769 40.256 279.545 55.352H297.769C298.449 49.096 303.073 45.424 310.281 45.424C317.625 45.424 321.569 48.688 321.569 54.808C321.569 58.344 320.345 59.296 315.585 60.112C303.345 61.744 295.729 62.832 290.289 64.736C281.313 67.728 276.825 73.984 276.825 82.96C276.825 95.472 285.257 102.952 299.537 102.952ZM295.049 81.6C295.049 77.52 296.953 74.936 301.033 73.576C305.113 72.08 316.401 71.672 321.569 70.176V72.352C321.569 82.144 314.361 89.352 304.433 89.352C298.313 89.352 295.049 86.632 295.049 81.6ZM386.913 102.952C408.809 102.952 419.145 92.752 419.145 71.4V32.368H400.377V74.528C400.377 84.048 395.889 88.944 386.913 88.944C378.345 88.944 373.449 83.912 373.449 74.528V32.368H354.817V71.4C354.817 92.752 365.153 102.952 386.913 102.952ZM361.073 11.832C361.073 18.224 365.561 22.576 371.953 22.576C378.481 22.576 382.969 18.224 382.969 11.832C382.969 5.304 378.481 0.951996 371.953 0.951996C365.561 0.951996 361.073 5.304 361.073 11.832ZM391.265 11.832C391.265 18.224 395.753 22.576 402.145 22.576C408.537 22.576 413.025 18.224 413.025 11.832C413.025 5.304 408.537 0.951996 402.145 0.951996C395.753 0.951996 391.265 5.304 391.265 11.832ZM462.135 102.952C480.087 102.952 490.423 95.608 490.423 81.464C490.423 69.224 485.255 63.512 470.295 60.928L460.231 59.024C453.023 57.8 450.983 55.624 450.983 51.68C450.983 46.92 454.383 44.336 460.639 44.336C467.167 44.336 470.431 47.056 471.383 53.448H488.655C487.567 38.896 476.959 31.416 460.639 31.416C443.503 31.416 433.303 39.712 433.303 52.768C433.303 64.736 439.831 70.992 453.703 73.44L463.359 75.208C469.887 76.432 472.607 78.2 472.607 82.688C472.607 87.04 468.527 89.896 462.135 89.896C454.247 89.896 449.759 87.04 448.671 79.424H431.535C432.351 94.656 443.231 102.952 462.135 102.952ZM531.331 102.952C549.283 102.952 559.619 95.608 559.619 81.464C559.619 69.224 554.451 63.512 539.491 60.928L529.427 59.024C522.219 57.8 520.179 55.624 520.179 51.68C520.179 46.92 523.579 44.336 529.835 44.336C536.363 44.336 539.627 47.056 540.579 53.448H557.851C556.763 38.896 546.155 31.416 529.835 31.416C512.699 31.416 502.499 39.712 502.499 52.768C502.499 64.736 509.027 70.992 522.899 73.44L532.555 75.208C539.083 76.432 541.803 78.2 541.803 82.688C541.803 87.04 537.723 89.896 531.331 89.896C523.443 89.896 518.955 87.04 517.867 79.424H500.731C501.547 94.656 512.427 102.952 531.331 102.952Z" fill="white"/>
</svg>
