<svg width="829" height="157" viewBox="0 0 829 157" fill="none" xmlns="http://www.w3.org/2000/svg">
<path d="M800.237 102.952C781.333 102.952 770.453 94.656 769.637 79.424H786.773C787.861 87.04 792.349 89.896 800.237 89.896C806.629 89.896 810.709 87.04 810.709 82.688C810.709 78.2 807.989 76.432 801.461 75.208L791.805 73.44C777.933 70.992 771.405 64.736 771.405 52.768C771.405 39.712 781.605 31.416 798.741 31.416C815.061 31.416 825.669 38.896 826.757 53.448H809.485C808.533 47.056 805.269 44.336 798.741 44.336C792.485 44.336 789.085 46.92 789.085 51.68C789.085 55.624 791.125 57.8 798.333 59.024L808.397 60.928C823.357 63.512 828.525 69.224 828.525 81.464C828.525 95.608 818.189 102.952 800.237 102.952Z" fill="white"/>
<path d="M731.041 102.952C712.137 102.952 701.257 94.656 700.441 79.424H717.577C718.665 87.04 723.153 89.896 731.041 89.896C737.433 89.896 741.513 87.04 741.513 82.688C741.513 78.2 738.793 76.432 732.265 75.208L722.609 73.44C708.737 70.992 702.209 64.736 702.209 52.768C702.209 39.712 712.409 31.416 729.545 31.416C745.865 31.416 756.473 38.896 757.561 53.448H740.289C739.337 47.056 736.073 44.336 729.545 44.336C723.289 44.336 719.889 46.92 719.889 51.68C719.889 55.624 721.929 57.8 729.137 59.024L739.201 60.928C754.161 63.512 759.329 69.224 759.329 81.464C759.329 95.608 748.993 102.952 731.041 102.952Z" fill="white"/>
<path d="M655.82 102.952C634.06 102.952 623.724 92.7521 623.724 71.4001V32.3681H642.356V74.5282C642.356 83.9122 647.252 88.9442 655.82 88.9442C664.796 88.9442 669.284 84.0482 669.284 74.5282V32.3681H688.052V71.4001C688.052 92.7521 677.716 102.952 655.82 102.952ZM629.98 11.8321C629.98 5.30415 634.468 0.952148 640.86 0.952148C647.388 0.952148 651.876 5.30415 651.876 11.8321C651.876 18.2241 647.388 22.5761 640.86 22.5761C634.468 22.5761 629.98 18.2241 629.98 11.8321ZM660.172 11.8321C660.172 5.30415 664.66 0.952148 671.052 0.952148C677.444 0.952148 681.932 5.30415 681.932 11.8321C681.932 18.2241 677.444 22.5761 671.052 22.5761C664.66 22.5761 660.172 18.2241 660.172 11.8321Z" fill="white"/>
<path d="M568.443 102.952C554.163 102.952 545.731 95.472 545.731 82.96C545.731 73.984 550.219 67.728 559.195 64.736C564.635 62.832 572.251 61.744 584.491 60.112C589.251 59.296 590.475 58.344 590.475 54.808C590.475 48.688 586.531 45.424 579.187 45.424C571.979 45.424 567.355 49.096 566.675 55.352H548.451C549.675 40.256 561.371 31.416 579.731 31.416C599.043 31.416 609.243 40.8 609.243 58.752V102H591.427V91.8H590.747C585.987 99.008 577.963 102.952 568.443 102.952ZM563.955 81.6C563.955 86.632 567.219 89.352 573.339 89.352C583.267 89.352 590.475 82.144 590.475 72.352V70.176C585.307 71.672 574.019 72.08 569.939 73.576C565.859 74.936 563.955 77.52 563.955 81.6Z" fill="white"/>
<path d="M511.366 102V61.3363H470.158V102H450.982V6.80029H470.158V45.9683H511.366V6.80029H530.678V102H511.366Z" fill="white"/>
<path d="M393.866 102C381.354 102 374.962 95.4719 374.962 82.9599V40.2559H360.41V33.3199H371.426C373.874 33.3199 375.234 31.9599 375.234 29.6479V12.9199H383.258V33.3199H403.25V40.2559H383.258V83.7759C383.258 91.3919 387.202 95.1999 394.682 95.1999H403.25V102H393.866Z" fill="white"/>
<path d="M272.696 102L308.736 6.80029H319.208L355.248 102H346.272L337.024 76.7043H290.784L281.536 102H272.696ZM293.64 69.2243H334.304L314.176 14.4163H313.768L293.64 69.2243Z" fill="white"/>
<path d="M160.156 82.688H175.932V82.008C169.404 77.656 165.596 70.448 165.596 61.608C165.596 45.696 178.38 34 195.652 34C212.108 34 223.804 44.88 225.436 61.744H209.252C207.62 55.624 202.044 51.816 194.7 51.816C185.996 51.816 180.556 56.44 180.556 63.648C180.556 73.44 192.66 79.696 207.212 77.384C214.964 76.16 223.396 73.984 229.652 72.352V89.896C208.3 96.832 190.484 102 174.028 102H160.156C156.212 102 153.22 97.92 153.22 92.344C153.22 86.768 156.212 82.688 160.156 82.688Z" fill="white"/>
<path d="M100.821 116.96C103.133 117.368 105.309 117.504 107.349 117.504C125.437 117.504 130.469 103.768 130.469 90.9839C130.469 79.8319 128.157 64.4639 125.165 52.0879H142.437C143.389 57.1199 144.477 63.5119 145.293 70.0399C146.109 77.2479 148.421 82.6879 160.117 82.6879V102C154.269 102 150.053 100.504 146.653 98.1919L145.973 98.7359C143.661 116.96 134.277 135.728 109.389 135.728C106.669 135.728 103.813 135.592 100.821 135.048V116.96Z" fill="white"/>
<path d="M58.4782 79.2879C65.9582 79.2879 70.4462 73.7119 70.4462 64.4639C70.4462 57.5279 67.5902 49.0959 65.9582 42.2959H82.2782C84.7262 50.5919 85.9502 58.2079 85.9502 64.3279C85.9502 74.2559 83.6382 81.3279 78.8782 85.2719C93.5662 88.8079 95.0622 99.5519 95.0622 104.448C95.0622 120.36 74.5262 131.648 45.6942 131.648C16.1822 131.648 0.950195 119.272 0.950195 95.3359C0.950195 88.3999 2.31019 80.5119 5.0302 70.9919H19.9902C18.0862 78.4719 17.1342 84.7279 17.1342 89.7599C17.1342 104.992 26.3822 111.792 47.4622 111.792C65.4142 111.792 78.6062 107.168 78.6062 100.776C78.6062 97.9199 75.4782 96.2879 69.4942 96.2879H48.1422V79.2879H58.4782ZM23.7982 147.832C23.7982 142.936 27.1982 139.672 32.5022 139.672C37.3982 139.672 40.7982 142.936 40.7982 147.832C40.7982 153 37.3982 156.264 32.5022 156.264C27.1982 156.264 23.7982 153 23.7982 147.832ZM45.9662 147.832C45.9662 142.936 49.3662 139.672 54.6702 139.672C59.5662 139.672 62.9662 142.936 62.9662 147.832C62.9662 153 59.5662 156.264 54.6702 156.264C49.3662 156.264 45.9662 153 45.9662 147.832ZM73.3022 141.168C73.3022 136 76.8382 132.6 82.2782 132.6C87.4462 132.6 90.9822 136 90.9822 141.168C90.9822 146.472 87.4462 149.872 82.2782 149.872C76.8382 149.872 73.3022 146.472 73.3022 141.168Z" fill="white"/>
</svg>
