<svg width="725" height="100" viewBox="0 0 725 100" fill="none" xmlns="http://www.w3.org/2000/svg">
<path d="M0.119063 99H12.0871L18.8871 75.608H54.7911L61.5911 99H73.5591L44.1831 3.79999H29.4951L0.119063 99ZM21.7431 65.544L36.5671 14H36.9751L51.9351 65.544H21.7431ZM129.538 99H149.666V90.024H131.442C123.01 90.024 118.658 85.672 118.658 77.24V39.16H149.666V30.048H118.658V9.648H107.914V25.832C107.914 28.552 106.282 30.048 103.698 30.048H85.7459V39.16H107.37V76.832C107.37 91.248 115.122 99 129.538 99ZM297.12 99H316.16V3.79999H297.12V42.968H265.84V3.79999H246.8V99H265.84V58.336H297.12V99ZM366.563 53.712L379.211 47.728L370.371 32.632L370.643 32.088L389.139 33.448V19.576L370.507 21.48L370.235 21.072L376.355 3.79999L363.707 0.127992L359.491 18.216L358.947 18.352L344.531 6.92799L337.187 18.488L353.507 27.328V27.872L336.779 37.256L344.531 48.816L359.899 35.76L360.307 35.896L366.563 53.712ZM409.893 99H425.941V29.64H426.621L436.549 99H451.917L461.981 29.64H462.661V99H479.253V3.79999H453.141L444.709 67.856H444.165L435.597 3.79999H409.893V99ZM525.984 99.952C547.336 99.952 561.616 85.672 561.616 64.32C561.616 42.832 547.336 28.416 525.984 28.416C504.904 28.416 490.624 42.832 490.624 64.32C490.624 85.672 504.768 99.952 525.984 99.952ZM509.392 64.32C509.392 50.312 515.512 42.424 525.984 42.424C536.728 42.424 542.848 50.312 542.848 64.32C542.848 78.056 536.592 85.944 525.984 85.944C515.376 85.944 509.392 78.056 509.392 64.32ZM575.979 99H594.475V59.152C594.475 48.272 598.827 43.104 608.483 43.104C618.003 43.104 622.355 48.136 622.355 59.152V99H640.715V59.152C640.715 38.888 632.147 28.416 616.235 28.416C606.715 28.416 599.099 32.36 594.203 39.568H593.523V29.368H575.979V99ZM689.078 99.952C710.43 99.952 724.71 85.672 724.71 64.32C724.71 42.832 710.43 28.416 689.078 28.416C667.998 28.416 653.718 42.832 653.718 64.32C653.718 85.672 667.862 99.952 689.078 99.952ZM672.486 64.32C672.486 50.312 678.606 42.424 689.078 42.424C699.822 42.424 705.942 50.312 705.942 64.32C705.942 78.056 699.686 85.944 689.078 85.944C678.47 85.944 672.486 78.056 672.486 64.32Z" fill="white"/>
</svg>
