<svg width="383" height="125" viewBox="0 0 383 125" fill="none" xmlns="http://www.w3.org/2000/svg">
<path d="M42.8603 95.048V96H73.0523V95.048C67.2043 92.328 65.1643 88.928 60.6763 74.512L38.1003 0.799994H25.3163V1.752L31.4363 12.088L13.2123 74.512C8.99625 88.928 6.82025 92.6 0.83625 95.048V96H23.9563V95.048C17.9723 93.552 15.1163 90.288 15.1163 84.576C15.1163 82.128 15.6603 79.544 17.8363 71.792L18.5163 69.48H48.1643L48.5723 70.704C50.8843 78.728 51.7003 82.128 51.7003 84.576C51.7003 90.288 48.8443 93.552 42.8603 95.048ZM19.4683 65.944L33.3403 17.8L47.2123 65.944H19.4683ZM94.5902 97.088C101.662 97.088 105.606 93.552 110.366 83.216L109.414 82.672C105.606 87.16 101.798 89.608 98.3982 89.608C94.9982 89.608 93.2302 87.432 93.2302 83.352V34.528H110.366V31.4H93.2302V10.32H92.9582C89.1502 21.336 81.2622 30.584 73.1022 34.256V34.528H83.3022V83.896C83.3022 92.328 87.3822 97.088 94.5902 97.088ZM141.393 96H176.073V95.048C169.545 93.008 167.641 88.112 167.641 74.512V52.344L172.809 45.68L188.177 82.128C189.265 84.576 190.217 86.888 190.217 89.064C190.217 91.648 188.585 93.688 185.049 95.048V96H217.281V95.048C214.561 94.096 210.617 90.152 206.945 81.584L184.913 30.176L198.241 13.176C202.865 7.19199 207.761 3.112 214.969 1.752V0.799994H188.449V1.752C194.705 3.112 196.745 4.336 196.745 6.784C196.745 8.008 196.337 9.232 194.705 11.408L167.641 46.904V22.288C167.641 8.688 169.545 3.792 176.073 1.752V0.799994H141.393V1.752C147.921 3.792 149.825 8.688 149.825 22.288V74.512C149.825 88.112 147.921 93.008 141.393 95.048V96ZM219.057 96H252.785V95.048C246.529 93.008 244.625 88.112 244.625 74.512V29.632L244.353 29.496H244.217C237.417 32.624 228.441 34.528 218.921 35.616H219.057V36.568C225.449 38.472 227.217 41.464 227.217 50.984V74.512C227.217 88.112 225.313 93.008 219.057 95.048V96ZM224.089 11.136C224.089 17.12 229.121 21.608 235.785 21.608C242.449 21.608 247.345 17.12 247.345 11.136C247.345 5.28799 242.449 0.799994 235.785 0.799994C229.121 0.799994 224.089 5.28799 224.089 11.136ZM254.783 96H322.239V95.048C315.983 93.008 314.079 88.112 314.079 74.512V44.728C314.079 34.12 309.591 29.496 299.255 29.496C292.455 29.496 285.247 32.488 279.671 37.384V29.632L279.399 29.496H279.263C272.735 32.624 263.895 34.528 254.647 35.616H254.783V36.568C261.175 38.472 262.943 41.464 262.943 50.984V74.512C262.943 88.112 261.039 93.008 254.783 95.048V96ZM280.351 81.584V47.584C280.351 41.328 284.295 36.704 289.735 36.704C294.495 36.704 296.671 39.288 296.671 44.728V81.584C296.671 91.24 294.631 94.504 288.511 94.504C282.255 94.504 280.351 91.24 280.351 81.584ZM348.447 124.424C368.847 124.424 382.039 114.904 382.039 99.536C382.039 89.336 374.423 83.488 360.415 83.488H350.487C344.503 83.488 342.191 81.176 342.191 75.328V73.288C344.775 73.832 347.631 74.24 350.623 74.24C365.855 74.24 375.647 65.4 375.647 51.8C375.647 45 373.199 39.424 368.711 35.48H381.087V32.352H363.951C360.279 30.448 355.791 29.496 350.623 29.496C335.391 29.496 325.463 38.336 325.463 51.8C325.463 61.592 330.495 68.936 339.063 72.2C336.751 75.872 333.215 78.592 328.863 80.224C328.863 87.16 332.399 93.008 337.567 94.504V95.184C327.367 96.136 320.159 101.848 320.159 109.192C320.159 119.392 329.271 124.424 348.447 124.424ZM337.703 110.96C337.703 104.976 340.423 100.488 345.999 97.36H353.615C361.231 97.36 364.495 100.08 364.495 106.472C364.495 115.176 358.239 121.704 349.807 121.704C342.055 121.704 337.703 117.76 337.703 110.96ZM343.551 55.336V48.4C343.551 37.928 346.135 32.216 350.623 32.216C355.111 32.216 357.695 37.928 357.695 48.4V55.336C357.695 66.08 355.247 71.52 350.623 71.52C345.863 71.52 343.551 66.08 343.551 55.336Z" fill="white"/>
</svg>
