<svg width="458" height="125" viewBox="0 0 458 125" fill="none" xmlns="http://www.w3.org/2000/svg">
<path d="M56.0997 97H66.9797L36.6517 1.79999H26.3157L28.3557 8.19199L0.0676564 97H5.91566L13.5317 70.48H47.8037L56.0997 97ZM14.6197 66.944L29.9877 13.632L46.7157 66.944H14.6197ZM93.9863 98.088C102.554 98.088 106.77 93.736 107.722 83.944H105.002C104.322 89.112 101.874 91.696 97.6583 91.696C93.0343 91.696 90.5863 88.976 90.5863 83.944V35.528H107.722V32.4H90.5863V15.672L80.6583 20.432V32.4H70.4583V35.528H80.6583V83.944C80.6583 92.92 85.5543 98.088 93.9863 98.088ZM187.067 124.2H205.427C203.931 112.096 195.227 102.032 183.531 97.816C201.891 94.824 213.179 76.736 213.179 49.4C213.179 19.48 199.579 0.575993 177.955 0.575993C156.467 0.575993 142.867 19.48 142.867 49.4C142.867 79.184 156.331 97.952 177.547 98.224C184.075 102.576 187.067 111.008 187.067 124.2ZM162.723 54.568V43.688C162.723 17.168 168.027 3.70399 177.955 3.70399C187.883 3.70399 193.187 17.168 193.187 43.688V54.568C193.187 82.584 188.427 95.096 177.955 95.096C167.619 95.096 162.723 82.584 162.723 54.568ZM240.823 81.768V31.72H223.415V78.912C223.415 91.56 229.399 98.224 241.231 98.224C248.303 98.224 254.831 94.824 259.047 88.976L266.391 97H274.551V31.72H257.143V82.04C257.143 87.616 253.471 91.56 248.439 91.56C243.407 91.56 240.823 88.16 240.823 81.768ZM312.973 98.224C325.349 98.224 334.053 91.152 336.909 78.912H334.189C331.197 87.48 325.893 91.832 318.685 91.832C309.029 91.832 304.269 83.944 304.269 67.896V59.328H336.909C336.909 41.512 327.525 30.496 312.429 30.496C295.701 30.496 284.685 43.96 284.685 64.36C284.685 85.304 295.429 98.224 312.973 98.224ZM304.269 56.2C304.405 39.744 307.125 33.216 312.837 33.216C318.005 33.216 320.453 39.608 320.453 56.2H304.269ZM372.606 98.224C384.982 98.224 393.686 91.152 396.542 78.912H393.822C390.83 87.48 385.526 91.832 378.318 91.832C368.662 91.832 363.902 83.944 363.902 67.896V59.328H396.542C396.542 41.512 387.158 30.496 372.062 30.496C355.334 30.496 344.318 43.96 344.318 64.36C344.318 85.304 355.062 98.224 372.606 98.224ZM363.902 56.2C364.038 39.744 366.758 33.216 372.47 33.216C377.638 33.216 380.086 39.608 380.086 56.2H363.902ZM439.782 46.952V97H457.19V49.808C457.19 37.16 451.206 30.496 439.374 30.496C432.302 30.496 425.774 33.896 421.558 39.744L414.214 31.72H406.054V97H423.462V46.68C423.462 41.104 427.134 37.16 432.166 37.16C437.198 37.16 439.782 40.56 439.782 46.952Z" fill="white"/>
</svg>
