<svg width="300" height="105" viewBox="0 0 300 105" fill="none" xmlns="http://www.w3.org/2000/svg">
<path d="M0.737813 103L5.40981 0.799993H41.4718L47.6038 103H25.1198L24.3898 83.874H19.4258L18.8418 103H0.737813ZM19.7178 70.442H23.9518L22.1998 21.678H21.0318L19.7178 70.442ZM66.772 103C56.698 103 50.566 100.518 50.566 88.4V33.212H47.646V19.78H50.566L54.946 5.18H72.32V19.78H80.35V33.212H72.32V87.378C72.32 89.276 72.612 89.568 74.51 89.568H80.35V103H66.772ZM100.132 103V0.799993H128.018C143.202 0.799993 146.998 4.596 146.998 19.342V38.614C146.998 47.666 145.392 50.586 139.698 51.754V52.922C145.392 53.944 146.998 56.572 146.998 64.894V91.466C146.998 96.868 147.436 99.058 148.458 101.832V103H126.704C125.682 100.226 125.244 96.868 125.244 91.466V59.2H121.886V103H100.132ZM121.886 45.768H125.244V14.232H121.886V45.768ZM173.398 104.314C153.104 104.314 149.892 100.664 149.892 85.772V37.008C149.892 22.116 153.25 18.466 173.398 18.466C193.546 18.466 196.758 22.116 196.758 37.008V85.772C196.758 100.664 193.546 104.314 173.398 104.314ZM171.646 90.882H175.004V31.898H171.646V90.882ZM223.157 104.314C202.863 104.314 199.651 100.664 199.651 85.772V37.008C199.651 22.116 203.009 18.466 223.157 18.466C243.305 18.466 246.517 22.116 246.517 37.008V59.054H224.763V31.898H221.405V90.882H224.763V61.974H246.517V85.772C246.517 100.664 243.305 104.314 223.157 104.314ZM260.507 104.314C251.601 104.314 249.411 101.248 249.411 88.108V74.384C249.411 62.558 251.163 59.784 261.821 55.55L274.523 50.44V31.898H271.165V49.71H249.411V37.008C249.411 21.678 253.353 18.466 272.917 18.466C292.335 18.466 296.277 21.532 296.277 37.008V87.378C296.277 89.276 296.569 89.568 298.467 89.568H299.197V103H284.159C278.027 103 276.421 101.686 274.523 95.7H273.355C270.581 102.562 267.807 104.314 260.507 104.314ZM271.165 90.882H274.523V64.164L271.165 66.354V90.882Z" fill="white"/>
</svg>
