<svg width="238" height="100" viewBox="0 0 238 100" fill="none" xmlns="http://www.w3.org/2000/svg">
<path d="M0.912891 99H4.41289L5.81289 68.06H11.6929L13.0929 99H16.5929L11.8329 0.999993H5.67289L0.912891 99ZM5.95289 64.84L8.61289 4.21999H8.89289L11.5529 64.84H5.95289ZM23.9254 99.42C25.1854 99.42 26.5854 99.28 27.2854 99V96.2H24.7654C23.3654 96.2 22.6654 95.36 22.6654 93.96V23.54H27.2854V20.32H22.6654V6.6H19.7254L19.0254 20.32H16.2254V23.54H19.0254V94.38C19.0254 97.46 20.7054 99.42 23.9254 99.42ZM47.7702 99.56C53.9302 99.56 57.2902 96.06 57.2902 89.76V58.4C57.2902 53.64 55.7502 51.4 51.9702 48.46L48.1902 44.96C46.0902 43.14 45.5302 42.44 45.5302 39.92V8.28C45.5302 6.87999 46.3702 6.04 47.7702 6.04C49.1702 6.04 50.0102 6.87999 50.0102 8.28V37.68H57.2902V10.1C57.2902 3.8 53.9302 0.299994 47.7702 0.299994C41.6102 0.299994 38.2502 3.8 38.2502 10.1V41.04C38.2502 45.52 39.9302 47.76 43.7102 50.7L47.4902 54.2C49.3102 55.74 50.0102 56.72 50.0102 59.24V91.58C50.0102 92.98 49.1702 93.82 47.7702 93.82C46.3702 93.82 45.5302 92.98 45.5302 91.58V61.76H38.2502V89.76C38.2502 96.06 41.7502 99.56 47.7702 99.56ZM59.7118 99H67.1318V0.999993H59.7118V99ZM81.3188 27.32V53.22L74.3188 56.02C71.0988 57.42 69.4188 59.66 69.4188 63.02V92.84C69.4188 97.04 71.3788 99.56 75.1588 99.56C77.8188 99.56 79.9188 98.58 81.3188 96.62V99H88.5988V28.86C88.5988 22.7 85.2388 19.06 79.0788 19.06C72.9188 19.06 69.4188 22.7 69.4188 28.86V50.84H76.8388V27.32C76.8388 25.92 77.6788 25.08 79.0788 25.08C80.4788 25.08 81.3188 25.92 81.3188 27.32ZM76.8388 91.3V63.02C76.8388 61.76 77.2588 61.06 78.5188 60.5L81.3188 59.38V91.44C80.8988 92.84 79.9188 93.54 78.6588 93.54C77.3988 93.54 76.8388 92.84 76.8388 91.3ZM102.5 27.18V99H109.78V27.32C110.2 25.92 111.18 25.22 112.3 25.22C113.42 25.22 113.84 25.78 113.84 27.18V99H121.26V25.64C121.26 21.3 119.58 19.06 115.94 19.06C113 19.06 110.76 20.32 109.36 22.56C108.66 20.32 107.12 19.06 104.46 19.06C101.94 19.06 99.8404 20.18 98.4404 22.14V19.76H91.0204V99H98.4404V27.32C98.8604 25.92 99.8404 25.22 100.96 25.22C101.94 25.22 102.5 25.78 102.5 27.18ZM132.846 99H140.266L142.646 49.16H142.926L145.446 99H152.726L148.666 46.22L152.726 0.999993H145.446L142.926 43.14H142.646L140.266 0.999993H132.846L136.906 46.22L132.846 99ZM154.038 99H161.458L163.838 49.16H164.118L166.638 99H173.918L169.858 46.22L173.918 0.999993H166.638L164.118 43.14H163.838L161.458 0.999993H154.038L158.098 46.22L154.038 99ZM184.762 99.56C190.922 99.56 194.282 96.06 194.282 89.9V61.76H187.002V91.44C187.002 92.84 186.162 93.68 184.762 93.68C183.362 93.68 182.522 92.84 182.522 91.44V8.56C182.522 7.16 183.362 6.31999 184.762 6.31999C186.162 6.31999 187.002 7.16 187.002 8.56V37.68H194.282V10.1C194.282 3.8 190.922 0.299994 184.762 0.299994C178.602 0.299994 175.102 3.8 175.102 10.1V89.9C175.102 96.06 178.602 99.56 184.762 99.56ZM208.604 27.32V99H215.884V25.92C215.884 21.58 213.924 19.06 210.144 19.06C207.624 19.06 205.524 20.18 204.124 22.14V19.76H196.704V99H204.124V27.32C204.544 25.92 205.524 25.22 206.784 25.22C208.044 25.22 208.604 25.92 208.604 27.32ZM224.186 99.56C226.706 99.56 228.806 98.58 230.206 96.62V99H237.486V0.999993H230.206V22C228.806 20.18 226.706 19.06 224.186 19.06C220.406 19.06 218.306 21.58 218.306 25.92V92.84C218.306 97.18 220.406 99.56 224.186 99.56ZM225.726 91.3V27.32C225.726 25.92 226.286 25.22 227.546 25.22C228.806 25.22 229.786 25.92 230.206 27.32V91.44C229.786 92.84 228.806 93.54 227.546 93.54C226.286 93.54 225.726 92.84 225.726 91.3Z" fill="white"/>
</svg>
