<svg width="165" height="100" viewBox="0 0 165 100" fill="none" xmlns="http://www.w3.org/2000/svg">
<path d="M0.758594 99H3.27859L3.83859 67.08H6.07859L6.63859 99H9.15859L7.19859 0.999993H2.71859L0.758594 99ZM3.83859 64.84L4.81859 3.24H5.09859L6.07859 64.84H3.83859ZM14.4053 99.28C14.9653 99.28 15.8053 99.14 16.0853 99V97.04H14.9653C14.1253 97.04 13.5653 96.48 13.5653 95.64V22.56H16.0853V20.32H13.5653V6.6H11.6053L11.0453 20.32H9.64531V22.56H11.0453V95.92C11.0453 98.16 12.1653 99.28 14.4053 99.28ZM29.8873 99.42C33.8073 99.42 35.9073 97.32 35.9073 93.12V59.24C35.9073 56.02 35.0673 53.64 33.2473 50.84L30.1673 45.38C29.3273 43.98 28.7673 42.86 28.7673 40.34V5.9C28.7673 5.2 29.1873 4.77999 29.8873 4.77999C30.7273 4.77999 31.1473 5.2 31.1473 5.9V37.68H35.9073V6.73999C35.9073 2.68 33.8073 0.439992 29.8873 0.439992C26.1073 0.439992 24.0073 2.68 24.0073 6.73999V40.34C24.0073 43.98 24.7073 46.22 26.5273 48.88L29.6073 54.34C30.7273 56.16 31.1473 57.56 31.1473 59.24V93.96C31.1473 94.66 30.7273 95.22 29.8873 95.22C29.1873 95.22 28.7673 94.8 28.7673 93.96V61.76H24.0073V93.12C24.0073 97.18 26.1073 99.42 29.8873 99.42ZM37.6792 99H42.4392V0.999993H37.6792V99ZM51.3817 24.8V53.22L47.7417 54.76C45.3617 55.74 44.2417 57.42 44.2417 59.94V95.36C44.2417 97.88 45.3617 99.42 47.4617 99.42C49.1417 99.42 50.5417 98.58 51.3817 97.18V99H56.1417V25.64C56.1417 21.44 54.0417 19.2 50.1217 19.2C46.3417 19.2 44.2417 21.58 44.2417 25.64V50.84H49.0017V24.8C49.0017 23.96 49.4217 23.54 50.1217 23.54C50.8217 23.54 51.3817 23.96 51.3817 24.8ZM49.0017 93.96V59.8C49.0017 59.1 49.2817 58.54 49.9817 58.26L51.3817 57.7V93.96C51.1017 94.66 50.5417 95.08 49.9817 95.08C49.2817 95.08 49.0017 94.66 49.0017 93.96ZM64.7736 24.8V99H69.5336V24.66C69.6736 24.1 70.2336 23.68 70.6536 23.68C71.3536 23.68 71.6336 23.96 71.6336 24.8V99H76.3936V23.26C76.3936 20.6 75.4136 19.2 73.3136 19.2C71.6336 19.2 70.2336 20.04 69.3936 21.72C68.9736 20.04 67.9936 19.2 66.4536 19.2C64.9136 19.2 63.5136 20.04 62.6736 21.44V19.76H57.9136V99H62.6736V24.66C62.9536 23.96 63.3736 23.68 63.9336 23.68C64.4936 23.68 64.7736 23.96 64.7736 24.8ZM85.2508 99H90.0108L91.1308 48.04H91.4108L92.5308 99H97.2908L94.9108 45.94L97.2908 0.999993H92.5308L91.4108 43.84H91.1308L90.0108 0.999993H85.2508L87.7708 45.94L85.2508 99ZM98.5125 99H103.273L104.393 48.04H104.673L105.793 99H110.553L108.173 45.94L110.553 0.999993H105.793L104.673 43.84H104.393L103.273 0.999993H98.5125L101.033 45.94L98.5125 99ZM111.774 99H116.534L117.654 48.04H117.934L119.054 99H123.814L121.434 45.94L123.814 0.999993H119.054L117.934 43.84H117.654L116.534 0.999993H111.774L114.294 45.94L111.774 99ZM130.786 99.42C134.706 99.42 136.806 97.32 136.806 93.12V61.76H132.046V93.96C132.046 94.66 131.626 95.22 130.786 95.22C130.086 95.22 129.666 94.8 129.666 93.96V5.9C129.666 5.2 130.086 4.77999 130.786 4.77999C131.626 4.77999 132.046 5.2 132.046 5.9V37.68H136.806V6.73999C136.806 2.68 134.706 0.439992 130.786 0.439992C127.006 0.439992 124.906 2.68 124.906 6.73999V93.12C124.906 97.18 127.006 99.42 130.786 99.42ZM145.718 24.8V99H150.478V23.4C150.478 20.88 149.358 19.2 147.258 19.2C145.578 19.2 144.318 20.04 143.338 21.44V19.76H138.578V99H143.338V24.8C143.618 23.96 144.038 23.68 144.738 23.68C145.298 23.68 145.718 23.96 145.718 24.8ZM155.47 99.42C157.15 99.42 158.55 98.58 159.39 97.18V99H164.15V0.999993H159.39V21.44C158.55 20.04 157.15 19.2 155.47 19.2C153.37 19.2 152.25 20.88 152.25 23.4V95.36C152.25 97.88 153.37 99.42 155.47 99.42ZM157.01 93.96V24.8C157.01 23.96 157.29 23.68 157.99 23.68C158.55 23.68 159.11 23.96 159.39 24.8V93.96C159.11 94.66 158.55 95.08 157.99 95.08C157.29 95.08 157.01 94.66 157.01 93.96Z" fill="white"/>
</svg>
