<svg width="293" height="100" viewBox="0 0 293 100" fill="none" xmlns="http://www.w3.org/2000/svg">
<path d="M0.158984 99H4.63898L6.87898 69.04H16.399L18.499 99H22.979L15.419 0.999993H7.71898L0.158984 99ZM7.15898 64.84L11.499 5.2H11.779L16.119 64.84H7.15898ZM32.4005 99.56C34.3605 99.56 36.1805 99.42 37.3005 99V95.36H33.5205C31.5605 95.36 30.5805 94.24 30.5805 92.28V24.52H37.3005V20.32H30.5805V6.6H26.6605L25.9605 20.32H21.7605V24.52H25.9605V92.84C25.9605 96.9 28.0605 99.56 32.4005 99.56ZM64.3348 99.7C72.7348 99.7 77.4948 94.8 77.4948 86.54V58.12C77.4948 51.12 75.3948 48.04 69.3748 46.22L64.7548 44.68C61.9548 43.7 60.9748 42.44 60.9748 39.22V11.08C60.9748 9.12 62.2348 7.86 64.3348 7.86C66.2948 7.86 67.5548 9.12 67.5548 11.08V37.68H77.4948V13.46C77.4948 5.06 72.7348 0.159996 64.3348 0.159996C55.9348 0.159996 51.0348 5.06 51.0348 13.46V41.32C51.0348 47.34 53.5548 50.84 59.2948 52.66L64.0548 54.2C66.7148 55.04 67.5548 56.3 67.5548 59.66V88.78C67.5548 90.74 66.4348 92 64.3348 92C62.2348 92 60.9748 90.74 60.9748 88.78V61.76H51.0348V86.54C51.0348 94.8 55.9348 99.7 64.3348 99.7ZM80.2926 99H90.2326V0.999993H80.2926V99ZM109.527 29.98V53.08L99.0274 57.28C95.1074 58.96 93.0074 61.9 93.0074 66.1V90.18C93.0074 96.34 95.8074 99.7 101.267 99.7C104.627 99.7 107.567 98.3 109.527 95.92V99H119.467V32.22C119.467 23.82 114.707 18.92 106.307 18.92C97.9074 18.92 93.0074 23.82 93.0074 32.22V50.84H102.947V29.98C102.947 27.88 104.207 26.62 106.307 26.62C108.267 26.62 109.527 27.88 109.527 29.98ZM102.947 88.78V66.1C102.947 64.42 103.647 63.44 105.187 62.74L109.527 60.92V88.92C108.967 90.88 107.567 92 105.747 92C103.787 92 102.947 91.02 102.947 88.78ZM138.225 29.56V99H148.165V29.84C148.865 27.74 150.125 26.62 151.945 26.62C153.485 26.62 154.185 27.6 154.185 29.56V99H164.125V28.02C164.125 22 161.605 18.92 156.425 18.92C152.365 18.92 149.285 20.6 147.465 23.54C146.485 20.46 144.105 18.92 140.465 18.92C136.965 18.92 134.025 20.32 132.205 22.84V19.76H122.265V99H132.205V29.84C132.905 27.74 134.165 26.62 135.985 26.62C137.525 26.62 138.225 27.6 138.225 29.56ZM178.304 99H188.244L192.024 50.14H192.304L196.084 99H206.024L200.284 46.5L206.024 0.999993H196.084L192.304 42.44H192.024L188.244 0.999993H178.304L184.044 46.5L178.304 99ZM220.468 99.7C228.868 99.7 233.628 94.94 233.628 86.54V61.76H223.688V88.78C223.688 90.88 222.428 92 220.468 92C218.368 92 217.108 90.88 217.108 88.78V11.08C217.108 9.12 218.368 7.86 220.468 7.86C222.428 7.86 223.688 9.12 223.688 11.08V37.68H233.628V13.46C233.628 5.06 228.868 0.159996 220.468 0.159996C212.068 0.159996 207.168 5.06 207.168 13.46V86.54C207.168 94.94 212.068 99.7 220.468 99.7ZM252.945 29.98V99H262.885V28.58C262.885 22.42 260.085 18.92 254.625 18.92C251.125 18.92 248.185 20.32 246.365 22.84V19.76H236.425V99H246.365V29.84C247.065 27.74 248.325 26.62 250.285 26.62C252.105 26.62 252.945 27.74 252.945 29.98ZM274.083 99.7C277.443 99.7 280.243 98.3 282.203 95.92V99H292.143V0.999993H282.203V22.7C280.243 20.32 277.443 18.92 274.083 18.92C268.623 18.92 265.683 22.28 265.683 28.44V90.18C265.683 96.34 268.623 99.7 274.083 99.7ZM275.623 88.78V29.98C275.623 27.74 276.463 26.62 278.423 26.62C280.243 26.62 281.643 27.74 282.203 29.84V88.92C281.643 90.88 280.243 92 278.423 92C276.463 92 275.623 91.02 275.623 88.78Z" fill="white"/>
</svg>
