<svg width="413" height="99" viewBox="0 0 413 99" fill="none" xmlns="http://www.w3.org/2000/svg">
<path d="M0.859688 97H8.06769L12.0117 70.48H30.7797L34.7237 97H41.9317L26.9717 1.79999H15.8197L0.859688 97ZM13.0997 63.816L21.3957 8.464H21.6677L29.8277 63.816H13.0997ZM57.4856 97.952C60.2056 97.952 63.3336 97.68 65.5096 97V91.288H58.3016C54.9016 91.288 53.4056 89.384 53.4056 86.12V27.232H65.5096V20.568H53.4056V7.24H47.0136L46.1976 20.568H38.4456V27.232H46.1976V86.936C46.1976 93.328 49.4616 97.952 57.4856 97.952ZM106.428 98.088C119.212 98.088 126.692 90.744 126.692 78.096V61.776C126.692 50.76 123.156 46.272 112.684 43.552L106.836 41.92C102.076 40.696 100.444 38.928 100.444 34.44V17.44C100.444 13.768 102.892 11.456 106.428 11.456C110.1 11.456 112.412 13.768 112.412 17.44V37.432H126.692V20.704C126.692 8.05599 119.212 0.711999 106.428 0.711999C93.7796 0.711999 86.2996 8.05599 86.2996 20.704V35.936C86.2996 45.184 91.0596 50.896 100.988 53.616L106.7 55.112C111.596 56.472 112.412 57.696 112.412 62.728V81.36C112.412 85.032 110.1 87.344 106.428 87.344C102.892 87.344 100.444 85.032 100.444 81.36V60.824H86.2996V78.096C86.2996 90.744 93.7796 98.088 106.428 98.088ZM131.456 97H145.6V1.79999H131.456V97ZM176.56 35.528V50.896L159.152 57.832C153.576 60.144 150.448 64.496 150.448 70.344V82.992C150.448 92.784 155.072 98.088 163.912 98.088C169.216 98.088 173.568 95.912 176.56 92.24V97H190.84V38.792C190.84 26.28 183.36 18.936 170.712 18.936C157.928 18.936 150.448 26.28 150.448 38.792V50.216H164.592V35.528C164.592 31.992 167.04 29.544 170.576 29.544C174.248 29.544 176.56 31.992 176.56 35.528ZM164.592 81.496V70.616C164.592 67.76 165.68 66.128 168.4 64.904L176.56 61.64V81.768C175.608 85.44 173.024 87.48 169.624 87.48C166.224 87.48 164.592 85.576 164.592 81.496ZM220.764 35.392V97H235.044V35.12C236.132 31.312 238.58 29.408 242.116 29.408C244.836 29.408 246.06 31.176 246.06 35.392V97H260.204V34.032C260.204 24.104 255.988 18.936 247.692 18.936C241.436 18.936 236.54 21.384 233.684 25.872C231.916 21.248 228.244 18.936 222.668 18.936C216.956 18.936 212.604 20.976 209.748 24.784V20.024H195.604V97H209.748V35.12C210.836 31.312 213.42 29.408 216.82 29.408C219.54 29.408 220.764 31.176 220.764 35.392ZM301.928 98.088C314.712 98.088 322.192 90.744 322.192 78.096V60.824H307.912V81.36C307.912 85.032 305.6 87.344 301.928 87.344C298.392 87.344 295.944 85.032 295.944 81.36V17.304C295.944 13.768 298.392 11.32 301.928 11.32C305.6 11.32 307.912 13.768 307.912 17.304V37.432H322.192V20.568C322.192 8.05599 314.712 0.711999 301.928 0.711999C289.28 0.711999 281.8 8.05599 281.8 20.568V78.096C281.8 90.744 289.28 98.088 301.928 98.088ZM353.068 35.392V97H367.348V34.032C367.348 24.104 362.724 18.936 354.02 18.936C348.308 18.936 343.956 20.976 341.1 24.784V20.024H326.956V97H341.1V35.12C342.188 31.312 344.772 29.408 348.172 29.408C351.572 29.408 353.068 31.176 353.068 35.392ZM385.44 98.088C391.016 98.088 395.368 96.048 398.224 92.376V97H412.504V1.79999H398.224V24.648C395.368 20.976 391.016 18.936 385.44 18.936C376.6 18.936 372.112 24.104 372.112 33.896V82.992C372.112 92.784 376.6 98.088 385.44 98.088ZM386.256 81.496V35.392C386.256 31.176 387.752 29.408 391.152 29.408C394.688 29.408 397.136 31.312 398.224 35.12V81.768C397.136 85.576 394.688 87.616 391.152 87.616C387.752 87.616 386.256 85.712 386.256 81.496Z" fill="white"/>
</svg>
