<svg width="694" height="100" viewBox="0 0 694 100" fill="none" xmlns="http://www.w3.org/2000/svg">
<path d="M0.759063 98L32.3111 2.79999H49.9911L81.5431 98H68.6231L61.1431 74.744H21.1591L13.6791 98H0.759063ZM24.2871 64.68H57.8791L41.4231 13.272H40.7431L24.2871 64.68ZM121.597 98C109.221 98 102.557 91.336 102.557 78.96V37.616H82.8372V28.232H102.557L103.917 6.88H114.797V28.232H140.909V37.616H114.797V78.552C114.797 85.08 118.333 88.616 124.725 88.616H140.909V98H121.597ZM219.038 98V19.12H193.47V2.79999H265.55V19.12H239.982V98H219.038ZM331.611 85.352C324.811 94.464 314.339 99.36 301.555 99.36C278.843 99.36 265.651 85.216 265.651 62.64C265.651 40.064 278.979 25.92 300.331 25.92C321.683 25.92 335.011 40.064 335.011 62.64V68.624H286.867C287.547 78.96 291.899 84.4 301.011 84.4H302.099C308.083 84.4 312.571 81.272 316.243 74.88L331.611 85.352ZM286.867 56.656H313.795C313.115 46.32 308.763 40.88 300.875 40.88H299.787C291.899 40.88 287.547 46.32 286.867 56.656ZM340.493 98L364.157 61.552V60.872L342.397 27.28H363.885L376.941 48.632H377.621L390.541 27.28H411.757L389.861 60.192V60.872L413.661 98H392.173L377.213 73.112H376.533L361.709 98H340.493ZM457.878 98C443.734 98 436.118 90.384 436.118 76.24V41.968H419.118V27.28H436.118L438.838 6.88H456.518V27.28H478.958V41.968H456.518V75.152C456.518 80.456 459.374 83.312 464.678 83.312H478.958V98H457.878ZM556.614 27.28V98H536.214V85.488H535.534C531.726 94.872 525.334 99.36 515.406 99.36C499.902 99.36 491.878 89.432 491.878 70.256V27.28H512.278V70.256C512.278 79.232 516.086 83.448 524.246 83.448C532.406 83.448 536.214 79.232 536.214 70.256V27.28H556.614ZM592.206 99.36C577.926 99.36 570.854 92.288 570.854 78.008C570.854 64.816 579.15 57.608 594.518 57.608H613.83V55.024C613.83 46.048 610.022 41.832 601.862 41.832C595.198 41.832 591.39 44.688 589.214 51.216L571.67 44.416C575.07 32.312 585.542 25.92 601.862 25.92C623.894 25.92 634.23 35.168 634.23 55.024V79.64C634.23 82.632 635.046 83.312 637.902 83.312H640.894V98H629.198C621.174 98 615.326 93.92 613.83 87.256H613.15C607.982 95.96 602.134 99.36 592.206 99.36ZM600.094 86.44C608.798 86.44 613.83 81.544 613.83 72.976V69.576H600.094C593.43 69.576 590.71 72.024 590.71 77.464V78.552C590.71 83.992 593.43 86.44 600.094 86.44ZM679.643 98C665.499 98 657.883 90.384 657.883 76.24V14.768H642.243V0.0799961H678.283V75.152C678.283 80.456 681.139 83.312 686.443 83.312H693.923V98H679.643Z" fill="white"/>
</svg>
