<svg width="623" height="103" viewBox="0 0 623 103" fill="none" xmlns="http://www.w3.org/2000/svg">
<path d="M32.3709 13.008C34.5469 7.296 37.5389 4.984 43.1149 4.984C48.6909 4.984 51.6829 7.296 53.8589 13.008L84.5949 93.112C85.0029 94.2 85.2749 95.424 85.2749 96.512C85.2749 99.776 82.5549 101.816 78.6109 101.816C75.2109 101.816 73.4429 100.048 72.0829 96.376L63.7869 73.936H22.7149L14.4189 96.376C13.0589 100.184 11.2909 101.816 8.02691 101.816C3.94691 101.816 0.954906 99.912 0.954906 96.512C0.954906 95.56 1.22691 94.472 1.63491 93.384L32.3709 13.008ZM27.0669 61.832H59.2989L43.1149 18.312L27.0669 61.832ZM110.111 14.64C114.463 14.64 116.231 16.544 116.231 21.44V34.632H128.471C133.367 34.632 135.271 36.128 135.271 40.072C135.271 44.016 133.367 45.512 128.471 45.512H116.231V79.512C116.231 89.032 120.311 91.48 127.111 91.48C128.607 91.48 129.695 91.072 131.463 91.072C133.911 91.072 135.271 93.52 135.271 96.376C135.271 101.136 129.423 102.496 124.255 102.496C111.199 102.496 103.991 95.424 103.991 79.512V45.512H97.7348C92.8388 45.512 90.9348 44.016 90.9348 40.072C90.9348 36.128 92.8388 34.632 97.7348 34.632H103.991V21.44C103.991 16.544 105.759 14.64 110.111 14.64ZM221.884 102.632C198.764 102.632 183.94 87.944 183.94 65.368V16.544C183.94 8.112 186.796 4.848 194.276 4.848C201.756 4.848 204.476 8.112 204.476 16.544V65.368C204.476 75.976 211.004 82.232 221.884 82.232C232.764 82.232 239.156 75.976 239.156 65.368V16.544C239.156 8.112 242.148 4.848 249.492 4.848C256.972 4.848 259.828 8.112 259.828 16.544V65.368C259.828 87.944 244.868 102.632 221.884 102.632ZM289.082 101.952C281.874 101.952 279.154 98.96 279.154 91.072V43.064C279.154 35.176 281.874 32.184 289.082 32.184C295.746 32.184 298.466 34.768 298.874 41.704C302.002 35.72 309.89 31.504 318.458 31.504C327.434 31.504 334.234 35.04 338.178 41.432C343.618 34.768 350.69 31.504 360.074 31.504C375.306 31.504 384.554 41.704 384.554 58.296V91.072C384.554 98.96 381.834 101.952 374.626 101.952C367.554 101.952 364.834 98.96 364.834 91.072V61.696C364.834 54.08 360.618 49.592 353.274 49.592C346.338 49.592 341.714 54.488 341.714 61.968V91.072C341.714 98.96 338.994 101.952 331.786 101.952C324.714 101.952 321.994 98.96 321.994 91.072V61.696C321.994 54.08 317.778 49.592 310.57 49.592C303.634 49.592 298.874 54.624 298.874 61.968V91.072C298.874 98.96 296.154 101.952 289.082 101.952ZM420.621 102.632C406.613 102.632 397.773 94.472 397.773 81.416C397.773 68.224 407.429 60.336 423.205 60.336C430.277 60.336 435.853 61.56 440.205 64.144V57.072C440.205 50.952 436.397 47.552 429.325 47.552C425.109 47.552 422.253 48.504 419.261 50.272C415.317 52.856 413.549 54.76 410.421 54.76C405.797 54.76 402.261 51.088 402.261 46.464C402.261 44.424 403.349 41.976 404.845 40.344C409.333 34.632 418.173 31.504 429.325 31.504C448.773 31.504 459.925 41.024 459.925 57.48V91.072C459.925 98.96 457.205 101.952 450.133 101.952C443.877 101.952 440.885 99.912 440.341 94.336C435.853 100.32 429.869 102.632 420.621 102.632ZM428.781 88.488C436.261 88.488 440.885 85.36 440.885 80.328C440.885 75.432 436.805 72.712 428.781 72.712C421.165 72.712 417.357 75.432 417.357 80.736C417.357 85.768 421.301 88.488 428.781 88.488ZM487.902 101.952C480.694 101.952 477.974 98.96 477.974 91.072V43.064C477.974 35.176 480.694 32.184 487.902 32.184C494.566 32.184 497.286 34.768 497.694 41.704C500.822 35.72 508.71 31.504 517.278 31.504C526.254 31.504 533.054 35.04 536.998 41.432C542.438 34.768 549.51 31.504 558.894 31.504C574.126 31.504 583.374 41.704 583.374 58.296V91.072C583.374 98.96 580.654 101.952 573.446 101.952C566.374 101.952 563.654 98.96 563.654 91.072V61.696C563.654 54.08 559.438 49.592 552.094 49.592C545.158 49.592 540.534 54.488 540.534 61.968V91.072C540.534 98.96 537.814 101.952 530.606 101.952C523.534 101.952 520.814 98.96 520.814 91.072V61.696C520.814 54.08 516.598 49.592 509.39 49.592C502.454 49.592 497.694 54.624 497.694 61.968V91.072C497.694 98.96 494.974 101.952 487.902 101.952ZM611.417 101.952C604.209 101.952 601.489 98.96 601.489 91.072V43.064C601.489 35.176 604.209 32.184 611.417 32.184C618.489 32.184 621.209 35.176 621.209 43.064V91.072C621.209 98.96 618.489 101.952 611.417 101.952ZM611.417 23.888C604.209 23.888 599.721 19.4 599.721 12.192C599.721 5.11999 604.209 0.631995 611.417 0.631995C618.489 0.631995 622.977 5.11999 622.977 12.192C622.977 19.4 618.489 23.888 611.417 23.888Z" fill="white"/>
</svg>
