<svg width="718" height="98" viewBox="0 0 718 98" fill="none" xmlns="http://www.w3.org/2000/svg">
<path d="M0.636782 96V0.799994H38.9888C57.7568 0.799994 70.1328 10.864 70.1328 26.232C70.1328 35.752 65.5088 42.96 56.8048 46.768C67.6848 49.76 73.8048 57.512 73.8048 69.616C73.8048 86.072 62.5168 96 41.5728 96H0.636782ZM16.0048 82.672H40.6208C52.4528 82.672 58.0288 77.776 58.0288 68.528C58.0288 59.416 52.4528 54.52 40.6208 54.52H16.0048V82.672ZM16.0048 41.192H38.5808C49.4608 41.192 54.7648 36.024 54.7648 27.728C54.7648 19.296 49.4608 14.128 38.5808 14.128H16.0048V41.192ZM120.095 97.088C98.6067 97.088 83.5107 82.536 83.5107 60.776C83.5107 38.472 99.5587 23.24 120.367 23.24C139.951 23.24 154.775 36.84 154.775 58.192C154.775 60.232 154.639 62 154.503 63.496H98.0627C99.2867 77.504 108.671 84.712 120.503 84.712C129.343 84.712 136.415 80.768 139.543 74.24H153.823C149.879 88.52 136.687 97.088 120.095 97.088ZM98.7427 52.48H139.951C138.183 41.056 130.567 35.48 120.367 35.48C109.895 35.48 101.463 41.464 98.7427 52.48ZM222.342 96C209.15 96 202.214 89.064 202.214 75.872V6.24H216.902V24.328H238.254L234.174 37.112H216.902V73.288C216.902 80.496 219.486 83.08 226.694 83.08H238.254V96H222.342ZM250.956 96V0.799994H265.644V34.664C270.676 27.456 279.38 23.24 289.444 23.24C305.22 23.24 315.556 33.44 315.556 51.12V96H300.868V55.064C300.868 42.688 294.612 36.704 284.82 36.704C273.94 36.704 265.644 44.048 265.644 57.512V96H250.956ZM364.868 97.088C343.38 97.088 328.284 82.536 328.284 60.776C328.284 38.472 344.332 23.24 365.14 23.24C384.724 23.24 399.548 36.84 399.548 58.192C399.548 60.232 399.412 62 399.276 63.496H342.836C344.06 77.504 353.444 84.712 365.276 84.712C374.116 84.712 381.188 80.768 384.316 74.24H398.596C394.652 88.52 381.46 97.088 364.868 97.088ZM343.516 52.48H384.724C382.956 41.056 375.34 35.48 365.14 35.48C354.668 35.48 346.236 41.464 343.516 52.48ZM485.612 97.088C475.276 97.088 466.3 92.464 461.54 85.528V96H446.988V0.799994H461.676V34.664C466.436 27.728 475.276 23.24 485.612 23.24C504.38 23.24 519.34 38.336 519.34 60.232C519.34 81.992 504.38 97.088 485.612 97.088ZM461.268 60.232C461.268 74.512 470.244 84.032 482.756 84.032C495.404 84.032 504.38 74.512 504.38 60.232C504.38 45.816 495.404 36.296 482.756 36.296C470.244 36.296 461.268 45.816 461.268 60.232ZM565.149 97.088C543.661 97.088 528.565 82.536 528.565 60.776C528.565 38.472 544.613 23.24 565.421 23.24C585.005 23.24 599.829 36.84 599.829 58.192C599.829 60.232 599.693 62 599.557 63.496H543.117C544.341 77.504 553.725 84.712 565.557 84.712C574.397 84.712 581.469 80.768 584.597 74.24H598.877C594.933 88.52 581.741 97.088 565.149 97.088ZM543.797 52.48H585.005C583.237 41.056 575.621 35.48 565.421 35.48C554.949 35.48 546.517 41.464 543.797 52.48ZM639.375 97.088C621.423 97.088 609.591 88.112 608.775 73.288H622.919C624.007 80.768 630.263 85.12 640.055 85.12C649.575 85.12 654.743 81.04 654.743 75.056C654.743 70.432 651.615 67.984 641.551 66.08L630.263 64.04C615.711 61.32 609.591 54.792 609.591 45.136C609.591 32.352 620.471 23.24 638.831 23.24C656.647 23.24 667.119 31.672 668.343 46.224H654.063C653.111 39.152 647.671 35.072 637.879 35.072C628.495 35.072 623.735 38.88 623.735 44.184C623.735 48.264 626.455 50.576 636.791 52.48L648.079 54.52C662.223 57.104 668.887 63.36 668.887 73.968C668.887 87.568 658.007 97.088 639.375 97.088ZM702.061 96C688.869 96 681.933 89.064 681.933 75.872V6.24H696.621V24.328H717.973L713.893 37.112H696.621V73.288C696.621 80.496 699.205 83.08 706.413 83.08H717.973V96H702.061Z" fill="white"/>
</svg>
