<svg width="728" height="122" viewBox="0 0 728 122" fill="none" xmlns="http://www.w3.org/2000/svg">
<path d="M56.4508 50.032C68.2828 47.176 74.8108 38.88 74.8108 26.368C74.8108 9.368 63.7948 1.072 41.4908 1.072H0.690751V96H38.9068C60.3948 96 71.4108 87.704 71.4108 71.52C71.4108 60.64 65.9708 53.16 56.4508 50.032ZM40.2668 11.68C54.8188 11.68 61.3468 16.712 61.3468 27.728C61.3468 38.608 54.8188 43.776 41.0828 43.776H14.0188V11.68H40.2668ZM14.0188 85.256V54.52H36.8668C50.8748 54.52 57.9468 59.552 57.9468 69.888C57.9468 80.224 51.5548 85.256 38.4988 85.256H14.0188ZM140.115 62.68C140.115 76.688 132.227 85.392 119.307 85.392C107.611 85.392 101.219 77.504 101.219 63.496V26.096H88.2992V65.808C88.2992 84.984 98.7712 96.816 116.043 96.816C126.923 96.816 135.491 92.056 140.659 83.624V96H153.035V26.096H140.115V62.68ZM193.51 96.816C208.334 96.816 218.398 88.656 218.398 76.688C218.398 64.856 210.918 59.688 199.222 56.832L192.014 55.064C182.63 52.616 179.366 50.44 179.366 45C179.366 39.288 184.942 35.48 192.83 35.48C202.078 35.48 207.518 39.424 209.422 47.448L221.118 44.32C218.126 32.216 208.062 25.28 192.83 25.28C177.462 25.28 167.126 33.304 167.126 45.408C167.126 57.24 174.062 62.68 187.39 65.672L194.462 67.168C201.806 68.8 206.022 71.52 206.022 77.232C206.022 82.944 201.262 86.616 193.51 86.616C186.166 86.616 181.406 82.944 179.366 75.872L167.67 78.456C170.39 89.744 179.638 96.816 193.51 96.816ZM284.748 62.68C284.748 76.688 276.86 85.392 263.94 85.392C252.244 85.392 245.852 77.504 245.852 63.496V26.096H232.932V65.808C232.932 84.984 243.404 96.816 260.676 96.816C271.556 96.816 280.124 92.056 285.292 83.624V96H297.668V26.096H284.748V62.68ZM354.055 25.28C342.767 25.28 333.655 30.312 328.079 38.744V26.096H315.839V121.568H328.759V84.032C334.335 92.056 343.311 96.816 354.055 96.816C374.047 96.816 387.647 82.264 387.647 61.048C387.647 39.832 374.047 25.28 354.055 25.28ZM351.607 85.528C337.871 85.528 328.215 75.328 328.215 61.048C328.215 46.632 338.007 36.432 351.607 36.432C365.207 36.432 374.727 46.632 374.727 61.048C374.727 75.464 365.207 85.528 351.607 85.528ZM467.023 96.816C485.111 96.816 496.807 86.48 496.807 70.16C496.807 57.648 490.279 50.44 473.959 45.272L463.079 41.872C451.111 38.2 446.215 33.44 446.215 25.552C446.215 16.712 453.151 11.272 464.439 11.272C476.951 11.272 485.111 17.936 487.831 30.584L500.615 27.728C497.351 10.728 483.887 0.255992 464.439 0.255992C445.263 0.255992 432.887 10.32 432.887 25.824C432.887 39.832 440.503 48.128 458.183 53.568L467.839 56.424C479.807 60.096 483.479 63.632 483.479 71.52C483.479 80.36 476.951 85.8 466.751 85.8C456.007 85.8 449.615 80.632 447.439 69.888L434.927 72.064C437.647 87.432 449.615 96.816 467.023 96.816ZM537.501 96.816C548.653 96.816 558.445 92.056 563.477 84.032V96H575.717V53.296C575.717 35.888 564.973 25.28 546.205 25.28C530.293 25.28 519.685 31.944 515.333 44.864L526.893 48.944C529.885 39.696 535.325 36.024 546.069 36.024C556.949 36.024 562.797 42.144 562.797 52.888V61.728C557.629 57.648 548.381 54.52 539.677 54.52C522.813 54.52 512.205 62.952 512.205 76.144C512.205 89.2 521.589 96.816 537.501 96.816ZM539.949 87.024C530.565 87.024 524.853 83.08 524.853 76.008C524.853 68.528 531.109 64.04 541.173 64.04C550.557 64.04 558.309 66.896 563.205 72.2C560.213 80.496 550.149 87.024 539.949 87.024ZM631.212 25.28C620.06 25.28 611.356 30.04 606.188 38.608V26.096H593.948V96H606.868V59.552C606.868 45.272 614.756 36.568 627.812 36.568C639.78 36.568 646.444 44.456 646.444 58.6V96H659.364V56.288C659.364 37.112 648.62 25.28 631.212 25.28ZM699.791 96.816C714.615 96.816 724.679 88.656 724.679 76.688C724.679 64.856 717.199 59.688 705.503 56.832L698.295 55.064C688.911 52.616 685.647 50.44 685.647 45C685.647 39.288 691.223 35.48 699.111 35.48C708.359 35.48 713.799 39.424 715.703 47.448L727.399 44.32C724.407 32.216 714.343 25.28 699.111 25.28C683.743 25.28 673.407 33.304 673.407 45.408C673.407 57.24 680.343 62.68 693.671 65.672L700.743 67.168C708.087 68.8 712.303 71.52 712.303 77.232C712.303 82.944 707.543 86.616 699.791 86.616C692.447 86.616 687.687 82.944 685.647 75.872L673.951 78.456C676.671 89.744 685.919 96.816 699.791 96.816Z" fill="white"/>
</svg>
