<svg width="700" height="134" viewBox="0 0 700 134" fill="none" xmlns="http://www.w3.org/2000/svg">
<path d="M3.06566 107H44.8177C81.6737 107 92.9617 88.096 92.9617 58.72C92.9617 29.344 81.6737 10.44 44.8177 10.44H3.06566C1.43366 10.44 0.617656 11.12 0.617656 12.888V104.552C0.617656 106.32 1.43366 107 3.06566 107ZM28.9057 85.24V32.2H43.4577C59.5057 32.2 64.1297 40.768 64.1297 58.72C64.1297 76.672 59.5057 85.24 43.4577 85.24H28.9057ZM127.786 108.632C137.714 108.632 145.874 104.416 150.226 97.072H151.586L152.946 107H175.794C177.018 107 177.834 106.048 177.834 104.824V60.896C177.834 42.808 164.914 32.472 142.474 32.472C132.818 32.472 123.706 33.696 115.546 36.008C113.914 36.416 112.962 37.64 112.69 39.408L110.922 54.368C110.65 56.408 111.058 57.36 112.554 57.36C113.37 57.36 114.458 56.952 115.818 56.68C128.874 53.824 132.818 53.28 139.482 53.28C146.146 53.28 149.682 56 150.09 61.44H135.81C113.914 61.44 102.49 70.144 102.49 85.784C102.49 100.744 111.194 108.632 127.786 108.632ZM128.194 83.608C128.194 79.528 130.642 77.08 135.81 77.08H150.09C149.682 85.104 144.378 90.272 136.218 90.272C131.05 90.272 128.194 87.96 128.194 83.608ZM225.608 108.632H227.512C241.112 108.632 243.968 107.408 249.136 92.584L268.448 37.096C269.128 35.328 268.04 34.104 266.136 34.104H242.608L227.104 87.008H225.744L210.24 34.104H185.624C184.128 34.104 183.176 34.92 183.176 36.144C183.176 36.416 183.176 36.824 183.312 37.096L202.624 92.584C207.792 107.544 212.008 108.632 225.608 108.632ZM304.412 34.104H280.884C279.796 34.104 278.844 35.056 278.844 36.144V104.96C278.844 106.048 279.796 107 280.884 107H304.412C305.636 107 306.452 106.184 306.452 104.96V36.144C306.452 34.92 305.636 34.104 304.412 34.104ZM277.212 14.248C277.212 23.36 282.38 27.984 292.716 27.984C302.916 27.984 308.084 23.36 308.084 14.248C308.084 5.136 302.916 0.375995 292.716 0.375995C282.38 0.375995 277.212 5.136 277.212 14.248ZM354.053 108.632C377.853 108.632 389.141 101.152 389.141 85.648C389.141 70.96 384.381 65.656 367.245 61.576L354.325 58.448C349.429 57.224 348.069 56.544 348.069 54.64C348.069 52.464 349.973 51.512 354.597 51.512C361.805 51.512 370.373 52.6 379.621 54.776C381.253 55.184 382.749 55.592 383.565 55.592C385.061 55.592 385.469 54.776 385.469 53.416L386.149 39.408C386.285 37.232 385.877 36.688 383.565 35.736C376.901 33.696 366.701 32.472 355.277 32.472C333.925 32.472 322.501 40.496 322.501 55.592C322.501 69.872 329.165 76.4 347.525 80.48L359.765 83.2C363.165 84.016 363.981 84.56 363.981 86.192C363.981 88.64 361.397 89.592 355.005 89.592C348.477 89.592 338.957 88.232 326.309 85.512C325.221 85.24 323.861 84.968 323.181 84.968C321.277 84.968 321.277 86.056 321.549 88.096L323.045 102.104C323.317 104.144 324.133 104.96 326.173 105.504C333.653 107.544 343.037 108.632 354.053 108.632ZM482.673 108.632C491.241 108.632 501.441 107.408 507.289 105.504C509.057 104.96 509.873 104.008 510.145 101.832L512.457 84.56C512.729 82.792 512.457 81.568 510.825 81.568C510.145 81.568 509.193 81.84 507.969 82.248C499.945 85.376 491.649 86.872 484.305 86.872C461.593 86.872 458.737 73.952 458.737 58.72C458.737 44.712 461.729 30.568 482.809 30.568C489.609 30.568 497.769 31.656 505.385 34.648C506.745 35.192 507.833 35.464 508.785 35.464C510.009 35.464 510.689 34.784 510.961 32.88L513.137 17.376C513.409 15.472 513.409 14.52 510.417 13.296C505.249 11.256 496.953 8.80799 482.401 8.80799C447.857 8.80799 429.905 24.72 429.905 58.72C429.905 92.72 447.857 108.632 482.673 108.632ZM600.634 34.104H575.066V73.408C575.066 83.608 571.938 87.824 564.458 87.824C556.978 87.824 553.85 83.608 553.85 73.408V34.104H528.282C527.058 34.104 526.242 34.92 526.242 36.144V81.568C526.242 99.52 534.674 108.632 551.402 108.632C562.554 108.632 568.946 105.504 575.066 97.072H576.426L577.786 107H600.634C601.722 107 602.674 106.048 602.674 104.96V36.144C602.674 35.056 601.722 34.104 600.634 34.104ZM670.353 108.632C686.945 108.632 699.185 99.52 699.185 70.96C699.185 41.584 686.945 32.472 670.353 32.472C659.745 32.472 653.897 36.28 649.273 42.264H647.913L646.553 34.104H622.345C621.257 34.104 620.305 35.056 620.305 36.144V131.752C620.305 132.84 621.257 133.792 622.345 133.792H647.913V98.84H649.273C653.897 104.824 659.745 108.632 670.353 108.632ZM646.553 70.552C646.553 58.992 650.633 53.28 658.929 53.28C667.225 53.28 671.305 58.992 671.305 70.552C671.305 82.112 667.225 87.824 658.929 87.824C650.633 87.824 646.553 82.112 646.553 70.552Z" fill="white"/>
</svg>
