<svg width="826" height="124" viewBox="0 0 826 124" fill="none" xmlns="http://www.w3.org/2000/svg">
<path d="M0.0470319 3.15999C0.0470319 2.34399 0.591032 1.79999 1.40703 1.79999H64.783C65.599 1.79999 66.143 2.34399 66.143 3.15999V9.95999C66.143 10.776 65.599 11.32 64.783 11.32H13.375C11.063 11.32 9.56703 12.816 9.56703 15.128V42.464C10.791 41.648 12.015 40.968 13.375 40.288V16.488C13.375 15.672 13.919 15.128 14.735 15.128H64.783C65.599 15.128 66.143 15.672 66.143 16.488V23.288C66.143 24.104 65.599 24.648 64.783 24.648H22.895V37.976C24.255 37.84 25.751 37.704 27.247 37.704H62.063C62.879 37.704 63.423 38.248 63.423 39.064V45.456C63.423 46.272 62.879 46.816 62.063 46.816H27.791C16.095 46.816 9.56703 53.344 9.56703 65.04V83.672C9.56703 85.984 11.063 87.48 13.375 87.48H65.871C66.687 87.48 67.231 88.024 67.231 88.84V95.64C67.231 96.456 66.687 97 65.871 97H1.40703C0.591032 97 0.0470319 96.456 0.0470319 95.64V3.15999ZM14.735 83.672C13.919 83.672 13.375 83.128 13.375 82.312V65.04C13.375 55.248 17.999 50.624 27.791 50.624H62.063C62.879 50.624 63.423 51.168 63.423 51.984V59.192C63.423 60.008 62.879 60.552 62.063 60.552H28.335C24.799 60.552 22.895 62.456 22.895 65.992V74.152H65.871C66.687 74.152 67.231 74.696 67.231 75.512V82.312C67.231 83.128 66.687 83.672 65.871 83.672H14.735ZM82.3908 24.512C82.3908 10.096 92.0468 0.711999 107.007 0.711999C121.287 0.711999 129.991 8.6 131.623 23.016L137.335 72.656C137.471 74.288 138.423 75.24 139.919 75.24C141.551 75.24 142.503 74.288 142.639 72.656L148.351 23.016C149.983 8.6 158.823 0.711999 172.967 0.711999C187.655 0.711999 197.583 10.232 197.583 24.512V95.64C197.583 96.456 197.039 97 196.223 97H189.423C188.607 97 188.063 96.456 188.063 95.64V25.872C188.063 16.624 181.807 10.232 172.967 10.232C163.855 10.232 158.143 15.4 156.919 24.784L150.255 73.88C149.167 82.04 146.447 84.76 139.919 84.76C133.527 84.76 130.807 82.04 129.719 73.88L123.055 24.784C121.831 15.4 116.119 10.232 107.007 10.232C98.1668 10.232 91.9108 16.624 91.9108 25.872V95.64C91.9108 96.456 91.3668 97 90.5508 97H83.7508C82.9348 97 82.3908 96.456 82.3908 95.64V24.512ZM97.0788 97C96.2628 97 95.7188 96.456 95.7188 95.64V25.872C95.7188 18.528 100.071 14.04 107.007 14.04C114.487 14.04 118.295 17.576 119.247 25.328L125.911 74.424C127.271 83.944 131.623 88.568 139.919 88.568C148.351 88.568 152.703 83.944 154.063 74.424L160.727 25.328C161.679 17.576 165.487 14.04 172.967 14.04C179.903 14.04 184.255 18.528 184.255 25.872V95.64C184.255 96.456 183.711 97 182.895 97H176.095C175.279 97 174.735 96.456 174.735 95.64V26.688C174.735 24.648 173.919 23.56 172.287 23.56C170.791 23.56 169.975 24.512 169.703 26.28L163.583 76.192C161.815 90.336 153.519 98.088 139.919 98.088C126.319 98.088 118.159 90.472 116.391 76.192L110.271 26.28C109.999 24.512 109.183 23.56 107.687 23.56C106.055 23.56 105.239 24.648 105.239 26.688V95.64C105.239 96.456 104.695 97 103.879 97H97.0788ZM211.531 123.928C210.715 123.928 210.171 123.384 210.171 122.568V115.768C210.171 114.952 210.715 114.408 211.531 114.408H256.819C257.635 114.408 258.179 114.952 258.179 115.768V122.568C258.179 123.384 257.635 123.928 256.819 123.928H211.531ZM211.531 110.6C210.715 110.6 210.171 110.056 210.171 109.24V102.44C210.171 101.624 210.715 101.08 211.531 101.08H256.819C257.635 101.08 258.179 101.624 258.179 102.44V109.24C258.179 110.056 257.635 110.6 256.819 110.6H211.531ZM272.212 97C271.396 97 270.852 96.456 270.852 95.64V3.15999C270.852 2.34399 271.396 1.79999 272.212 1.79999H311.652C339.94 1.79999 357.076 19.752 357.076 49.536C357.076 79.32 340.076 97 311.652 97H272.212ZM280.372 83.672C280.372 85.984 281.868 87.48 284.18 87.48H311.652C334.092 87.48 347.556 73.2 347.556 49.536C347.556 25.6 334.092 11.32 311.652 11.32H284.18C281.868 11.32 280.372 12.816 280.372 15.128V83.672ZM285.54 83.672C284.724 83.672 284.18 83.128 284.18 82.312V16.488C284.18 15.672 284.724 15.128 285.54 15.128H311.652C332.188 15.128 343.748 27.504 343.748 49.536C343.748 71.296 332.188 83.672 311.652 83.672H285.54ZM293.7 74.152H311.652C326.068 74.152 334.228 65.312 334.228 49.536C334.228 33.76 325.932 24.648 311.652 24.648H293.7V74.152ZM372.767 97C371.951 97 371.407 96.456 371.407 95.64V3.15999C371.407 2.34399 371.951 1.79999 372.767 1.79999H379.567C380.383 1.79999 380.927 2.34399 380.927 3.15999V95.64C380.927 96.456 380.383 97 379.567 97H372.767ZM386.095 97C385.279 97 384.735 96.456 384.735 95.64V3.15999C384.735 2.34399 385.279 1.79999 386.095 1.79999H392.895C393.711 1.79999 394.255 2.34399 394.255 3.15999V95.64C394.255 96.456 393.711 97 392.895 97H386.095ZM408.075 30.36C408.075 11.456 418.819 1.79999 439.899 1.79999H475.259C476.075 1.79999 476.619 2.34399 476.619 3.15999V9.95999C476.619 10.776 476.075 11.32 475.259 11.32H439.899C425.755 11.32 417.595 17.712 417.595 29.68C417.595 40.968 424.123 45.728 444.659 50.216C463.971 54.296 467.915 57.424 467.915 68.304C467.915 78.64 462.067 83.672 449.827 83.672H410.795C409.979 83.672 409.435 83.128 409.435 82.312V75.512C409.435 74.696 409.979 74.152 410.795 74.152H450.779C455.811 74.152 458.395 72.248 458.395 68.304C458.395 64.36 455.675 62.456 447.379 60.824L442.619 59.872C417.867 54.976 408.075 46.68 408.075 30.36ZM410.795 97C409.979 97 409.435 96.456 409.435 95.64V88.84C409.435 88.024 409.979 87.48 410.795 87.48H449.827C463.699 87.48 471.723 80.544 471.723 68.304C471.723 55.384 466.011 50.896 445.475 46.408C426.027 42.192 421.403 38.792 421.403 29.68C421.403 19.888 427.387 15.128 439.899 15.128H475.259C476.075 15.128 476.619 15.672 476.619 16.488V23.288C476.619 24.104 476.075 24.648 475.259 24.648H438.539C433.507 24.648 430.923 26.416 430.923 29.952C430.923 33.76 433.915 35.392 444.659 37.568L449.419 38.52C472.811 43.144 481.243 51.032 481.243 68.304C481.243 87.344 470.499 97 449.419 97H410.795ZM494.375 3.15999C494.375 2.34399 494.919 1.79999 495.735 1.79999H532.319C555.847 1.79999 568.359 13.496 568.359 35.528C568.359 57.424 555.847 69.12 532.319 69.12H522.663C519.127 69.12 517.223 71.024 517.223 74.56V95.64C517.223 96.456 516.679 97 515.863 97H509.063C508.247 97 507.703 96.456 507.703 95.64V74.016C507.703 64.224 512.327 59.6 522.119 59.6H532.319C549.319 59.6 558.839 51.032 558.839 35.528C558.839 19.888 549.319 11.32 532.319 11.32H507.703C505.391 11.32 503.895 12.816 503.895 15.128V51.032C505.119 50.08 506.343 49.264 507.703 48.584V16.488C507.703 15.672 508.247 15.128 509.063 15.128H532.319C547.687 15.128 555.031 21.792 555.031 35.528C555.031 49.128 547.687 55.792 532.319 55.792H522.119C510.423 55.792 503.895 62.32 503.895 74.016V95.64C503.895 96.456 503.351 97 502.535 97H495.735C494.919 97 494.375 96.456 494.375 95.64V3.15999ZM517.223 46.272H532.319C540.887 46.272 545.511 42.464 545.511 35.528C545.511 28.456 540.887 24.648 532.319 24.648H517.223V46.272ZM582.063 97C581.247 97 580.703 96.456 580.703 95.64V3.15999C580.703 2.34399 581.247 1.79999 582.063 1.79999H588.863C589.679 1.79999 590.223 2.34399 590.223 3.15999V83.672C590.223 85.984 591.719 87.48 594.031 87.48H644.079C644.895 87.48 645.439 88.024 645.439 88.84V95.64C645.439 96.456 644.895 97 644.079 97H582.063ZM595.391 83.672C594.575 83.672 594.031 83.128 594.031 82.312V3.15999C594.031 2.34399 594.575 1.79999 595.391 1.79999H602.191C603.007 1.79999 603.551 2.34399 603.551 3.15999V74.152H644.079C644.895 74.152 645.439 74.696 645.439 75.512V82.312C645.439 83.128 644.895 83.672 644.079 83.672H595.391ZM673.988 20.84C677.66 7.51199 686.228 0.711999 699.284 0.711999C712.476 0.711999 720.5 7.24 724.308 20.84L744.844 95.504C745.116 96.456 744.572 97 743.62 97H736.82C736.004 97 735.46 96.592 735.324 95.776L732.196 83.808C729.476 73.608 722.54 68.44 712.068 68.44H684.188L683.1 72.248H712.068C721.044 72.248 726.212 76.056 728.388 84.896L731.244 95.504C731.516 96.456 730.972 97 730.02 97H723.084C722.268 97 721.724 96.456 721.588 95.776L719.004 86.392C718.188 83.264 716.148 81.768 713.02 81.768H680.516L676.708 95.776C676.572 96.456 676.028 97 675.212 97H668.276C667.324 97 666.78 96.456 667.052 95.504L686.092 26.144C688.54 17.44 692.348 14.04 699.284 14.04C706.356 14.04 710.164 17.44 712.34 26.144L721.588 60.144C723.22 60.688 724.716 61.232 726.076 61.912L716.148 25.056C713.428 15.128 707.988 10.232 699.284 10.232C690.716 10.232 685.276 15.128 682.556 25.056L662.972 95.912C662.836 96.592 662.292 97 661.476 97H654.676C653.724 97 653.18 96.456 653.452 95.504L673.988 20.84ZM686.636 58.92H711.66L703.364 27.368C702.684 24.784 701.46 23.56 699.284 23.56C697.244 23.56 695.884 24.784 695.204 27.368L686.636 58.92ZM740.719 3.432C740.311 2.47999 740.719 1.79999 741.671 1.79999H748.471C749.151 1.79999 749.831 2.072 750.103 2.752L770.775 43.96C773.495 49.4 777.303 53.208 783.151 53.208C788.727 53.208 792.535 49.4 795.255 43.96L815.927 2.752C816.199 2.072 816.879 1.79999 817.559 1.79999H824.631C825.583 1.79999 825.991 2.47999 825.583 3.432L794.575 62.184V95.64C794.575 96.456 794.031 97 793.215 97H786.415C785.599 97 785.055 96.456 785.055 95.64V62.184H781.247V95.64C781.247 96.456 780.703 97 779.887 97H773.087C772.271 97 771.727 96.456 771.727 95.64V62.184L740.719 3.432ZM754.727 3.432C754.319 2.47999 754.727 1.79999 755.679 1.79999H761.799C762.479 1.79999 763.159 2.072 763.431 2.752L779.615 36.48C780.703 38.792 781.519 39.88 783.151 39.88C784.783 39.88 785.599 38.792 786.687 36.48L802.871 2.752C803.143 2.072 803.823 1.79999 804.503 1.79999H810.351C811.303 1.79999 811.711 2.47999 811.303 3.432L791.991 42.328C789.543 47.088 786.959 49.4 783.151 49.4C779.071 49.4 776.487 47.088 774.039 42.328L754.727 3.432Z" fill="white"/>
</svg>
