<svg width="497" height="112" viewBox="0 0 497 112" fill="none" xmlns="http://www.w3.org/2000/svg">
<path d="M0.823969 97V1.79999H62.84V13.768H14.832V43.144H60.12V55.112H14.832V85.032H64.2V97H0.823969ZM130.42 97.816C120.9 97.816 115.188 92.512 113.556 83.264L101.044 16.488C100.636 14.448 99.6843 13.224 97.6443 13.224C95.7403 13.224 94.6523 14.584 94.6523 16.896V97H80.6443V17.032C80.6443 6.96799 87.0363 0.983996 97.5083 0.983996C106.756 0.983996 112.604 6.15199 114.236 15.4L126.748 82.312C127.292 84.488 128.38 85.576 130.42 85.576C132.46 85.576 133.548 84.488 133.956 82.312L146.468 15.4C148.1 6.15199 154.084 0.983996 163.332 0.983996C173.804 0.983996 180.06 6.96799 180.06 17.032V97H166.052V16.896C166.052 14.584 164.964 13.224 163.06 13.224C161.02 13.224 160.068 14.448 159.66 16.488L147.148 83.264C145.516 92.512 139.804 97.816 130.42 97.816ZM193.939 111.96V101.08H239.907V111.96H193.939ZM270.618 97V13.768H240.29V1.79999H314.954V13.768H284.626V97H270.618ZM341.471 97C320.391 97 309.103 85.304 309.103 63.68C309.103 40.016 320.663 27.096 342.151 27.096C359.967 27.096 372.479 38.792 372.479 55.656C372.479 64.496 367.719 68.984 358.743 68.984H322.975C323.927 80.544 329.639 85.44 341.471 85.44H366.903V97H341.471ZM322.975 58.104H354.663C357.927 58.104 359.015 57.152 359.015 54.568C359.015 44.232 352.759 38.112 342.151 38.112C329.639 38.112 323.791 43.96 322.975 58.104ZM375.993 97L399.657 61.776V61.232L378.033 27.776H393.537L405.641 48.584C406.729 50.624 408.361 51.712 410.265 51.712C412.169 51.712 413.801 50.76 415.025 48.584L426.857 27.776H442.361L420.873 60.416V60.96L444.265 97H428.761L415.025 73.472C413.801 71.432 412.169 70.344 410.265 70.344C408.361 70.344 406.865 71.432 405.641 73.472L391.633 97H375.993ZM483.694 97C471.046 97 464.246 90.064 464.246 77.416V38.656H450.782V27.776H464.246V7.37599H477.846V27.776H496.342V38.656H477.846V78.368C477.846 83.4 480.566 86.12 485.598 86.12H496.342V97H483.694Z" fill="white"/>
</svg>
