<svg width="762" height="100" viewBox="0 0 762 100" fill="none" xmlns="http://www.w3.org/2000/svg">
<path d="M15.2498 52.712H61.4898V46.592H15.2498V14.36H64.2098V2.79999H0.289844V98H64.8898V86.44H15.2498V52.712ZM109.41 99.36C127.906 99.36 137.97 92.016 137.97 78.28C137.97 66.312 131.85 61.28 112.946 57.744L110.77 57.336C99.2097 55.16 95.2657 52.576 95.2657 47.272C95.2657 42.24 99.4817 39.52 107.37 39.52C116.346 39.52 121.378 43.056 124.234 51.216L136.746 45.912C133.21 35.576 121.922 28.64 108.322 28.64C91.7297 28.64 81.6657 36.256 81.6657 48.904C81.6657 60.056 89.1457 66.176 106.826 69.44L109.002 69.848C121.242 72.16 124.37 74.064 124.37 79.232C124.37 85.08 118.794 88.48 109.41 88.48C100.706 88.48 94.4497 85.216 91.0497 76.784L78.5377 82.088C82.6177 92.832 94.1777 99.36 109.41 99.36ZM182.659 99.36C197.483 99.36 208.907 92.56 212.715 81.544L200.203 76.512C197.075 84.944 191.907 88.48 182.659 88.48C170.147 88.48 163.075 79.504 163.075 63.728C163.075 48.496 170.283 39.52 182.387 39.52C191.091 39.52 196.123 43.192 198.979 51.488L211.491 46.456C207.819 35.576 196.531 28.64 182.387 28.64C161.851 28.64 148.115 42.512 148.115 63.728C148.115 85.624 161.443 99.36 182.659 99.36ZM255.305 99.36C276.249 99.36 289.713 85.352 289.713 63.728C289.713 42.376 276.113 28.64 255.305 28.64C234.497 28.64 220.897 42.376 220.897 63.728C220.897 85.352 234.361 99.36 255.305 99.36ZM255.305 88.48C242.929 88.48 235.857 79.504 235.857 63.728C235.857 48.36 242.929 39.52 255.305 39.52C267.681 39.52 274.753 48.36 274.753 63.728C274.753 79.504 267.681 88.48 255.305 88.48ZM329.448 98V87.12H318.568V0.0799961H304.016V83.72C304.016 92.968 309.048 98 318.296 98H329.448ZM362.407 99.36C372.607 99.36 381.447 95.416 385.527 89.024H386.207C387.431 95.144 391.511 98 399.127 98H408.919V87.12H399.399V56.248C399.399 39.928 387.703 28.64 370.567 28.64C356.559 28.64 345.271 35.576 341.599 46.456L354.111 51.488C357.103 43.464 362.407 39.52 370.567 39.52C379.543 39.52 384.847 45.64 384.847 56.248V64.544H384.167C379.815 59.784 371.655 56.928 362.407 56.928C347.039 56.928 337.655 64.952 337.655 78.144C337.655 91.336 347.039 99.36 362.407 99.36ZM365.943 88.48C356.559 88.48 352.207 85.216 352.207 78.144C352.207 71.072 356.559 67.808 365.943 67.808C373.015 67.808 380.631 70.256 384.847 73.792V81.136C380.631 85.488 373.015 88.48 365.943 88.48ZM494.157 99.36C518.093 99.36 531.693 88.888 531.693 70.664C531.693 54.888 523.125 47.408 499.189 42.24L494.157 41.152C477.837 37.616 472.805 33.808 472.805 25.104C472.805 16.536 480.149 11.64 492.933 11.64C505.581 11.64 512.925 17.08 517.685 30.136L530.741 24.288C526.253 9.73599 511.157 0.0799961 492.933 0.0799961C471.173 0.0799961 458.117 10.144 458.117 26.872C458.117 42.376 466.821 50.128 490.349 55.16L495.381 56.248C512.517 59.92 517.005 63.184 517.005 72.024C517.005 81.952 508.437 87.8 494.157 87.8C480.013 87.8 471.309 82.088 466.141 69.168L453.085 75.016C458.117 89.976 474.029 99.36 494.157 99.36ZM568.001 99.36C578.201 99.36 587.041 95.416 591.121 89.024H591.801C593.025 95.144 597.105 98 604.721 98H614.513V87.12H604.993V56.248C604.993 39.928 593.297 28.64 576.161 28.64C562.153 28.64 550.865 35.576 547.193 46.456L559.705 51.488C562.697 43.464 568.001 39.52 576.161 39.52C585.137 39.52 590.441 45.64 590.441 56.248V64.544H589.761C585.409 59.784 577.249 56.928 568.001 56.928C552.633 56.928 543.249 64.952 543.249 78.144C543.249 91.336 552.633 99.36 568.001 99.36ZM571.537 88.48C562.153 88.48 557.801 85.216 557.801 78.144C557.801 71.072 562.153 67.808 571.537 67.808C578.609 67.808 586.225 70.256 590.441 73.792V81.136C586.225 85.488 578.609 88.48 571.537 88.48ZM641.302 98V57.608C641.302 45.368 646.606 39.656 657.622 39.656C668.502 39.656 673.942 45.64 673.942 57.608V98H688.494V57.336C688.494 38.84 679.654 28.776 663.334 28.776C652.998 28.776 644.702 33.128 641.302 40.472H640.622V30H626.75V98H641.302ZM732.964 99.36C751.46 99.36 761.524 92.016 761.524 78.28C761.524 66.312 755.404 61.28 736.5 57.744L734.324 57.336C722.764 55.16 718.82 52.576 718.82 47.272C718.82 42.24 723.036 39.52 730.924 39.52C739.9 39.52 744.932 43.056 747.788 51.216L760.3 45.912C756.764 35.576 745.476 28.64 731.876 28.64C715.284 28.64 705.22 36.256 705.22 48.904C705.22 60.056 712.7 66.176 730.38 69.44L732.556 69.848C744.796 72.16 747.924 74.064 747.924 79.232C747.924 85.08 742.348 88.48 732.964 88.48C724.26 88.48 718.004 85.216 714.604 76.784L702.092 82.088C706.172 92.832 717.732 99.36 732.964 99.36Z" fill="white"/>
</svg>
