<svg width="582" height="100" viewBox="0 0 582 100" fill="none" xmlns="http://www.w3.org/2000/svg">
<path d="M34.7069 3.79999H0.0269375V99H34.7069V84.04H19.4749V57.112H34.1629V42.152H19.4749V18.76H34.7069V3.79999ZM56.5488 99.952C70.2848 99.952 76.9488 94.24 76.9488 82.408V69.08C76.9488 61.192 72.1888 55.752 63.2128 53.168L59.2688 52.08C56.4128 51.4 55.5968 50.312 55.5968 47.456V35.488C55.5968 34.536 55.8688 34.128 56.5488 34.128C57.2288 34.128 57.6368 34.672 57.6368 35.488V48.408H76.6768V35.624C76.6768 26.104 69.1968 20.528 56.5488 20.528C43.4928 20.528 36.4208 26.104 36.4208 36.304V47.864C36.4208 57.928 40.5008 63.504 50.2928 66.496L54.3728 67.72C57.0928 68.536 57.6368 69.216 57.6368 72.344V85.128C57.6368 85.944 57.3648 86.352 56.6848 86.352C56.0048 86.352 55.5968 85.944 55.5968 85.128V71.936H36.1488V83.496C36.1488 94.24 43.2208 99.952 56.5488 99.952ZM102.73 21.48H99.3303V6.52H82.7383L80.8343 21.48H78.2503V34.264H80.2903V88.256C80.2903 95.872 85.1863 99.952 94.1623 99.952C97.6983 99.952 99.6023 99.816 102.73 99V86.76H100.826C100.01 86.76 99.3303 86.08 99.3303 85.264V34.264H102.73V21.48ZM125.093 85.672C124.821 86.08 124.549 86.352 124.141 86.352C123.597 86.352 123.325 86.08 123.325 85.4V21.48H104.285V89.752C104.285 96.416 107.413 99.952 113.805 99.952C118.021 99.952 122.509 97.912 125.093 94.376V99H144.133V21.48H125.093V85.672ZM166.802 25.832C164.218 22.296 160.274 20.528 155.922 20.528C148.85 20.528 145.586 25.152 145.586 34.4V86.08C145.586 95.328 148.85 99.952 155.922 99.952C160.274 99.952 164.218 98.184 166.802 94.648V99H185.842V3.79999H166.802V25.832ZM165.986 86.352C165.306 86.352 165.034 85.808 165.034 84.856V35.624C165.034 34.536 165.306 34.128 165.986 34.128C166.394 34.128 166.666 34.264 166.802 34.808V85.672C166.666 86.08 166.394 86.352 165.986 86.352ZM206.465 18.08V0.399997H187.425V18.08H206.465ZM206.465 99V21.48H187.425V99H206.465ZM228.544 20.528C216.032 20.528 208.28 26.648 208.28 36.712V50.04H227.184V35.624C227.184 34.672 227.456 34.128 228.136 34.128C228.816 34.128 229.224 34.536 229.224 35.488V54.8L221.064 56.704C211.68 58.88 208.008 63.232 208.008 72.344V86.624C208.008 96.144 210.728 99.952 217.664 99.952C222.288 99.952 226.64 97.64 229.224 94.104V99H248.264V37.528C248.264 26.512 241.192 20.528 228.544 20.528ZM228.408 86.352C227.728 86.352 227.456 85.808 227.456 84.856V68.536C227.456 67.312 227.728 66.904 228.68 66.632L229.224 66.496V85.672C229.088 86.216 228.816 86.352 228.408 86.352ZM280.175 20.528C275.959 20.528 271.471 22.568 268.887 26.104V21.48H249.847V99H268.887V34.808C269.159 34.4 269.431 34.128 269.839 34.128C270.383 34.128 270.655 34.4 270.655 35.08V99H289.695V30.728C289.695 24.064 286.567 20.528 280.175 20.528ZM315.629 21.48H312.229V6.52H295.637L293.733 21.48H291.149V34.264H293.189V88.256C293.189 95.872 298.085 99.952 307.061 99.952C310.597 99.952 312.501 99.816 315.629 99V86.76H313.725C312.909 86.76 312.229 86.08 312.229 85.264V34.264H315.629V21.48ZM356.519 37.936C356.519 26.512 349.447 20.528 336.119 20.528C322.791 20.528 315.719 26.512 315.719 38.072V82.408C315.719 94.24 322.927 99.952 336.119 99.952C348.767 99.952 356.519 95.056 356.519 82.544V69.76H337.207V84.856C337.207 85.808 336.799 86.352 336.119 86.352C335.439 86.352 335.167 85.808 335.167 84.856V65.408H356.519V37.936ZM336.119 34.264C336.799 34.264 337.207 34.808 337.207 35.76V52.624H335.167V35.76C335.167 34.808 335.439 34.264 336.119 34.264ZM378.221 99.952C391.957 99.952 398.621 94.24 398.621 82.408V69.08C398.621 61.192 393.861 55.752 384.885 53.168L380.941 52.08C378.085 51.4 377.269 50.312 377.269 47.456V35.488C377.269 34.536 377.541 34.128 378.221 34.128C378.901 34.128 379.309 34.672 379.309 35.488V48.408H398.349V35.624C398.349 26.104 390.869 20.528 378.221 20.528C365.165 20.528 358.093 26.104 358.093 36.304V47.864C358.093 57.928 362.173 63.504 371.965 66.496L376.045 67.72C378.765 68.536 379.309 69.216 379.309 72.344V85.128C379.309 85.944 379.037 86.352 378.357 86.352C377.677 86.352 377.269 85.944 377.269 85.128V71.936H357.821V83.496C357.821 94.24 364.893 99.952 378.221 99.952ZM436.538 99.952C450.138 99.952 457.482 93.424 457.482 81.32V63.232C457.482 55.344 454.49 50.992 445.786 46.504L438.442 42.696C436.13 41.472 435.314 40.112 435.314 37.664V20.936C435.314 19.848 435.858 19.168 436.538 19.168C437.354 19.168 437.762 19.848 437.762 21.208V38.344H456.938V20.664C456.938 9.648 449.186 2.848 436.538 2.848C423.346 2.848 416.138 9.51199 416.138 21.616V38.48C416.138 46.64 419.266 52.08 427.834 56.568L434.634 60.104C436.81 61.192 437.762 62.96 437.762 64.864V82.136C437.762 83.088 437.218 83.632 436.538 83.632C435.858 83.632 435.314 83.088 435.314 82.136V64.456H415.594V81.728C415.594 93.424 423.21 99.952 436.538 99.952ZM478.067 99V3.79999H459.027V99H478.067ZM500.146 20.528C487.634 20.528 479.882 26.648 479.882 36.712V50.04H498.786V35.624C498.786 34.672 499.058 34.128 499.738 34.128C500.418 34.128 500.826 34.536 500.826 35.488V54.8L492.666 56.704C483.282 58.88 479.61 63.232 479.61 72.344V86.624C479.61 96.144 482.33 99.952 489.266 99.952C493.89 99.952 498.242 97.64 500.826 94.104V99H519.866V37.528C519.866 26.512 512.794 20.528 500.146 20.528ZM500.01 86.352C499.33 86.352 499.058 85.808 499.058 84.856V68.536C499.058 67.312 499.33 66.904 500.282 66.632L500.826 66.496V85.672C500.69 86.216 500.418 86.352 500.01 86.352ZM572.585 20.528C567.689 20.528 563.201 22.704 560.753 26.648C559.665 22.568 556.537 20.528 551.777 20.528C547.289 20.528 542.937 22.568 540.489 25.968V21.48H521.449V99H540.489V34.672C540.761 34.128 541.033 33.856 541.441 33.856C541.985 33.856 542.257 34.264 542.257 34.944V99H561.297V34.672C561.433 34.128 561.841 33.856 562.113 33.856C562.657 33.856 562.929 34.264 562.929 34.944V99H581.969V30.728C581.969 24.064 578.705 20.528 572.585 20.528Z" fill="white"/>
</svg>
