<svg width="842" height="97" viewBox="0 0 842 97" fill="none" xmlns="http://www.w3.org/2000/svg">
<path d="M82.1596 2.99999H2.33964C1.16964 2.99999 0.389637 3.78 0.389637 4.94999V12.75C0.389637 14.18 0.779636 15.61 2.98964 16.26L8.96964 17.95C11.8296 18.73 12.2196 20.68 12.2196 24.19V72.81C12.2196 76.32 11.8296 78.27 8.96964 79.05L2.98964 80.74C0.779636 81.39 0.389637 82.82 0.389637 84.25V92.05C0.389637 93.22 1.16964 94 2.33964 94H47.8396C49.0096 94 49.7896 93.22 49.7896 92.05V84.25C49.7896 82.43 49.0096 81.26 47.1896 80.87L39.3896 79.18C35.3596 78.27 35.3596 75.8 35.3596 72.81V56.04H42.2496C47.7096 56.04 47.9696 57.73 49.3996 63.19C50.1796 66.18 51.4796 66.57 53.0396 66.57H60.4496C61.6196 66.57 62.3996 65.79 62.3996 64.62V36.28C62.3996 35.11 61.6196 34.33 60.4496 34.33H52.9096C50.3096 34.33 50.0496 35.5 49.3996 37.71C47.4496 44.34 46.6696 44.86 42.2496 44.86H35.3596V26.53C35.3596 20.29 38.8696 16.78 45.1096 16.78H57.3296C65.5196 16.78 68.2496 20.94 71.1096 31.86C71.7596 34.33 72.4096 35.11 74.8796 35.11H83.4596C84.6296 35.11 85.4096 34.33 85.4096 33.16V6.25C85.4096 4.16999 84.2396 2.99999 82.1596 2.99999ZM135.641 96.08C153.191 96.08 167.881 86.98 167.881 70.99C167.881 40.18 112.631 38.23 112.631 20.55C112.631 14.83 117.701 12.1 123.291 12.1C134.991 12.1 143.441 17.17 154.881 30.43C155.791 31.47 156.311 31.73 157.221 31.73H163.981C165.151 31.73 165.931 30.95 165.931 29.78V4.94999C165.931 3.78 165.151 2.99999 163.981 2.99999H157.481C155.661 2.99999 155.271 3.78 154.881 5.33999L153.971 9.5C153.581 11.19 153.061 11.84 151.891 11.84C148.381 11.84 140.191 0.919997 118.351 0.919997C104.571 0.919997 89.2314 7.28999 89.2314 26.27C89.2314 54.87 142.011 56.69 142.011 73.46C142.011 81 136.031 83.6 128.881 83.6C117.961 83.6 107.431 78.79 102.751 63.71C102.231 61.89 101.841 61.89 100.801 61.89H92.4814C91.3114 61.89 90.5314 62.67 90.5314 63.84V92.05C90.5314 93.22 91.3114 94 92.4814 94H98.8514C99.8914 94 100.931 93.74 101.191 92.83L102.491 87.5C102.881 85.81 103.791 85.16 104.571 85.16C107.431 85.16 117.701 96.08 135.641 96.08ZM284.41 46.29C294.16 42 300.27 34.98 300.27 25.62C300.27 14.31 291.17 2.99999 262.96 2.99999H213.95C212.78 2.99999 212 3.78 212 4.94999V12.75C212 14.18 212.39 15.61 214.6 16.26L220.58 17.95C223.44 18.73 223.83 20.68 223.83 24.19V72.81C223.83 76.32 223.44 78.27 220.58 79.05L214.6 80.74C212.39 81.39 212 82.82 212 84.25V92.05C212 93.22 212.78 94 213.95 94H268.16C292.21 94 304.17 83.99 304.17 68.91C304.17 57.34 297.15 49.8 284.41 46.29ZM261.01 16.78C270.24 16.78 275.57 20.55 275.57 29.39C275.57 39.14 270.5 43.56 261.01 43.56H246.97V16.78H261.01ZM262.31 80.22H246.97V54.74H262.31C274.14 54.74 279.47 58.51 279.47 67.35C279.47 76.19 274.4 80.22 262.31 80.22ZM343.109 26.53C343.109 20.29 346.619 16.78 352.859 16.78H367.679C375.869 16.78 378.599 20.94 381.459 31.86C382.109 34.33 382.759 35.11 385.229 35.11H393.809C394.979 35.11 395.759 34.33 395.759 33.16V6.25C395.759 4.16999 394.589 2.99999 392.509 2.99999H310.089C308.919 2.99999 308.139 3.78 308.139 4.94999V12.75C308.139 14.18 308.529 15.61 310.739 16.26L316.719 17.95C319.579 18.73 319.969 20.68 319.969 24.19V72.81C319.969 76.32 319.579 78.27 316.719 79.05L310.739 80.74C308.529 81.39 308.139 82.82 308.139 84.25V92.05C308.139 93.22 308.919 94 310.089 94H392.509C394.589 94 395.759 92.83 395.759 90.75V63.84C395.759 62.67 394.979 61.89 393.809 61.89H385.229C382.759 61.89 382.109 62.67 381.459 65.14C378.599 76.06 375.869 80.22 367.679 80.22H352.859C346.619 80.22 343.109 76.71 343.109 70.47V53.44H346.099C351.559 53.44 351.819 55.13 353.249 60.59C354.029 63.58 355.329 63.97 356.889 63.97H364.299C365.469 63.97 366.249 63.19 366.249 62.02V33.68C366.249 32.51 365.469 31.73 364.299 31.73H356.759C354.159 31.73 353.899 32.9 353.249 35.11C351.299 42.26 350.129 42.26 346.099 42.26H343.109V26.53ZM493.477 75.02C490.747 75.02 487.627 78.66 484.247 78.66C481.647 78.66 480.737 77.36 479.177 72.81L475.927 63.06C474.237 57.99 472.547 54.35 470.597 52.01C482.557 49.28 493.087 41.35 493.087 27.31C493.087 14.83 483.857 2.99999 456.557 2.99999H405.467C404.297 2.99999 403.517 3.78 403.517 4.94999V12.75C403.517 14.18 403.907 15.61 406.117 16.26L412.097 17.95C414.957 18.73 415.347 20.68 415.347 24.19V72.81C415.347 76.32 414.957 78.27 412.097 79.05L406.117 80.74C403.907 81.39 403.517 82.82 403.517 84.25V92.05C403.517 93.22 404.297 94 405.467 94H445.767C446.937 94 447.717 93.22 447.717 92.05V84.25C447.717 82.82 447.197 81.39 445.117 80.74L441.737 79.7C438.877 78.79 438.487 75.8 438.487 72.16V54.74H439.267C447.977 54.74 449.667 58.38 452.657 68.52L456.167 80.61C459.027 90.49 463.837 96.08 473.847 96.08C484.507 96.08 495.817 84.64 495.817 77.49C495.817 76.45 495.297 75.02 493.477 75.02ZM453.827 43.56H438.487V16.78H453.827C463.057 16.78 468.387 20.55 468.387 29.39C468.387 39.14 463.317 43.56 453.827 43.56ZM524.386 96.08C527.506 96.08 528.806 94 529.586 91.66L540.246 53.83C540.766 52.14 542.066 52.01 542.716 53.7L557.666 91.79C558.706 94.52 560.786 96.08 563.256 96.08C565.986 96.08 567.286 93.61 567.936 91.01L586.266 19.64C587.046 16.52 587.826 15.48 589.646 14.18C591.206 13.14 591.986 12.36 591.986 10.15V4.94999C591.986 3.91 591.726 2.99999 590.556 2.99999H570.016C568.846 2.99999 568.066 3.78 568.066 4.94999V9.5C568.066 11.32 568.976 11.97 571.056 13.01L573.006 13.92C575.736 15.22 576.126 16.26 575.216 19.9L568.456 44.08C567.936 45.9 566.506 45.9 565.986 44.21L552.596 3.12999C552.076 1.7 551.296 0.919997 550.516 0.919997C549.866 0.919997 548.956 1.57 548.436 2.99999L534.786 40.05C534.136 41.74 532.706 41.74 532.316 39.79L529.196 20.42C528.676 17.17 529.196 15.74 531.796 14.44L534.656 13.14C536.996 12.1 537.906 11.45 537.906 9.76V4.94999C537.906 3.78 537.126 2.99999 535.956 2.99999H497.736C496.566 2.99999 495.786 3.78 495.786 4.94999V10.15C495.786 12.62 496.826 13.4 499.036 14.7C501.506 16.13 502.546 17.17 503.196 20.16L519.576 91.53C520.096 94 521.786 96.08 524.386 96.08ZM633.492 72.81V24.19C633.492 20.03 634.272 18.6 637.522 17.82L645.322 16.13C647.532 15.61 647.922 14.18 647.922 12.75V4.94999C647.922 3.78 647.142 2.99999 645.972 2.99999H597.872C596.702 2.99999 595.922 3.78 595.922 4.94999V12.75C595.922 14.57 596.702 15.74 598.522 16.13L606.322 17.82C610.352 18.73 610.352 21.2 610.352 24.19V72.81C610.352 76.97 609.572 78.4 606.322 79.18L598.522 80.87C596.312 81.39 595.922 82.82 595.922 84.25V92.05C595.922 93.22 596.702 94 597.872 94H645.972C647.142 94 647.922 93.22 647.922 92.05V84.25C647.922 82.56 647.272 81.26 645.322 80.87L637.522 79.18C633.492 78.27 633.492 75.8 633.492 72.81ZM696.338 96.08C719.868 96.08 738.068 86.59 738.068 59.16C738.068 57.86 737.288 57.21 736.118 57.21H722.468C721.298 57.21 720.518 57.86 720.518 59.16C720.518 75.41 710.248 79.7 699.068 79.7C682.948 79.7 674.758 68.65 674.758 48.5C674.758 28.61 683.078 17.3 698.678 17.3C711.548 17.3 720.518 25.1 720.518 37.06C720.518 38.62 721.168 39.01 722.858 39.01H736.118C737.288 39.01 738.068 38.23 738.068 37.06V4.94999C738.068 3.78 737.288 2.99999 736.118 2.99999H729.618C727.668 2.99999 727.278 3.78 726.888 5.6L725.978 10.41C725.718 11.97 724.678 12.23 723.508 11.32C717.138 6.38 708.298 0.919997 693.608 0.919997C665.138 0.919997 649.278 18.99 649.278 49.15C649.278 80.22 666.048 96.08 696.338 96.08ZM837.998 82.17C835.528 80.74 832.668 77.88 830.718 75.28L804.068 38.88L824.608 21.2C828.248 18.08 831.888 15.74 834.488 14.18C836.048 13.14 836.828 12.36 836.828 10.15V4.94999C836.828 3.91 836.568 2.99999 835.398 2.99999H804.718C803.548 2.99999 802.768 3.78 802.768 4.94999V9.5C802.768 11.45 803.678 11.97 805.758 13.01L807.708 13.92C810.438 15.22 812.388 17.56 807.448 21.85L779.498 46.03V24.84C779.498 21.2 779.888 18.21 782.748 17.3L786.128 16.26C788.208 15.61 788.728 14.18 788.728 12.75V4.94999C788.728 3.78 787.948 2.99999 786.778 2.99999H746.478C745.308 2.99999 744.528 3.78 744.528 4.94999V12.75C744.528 14.18 744.918 15.61 747.128 16.26L753.108 17.95C755.968 18.73 756.358 20.68 756.358 24.19V72.81C756.358 76.32 755.968 78.27 753.108 79.05L747.128 80.74C744.918 81.39 744.528 82.82 744.528 84.25V92.05C744.528 93.22 745.308 94 746.478 94H786.778C787.948 94 788.728 93.22 788.728 92.05V84.25C788.728 82.82 788.208 81.39 786.128 80.74L782.748 79.7C779.888 78.79 779.498 75.8 779.498 72.16V60.33L787.168 53.57L803.938 76.45C805.758 78.92 803.938 81.13 801.338 82.43L798.478 83.73C796.138 84.77 795.228 85.42 795.228 87.11V91.92C795.228 93.09 796.008 94 797.178 94H839.298C840.468 94 841.248 93.09 841.248 91.92V86.72C841.248 84.25 840.208 83.47 837.998 82.17Z" fill="white"/>
</svg>
