<svg width="796" height="97" viewBox="0 0 796 97" fill="none" xmlns="http://www.w3.org/2000/svg">
<path d="M71.2174 20.42V2.99999H0.107422V94H20.7774V59.81H58.3474V42.39H20.7774V20.42H71.2174ZM124.256 96.08C152.466 96.08 167.806 82.3 167.806 66.05C167.806 49.93 153.896 45.51 132.706 39.53C117.626 35.24 107.876 32.25 107.876 26.01C107.876 19.9 115.806 17.56 126.466 17.56C138.556 17.56 148.176 20.94 156.756 27.7L167.156 13.92C161.046 8.59 149.086 0.919997 127.506 0.919997C101.246 0.919997 85.7764 13.66 85.7764 29.26C85.7764 41.48 95.6564 49.54 113.466 54.48C142.066 62.41 145.706 63.71 145.706 69.04C145.706 75.15 137.646 78.27 127.376 78.27C116.456 78.27 104.496 75.67 93.1864 63.19L81.6164 78.79C90.7164 88.28 103.066 96.08 124.256 96.08ZM277.568 96.08C294.598 96.08 311.368 89.58 323.328 74.11L309.678 60.33C301.748 72.03 290.698 77.62 278.348 77.62C264.438 77.62 252.348 68 252.348 49.41C252.348 29.39 267.038 19.38 282.898 19.38C292.518 19.38 302.398 23.8 309.548 32.51L322.808 20.42C314.098 8.2 299.148 0.919997 281.338 0.919997C247.668 0.919997 230.248 25.75 230.248 49.93C230.248 73.33 246.498 96.08 277.568 96.08ZM415.291 94H438.951L396.441 2.99999H376.941L332.481 94H352.501L362.381 73.2H405.801L415.291 94ZM370.831 55.78L384.481 26.92L397.741 55.78H370.831ZM518.84 2.99999H435.12V20.42H466.71V94H487.38V20.42H518.84V2.99999ZM615.451 2.99999H531.731V20.42H563.321V94H583.991V20.42H615.451V2.99999ZM654.274 76.58V2.99999H633.604V94H703.544V76.58H654.274ZM742.379 76.58V55.26H779.949V37.84H742.379V20.42H792.819V2.99999H721.709V94H795.419V76.58H742.379Z" fill="white"/>
</svg>
