<svg width="855" height="89" viewBox="0 0 855 89" fill="none" xmlns="http://www.w3.org/2000/svg">
<path d="M23.3748 42C23.6148 13.92 25.8948 13.08 35.4948 13.08C59.6149 13.08 68.9748 17.76 87.3349 27.12C83.4949 18.84 82.2949 11.4 82.2949 2.99999H35.4948C24.2148 2.99999 17.7348 4.44 14.9748 5.64C12.2148 3.48 5.61484 1.08 0.814844 1.08C2.13484 3.84 6.57484 22.8 6.57484 45C6.57484 67.2 2.13484 86.16 0.814844 88.92C5.61484 88.92 12.2148 86.52 14.9748 84.36C17.7348 86.52 24.3348 88.92 29.1348 88.92C27.8148 86.28 23.7348 68.88 23.3748 48C34.6548 49.8 48.5748 54.36 54.4548 59.28C54.4548 54.36 53.4949 48.72 50.7348 45C53.4949 41.28 54.4548 35.64 54.4548 30.72C48.5748 35.64 34.6548 40.2 23.3748 42ZM92.8258 88.92C98.9458 88.44 106.506 85.44 111.186 81.84C121.026 86.04 131.586 88.92 144.066 88.92C164.106 88.92 180.186 81.48 180.186 64.32C180.186 50.04 169.026 41.76 142.386 37.68C124.146 34.92 110.946 32.88 110.946 21.6C110.946 12.48 119.706 10.32 128.346 10.32C144.546 10.32 156.666 18 163.146 27.36C166.746 32.64 172.146 40.32 178.986 40.32C182.346 40.32 185.586 38.4 185.586 34.68C185.586 32.16 184.026 29.16 180.666 29.16C179.466 29.16 178.386 29.52 177.426 30C176.226 27.24 175.506 23.88 175.506 20.16C175.506 14.52 177.186 7.92 181.386 1.08C175.266 1.56 167.706 4.56 163.026 8.16C153.186 3.96 142.626 1.08 130.266 1.08C111.426 1.08 94.0258 7.68 94.0258 25.8C94.0258 40.08 104.826 48.24 131.826 52.32C150.786 55.2 163.266 57.24 163.266 68.28C163.266 77.52 154.626 79.68 145.866 79.68C129.426 79.68 117.546 72 111.066 62.64C107.466 57.36 102.066 49.68 95.2258 49.68C91.8658 49.68 88.6258 51.6 88.6258 55.32C88.6258 57.84 90.1858 60.84 93.5458 60.84C94.7458 60.84 95.8258 60.48 96.7858 60C97.9858 62.76 98.7058 66.12 98.7058 69.84C98.7058 75.48 97.0258 82.08 92.8258 88.92ZM313.622 62.64C308.342 72.24 296.462 78.84 282.782 78.84C263.222 78.84 250.982 65.4 250.982 43.56C250.982 25.08 259.742 11.16 281.822 11.16C291.062 11.16 298.742 13.56 303.182 17.28C307.742 21.12 309.542 27 312.182 30.6C314.462 33.72 316.862 34.92 319.142 34.92C317.702 30.48 317.462 22.68 317.462 18.12C317.462 13.44 317.702 5.64 319.142 1.08C314.942 1.08 310.502 3.84 307.622 8.51999C299.702 3.72 289.622 1.08 278.702 1.08C249.902 1.08 230.582 21.96 230.582 44.52C230.582 67.08 251.942 88.92 280.502 88.92C299.222 88.92 311.342 81.12 320.222 66.48L313.622 62.64ZM418.104 1.08C413.304 1.08 406.704 3.48 403.944 5.64C401.184 3.48 394.584 1.08 389.784 1.08C390.984 3.59999 394.824 20.04 395.424 39.96H352.464C353.064 20.04 356.904 3.59999 358.104 1.08C353.304 1.08 346.704 3.48 343.944 5.64C341.184 3.48 334.584 1.08 329.784 1.08C331.104 3.84 335.544 22.8 335.544 45C335.544 67.2 331.104 86.16 329.784 88.92C334.584 88.92 341.184 86.52 343.944 84.36C346.704 86.52 353.304 88.92 358.104 88.92C356.904 86.4 353.064 69.96 352.464 50.04H395.424C394.824 69.96 390.984 86.4 389.784 88.92C394.584 88.92 401.184 86.52 403.944 84.36C406.704 86.52 413.304 88.92 418.104 88.92C416.784 86.16 412.344 67.2 412.344 45C412.344 22.8 416.784 3.84 418.104 1.08ZM507.682 63.12L487.642 19.2C486.082 15.84 485.722 12.72 485.722 9.96C485.722 5.4 487.162 2.04 487.642 1.08C482.842 1.08 476.242 3.48 473.482 5.64C470.722 3.48 464.122 1.08 459.322 1.08C460.162 2.88 461.242 5.87999 461.242 9.96C461.242 12.72 460.882 15.84 459.322 19.2L439.522 63.12C432.922 77.64 425.122 86.88 424.162 88.92C428.962 88.92 435.562 86.52 438.322 84.36C441.082 86.52 447.682 88.92 452.482 88.92C452.002 87.84 450.682 84.12 450.682 78.84C450.682 75 452.122 70.32 454.402 65.4C462.442 66.6 472.402 72.96 473.482 78.36C474.442 73.32 484.882 66.6 492.802 65.4C495.082 70.2 496.282 75 496.282 78.84C496.282 84.12 494.962 87.84 494.482 88.92C499.282 88.92 505.882 86.52 508.642 84.36C511.402 86.52 518.002 88.92 522.802 88.92C521.842 86.88 514.282 77.64 507.682 63.12ZM473.482 61.08C470.722 58.32 464.362 55.32 459.442 54.36L472.882 25.56C473.122 25.08 473.242 24.72 473.482 24.24L474.082 25.56L487.642 54.36C482.842 55.2 476.242 58.32 473.482 61.08ZM587.758 50.28C602.758 45.96 612.238 36.84 612.238 27C612.238 13.32 593.998 1.08 568.318 1.08H563.518C552.238 1.08 545.758 3.48 542.998 5.64C540.238 3.48 533.638 1.08 528.838 1.08C530.158 3.84 534.598 22.8 534.598 45C534.598 67.2 530.158 86.16 528.838 88.92C533.638 88.92 540.238 86.52 542.998 84.36C545.758 86.52 552.358 88.92 557.158 88.92C555.958 86.52 552.478 71.52 551.638 52.92H559.678C587.998 52.92 594.118 84.36 594.958 88.92C599.038 88.92 604.558 86.52 606.838 84.36C610.078 86.52 617.758 88.92 623.278 88.92C609.838 75.72 606.598 53.04 587.758 50.28ZM551.398 42.84C551.518 12.24 553.798 11.16 563.518 11.16H568.318C582.958 11.16 591.838 17.52 591.838 27C591.838 36.36 583.078 42.84 568.318 42.84H551.398ZM657.565 1.08C652.765 1.08 646.165 3.48 643.405 5.64C640.645 3.48 634.045 1.08 629.245 1.08C630.565 3.84 635.005 22.8 635.005 45C635.005 67.2 630.565 86.16 629.245 88.92C634.045 88.92 640.645 86.52 643.405 84.36C646.165 86.52 652.765 88.92 657.565 88.92C656.245 86.16 651.805 67.2 651.805 45C651.805 22.8 656.245 3.84 657.565 1.08ZM759.983 36.84C757.703 36.84 756.383 38.04 755.783 39.48C755.063 34.44 754.703 29.4 754.703 24.48C754.703 16.32 755.663 8.51999 757.823 0.959999C752.663 1.91999 727.463 2.99999 718.943 2.99999H708.983C700.463 2.99999 675.263 1.91999 670.103 0.959999C672.263 8.51999 673.223 16.32 673.223 24.48C673.223 29.4 672.863 34.44 672.143 39.48C671.543 38.04 670.223 36.84 667.943 36.84C665.783 36.84 663.623 38.28 663.623 41.16C663.623 44.4 666.143 46.08 670.343 46.08C681.983 46.08 690.263 28.2 691.223 13.08H706.823C706.343 51.84 701.303 84.12 699.863 88.92C704.663 88.92 711.263 86.52 714.023 84.36C716.783 86.52 723.383 88.92 728.183 88.92C726.743 84.12 721.703 51.84 721.223 13.08H736.703C737.663 28.2 745.943 46.08 757.583 46.08C761.783 46.08 764.303 44.4 764.303 41.16C764.303 38.28 762.143 36.84 759.983 36.84ZM837.185 5.64C835.505 3.48 830.825 1.08 828.425 1.08C828.425 5.64 825.305 14.88 819.665 22.68L809.465 36.72L799.625 21.84C793.985 13.2 793.265 6.48 792.785 1.08C789.545 1.08 783.305 3.48 781.025 5.64C777.065 3.48 767.705 1.08 760.865 1.08C764.225 3.11999 773.945 13.56 782.585 26.88L799.265 52.56C798.425 71.4 794.825 86.52 793.625 88.92C798.425 88.92 805.025 86.52 807.785 84.36C810.545 86.52 817.145 88.92 821.945 88.92C820.625 86.28 816.425 68.04 816.185 46.56L829.025 29.28C836.465 19.32 845.825 7.43999 854.345 1.08C848.585 1.08 840.545 3.48 837.185 5.64Z" fill="white"/>
</svg>
