<svg width="618" height="96" viewBox="0 0 618 96" fill="none" xmlns="http://www.w3.org/2000/svg">
<path d="M63.5994 5.16H0.239375V7.60799C11.9034 8.04 13.1994 9.336 13.1994 22.296V75.864C13.1994 88.824 11.9034 90.12 0.239375 90.552V93H41.4234V90.552C27.3114 90.12 25.7274 88.824 25.7274 75.864V52.392H37.6794C49.3434 52.392 50.3514 53.688 52.0794 65.352H54.6714V35.4H52.0794C50.3514 45.768 49.3434 46.92 37.6794 46.92H25.7274V15.96C25.7274 9.768 25.8714 9.62399 32.0634 9.62399H44.7354C56.5434 9.62399 57.9834 13.512 62.7354 27.48L65.0394 27.192L63.5994 5.16ZM100.497 95.304C118.065 95.304 129.585 85.8 129.585 71.112C129.585 62.184 123.825 53.976 114.321 48.36L96.3211 37.704C89.6971 33.816 85.6651 29.496 85.6651 20.568C85.6651 12.216 91.5691 7.032 101.073 7.032C111.585 7.032 118.209 13.8 123.825 30.36L126.129 30.216L125.121 7.46399C119.505 5.016 108.705 2.85599 101.505 2.85599C84.9451 2.85599 75.1531 11.064 75.1531 24.888C75.1531 34.968 80.9131 42.6 92.0011 49.08L108.273 58.584C114.753 62.328 117.777 67.512 117.777 74.856C117.777 84.792 111.585 91.128 101.649 91.128C90.1291 91.128 80.4811 82.344 75.1531 67.368L72.9931 67.512L74.5771 88.968C80.9131 92.856 90.9931 95.304 100.497 95.304ZM259.813 5.16H229.141V7.752C241.093 8.18399 241.813 9.912 241.813 22.728V60.6L197.173 6.88799C196.165 5.736 195.445 5.16 193.573 5.16H171.397V7.60799C172.837 8.472 173.845 9.62399 175.861 12.072L182.917 20.568V75.432C182.917 88.248 182.197 89.976 170.389 90.408V93H200.917V90.408C188.965 89.976 188.389 88.248 188.389 75.432V27.048L244.549 94.44H247.285V22.728C247.285 9.912 247.861 8.18399 259.813 7.752V5.16ZM320.259 70.968C315.939 76.872 310.323 81.912 300.963 81.912C288.291 81.912 281.091 71.688 280.659 55.848H320.691C320.835 54.84 320.979 53.544 320.979 51.96C320.979 48.648 320.115 44.328 318.675 41.16C314.499 31.944 305.859 26.616 294.195 26.616C276.339 26.616 263.091 41.016 263.091 62.328C263.091 82.344 275.331 95.304 292.755 95.304C308.883 95.304 317.667 83.928 321.987 72.12L320.259 70.968ZM293.043 30.936C299.235 30.936 302.403 36.408 302.403 43.464C302.403 49.512 300.099 51.528 293.331 51.528H280.659C281.379 35.544 286.851 30.936 293.043 30.936ZM373.842 26.616C365.778 26.616 359.874 33.96 355.122 41.88V27.912L326.322 29.352V32.088C335.538 32.52 336.258 34.104 336.258 46.92V75.432C336.258 88.248 335.682 89.976 326.322 90.408V93H369.234V90.408C357.138 89.976 356.418 88.248 356.418 75.432V47.208C358.29 44.04 361.026 40.872 363.762 38.28L366.498 40.584C369.09 42.888 372.402 45.336 376.722 45.336C380.754 45.336 384.786 42.024 384.786 36.408C384.786 30.216 380.322 26.616 373.842 26.616ZM458.864 75V27.912L428.768 29.352V32.088C437.984 32.52 438.704 34.104 438.704 46.92V80.04C435.248 83.208 431.36 85.512 427.04 85.512C422.144 85.512 419.552 83.208 419.552 75.72V27.912L389.456 29.352V32.088C398.672 32.52 399.392 34.104 399.392 46.92V75.576C399.392 87.96 404.432 95.304 416.672 95.304C427.04 95.304 434.528 90.408 440 84.216V95.16L468.8 92.568V89.832C459.44 89.4 458.864 87.816 458.864 75ZM534.964 75V0.695995L504.868 2.13599V4.87199C514.084 5.304 514.804 6.88799 514.804 19.704V27.768C512.068 27.048 509.044 26.616 505.732 26.616C486.58 26.616 473.044 41.304 473.044 62.904C473.044 83.64 484.276 95.304 498.388 95.304C505.732 95.304 511.78 91.848 516.244 86.232V95.304L544.9 92.568V89.832C535.684 89.4 534.964 87.96 534.964 75ZM506.884 86.088C498.244 86.088 493.636 78.312 493.636 59.448C493.636 42.168 496.66 31.08 506.308 31.08C509.764 31.08 512.788 32.664 514.804 34.68V82.632C512.212 85.08 509.62 86.088 506.884 86.088ZM615.911 82.776C613.175 84.936 611.735 85.512 610.007 85.512C606.695 85.512 606.119 83.208 606.119 80.184V50.952C606.119 35.688 598.775 26.616 584.519 26.616C571.559 26.616 560.759 34.68 553.559 46.632L556.007 48.36C561.191 42.168 568.535 38.136 575.303 38.136C582.215 38.136 585.959 41.736 585.959 50.376V56.424L577.751 59.16C564.359 63.624 550.679 69.24 550.679 81.624C550.679 89.688 556.583 95.304 566.375 95.304C576.023 95.304 582.935 89.688 587.543 84.216C588.551 92.856 594.455 95.304 599.783 95.304C607.991 95.304 613.607 89.976 617.207 84.504L615.911 82.776ZM576.887 83.928C571.991 83.928 570.119 80.328 570.119 75.864C570.119 70.968 572.423 65.784 580.487 62.904L585.959 60.888V80.328C583.079 82.632 579.911 83.928 576.887 83.928Z" fill="white"/>
</svg>
