<svg width="857" height="97" viewBox="0 0 857 97" fill="none" xmlns="http://www.w3.org/2000/svg">
<path d="M43.9662 94V91.654C27.2682 90.412 26.0262 89.308 26.0262 74.818V30.244C26.0262 14.512 23.1282 9.82 13.1922 9.82H0.220236V12.166C13.0542 13.408 14.0202 14.512 14.0202 29.002V73.576C14.0202 83.65 17.1942 89.032 24.6462 91.24H0.220236V94H43.9662ZM69.4962 31.072V9.82H25.7502C27.1302 10.648 28.0962 11.476 28.9242 12.994H45.4842C60.6642 12.994 61.6302 14.098 67.2882 31.072H69.4962ZM58.1802 67.504V37.42H55.8342C54.1782 49.564 53.0742 50.944 41.8962 50.944H31.5462V54.118H41.8962C53.0742 54.118 54.1782 55.636 55.8342 67.504H58.1802ZM105.237 96.208C122.073 95.794 132.699 87.514 132.699 73.024C132.699 63.64 126.627 56.188 113.241 49.426L100.407 42.94C90.0572 37.696 86.1932 33.004 86.1932 25.69C86.1932 17.41 91.7132 10.786 98.7512 10.372V7.61199C83.8472 8.026 74.8772 16.72 74.8772 28.312C74.8772 40.18 82.6052 47.356 93.9212 53.152L107.445 60.052C117.933 65.434 121.383 69.436 121.383 76.474C121.383 86.272 114.897 93.034 105.237 93.448V96.208ZM128.283 34.798V7.75H126.075C125.109 10.234 123.729 11.476 121.935 11.476C118.209 11.476 112.689 7.888 104.271 7.61199V10.372C115.863 11.752 122.487 19.204 126.075 34.798H128.283ZM99.7172 93.448C88.1252 92.068 81.5012 84.616 77.9132 69.022H75.7052V96.07H77.9132C78.8792 93.586 80.2592 92.344 82.0532 92.344C85.7792 92.344 91.2992 95.932 99.7172 96.208V93.448ZM195.599 30.244C195.599 14.512 192.701 9.82 182.765 9.82H169.793V12.166C182.627 13.408 183.593 14.512 183.593 29.002V73.576C183.593 83.65 186.767 89.032 194.219 91.24H169.793V94H209.399V91.654C196.565 90.412 195.599 89.308 195.599 74.818V30.244ZM233.687 70.126C228.995 58.534 224.579 55.222 211.883 53.704C229.961 52.324 240.035 44.458 240.035 31.9C240.035 17.686 227.339 9.82 204.569 9.82H195.323C196.427 10.372 197.393 11.338 198.497 12.994H204.569C220.301 12.994 227.201 18.79 227.201 31.9C227.201 45.424 220.025 51.358 203.741 51.358H201.119V54.118C213.263 55.774 216.299 59.5 218.783 65.986L222.923 76.888C225.959 84.892 232.307 89.722 240.725 91.24H223.061V94H252.179V91.654C243.209 90.688 239.897 85.03 236.723 77.578L233.687 70.126ZM281.477 93.448C272.231 91.24 267.263 79.372 267.263 63.364C267.263 47.494 272.369 36.316 282.167 33.832V31.072C265.055 32.728 254.291 46.252 254.291 63.364C254.291 80.614 264.917 94.552 281.477 96.208V93.448ZM312.527 62.536C312.527 44.182 303.005 32.176 287.687 31.072V33.832C295.691 35.074 299.831 43.906 299.831 59.776H272.783V62.536H312.527ZM286.997 96.208C302.177 95.104 309.905 86.686 312.527 75.922H309.767C307.421 84.892 300.383 92.482 286.997 93.448V96.208ZM391.265 94V91.654C381.329 91.24 380.225 89.86 380.225 77.578V48.46C380.225 36.454 374.981 31.072 365.045 31.072C357.869 31.072 349.727 35.212 344.621 40.594L346.139 42.802C348.209 41.008 354.971 37.558 359.939 37.558C365.735 37.558 368.495 40.18 368.495 49.84V74.266C368.495 83.65 372.083 89.584 379.121 91.654H358.697V94H391.265ZM349.175 94V91.654C340.343 91.24 339.377 89.86 339.377 77.578V33.28H316.607V35.626C326.681 36.04 327.647 37.282 327.647 49.702V74.266C327.647 83.65 331.235 89.584 338.273 91.654H316.607V94H349.175ZM442.381 96.208C448.039 96.208 452.455 92.482 455.767 85.168L454.111 84.064C451.213 87.928 449.419 89.032 447.211 89.032C444.727 89.032 443.761 87.376 443.761 84.34V53.014C443.761 36.04 438.655 31.072 421.405 31.072V33.556C428.029 34.108 432.031 39.214 432.031 49.426V84.478C432.031 92.344 435.481 96.208 442.381 96.208ZM405.949 54.394C410.089 54.394 412.987 51.22 412.987 46.804C412.987 42.802 410.365 38.8 405.949 35.902C401.671 38.662 399.049 42.802 399.049 46.804C399.049 51.22 401.947 54.394 405.949 54.394ZM409.951 96.208C416.851 96.208 422.509 93.448 427.339 87.79L426.097 86.134C421.957 88.618 419.611 89.446 416.299 89.446C410.089 89.446 406.639 85.996 406.639 79.648C406.639 71.92 413.539 65.848 424.441 63.778L426.649 63.364V60.88L423.337 61.294C404.845 63.64 395.461 70.816 395.461 82.132C395.461 90.55 401.257 96.208 409.951 96.208ZM474.336 16.306C478.614 16.306 482.34 12.718 482.34 8.30199C482.34 4.024 478.614 0.435995 474.336 0.435995C469.92 0.435995 466.332 4.024 466.332 8.30199C466.332 12.718 469.92 16.306 474.336 16.306ZM490.344 94V91.654C481.65 91.24 480.546 89.998 480.546 77.578V33.28H457.776V35.626C467.436 36.04 468.816 36.868 468.816 49.702V74.266C468.816 85.582 473.922 89.998 479.442 91.654H457.776V94H490.344ZM518.323 96.208C531.295 95.38 539.023 88.48 539.023 77.854C539.023 70.264 535.021 64.882 526.465 61.018L512.527 54.67C506.593 51.91 503.695 48.322 503.695 43.63C503.695 37.972 506.731 34.522 512.803 33.556V31.072C501.487 32.176 494.449 38.662 494.449 47.908C494.449 56.05 499.417 62.674 508.525 66.676L520.255 71.92C526.741 74.818 529.639 77.992 529.639 82.132C529.639 88.342 525.085 93.172 518.323 93.724V96.208ZM531.019 46.666C534.055 46.666 536.401 44.32 536.401 41.008C536.401 35.626 532.537 32.728 523.843 31.762V36.73C523.843 42.94 526.465 46.666 531.019 46.666ZM506.317 90.412C506.317 84.202 503.695 80.476 499.141 80.476C496.105 80.476 493.759 82.822 493.759 86.134C493.759 91.516 497.623 94.414 506.317 95.38V90.412ZM570.445 96.208C583.417 95.38 591.145 88.48 591.145 77.854C591.145 70.264 587.143 64.882 578.587 61.018L564.649 54.67C558.715 51.91 555.817 48.322 555.817 43.63C555.817 37.972 558.853 34.522 564.925 33.556V31.072C553.609 32.176 546.571 38.662 546.571 47.908C546.571 56.05 551.539 62.674 560.647 66.676L572.377 71.92C578.863 74.818 581.761 77.992 581.761 82.132C581.761 88.342 577.207 93.172 570.445 93.724V96.208ZM583.141 46.666C586.177 46.666 588.523 44.32 588.523 41.008C588.523 35.626 584.659 32.728 575.965 31.762V36.73C575.965 42.94 578.587 46.666 583.141 46.666ZM558.439 90.412C558.439 84.202 555.817 80.476 551.263 80.476C548.227 80.476 545.881 82.822 545.881 86.134C545.881 91.516 549.745 94.414 558.439 95.38V90.412ZM644.265 96.208C649.923 96.208 654.339 92.482 657.651 85.168L655.995 84.064C653.097 87.928 651.303 89.032 649.095 89.032C646.611 89.032 645.645 87.376 645.645 84.34V53.014C645.645 36.04 640.539 31.072 623.289 31.072V33.556C629.913 34.108 633.915 39.214 633.915 49.426V84.478C633.915 92.344 637.365 96.208 644.265 96.208ZM607.833 54.394C611.973 54.394 614.871 51.22 614.871 46.804C614.871 42.802 612.249 38.8 607.833 35.902C603.555 38.662 600.933 42.802 600.933 46.804C600.933 51.22 603.831 54.394 607.833 54.394ZM611.835 96.208C618.735 96.208 624.393 93.448 629.223 87.79L627.981 86.134C623.841 88.618 621.495 89.446 618.183 89.446C611.973 89.446 608.523 85.996 608.523 79.648C608.523 71.92 615.423 65.848 626.325 63.778L628.533 63.364V60.88L625.221 61.294C606.729 63.64 597.345 70.816 597.345 82.132C597.345 90.55 603.141 96.208 611.835 96.208ZM734.319 94V91.654C724.383 91.24 723.279 89.86 723.279 77.578V48.46C723.279 36.454 718.035 31.072 708.099 31.072C700.923 31.072 692.781 35.212 687.675 40.594L689.193 42.802C691.263 41.008 698.025 37.558 702.993 37.558C708.789 37.558 711.549 40.18 711.549 49.84V74.266C711.549 83.65 715.137 89.584 722.175 91.654H701.751V94H734.319ZM692.229 94V91.654C683.397 91.24 682.431 89.86 682.431 77.578V33.28H659.661V35.626C669.735 36.04 670.701 37.282 670.701 49.702V74.266C670.701 83.65 674.289 89.584 681.327 91.654H659.661V94H692.229ZM765.043 93.448C755.245 91.24 750.139 79.372 750.139 63.364C750.139 47.494 755.521 36.04 765.733 33.556V31.072C748.207 32.728 737.167 46.252 737.167 63.364C737.167 80.614 748.069 94.552 765.043 96.208V93.448ZM784.363 54.394C788.503 54.394 791.401 51.22 791.401 46.804C791.401 42.802 788.779 38.8 784.363 35.902C780.085 38.662 777.463 42.802 777.463 46.804C777.463 51.22 780.361 54.394 784.363 54.394ZM770.563 96.208C782.845 95.104 790.987 86.686 792.367 75.922H789.607C788.227 85.444 780.361 92.482 770.563 93.448V96.208ZM825.1 93.448C815.854 91.24 810.886 79.372 810.886 63.364C810.886 47.494 815.992 36.316 825.79 33.832V31.072C808.678 32.728 797.914 46.252 797.914 63.364C797.914 80.614 808.54 94.552 825.1 96.208V93.448ZM856.15 62.536C856.15 44.182 846.628 32.176 831.31 31.072V33.832C839.314 35.074 843.454 43.906 843.454 59.776H816.406V62.536H856.15ZM830.62 96.208C845.8 95.104 853.528 86.686 856.15 75.922H853.39C851.044 84.892 844.006 92.482 830.62 93.448V96.208Z" fill="white"/>
</svg>
