<svg width="482" height="94" viewBox="0 0 482 94" fill="none" xmlns="http://www.w3.org/2000/svg">
<path d="M62.2102 6.75999C61.7782 4.456 60.4822 3.16 58.0342 3.16H4.17819C1.73019 3.16 0.722188 3.88 0.722188 5.32C0.722188 9.208 8.49819 6.18399 8.49819 15.4V78.76C8.49819 87.976 0.722188 84.952 0.722188 88.84C0.722188 90.28 1.73019 91 4.17819 91H29.0902C31.3942 91 32.4022 90.28 32.4022 88.84C32.4022 84.808 21.7462 87.4 21.7462 78.76V56.008H37.2982C45.9382 56.008 43.3462 66.52 47.5222 66.52C48.9622 66.52 49.6822 65.512 49.6822 63.208V41.752C49.6822 39.448 48.9622 38.44 47.5222 38.44C43.3462 38.44 45.9382 48.952 37.2982 48.952H21.7462V10.216H50.1142C58.7542 10.216 58.0342 21.016 62.0662 21.016C63.3622 21.016 64.2262 19.864 63.7942 17.416L62.2102 6.75999ZM105.702 93.304C125.286 93.304 136.95 83.512 136.95 67.096C136.95 55.864 129.75 48.664 112.47 42.616L102.39 39.16C89.4296 34.696 84.8216 30.088 84.8216 21.88C84.8216 13.672 92.0216 8.344 103.542 8.344C130.326 8.344 123.702 29.368 129.894 29.368C131.478 29.368 132.054 28.504 131.91 26.056L130.038 4.74399C129.894 2.72799 129.318 1.72 128.022 1.72C126.15 1.72 125.43 3.44799 122.694 3.44799C118.95 3.44799 113.046 0.855993 103.254 0.855993C85.2536 0.855993 73.3016 10.792 73.3016 25.48C73.3016 38.296 80.9336 46.216 99.2216 52.408L109.158 55.72C120.678 59.464 125.43 64.072 125.43 71.272C125.43 79.912 118.23 85.816 107.574 85.816C80.7896 85.816 83.6696 61.192 75.0296 61.192C72.0056 61.192 70.1336 63.496 70.1336 67.24C70.1336 82.648 84.6776 93.304 105.702 93.304ZM243.44 63.064C242.288 60.904 241.28 59.32 240.272 58.312C250.928 53.704 257.12 44.056 257.12 32.104C257.12 13.816 244.448 3.16 222.704 3.16H180.8C177.92 3.16 176.768 4.16799 176.768 6.328C176.768 11.224 183.536 8.05599 183.536 18.568V75.592C183.536 86.104 176.768 82.936 176.768 87.832C176.768 89.992 177.92 91 180.8 91H208.304C211.184 91 212.336 89.992 212.336 87.832C212.336 82.936 205.568 86.104 205.568 75.592V63.064H212.912C215.648 63.064 218.384 62.92 220.688 62.776L227.312 77.032C228.176 79.048 228.608 80.344 228.608 81.352C228.608 84.952 224.144 84.088 224.144 87.832C224.144 89.992 225.296 91 228.176 91H257.408C259.856 91 261.152 90.136 261.152 88.264C261.152 83.656 254.528 85.384 250.064 76.456L243.44 63.064ZM205.568 53.272V20.584C205.568 14.248 207.008 13.24 215.648 13.24C227.024 13.24 233.072 20.152 233.072 32.392C233.072 46.648 227.168 53.272 214.496 53.272H205.568ZM302.007 93.304C323.463 93.304 336.999 79.48 336.999 57.88C336.999 36.712 323.319 23.032 302.007 23.032C280.695 23.032 267.015 36.712 267.015 57.88C267.015 79.48 280.551 93.304 302.007 93.304ZM302.007 83.944C293.943 83.944 290.055 75.448 290.055 57.88C290.055 40.312 293.799 32.392 302.007 32.392C310.359 32.392 313.959 40.168 313.959 57.88C313.959 75.736 310.215 83.944 302.007 83.944ZM374.137 93.304C392.281 93.304 403.225 84.952 403.225 71.128C403.225 59.176 397.321 52.84 381.913 48.52L373.129 46.072C367.945 44.632 364.489 41.32 364.489 37.72C364.489 33.976 367.369 31.528 372.121 31.528C382.633 31.528 385.369 42.04 394.729 42.04C398.329 42.04 400.777 39.304 400.777 34.984C400.777 27.64 390.697 23.032 374.857 23.032C357.289 23.032 346.345 30.952 346.345 43.624C346.345 55.864 352.537 62.344 368.377 66.808L377.161 69.256C382.921 70.84 384.937 72.856 384.937 77.032C384.937 82.072 381.337 84.952 374.713 84.952C359.305 84.952 360.745 69.4 350.665 69.4C346.777 69.4 344.617 71.992 344.617 76.312C344.617 86.536 356.425 93.304 374.137 93.304ZM478.123 82.648C475.099 81.064 474.379 79.48 474.379 71.128V61.192C474.379 36.856 458.251 23.032 429.883 23.032C418.795 23.032 413.755 25.768 413.755 31.672C413.755 36.136 417.211 39.016 422.395 39.016C428.011 39.016 433.771 36.856 439.819 36.856C446.875 36.856 450.331 39.16 451.915 45.064C424.555 50.536 411.595 60.184 411.595 75.448C411.595 86.536 419.083 93.304 431.035 93.304C440.395 93.304 448.603 88.552 452.779 81.064V89.416C452.779 91.576 453.499 92.584 455.947 92.584C458.827 92.584 470.779 91.288 476.827 90.28C479.851 89.704 481.291 89.128 481.291 86.824C481.291 85.096 480.571 83.944 478.123 82.648ZM440.971 77.752C436.363 77.752 433.627 74.872 433.627 69.832C433.627 61.768 439.531 56.728 452.779 53.416V64.36C452.779 72.712 448.315 77.752 440.971 77.752Z" fill="white"/>
</svg>
