<svg width="783" height="99" viewBox="0 0 783 99" fill="none" xmlns="http://www.w3.org/2000/svg">
<path d="M43.4629 98.36C67.2629 98.36 84.3989 80 84.3989 50.624C84.3989 49.264 84.3989 47.904 84.1269 46.408C83.9909 44.504 82.9029 43.552 81.1349 43.552H48.6309C46.7269 43.552 45.6389 44.64 45.6389 46.544V52.528C45.6389 54.432 46.7269 55.52 48.6309 55.52H70.7989C69.9829 74.016 59.2389 85.576 43.8709 85.576C26.5989 85.576 14.9029 71.296 14.9029 49.264C14.9029 26.96 27.1429 12.952 45.5029 12.952C53.2549 12.952 61.5509 15.536 68.6229 19.888C70.6629 21.112 72.1589 20.16 72.1589 17.984V10.232C72.1589 8.6 71.6149 7.51199 70.2549 6.83199C62.5029 2.616 53.7989 0.439995 45.5029 0.439995C19.6629 0.439995 0.622875 20.024 0.622875 49.264C0.622875 77.688 18.4389 98.36 43.4629 98.36ZM114.763 98.36C124.283 98.36 131.491 93.872 134.755 87.616L134.891 88.432C136.251 94.824 141.011 98.36 147.811 98.36C149.171 98.36 150.667 98.224 152.027 97.816C153.659 97.408 154.339 96.184 154.339 94.552V90.336C154.339 88.296 153.251 87.752 151.347 87.752H150.803C147.539 87.752 145.635 85.848 145.635 81.496V57.016C145.635 40.424 137.203 31.72 120.883 31.72C114.219 31.72 107.147 33.216 100.211 36.344C98.715 37.024 98.171 38.112 98.171 39.744V45.864C98.171 48.176 99.531 48.992 101.571 47.904C107.963 44.504 113.947 43.008 119.523 43.008C128.635 43.008 132.987 47.36 132.987 57.424V58.648H118.299C102.659 58.648 93.819 66.4 93.819 78.504C93.819 90.472 102.251 98.36 114.763 98.36ZM106.739 77.824C106.739 71.84 110.683 67.896 119.387 67.896H132.987V70.888C132.987 80.68 126.459 88.296 117.483 88.296C110.683 88.296 106.739 83.808 106.739 77.824ZM167.44 97H174.648C176.552 97 177.504 95.912 177.504 94.144V4.656C177.504 2.888 176.552 1.79999 174.648 1.79999H167.44C165.536 1.79999 164.584 2.888 164.584 4.656V94.144C164.584 95.912 165.536 97 167.44 97ZM197.455 97H204.663C206.567 97 207.519 95.912 207.519 94.144V4.656C207.519 2.888 206.567 1.79999 204.663 1.79999H197.455C195.551 1.79999 194.599 2.888 194.599 4.656V94.144C194.599 95.912 195.551 97 197.455 97ZM227.471 97H234.679C236.583 97 237.535 95.912 237.535 94.144V36.072C237.535 34.168 236.583 33.08 234.679 33.08H227.471C225.567 33.08 224.615 34.168 224.615 36.072V94.144C224.615 95.912 225.567 97 227.471 97ZM222.439 12.68C222.439 17.848 226.111 21.52 231.007 21.52C236.039 21.52 239.711 17.848 239.711 12.68C239.711 7.648 236.039 3.83999 231.007 3.83999C226.111 3.83999 222.439 7.648 222.439 12.68ZM257.487 97H264.695C266.599 97 267.551 95.912 267.551 94.144V62.592C267.551 50.76 273.807 43.824 282.511 43.824C290.671 43.824 295.159 50.08 295.159 62.184V94.144C295.159 95.912 296.247 97 298.151 97H305.359C307.127 97 308.215 95.912 308.215 94.144V58.784C308.215 42.056 299.783 31.72 286.863 31.72C278.567 31.72 271.223 36.072 267.551 43.28V35.936C267.551 34.168 266.463 33.08 264.559 33.08H257.487C255.583 33.08 254.631 34.168 254.631 36.072V94.144C254.631 95.912 255.583 97 257.487 97ZM340.677 98.36C350.197 98.36 357.405 93.872 360.669 87.616L360.805 88.432C362.165 94.824 366.925 98.36 373.725 98.36C375.085 98.36 376.581 98.224 377.941 97.816C379.573 97.408 380.253 96.184 380.253 94.552V90.336C380.253 88.296 379.165 87.752 377.261 87.752H376.717C373.453 87.752 371.549 85.848 371.549 81.496V57.016C371.549 40.424 363.117 31.72 346.797 31.72C340.133 31.72 333.061 33.216 326.125 36.344C324.629 37.024 324.085 38.112 324.085 39.744V45.864C324.085 48.176 325.445 48.992 327.485 47.904C333.877 44.504 339.861 43.008 345.437 43.008C354.549 43.008 358.901 47.36 358.901 57.424V58.648H344.213C328.573 58.648 319.733 66.4 319.733 78.504C319.733 90.472 328.165 98.36 340.677 98.36ZM332.653 77.824C332.653 71.84 336.597 67.896 345.301 67.896H358.901V70.888C358.901 80.68 352.373 88.296 343.397 88.296C336.597 88.296 332.653 83.808 332.653 77.824ZM423.537 97H457.129C476.169 97 486.777 87.752 486.777 70.752C486.777 58.648 481.473 49.808 470.049 47.36C477.801 44.776 481.881 37.16 481.881 26.96C481.881 10.776 471.545 1.79999 453.593 1.79999H423.537C421.633 1.79999 420.681 2.888 420.681 4.656V94.144C420.681 95.912 421.633 97 423.537 97ZM434.281 85.168V54.16H455.769C467.873 54.16 472.633 59.192 472.633 69.8C472.633 80.272 467.873 85.168 455.769 85.168H434.281ZM434.281 42.736V13.632H452.641C463.249 13.632 468.009 18.528 468.009 28.184C468.009 37.84 463.249 42.736 452.641 42.736H434.281ZM503.455 97H510.663C512.567 97 513.519 95.912 513.519 94.144V4.656C513.519 2.888 512.567 1.79999 510.663 1.79999H503.455C501.551 1.79999 500.599 2.888 500.599 4.656V94.144C500.599 95.912 501.551 97 503.455 97ZM546.935 98.36C556.455 98.36 563.663 93.872 566.927 87.616L567.063 88.432C568.423 94.824 573.183 98.36 579.983 98.36C581.343 98.36 582.839 98.224 584.199 97.816C585.831 97.408 586.511 96.184 586.511 94.552V90.336C586.511 88.296 585.423 87.752 583.519 87.752H582.975C579.711 87.752 577.807 85.848 577.807 81.496V57.016C577.807 40.424 569.375 31.72 553.055 31.72C546.391 31.72 539.319 33.216 532.383 36.344C530.887 37.024 530.343 38.112 530.343 39.744V45.864C530.343 48.176 531.703 48.992 533.743 47.904C540.135 44.504 546.119 43.008 551.695 43.008C560.807 43.008 565.159 47.36 565.159 57.424V58.648H550.471C534.831 58.648 525.991 66.4 525.991 78.504C525.991 90.472 534.423 98.36 546.935 98.36ZM538.911 77.824C538.911 71.84 542.855 67.896 551.559 67.896H565.159V70.888C565.159 80.68 558.631 88.296 549.655 88.296C542.855 88.296 538.911 83.808 538.911 77.824ZM599.612 97H606.82C608.724 97 609.676 95.912 609.676 94.144V62.592C609.676 50.76 615.932 43.824 624.636 43.824C632.796 43.824 637.284 50.08 637.284 62.184V94.144C637.284 95.912 638.372 97 640.276 97H647.484C649.252 97 650.34 95.912 650.34 94.144V58.784C650.34 42.056 641.908 31.72 628.988 31.72C620.692 31.72 613.348 36.072 609.676 43.28V35.936C609.676 34.168 608.588 33.08 606.684 33.08H599.612C597.708 33.08 596.756 34.168 596.756 36.072V94.144C596.756 95.912 597.708 97 599.612 97ZM694.226 98.36C699.53 98.36 704.97 97.272 709.73 94.824C711.226 94.144 711.906 93.056 711.906 91.424V84.896C711.906 82.584 710.546 81.768 708.37 82.856C704.154 85.304 699.666 86.392 695.45 86.392C684.298 86.392 676.546 78.096 676.546 65.04C676.546 52.12 684.298 43.688 695.45 43.688C699.666 43.688 704.154 44.776 708.37 47.224C710.546 48.312 711.906 47.632 711.906 45.32V38.792C711.906 37.16 711.362 35.936 709.866 35.256C704.97 32.808 699.666 31.72 694.226 31.72C675.73 31.72 663.082 44.912 663.082 65.04C663.082 85.168 675.73 98.36 694.226 98.36ZM742.701 98.36C752.221 98.36 759.429 93.872 762.693 87.616L762.829 88.432C764.189 94.824 768.949 98.36 775.749 98.36C777.109 98.36 778.605 98.224 779.965 97.816C781.597 97.408 782.277 96.184 782.277 94.552V90.336C782.277 88.296 781.189 87.752 779.285 87.752H778.741C775.477 87.752 773.573 85.848 773.573 81.496V57.016C773.573 40.424 765.141 31.72 748.821 31.72C742.157 31.72 735.085 33.216 728.149 36.344C726.653 37.024 726.109 38.112 726.109 39.744V45.864C726.109 48.176 727.469 48.992 729.509 47.904C735.901 44.504 741.885 43.008 747.461 43.008C756.573 43.008 760.925 47.36 760.925 57.424V58.648H746.237C730.597 58.648 721.757 66.4 721.757 78.504C721.757 90.472 730.189 98.36 742.701 98.36ZM734.677 77.824C734.677 71.84 738.621 67.896 747.325 67.896H760.925V70.888C760.925 80.68 754.397 88.296 745.421 88.296C738.621 88.296 734.677 83.808 734.677 77.824Z" fill="white"/>
</svg>
