<svg width="791" height="111" viewBox="0 0 791 111" fill="none" xmlns="http://www.w3.org/2000/svg">
<path d="M1.15197 109H42.768L43.448 99.616C42.632 98.936 41.272 98.12 39.232 97.44L37.192 96.76C33.112 95.4 32.84 94.04 32.84 86.424V59.36C32.84 58.136 33.52 57.456 34.744 57.456H64.12C65.344 57.456 66.024 58.136 66.024 59.36V86.288C66.024 93.904 65.752 95.4 61.536 96.76L58.952 97.576C57.048 98.12 55.96 98.8 55.28 99.48L56.096 109H97.712L98.392 99.616C97.576 98.936 96.216 98.12 94.176 97.44L92.136 96.76C88.056 95.4 87.784 94.04 87.784 86.424V24.544C87.784 16.928 88.056 15.432 92.272 14.072L95.264 13.12C96.896 12.576 97.712 12.032 98.528 11.352L97.712 1.83199H56.096L55.416 11.216C56.232 11.896 57.592 12.712 59.224 13.256L61.4 14.072C65.888 15.704 66.024 16.792 66.024 24.408V42.088C66.024 43.312 65.344 43.992 64.12 43.992H34.744C33.52 43.992 32.84 43.312 32.84 42.088V24.544C32.84 16.928 33.112 15.432 37.328 14.072L40.32 13.12C41.952 12.576 42.768 12.032 43.584 11.352L42.768 1.83199H1.15197L0.471969 11.216C1.28797 11.896 2.64797 12.712 4.27997 13.256L6.45597 14.072C10.944 15.704 11.08 16.792 11.08 24.408V86.288C11.08 93.904 10.808 95.4 6.59197 96.76L4.00797 97.576C2.10397 98.12 1.01597 98.8 0.335969 99.48L1.15197 109ZM141.311 110.632C155.455 110.632 167.287 103.424 174.087 94.176L166.879 85.336C160.351 91.592 152.463 95.264 144.167 95.264C130.975 95.264 125.535 88.464 125.535 82.344C125.535 81.392 125.943 80.984 127.167 80.712C138.591 77.992 156.135 71.736 166.335 66.976C172.455 64.12 174.087 63.304 174.087 60.176C174.087 52.016 168.919 44.672 163.071 39.912C157.495 35.424 150.287 32.296 140.087 32.296C119.551 32.296 103.367 47.528 103.367 71.328C103.367 95.264 117.239 110.632 141.311 110.632ZM125.671 68.608C124.583 68.608 124.175 68.2 124.039 67.384C123.903 66.296 123.767 64.664 123.767 63.712C123.767 50.656 130.839 44.4 138.727 44.4C143.759 44.4 147.567 46.848 149.879 50.248C151.239 52.288 152.327 55.008 152.327 58C152.327 59.36 151.647 60.176 149.063 61.4C141.719 64.936 128.663 68.608 125.671 68.608ZM201.316 25.088C208.66 25.088 214.1 19.648 214.1 12.576C214.1 5.50399 208.66 0.199998 201.316 0.199998C193.972 0.199998 188.26 5.50399 188.26 12.576C188.26 19.648 193.972 25.088 201.316 25.088ZM181.052 109H221.988L222.396 99.888C221.58 99.48 219.812 98.8 218.18 98.256L216.14 97.576C212.74 96.488 211.924 94.992 211.924 91.184V33.928H181.188L180.78 43.04C181.596 43.584 183.092 44.128 184.724 44.672L186.764 45.352C190.028 46.44 191.116 47.256 191.116 51.744V91.184C191.116 94.992 190.436 96.352 186.9 97.576L184.86 98.256C183.228 98.8 181.46 99.48 180.644 99.888L181.052 109ZM312.195 98.256L310.699 97.712C308.523 96.896 307.707 95.808 307.707 91.184V59.224C307.707 42.496 298.187 32.296 282.547 32.296C273.843 32.296 266.499 35.56 260.787 41.816V33.928H230.051L229.643 43.04C230.459 43.584 231.955 44.128 233.587 44.672L235.627 45.352C238.891 46.44 239.979 47.256 239.979 51.744V91.184C239.979 94.992 239.299 96.352 235.763 97.576L233.723 98.256C232.091 98.8 230.323 99.48 229.507 99.888L229.915 109H270.851L271.259 99.888C270.443 99.48 268.675 98.8 267.043 98.256L265.003 97.576C261.603 96.488 260.787 94.992 260.787 91.184V68.608C260.787 55.688 266.499 47.664 276.699 47.664C284.043 47.664 286.899 52.424 286.899 61.944V109H315.459L315.867 99.888C315.051 99.48 313.555 98.8 312.195 98.256ZM359.256 110.632C373.4 110.632 385.232 103.424 392.032 94.176L384.824 85.336C378.296 91.592 370.408 95.264 362.112 95.264C348.92 95.264 343.48 88.464 343.48 82.344C343.48 81.392 343.888 80.984 345.112 80.712C356.536 77.992 374.08 71.736 384.28 66.976C390.4 64.12 392.032 63.304 392.032 60.176C392.032 52.016 386.864 44.672 381.016 39.912C375.44 35.424 368.232 32.296 358.032 32.296C337.496 32.296 321.312 47.528 321.312 71.328C321.312 95.264 335.184 110.632 359.256 110.632ZM343.616 68.608C342.528 68.608 342.12 68.2 341.984 67.384C341.848 66.296 341.712 64.664 341.712 63.712C341.712 50.656 348.784 44.4 356.672 44.4C361.704 44.4 365.512 46.848 367.824 50.248C369.184 52.288 370.272 55.008 370.272 58C370.272 59.36 369.592 60.176 367.008 61.4C359.664 64.936 346.608 68.608 343.616 68.608ZM473.409 98.256L471.505 97.576C469.057 96.76 467.289 95.536 464.705 91.048L448.793 63.168C448.249 62.216 448.249 61.672 448.793 61.128L456.681 53.512C461.577 48.888 464.841 46.848 469.465 45.352L471.641 44.672C473.273 44.128 475.041 43.448 475.857 43.04L475.449 33.928H440.089L439.681 43.04C440.361 43.448 441.449 43.992 442.673 44.536L444.033 45.08C445.801 45.76 446.073 47.664 443.489 50.112L428.393 65.072V1.83199H397.657L397.249 10.944C397.929 11.488 399.561 12.032 401.193 12.576L403.233 13.256C406.497 14.344 407.585 15.16 407.585 19.648V91.184C407.585 94.992 406.905 96.352 403.369 97.576L401.329 98.256C399.697 98.8 397.929 99.48 397.113 99.888L397.521 109H436.961L437.369 99.888C436.553 99.48 434.921 98.8 433.697 98.392L431.657 97.712C428.801 96.76 428.393 95.264 428.393 91.184V82.48C428.393 81.256 428.801 80.576 429.617 79.76L433.153 76.224C433.969 75.408 434.513 75.68 435.193 76.904L453.281 109H476.673L477.081 99.888C476.265 99.48 474.633 98.664 473.409 98.256ZM516.772 110.632C530.916 110.632 542.748 103.424 549.548 94.176L542.34 85.336C535.812 91.592 527.924 95.264 519.628 95.264C506.436 95.264 500.996 88.464 500.996 82.344C500.996 81.392 501.404 80.984 502.628 80.712C514.052 77.992 531.596 71.736 541.796 66.976C547.916 64.12 549.548 63.304 549.548 60.176C549.548 52.016 544.38 44.672 538.532 39.912C532.956 35.424 525.748 32.296 515.548 32.296C495.012 32.296 478.828 47.528 478.828 71.328C478.828 95.264 492.7 110.632 516.772 110.632ZM501.132 68.608C500.044 68.608 499.636 68.2 499.5 67.384C499.364 66.296 499.228 64.664 499.228 63.712C499.228 50.656 506.3 44.4 514.188 44.4C519.22 44.4 523.028 46.848 525.34 50.248C526.7 52.288 527.788 55.008 527.788 58C527.788 59.36 527.108 60.176 524.524 61.4C517.18 64.936 504.124 68.608 501.132 68.608ZM638.913 98.256L637.417 97.712C635.241 96.896 634.425 95.808 634.425 91.184V59.224C634.425 42.496 624.905 32.296 609.265 32.296C600.561 32.296 593.217 35.56 587.505 41.816V33.928H556.769L556.361 43.04C557.177 43.584 558.673 44.128 560.305 44.672L562.345 45.352C565.609 46.44 566.697 47.256 566.697 51.744V91.184C566.697 94.992 566.017 96.352 562.481 97.576L560.441 98.256C558.809 98.8 557.041 99.48 556.225 99.888L556.633 109H597.569L597.977 99.888C597.161 99.48 595.393 98.8 593.761 98.256L591.721 97.576C588.321 96.488 587.505 94.992 587.505 91.184V68.608C587.505 55.688 593.217 47.664 603.417 47.664C610.761 47.664 613.617 52.424 613.617 61.944V109H642.177L642.585 99.888C641.769 99.48 640.273 98.8 638.913 98.256ZM656.424 109H708.512L709.192 99.616C707.968 99.072 705.656 98.256 702.936 97.44L700.76 96.76C695.864 95.264 693.824 94.04 693.824 86.424V1.83199H676.824L651.256 19.104L655.336 29.168L672.472 23.864V86.288C672.472 93.904 670.704 95.264 664.72 96.76L662 97.44C659.552 98.12 656.968 98.936 655.608 99.48L656.424 109ZM768.372 49.024C778.98 43.584 786.052 33.656 786.052 24C786.052 8.496 772.996 0.199998 755.316 0.199998C736.14 0.199998 721.724 11.76 721.724 27.264C721.724 39.368 729.204 47.256 738.18 53.92C724.852 60.176 718.188 69.424 718.188 81.936C718.188 99.072 733.284 110.632 753.548 110.632C774.356 110.632 790.54 97.576 790.54 80.168C790.54 63.848 779.66 55.552 768.372 49.024ZM755.044 11.76C762.388 11.76 766.604 17.336 766.604 25.224C766.604 32.84 763.612 38.688 757.628 42.904C749.332 38.144 742.804 32.976 742.804 24.544C742.804 16.928 747.972 11.76 755.044 11.76ZM754.5 99.072C745.388 99.072 739.268 92.408 739.268 81.936C739.268 73.368 742.668 65.616 748.652 60.72C759.396 67.52 769.46 73.64 769.46 83.432C769.46 92.272 764.02 99.072 754.5 99.072Z" fill="white"/>
</svg>
