<svg width="848" height="123" viewBox="0 0 848 123" fill="none" xmlns="http://www.w3.org/2000/svg">
<path d="M0.993545 101H14.1935V8.59999H0.993545V101ZM69.8934 102.584C91.4094 102.584 105.401 88.328 105.401 66.284C105.401 43.184 94.0494 29.984 74.9094 29.984C64.8774 29.984 54.9774 34.868 48.6414 43.844V2.264L36.4974 4.508V93.608C47.1894 99.68 57.8814 102.584 69.8934 102.584ZM48.6414 86.48V62.192C48.6414 51.104 59.3334 41.204 72.0054 41.204C84.9414 41.204 92.8614 50.444 92.8614 66.284C92.8614 81.728 83.0934 91.364 68.9694 91.364C61.1814 91.364 54.9774 89.912 48.6414 86.48ZM155.588 102.584C165.092 102.584 173.276 101 180.008 97.832V87.668C172.484 91.232 165.356 92.684 156.644 92.684C142.52 92.684 132.752 86.348 130.508 76.052L160.34 70.772C176.972 67.736 183.836 61.928 183.836 51.104C183.836 38.168 173.54 29.984 157.04 29.984C133.544 29.984 118.232 45.164 118.232 68.132C118.232 89.78 132.092 102.584 155.588 102.584ZM130.112 67.472V66.68C130.112 50.048 140.144 39.884 156.512 39.884C166.28 39.884 172.088 43.976 172.088 51.368C172.088 57.704 168.26 60.872 157.172 62.72L130.112 67.472ZM200.662 101H212.806V55.196C216.898 47.144 224.95 41.6 235.114 41.6C236.566 41.6 238.282 41.732 239.734 41.996V30.248C238.414 29.984 237.358 29.984 236.302 29.984C225.346 29.984 216.766 35.528 212.014 43.976V31.436H200.662V101ZM283.895 102.584C292.871 102.584 301.187 100.868 308.315 97.832V86.216C301.715 89.648 293.927 91.364 284.819 91.364C269.639 91.364 259.871 81.992 259.871 66.812C259.871 50.576 269.639 41.204 284.819 41.204C294.191 41.204 302.111 43.184 307.655 46.616V34.736C301.187 31.568 292.871 29.984 283.895 29.984C261.983 29.984 247.463 43.976 247.463 66.548C247.463 88.592 261.851 102.584 283.895 102.584ZM346.234 102.584C355.87 102.584 364.978 98.756 371.446 91.892C372.238 98.492 376.33 101.66 383.458 101.66C386.23 101.66 389.53 101 392.038 99.68V90.44C390.19 91.232 388.474 91.628 386.89 91.628C383.59 91.628 381.742 89.912 381.742 86.612V59.948C381.742 40.28 371.05 29.984 350.458 29.984C342.67 29.984 333.298 31.832 326.302 34.736V45.692C333.166 42.524 342.538 40.412 349.93 40.412C363.13 40.412 369.598 46.352 369.598 58.232V59.42H352.042C331.846 59.42 321.154 67.208 321.154 81.596C321.154 94.796 330.394 102.584 346.234 102.584ZM333.43 80.804C333.43 71.96 340.294 67.208 353.23 67.208H369.598V84.104C363.658 90.308 357.454 93.08 349.534 93.08C339.37 93.08 333.43 88.592 333.43 80.804ZM399.37 122.516C409.402 122.516 419.302 118.16 419.302 101.528V31.436H407.158V101.924C407.158 107.996 403.726 112.22 397.522 112.22C394.354 112.22 391.054 111.956 387.886 110.768V121.064C390.922 121.856 394.09 122.516 399.37 122.516ZM404.254 9.12799C404.254 15.2 408.61 17.84 413.098 17.84C417.982 17.84 422.074 15.2 422.074 9.12799C422.074 3.452 417.982 0.547995 413.098 0.547995C408.61 0.547995 404.254 3.452 404.254 9.12799ZM458.965 102.584C468.601 102.584 477.709 98.756 484.177 91.892C484.969 98.492 489.061 101.66 496.189 101.66C498.961 101.66 502.261 101 504.769 99.68V90.44C502.921 91.232 501.205 91.628 499.621 91.628C496.321 91.628 494.473 89.912 494.473 86.612V59.948C494.473 40.28 483.781 29.984 463.189 29.984C455.401 29.984 446.029 31.832 439.033 34.736V45.692C445.897 42.524 455.269 40.412 462.661 40.412C475.861 40.412 482.329 46.352 482.329 58.232V59.42H464.773C444.577 59.42 433.885 67.208 433.885 81.596C433.885 94.796 443.125 102.584 458.965 102.584ZM446.161 80.804C446.161 71.96 453.025 67.208 465.961 67.208H482.329V84.104C476.389 90.308 470.185 93.08 462.265 93.08C452.101 93.08 446.161 88.592 446.161 80.804ZM588.091 102.584C608.551 102.584 621.883 92.156 621.883 76.052C621.883 61.4 615.547 54.8 593.371 49.52C571.855 44.372 565.915 40.412 565.915 31.568C565.915 23.12 573.835 17.972 587.431 17.972C597.859 17.972 610.663 21.668 617.395 26.552V14.54C607.759 9.656 598.123 7.148 586.903 7.148C566.443 7.148 553.243 17.048 553.243 32.36C553.243 47.276 561.163 54.404 583.735 59.816C604.855 64.7 609.211 68.264 609.211 77.108C609.211 86.348 600.763 91.76 586.111 91.76C575.155 91.76 562.483 88.46 552.979 83.048V95.06C563.275 100.076 574.099 102.584 588.091 102.584ZM658.677 102.584C668.313 102.584 677.421 98.756 683.889 91.892C684.681 98.492 688.773 101.66 695.901 101.66C698.673 101.66 701.973 101 704.481 99.68V90.44C702.633 91.232 700.917 91.628 699.333 91.628C696.033 91.628 694.185 89.912 694.185 86.612V59.948C694.185 40.28 683.493 29.984 662.901 29.984C655.113 29.984 645.741 31.832 638.745 34.736V45.692C645.609 42.524 654.981 40.412 662.373 40.412C675.573 40.412 682.041 46.352 682.041 58.232V59.42H664.485C644.289 59.42 633.597 67.208 633.597 81.596C633.597 94.796 642.837 102.584 658.677 102.584ZM645.873 80.804C645.873 71.96 652.737 67.208 665.673 67.208H682.041V84.104C676.101 90.308 669.897 93.08 661.977 93.08C651.813 93.08 645.873 88.592 645.873 80.804ZM716.169 101H728.313V53.48C735.837 44.372 741.777 41.204 751.017 41.204C760.653 41.204 765.537 47.144 765.537 58.76V101H777.813V56.648C777.813 39.356 769.761 29.984 754.713 29.984C744.153 29.984 734.781 34.736 727.521 43.58V31.436H716.169V101ZM820.574 102.32C837.338 102.32 847.634 94.796 847.634 82.388C847.634 71.564 843.674 66.812 828.758 62.72L816.614 59.288C809.09 56.912 806.582 54.404 806.582 49.52C806.582 42.92 811.466 39.62 821.234 39.62C829.418 39.62 837.866 41.468 843.938 44.24V34.208C838.13 31.568 829.682 29.984 820.838 29.984C804.866 29.984 795.098 37.64 795.098 50.18C795.098 60.344 800.642 66.416 813.446 69.848L824.666 72.752C834.434 75.524 836.282 77.768 836.282 83.18C836.282 88.988 830.606 92.684 821.63 92.684C812.654 92.684 802.754 90.044 795.098 85.688V96.38C801.83 99.812 811.994 102.32 820.574 102.32Z" fill="white"/>
</svg>
