<svg width="747" height="126" viewBox="0 0 747 126" fill="none" xmlns="http://www.w3.org/2000/svg">
<path d="M0.943359 105V2.80713H21.6172V44.0835H22.3301L33.0591 2.80713H53.4121L39.582 54.2065L53.4121 105H32.8452L22.3301 63.688H21.6172V105H0.943359ZM61.9668 105V2.80713H82.6406V105H61.9668ZM94.0469 105V2.80713H111.085L127.945 42.123V2.80713H147.906V105H127.945V83.0786L114.008 51.2124V105H94.0469ZM182.873 64.4009L190.394 46.8994H212.422V93.0234C208.822 101.649 198.521 107.032 185.546 107.032C172.572 107.032 162.199 101.614 158.635 93.0234V14.7837C162.199 6.15771 172.572 0.739746 185.546 0.739746C198.521 0.739746 208.822 6.15771 212.422 14.7837V35.4575H191.749V23.0176C189.859 20.9502 187.899 20.3442 185.546 20.3442C182.98 20.3442 180.734 21.0928 179.309 23.0176V84.7183C180.734 86.6787 182.98 87.4272 185.546 87.4272C188.113 87.4272 190.358 86.6787 191.749 84.7183V64.4009H182.873ZM222.367 14.7837C225.932 6.15771 236.304 0.739746 249.279 0.739746C262.253 0.739746 272.555 6.12207 276.155 14.7837V39.9487H255.481V23.0176C253.77 21.1641 251.881 20.3442 249.279 20.3442C246.463 20.3442 244.36 21.2354 243.041 23.0176V38.2734L265.497 51.9609C270.024 54.7056 273.802 58.0205 276.155 61.2998V93.0234C272.59 101.614 262.182 107.032 249.243 107.032C236.269 107.032 225.967 101.649 222.367 93.0234V67.7871H243.041V84.7183C244.324 86.5005 246.427 87.4272 249.243 87.4272C252.059 87.4272 254.162 86.5005 255.481 84.7183V69.9971L234.166 57.0225C228.462 53.5649 225.112 50.7134 222.367 46.9707V14.7837ZM368.795 105H349.832L347.479 100.509C342.846 104.43 335.61 107.032 328.659 107.032C319.712 107.032 312.762 103.075 308.912 95.8037V61.9771C311.692 56.9868 315.792 51.8184 319.855 48.0757C315.257 39.0576 313.189 31.2158 313.189 22.9819C313.189 9.43701 321.673 0.739746 334.933 0.739746C348.335 0.739746 357.032 9.5083 357.032 22.9819C357.032 34.4595 352.719 42.4795 341.277 51.9609L349.155 67.1455C349.975 62.7969 350.616 57.7354 350.901 53.1729H368.011C367.369 63.8306 363.733 78.3022 359.634 87.3203L368.795 105ZM326.556 85.5024C327.768 87.3916 330.334 88.5679 333.222 88.5679C335.859 88.5679 338.212 87.748 339.958 86.251L328.517 64.5435L326.556 67.4663V85.5024ZM330.548 25.9048C330.548 29.5405 331.475 32.7485 334.148 38.2021C338.818 34.1743 340.885 30.3604 340.885 25.9048C340.885 21.2354 339.246 19.0967 335.717 19.0967C332.081 19.0967 330.548 21.0928 330.548 25.9048ZM426.361 87.4272C428.927 87.4272 431.173 86.6787 432.563 84.7183V23.0176C430.674 20.9502 428.713 20.3442 426.361 20.3442C423.794 20.3442 421.549 21.0928 420.123 23.0176V84.7183C421.549 86.6787 423.794 87.4272 426.361 87.4272ZM449.672 125.424H428.999L421.513 106.782C410.855 105.606 402.55 100.509 399.449 93.0234V14.7837C403.014 6.15771 413.386 0.739746 426.361 0.739746C439.335 0.739746 449.637 6.15771 453.237 14.7837V93.0234C451.169 97.978 446.892 101.863 441.189 104.251L449.672 125.424ZM517.326 93.0234C513.726 101.649 503.424 107.032 490.45 107.032C477.475 107.032 467.103 101.614 463.538 93.0234V2.77148H484.212V84.7183C485.638 86.6787 487.883 87.4272 490.45 87.4272C493.016 87.4272 495.262 86.6787 496.652 84.7183V2.77148H517.326V93.0234ZM528.34 105V2.80713H568.297V22.4116H549.014V43.4775H567.299L559.778 63.082H549.014V85.3955H569.759V105H528.34ZM578.385 105V2.80713H618.342V22.4116H599.059V43.4775H617.344L609.823 63.082H599.059V85.3955H619.804V105H578.385ZM628.43 105V2.80713H645.468L662.328 42.123V2.80713H682.289V105H662.328V83.0786L648.391 51.2124V105H628.43ZM693.018 14.7837C696.582 6.15771 706.955 0.739746 719.929 0.739746C732.904 0.739746 743.205 6.12207 746.805 14.7837V39.9487H726.131V23.0176C724.42 21.1641 722.531 20.3442 719.929 20.3442C717.113 20.3442 715.01 21.2354 713.691 23.0176V38.2734L736.147 51.9609C740.674 54.7056 744.453 58.0205 746.805 61.2998V93.0234C743.241 101.614 732.833 107.032 719.894 107.032C706.919 107.032 696.618 101.649 693.018 93.0234V67.7871H713.691V84.7183C714.975 86.5005 717.078 87.4272 719.894 87.4272C722.709 87.4272 724.812 86.5005 726.131 84.7183V69.9971L704.816 57.0225C699.113 53.5649 695.762 50.7134 693.018 46.9707V14.7837Z" fill="white"/>
</svg>
