<svg width="778" height="99" viewBox="0 0 778 99" fill="none" xmlns="http://www.w3.org/2000/svg">
<path d="M0.681094 97V1.79999H13.6011V85.576H61.7451V97H0.681094ZM70.447 97L108.119 1.79999H123.351L161.023 97H147.831L137.631 71.024H93.567L83.367 97H70.447ZM97.783 60.008H133.279L115.599 14.584L97.783 60.008ZM174.533 97V1.79999H187.453V85.576H235.597V97H174.533ZM252.626 97V1.79999H265.546V97H252.626ZM329.419 98.36C302.627 98.36 283.587 84.352 283.587 49.808C283.587 15.264 303.715 0.439995 331.323 0.439995C351.995 0.439995 368.043 10.368 372.803 29.68H359.067C355.123 16.76 347.643 11.864 331.595 11.864C306.027 11.864 296.643 22.064 296.643 49.536C296.643 76.736 305.755 86.936 330.643 86.936C350.499 86.936 361.651 78.368 362.195 55.52H331.323V44.232H373.619V97H363.147L362.059 82.176C355.667 92.512 343.699 98.36 329.419 98.36ZM385.877 97L423.549 1.79999H438.781L476.453 97H463.261L453.061 71.024H408.997L398.797 97H385.877ZM413.213 60.008H448.709L431.029 14.584L413.213 60.008ZM540.008 97V13.496H510.36V1.79999H582.44V13.496H552.792V97H540.008ZM619.495 98.36C595.967 98.36 583.591 85.848 583.591 62.048C583.591 37.84 596.375 24.512 619.767 24.512C640.303 24.512 653.359 38.248 653.359 59.328C653.359 60.552 653.359 61.776 653.087 64.224H595.967C596.511 82.176 602.223 87.616 619.903 87.616C632.279 87.616 636.903 85.032 640.439 76.192H652.407C648.871 90.472 637.039 98.36 619.495 98.36ZM596.239 54.296H641.119C640.167 39.744 634.727 35.392 619.903 35.392C603.855 35.392 597.599 39.88 596.239 54.296ZM712.811 97L692.819 68.304L672.691 97H658.547L684.795 60.144L659.907 26.008H673.507L692.819 52.256L712.131 26.008H725.731L700.707 60.144L726.955 97H712.811ZM763.8 97C751.424 97 744.896 90.472 744.896 78.096V36.48H732.656V26.008H744.896V8.6H757.136V26.008H777.536V36.48H757.136V76.192C757.136 83.4 759.856 86.12 767.064 86.12H777.536V97H763.8Z" fill="white"/>
</svg>
