<svg width="737" height="100" viewBox="0 0 737 100" fill="none" xmlns="http://www.w3.org/2000/svg">
<path d="M0.717125 98V2.79999H23.0211V79.504H43.1491V98H0.717125ZM46.7744 98V77.6L59.6944 2.79999H94.1024L107.158 77.6V98H87.0304L84.7184 79.64H69.2144L66.9024 98H46.7744ZM71.6624 60.328H82.2704L77.6464 23.608H76.2864L71.6624 60.328ZM112.412 98V2.79999H134.716V79.504H154.844V98H112.412ZM159.694 98V2.79999H181.998V98H159.694ZM208.098 98C194.09 98 187.698 90.384 187.698 73.792V27.552C187.698 10.552 197.762 0.895994 215.578 0.895994C232.986 0.895994 243.594 9.73599 243.594 24.288V35.576H221.29V24.152C221.29 21.976 220.202 20.888 217.754 20.888H213.538C211.226 20.888 209.866 22.112 209.866 24.424V75.696C209.866 77.872 211.226 79.232 213.538 79.232H217.754C220.066 79.232 221.29 77.872 221.29 75.696V58.56H216.122L214.49 41.832H243.594V98H224.01V88.752H222.65L217.346 98H208.098ZM248.251 98V77.6L261.171 2.79999H295.579L308.635 77.6V98H288.507L286.195 79.64H270.691L268.379 98H248.251ZM273.139 60.328H283.747L279.123 23.608H277.763L273.139 60.328ZM335.67 98V2.79999H357.974V38.568H368.854V2.79999H391.022V98H368.854V58.424H357.974V98H335.67ZM422.585 99.904C406.401 99.904 396.745 92.016 396.745 78.688V39.384C396.745 26.872 407.081 18.712 422.585 18.712C438.225 18.712 448.561 26.872 448.561 39.384V62.096H417.689V79.096C417.689 80.728 418.641 81.816 420.273 81.816H424.897C426.529 81.816 427.481 80.728 427.481 79.096V70.256H448.561V78.688C448.561 92.016 438.769 99.904 422.585 99.904ZM417.689 50.264H427.481V38.84C427.481 37.208 426.529 36.256 424.897 36.256H420.273C418.641 36.256 417.689 37.208 417.689 38.84V50.264ZM468.28 98C458.488 98 453.456 93.512 453.456 81.272V69.032C453.456 58.696 458.76 53.392 468.824 53.392H484.328V39.384C484.328 37.752 483.376 36.8 481.744 36.8H477.12C475.488 36.8 474.536 37.752 474.536 39.384V48.088H453.456V39.792C453.456 27.008 464.064 18.712 479.84 18.712C496.024 18.712 505.408 26.872 505.408 40.744V81.68L508.808 83.448L506.904 98H484.328V89.432H482.968L477.664 98H468.28ZM474.536 78.96C474.536 80.592 475.488 81.544 477.12 81.544H481.744C483.376 81.544 484.328 80.592 484.328 78.96V66.176H477.12C475.488 66.176 474.536 67.128 474.536 68.76V78.96ZM563.975 98H543.031V89.432H541.671L536.367 98H526.439C517.463 98 512.159 92.56 512.159 81.952V37.072C512.159 26.736 517.055 20.616 525.759 20.616H536.367L541.671 29.184H543.031V2.79999H563.975V98ZM533.103 79.096C533.103 80.728 534.055 81.68 535.823 81.68H540.311C541.943 81.68 543.031 80.728 543.031 79.096V39.52C543.031 37.888 541.943 36.936 540.311 36.936H535.823C534.055 36.936 533.103 37.888 533.103 39.52V79.096ZM570.483 98V2.79999H591.427V98H570.483ZM597.975 98V20.616H618.919V98H597.975ZM597.839 16.4V0.215994H618.783V16.4H597.839ZM626.555 98V36.936L623.155 35.168L625.059 20.616H647.635V29.184H648.995L654.163 20.616H664.907C673.475 20.616 678.507 26.736 678.507 37.072V98H657.427V39.52C657.427 37.888 656.475 36.936 654.843 36.936H650.219C648.587 36.936 647.635 37.888 647.635 39.52V98H626.555ZM710.124 99.904C693.94 99.904 684.284 92.016 684.284 78.688V39.384C684.284 26.872 694.62 18.712 710.124 18.712C725.764 18.712 736.1 26.872 736.1 39.384V62.096H705.228V79.096C705.228 80.728 706.18 81.816 707.812 81.816H712.436C714.068 81.816 715.02 80.728 715.02 79.096V70.256H736.1V78.688C736.1 92.016 726.308 99.904 710.124 99.904ZM705.228 50.264H715.02V38.84C715.02 37.208 714.068 36.256 712.436 36.256H707.812C706.18 36.256 705.228 37.208 705.228 38.84V50.264Z" fill="white"/>
</svg>
