<svg width="824" height="99" viewBox="0 0 824 99" fill="none" xmlns="http://www.w3.org/2000/svg">
<path d="M0.506219 97V1.79999H20.0902V80H47.1542V97H0.506219ZM53.1053 97V79.592L69.5613 1.79999H99.7533L116.345 79.592V97H98.8013L95.2653 77.144H74.0493L70.5133 97H53.1053ZM76.9053 60.144H92.4093L85.3373 20.16H83.9773L76.9053 60.144ZM127.741 97V1.79999H147.325V80H174.389V97H127.741ZM185.78 97V1.79999H205.364V97H185.78ZM248.69 98.088C230.058 98.088 219.45 87.616 219.45 69.664V29.136C219.45 11.184 230.058 0.711999 248.69 0.711999C266.914 0.711999 277.794 10.776 277.794 28.048V34.44H258.074V25.328C258.074 21.112 255.218 18.392 250.73 18.392H246.786C241.89 18.392 239.034 21.384 239.034 26.416V72.52C239.034 77.552 241.89 80.408 246.65 80.408H250.73C255.218 80.408 258.074 77.688 258.074 73.472V63.68H249.506L247.874 46.68H277.794V70.616C277.794 87.888 267.05 98.088 248.69 98.088ZM287.918 97V79.592L304.374 1.79999H334.566L351.158 79.592V97H333.614L330.078 77.144H308.862L305.326 97H287.918ZM311.718 60.144H327.222L320.15 20.16H318.79L311.718 60.144ZM380.748 97V1.79999H416.108C429.572 1.79999 439.092 9.552 439.092 22.608V42.328C439.092 55.248 429.436 63.136 416.108 63.136H400.332V97H380.748ZM400.332 46.136H413.116C417.196 46.136 419.372 44.096 419.372 40.424V24.648C419.372 20.976 417.196 18.8 413.116 18.8H400.332V46.136ZM450.475 97V1.79999H470.059V80H497.123V97H450.475ZM503.074 97V79.592L519.53 1.79999H549.722L566.314 79.592V97H548.77L545.234 77.144H524.018L520.482 97H503.074ZM526.874 60.144H542.378L535.306 20.16H533.946L526.874 60.144ZM580.016 64.224L564.104 1.79999H584.368L595.52 50.352H596.88L608.032 1.79999H628.296L612.248 64.224H605.992V97H586.272V64.224H580.016ZM636.944 97V1.79999H682.368V18.8H656.528V39.2H680.056L678.424 56.2H656.528V80H682.232V97H636.944ZM695.116 97V1.79999H732.244C745.572 1.79999 753.46 9.008 753.46 21.52V37.976C753.46 45.864 749.516 50.76 742.172 52.12L753.46 59.6V97H733.74V60.824H714.7V97H695.116ZM714.7 43.824H733.74V24.648C733.74 20.84 731.564 18.8 727.484 18.8H714.7V43.824ZM794.287 98.088C775.655 98.088 764.911 87.616 764.911 69.664V65.176H784.495V72.52C784.495 77.416 787.351 80.408 792.247 80.408H795.919C800.679 80.408 803.535 77.552 803.535 72.52V63.272L777.967 52.256C769.127 48.448 764.911 42.192 764.911 32.536V29.136C764.911 11.456 775.927 0.711999 794.015 0.711999C812.511 0.711999 823.255 11.184 823.255 29.136V34.44H803.535V26.416C803.535 21.384 800.815 18.392 795.919 18.392H792.247C787.351 18.392 784.495 21.384 784.495 26.416V35.528L810.199 46.544C819.039 50.352 823.255 56.608 823.255 65.992V69.664C823.255 87.616 812.511 98.088 794.287 98.088Z" fill="white"/>
</svg>
