<svg width="447" height="99" viewBox="0 0 447 99" fill="none" xmlns="http://www.w3.org/2000/svg">
<path d="M0.83125 97H61.3513V77.28C57.4073 79.728 53.1913 80.68 46.2553 80.68H25.3113V16.896C25.3113 9.95999 26.2633 5.744 28.7113 1.79999H0.83125C3.27925 5.744 4.23125 9.95999 4.23125 16.896V81.904C4.23125 88.84 3.27925 93.056 0.83125 97ZM126.583 97H153.783C151.335 93.056 150.383 88.84 150.383 81.904V16.896C150.383 9.95999 151.335 5.744 153.783 1.79999H127.671C114.887 1.79999 107.271 7.37599 102.103 19.888L89.7274 49.808C64.7034 40.424 55.1834 33.216 55.1834 18.256C55.1834 15.264 55.3194 13.36 55.7274 11.864C51.7834 15.4 49.0634 23.152 49.0634 30.768C49.0634 47.088 59.8074 58.512 83.0634 65.992L80.7514 71.432C75.7194 83.536 72.7274 90.2 68.2394 97H98.4314C95.7114 90.472 97.3434 85.304 102.783 71.432L102.919 71.024C116.519 74.016 127.535 77.416 127.535 90.472C127.535 92.104 127.399 93.328 126.583 97ZM108.359 57.152L122.367 21.928C123.455 19.208 125.223 18.12 127.943 18.12H129.303V80.952C126.583 68.848 119.919 62.592 108.359 57.152ZM167.378 97H195.258C192.81 93.056 191.858 88.84 191.858 81.904V66.672C194.17 66.264 196.482 65.72 198.522 65.176L202.602 72.384C208.314 82.312 210.354 88.976 210.354 97H241.362C230.89 84.624 224.634 76.328 219.194 66.672L214.842 59.056C228.442 51.984 235.242 41.648 235.242 28.32C235.242 10.504 223.954 1.79999 201.242 1.79999H167.378C169.826 5.744 170.778 9.95999 170.778 16.896V81.904C170.778 88.84 169.826 93.056 167.378 97ZM191.858 50.352V18.12H196.618C209.13 18.12 214.162 21.656 214.162 30.632C214.162 41.376 208.314 46.68 191.858 50.352ZM250.917 97H278.797C276.349 93.056 275.397 88.84 275.397 81.904V16.896C275.397 9.95999 276.349 5.744 278.797 1.79999H250.917C253.365 5.744 254.317 9.95999 254.317 16.896V81.904C254.317 88.84 253.365 93.056 250.917 97ZM330.163 98.36C354.779 98.36 369.331 80.136 369.331 49.536C369.331 19.344 354.235 0.439995 330.163 0.439995C306.091 0.439995 290.995 19.344 290.995 49.536C290.995 80.136 305.547 98.36 330.163 98.36ZM312.075 49.536C312.075 28.728 318.603 16.76 330.163 16.76C341.723 16.76 348.251 28.728 348.251 49.536C348.251 70.208 341.723 82.04 330.163 82.04C318.603 82.04 312.075 70.208 312.075 49.536ZM410.741 98.36C433.589 98.36 446.509 87.344 446.509 67.896C446.509 53.48 439.709 45.184 422.981 39.336L407.749 34.032C400.405 31.584 397.957 29.408 397.957 25.328C397.957 19.344 402.445 16.76 412.781 16.76C424.341 16.76 435.085 19.48 441.613 24.104L440.253 1.79999C438.757 2.616 437.669 2.888 436.037 2.888C431.957 2.888 422.437 0.439995 412.781 0.439995C391.565 0.439995 378.917 10.776 378.917 27.912C378.917 40.832 385.989 49.672 400.269 54.16L412.781 58.104C423.933 61.504 427.469 64.496 427.469 70.616C427.469 78.368 422.165 82.04 410.741 82.04C400.813 82.04 389.389 78.64 379.597 72.928V91.832C387.757 95.912 399.725 98.36 410.741 98.36Z" fill="white"/>
</svg>
