<svg width="191" height="118" viewBox="0 0 191 118" fill="none" xmlns="http://www.w3.org/2000/svg">
<path d="M0.197531 97H27.5335L30.3895 83.672H22.2295L39.6375 1.79999H20.4615L0.197531 97ZM29.5523 97H48.5923L65.0483 19.616H46.0083L29.5523 97ZM47.5043 10.912C47.5043 15.536 50.6323 17.848 57.0243 17.848C63.6883 17.848 68.1763 13.904 68.1763 7.92C68.1763 3.15999 65.0483 0.711999 58.5203 0.711999C51.8563 0.711999 47.5043 4.792 47.5043 10.912ZM57.8647 115.496C60.3127 116.448 65.4807 117.264 70.1047 117.264C85.0647 117.264 91.0487 112.096 94.3127 97L110.633 19.616H91.5927L90.5047 24.648C88.3287 20.704 84.3847 18.528 79.0807 18.528C71.6007 18.528 67.1127 22.608 65.2087 31.312L54.0567 83.672C52.1527 92.648 56.0967 98.224 64.3927 98.224C68.7447 98.224 72.5527 96.728 75.6807 94.008L75.0007 97.136C74.1847 101.624 71.6007 103.392 65.8887 103.392H60.4487L57.8647 115.496ZM73.3687 82.04L83.4327 35.12C83.9767 32.672 84.7927 31.72 86.2887 31.72C87.6487 31.72 88.3287 32.264 88.6007 33.488L78.1287 82.584C77.1767 84.216 76.0887 84.896 74.7287 84.896C73.3687 84.896 72.9607 84.08 73.3687 82.04ZM134.152 34.984L130.616 51.304L112.528 57.696C106.68 59.736 104.232 62.864 103.008 68.304L99.7442 83.672C97.8402 92.512 101.648 98.224 110.08 98.224C114.432 98.224 118.376 96.728 121.504 93.736L120.824 97H140L151.968 40.424C154.96 26.96 148.296 18.528 134.016 18.528C120.96 18.528 112.256 25.192 109.4 38.656L106.816 50.216H125.856L129.256 35.12C129.664 32.944 130.752 31.856 132.52 31.856C134.016 31.856 134.56 32.808 134.152 34.984ZM119.192 82.176L121.64 70.072C122.184 68.168 123 67.216 124.36 66.672L127.624 65.176L124.088 82.04C123.272 83.808 122.048 84.896 120.552 84.896C119.192 84.896 118.784 83.944 119.192 82.176ZM142.44 97H161.616L170.864 53.48H178.344L181.2 40.152H173.72L179.024 15.128H187.184L190.04 1.79999H162.704L142.44 97Z" fill="white"/>
</svg>
