<svg width="748" height="130" viewBox="0 0 748 130" fill="none" xmlns="http://www.w3.org/2000/svg">
<path d="M12.8377 100V23.16H13.1097L44.2537 85.04H54.3177L85.4617 23.16H85.7337V100H98.1097V3.168H81.9257L49.4217 68.312H49.2857L17.1897 3.168H0.461719V100H12.8377ZM134.58 101.36C145.732 101.36 153.484 98.096 157.972 91.568H158.108V100H168.988V52.128C168.988 45.328 166.948 40.296 163.004 37.032C158.924 33.768 152.668 32 144.236 32C135.532 32 129.004 33.768 124.38 37.032C119.756 40.432 116.9 45.736 116.084 52.944L127.1 54.032C127.372 49.68 129.004 46.416 131.996 44.24C134.852 42.064 138.796 40.976 143.692 40.976C148.996 40.976 152.668 42.064 154.708 44.24C156.748 46.416 157.836 49.68 157.836 54.168V58.112L141.108 60.968C131.588 62.6 124.516 64.912 119.892 68.176C115.132 71.44 112.82 76.472 112.82 83.544C112.82 88.712 114.724 93.064 118.804 96.328C122.748 99.728 128.052 101.36 134.58 101.36ZM137.572 91.704C133.492 91.704 130.228 90.888 128.052 89.256C125.74 87.624 124.652 85.312 124.652 82.32C124.652 78.784 126.012 76.064 128.868 74.024C131.724 71.984 136.348 70.352 142.604 69.264L157.836 66.68V75.248C157.836 80.552 155.932 84.632 152.124 87.488C148.316 90.344 143.42 91.704 137.572 91.704ZM214.915 101.632C223.075 101.632 229.603 99.592 234.635 95.512C239.667 91.432 243.067 86.128 244.971 79.6L234.363 76.744C233.139 81.368 230.963 85.04 227.699 87.76C224.435 90.48 220.355 91.84 215.187 91.84C208.659 91.84 203.627 89.664 200.091 85.04C196.555 80.416 194.787 74.432 194.787 66.816C194.787 59.336 196.419 53.352 199.955 48.728C203.491 44.104 208.523 41.792 215.051 41.792C224.571 41.792 230.691 46.28 233.547 55.256L244.291 52.128C242.251 46.28 238.715 41.52 233.819 37.712C228.787 33.904 222.531 32 215.051 32C204.715 32 196.827 35.4 191.387 41.928C185.811 48.456 183.091 56.752 183.091 66.816C183.091 77.152 185.811 85.584 191.251 91.976C196.691 98.504 204.579 101.632 214.915 101.632ZM263.649 129.648C268.681 129.648 272.489 128.56 275.209 126.112C277.929 123.8 280.513 119.312 283.233 112.784L314.105 33.632H302.273L283.097 84.088H282.825L263.921 33.632H251.817L277.249 99.592L272.761 111.152C271.265 114.688 269.769 117.136 268.137 118.36C266.505 119.584 264.329 120.128 261.745 120.128H255.081V129.648H263.649ZM335.017 1.944C332.297 1.944 330.257 2.76 328.625 4.392C326.993 6.02399 326.313 8.06399 326.313 10.648C326.313 13.504 327.129 15.816 329.033 17.448C330.937 19.216 333.249 19.896 336.241 19.624C335.969 23.976 333.657 26.968 329.577 28.6L326.993 29.688V36.352L330.529 35.128C338.961 32.136 343.313 26.016 343.313 16.632V11.464C343.313 8.60799 342.497 6.296 341.001 4.528C339.505 2.89599 337.465 1.944 335.017 1.944ZM373.47 101.632C381.63 101.632 388.294 99.864 393.326 96.192C398.358 92.656 400.942 87.624 400.942 81.232C400.942 75.248 398.766 70.624 394.55 67.632C390.198 64.64 383.942 62.464 375.51 60.832C368.846 59.744 364.086 58.52 361.23 57.024C358.374 55.528 357.014 53.216 357.014 50.088C357.014 47.368 358.238 45.192 360.958 43.56C363.542 41.928 366.942 40.976 371.158 40.976C380.678 40.976 386.662 44.512 389.246 51.584L398.766 47.368C396.862 42.2 393.462 38.392 388.566 35.808C383.67 33.36 377.822 32 371.294 32C363.95 32 357.83 33.768 353.07 37.168C348.174 40.704 345.862 45.328 345.862 51.04C345.862 57.024 347.902 61.376 352.118 64.096C356.198 66.952 362.59 69.128 371.022 70.624C377.822 71.984 382.582 73.344 385.438 74.976C388.158 76.608 389.654 78.92 389.654 82.184C389.654 85.312 388.158 87.896 385.438 89.8C382.582 91.704 378.774 92.656 373.878 92.656C362.182 92.656 354.838 87.896 351.846 78.24L341.374 81.912C342.87 88.576 346.542 93.472 352.254 96.736C357.966 100 365.038 101.632 373.47 101.632ZM494.228 102.448C505.38 102.448 514.492 100 521.836 94.832C529.18 89.664 532.852 82.592 532.852 73.48C532.852 65.32 529.996 58.928 524.284 54.168C518.572 49.544 509.324 46.008 496.404 43.56C485.932 41.656 478.724 39.48 474.916 36.76C470.972 34.04 469.068 30.504 469.068 25.88C469.068 21.664 470.972 18.128 475.052 15.272C478.996 12.552 484.436 11.056 491.372 11.056C498.444 11.056 504.292 12.416 508.916 15.136C513.404 17.856 516.804 22.208 519.116 28.056L530.268 23.568C524.012 8.336 511.092 0.719997 491.236 0.719997C480.9 0.719997 472.468 3.168 466.076 7.92799C459.548 12.688 456.42 19.08 456.42 27.24C456.42 34.992 459.276 40.976 464.988 45.328C470.7 49.68 479.812 52.808 492.324 54.984C502.524 56.888 509.732 59.2 513.948 62.192C518.028 65.184 520.204 69.128 520.204 74.16C520.204 79.872 517.892 84.224 513.268 87.352C508.644 90.48 502.388 91.976 494.364 91.976C486.204 91.976 479.268 90.208 473.828 86.536C468.252 82.864 464.444 77.424 462.54 70.352L450.708 74.16C452.884 83.408 457.78 90.344 465.532 95.24C473.284 100.136 482.804 102.448 494.228 102.448ZM566.088 101.36C577.24 101.36 584.992 98.096 589.48 91.568H589.616V100H600.496V52.128C600.496 45.328 598.456 40.296 594.512 37.032C590.432 33.768 584.176 32 575.744 32C567.04 32 560.512 33.768 555.888 37.032C551.264 40.432 548.408 45.736 547.592 52.944L558.608 54.032C558.88 49.68 560.512 46.416 563.504 44.24C566.36 42.064 570.304 40.976 575.2 40.976C580.504 40.976 584.176 42.064 586.216 44.24C588.256 46.416 589.344 49.68 589.344 54.168V58.112L572.616 60.968C563.096 62.6 556.024 64.912 551.4 68.176C546.64 71.44 544.328 76.472 544.328 83.544C544.328 88.712 546.232 93.064 550.312 96.328C554.256 99.728 559.56 101.36 566.088 101.36ZM569.08 91.704C565 91.704 561.736 90.888 559.56 89.256C557.248 87.624 556.16 85.312 556.16 82.32C556.16 78.784 557.52 76.064 560.376 74.024C563.232 71.984 567.856 70.352 574.112 69.264L589.344 66.68V75.248C589.344 80.552 587.44 84.632 583.632 87.488C579.824 90.344 574.928 91.704 569.08 91.704ZM630.102 100V59.608C630.102 54.44 631.734 50.36 635.27 47.096C638.806 43.968 643.158 42.336 648.598 42.336C658.934 42.336 664.238 47.232 664.238 56.888V100H675.39V55.8C675.39 40.024 667.094 32 650.502 32C641.118 32 634.454 34.584 630.374 39.616H630.102V33.632H618.95V100H630.102ZM720.377 101.632C728.537 101.632 735.201 99.864 740.233 96.192C745.265 92.656 747.849 87.624 747.849 81.232C747.849 75.248 745.673 70.624 741.457 67.632C737.105 64.64 730.849 62.464 722.417 60.832C715.753 59.744 710.993 58.52 708.137 57.024C705.281 55.528 703.921 53.216 703.921 50.088C703.921 47.368 705.145 45.192 707.865 43.56C710.449 41.928 713.849 40.976 718.065 40.976C727.585 40.976 733.569 44.512 736.153 51.584L745.673 47.368C743.769 42.2 740.369 38.392 735.473 35.808C730.577 33.36 724.729 32 718.201 32C710.857 32 704.737 33.768 699.977 37.168C695.081 40.704 692.769 45.328 692.769 51.04C692.769 57.024 694.809 61.376 699.025 64.096C703.105 66.952 709.497 69.128 717.929 70.624C724.729 71.984 729.489 73.344 732.345 74.976C735.065 76.608 736.561 78.92 736.561 82.184C736.561 85.312 735.065 87.896 732.345 89.8C729.489 91.704 725.681 92.656 720.785 92.656C709.089 92.656 701.745 87.896 698.753 78.24L688.281 81.912C689.777 88.576 693.449 93.472 699.161 96.736C704.873 100 711.945 101.632 720.377 101.632Z" fill="white"/>
</svg>
