<svg width="709" height="140" viewBox="0 0 709 140" fill="none" xmlns="http://www.w3.org/2000/svg">
<path d="M677.908 105.168C669.002 105.168 664.184 99.7658 664.184 89.8378V35.3798C664.184 25.4518 669.002 19.9038 677.908 19.9038C683.748 19.9038 688.274 22.0938 691.194 26.0358V23.8458C691.194 22.2398 692.216 21.2178 693.822 21.2178H706.378C707.984 21.2178 709.006 22.2398 709.006 23.8458V101.372C709.006 102.978 707.984 104 706.378 104H693.822C692.216 104 691.194 102.978 691.194 101.372V99.4738C688.128 103.27 683.602 105.168 677.908 105.168ZM682.142 87.9398C682.142 91.0058 683.31 92.4658 685.792 92.4658C687.252 92.4658 688.712 92.0278 691.194 89.9838V36.4018C689.004 33.3358 687.544 32.7518 685.792 32.7518C683.31 32.7518 682.142 34.0658 682.142 37.2778V87.9398Z" fill="white"/>
<path d="M632.002 104C630.396 104 629.374 102.978 629.374 101.372V94.8018C629.374 93.6338 629.52 92.7578 629.812 91.5898L643.244 34.0658H632.002C630.396 34.0658 629.374 33.0438 629.374 31.4378V23.8458C629.374 22.2398 630.396 21.2178 632.002 21.2178H658.72C660.326 21.2178 661.348 22.2398 661.348 23.8458V30.2698C661.348 31.4378 661.348 32.3138 661.056 33.4818L647.478 91.1518H658.72C660.326 91.1518 661.348 92.1738 661.348 93.7798V101.372C661.348 102.978 660.326 104 658.72 104H632.002Z" fill="white"/>
<path d="M597.926 104C596.32 104 595.298 102.978 595.298 101.372V94.8018C595.298 93.6338 595.444 92.7578 595.736 91.5898L609.168 34.0658H597.926C596.32 34.0658 595.298 33.0438 595.298 31.4378V23.8458C595.298 22.2398 596.32 21.2178 597.926 21.2178H624.644C626.25 21.2178 627.272 22.2398 627.272 23.8458V30.2698C627.272 31.4378 627.272 32.3138 626.98 33.4818L613.402 91.1518H624.644C626.25 91.1518 627.272 92.1738 627.272 93.7798V101.372C627.272 102.978 626.25 104 624.644 104H597.926Z" fill="white"/>
<path d="M576.988 104C575.382 104 574.36 102.978 574.36 101.372V23.8458C574.36 22.2398 575.382 21.2178 576.988 21.2178H589.69C591.296 21.2178 592.318 22.2398 592.318 23.8458V101.372C592.318 102.978 591.296 104 589.69 104H576.988ZM576.988 17.8598C575.382 17.8598 574.36 16.8378 574.36 15.2318V4.4278C574.36 2.82181 575.382 1.7998 576.988 1.7998H589.69C591.296 1.7998 592.318 2.82181 592.318 4.4278V15.2318C592.318 16.8378 591.296 17.8598 589.69 17.8598H576.988Z" fill="white"/>
<path d="M529.224 104C527.618 104 526.596 102.978 526.596 101.372V4.4278C526.596 2.82181 527.618 1.7998 529.224 1.7998H549.08C563.096 1.7998 571.418 9.6838 571.418 23.6998V43.5558C571.418 57.2798 563.096 65.4558 549.08 65.4558H544.554V101.372C544.554 102.978 543.532 104 541.926 104H529.224ZM549.08 52.4618C551.854 52.4618 553.46 50.5638 553.46 47.7898V19.1738C553.46 16.5458 551.854 14.6478 549.08 14.6478H544.554V52.4618H549.08Z" fill="white"/>
<path d="M482.924 105.168C468.762 105.168 460.44 97.1378 460.44 83.2678V41.9498C460.44 27.9338 468.762 19.9038 482.924 19.9038C497.086 19.9038 505.262 27.9338 505.262 41.9498V83.2678C505.262 97.1378 497.086 105.168 482.924 105.168ZM482.924 92.3198C485.552 92.3198 487.45 90.5678 487.45 87.7938V37.4238C487.45 34.6498 485.552 32.8978 482.924 32.8978C480.15 32.8978 478.398 34.6498 478.398 37.4238V87.7938C478.398 90.5678 480.15 92.3198 482.924 92.3198Z" fill="white"/>
<path d="M432.556 104C430.95 104 429.928 102.978 429.928 101.372V23.8458C429.928 22.2398 430.95 21.2178 432.556 21.2178H445.258C446.864 21.2178 447.886 22.2398 447.886 23.8458V27.7878C450.076 23.4078 452.704 21.2178 455.624 21.2178H456.062C457.668 21.2178 458.69 22.2398 458.69 23.8458V31.4378C458.69 33.0438 457.668 34.0658 456.062 34.0658H452.85C450.806 34.0658 448.762 35.6718 447.886 38.8838V101.372C447.886 102.978 446.864 104 445.258 104H432.556Z" fill="white"/>
<path d="M416.139 105.168C405.335 105.168 399.933 99.0357 399.933 88.3777V34.0656H397.889C396.283 34.0656 395.261 33.0436 395.261 31.4376V23.8456C395.261 22.2396 396.283 21.2176 397.889 21.2176H399.933L400.955 10.1217C401.101 8.36965 401.977 7.63965 403.583 7.63965H415.263C416.869 7.63965 417.891 8.66164 417.891 10.2676V21.2176H424.461C426.067 21.2176 427.089 22.2396 427.089 23.8456V31.4376C427.089 33.0436 426.067 34.0656 424.461 34.0656H417.891V87.3557C417.891 89.5457 419.205 91.0056 421.395 91.0056H424.461C426.067 91.0056 427.089 92.0277 427.089 93.6337V101.664C427.089 103.124 426.359 104.146 425.045 104.438C422.271 105.022 419.643 105.168 416.139 105.168Z" fill="white"/>
<path d="M371.856 105.168C357.694 105.168 349.372 97.1378 349.372 83.2678V75.0918C349.372 73.4858 350.394 72.4638 352 72.4638H364.702C366.308 72.4638 367.33 73.4858 367.33 75.0918V87.7938C367.33 90.5678 369.082 92.3198 371.856 92.3198C374.484 92.3198 376.382 90.5678 376.382 87.7938V76.9898C376.382 72.4638 375.506 71.4418 371.126 70.2738L365.578 68.6678C354.628 65.8938 349.372 59.4698 349.372 49.2498V42.0958C349.372 27.9338 357.694 19.9038 371.856 19.9038C385.872 19.9038 394.194 28.0798 394.194 40.1978C394.194 43.8478 393.318 46.4758 392.15 48.9578C391.566 50.2718 390.544 50.8558 389.084 50.8558H376.82C374.922 50.8558 374.192 49.6878 374.776 47.7898C375.798 44.2858 376.382 40.7818 376.382 37.2778C376.382 34.6498 374.484 32.7518 371.856 32.7518C369.082 32.7518 367.33 34.6498 367.33 37.2778V47.6438C367.33 51.7318 368.644 53.1918 373.024 54.3598L378.718 55.9658C390.252 58.8858 394.194 64.1418 394.194 75.9678V83.2678C394.194 97.1378 386.018 105.168 371.856 105.168Z" fill="white"/>
<path d="M323.236 105.168C309.074 105.168 300.752 97.1378 300.752 83.2678V41.9498C300.752 27.9338 309.074 19.9038 323.236 19.9038C337.398 19.9038 345.574 27.9338 345.574 41.9498V59.9078C345.574 61.5138 344.552 62.5358 342.946 62.5358H318.71V87.7938C318.71 90.5678 320.462 92.3198 323.236 92.3198C325.864 92.3198 327.762 90.5678 327.762 86.4798C327.762 82.8298 327.032 78.5958 325.718 73.9238C325.28 72.1718 326.01 71.0038 327.908 71.0038H340.464C341.924 71.0038 342.946 71.5878 343.53 73.0478C344.844 76.5518 345.574 80.0558 345.574 84.5818C345.574 97.1378 337.398 105.168 323.236 105.168ZM318.71 49.6878H327.762V37.4238C327.762 34.6498 325.864 32.8978 323.236 32.8978C320.462 32.8978 318.71 34.6498 318.71 37.4238V49.6878Z" fill="white"/>
<path d="M265.857 105.168C256.951 105.168 252.133 99.7658 252.133 89.8378V35.3798C252.133 25.4518 256.951 19.9038 265.857 19.9038C271.697 19.9038 276.223 22.0938 279.143 26.0358V23.8458C279.143 22.2398 280.165 21.2178 281.771 21.2178H294.327C295.933 21.2178 296.955 22.2398 296.955 23.8458V101.372C296.955 102.978 295.933 104 294.327 104H281.771C280.165 104 279.143 102.978 279.143 101.372V99.4738C276.077 103.27 271.551 105.168 265.857 105.168ZM270.091 87.9398C270.091 91.0058 271.259 92.4658 273.741 92.4658C275.201 92.4658 276.661 92.0278 279.143 89.9838V36.4018C276.953 33.3358 275.493 32.7518 273.741 32.7518C271.259 32.7518 270.091 34.0658 270.091 37.2778V87.9398Z" fill="white"/>
<path d="M199.893 0.631836C204.711 0.631836 209.675 1.79983 213.325 5.44984C216.975 1.79983 221.501 0.631836 226.465 0.631836C240.335 0.631836 248.365 8.66183 248.365 22.5318V101.372C248.365 102.978 247.343 104 245.737 104H233.035C231.429 104 230.407 102.978 230.407 101.372V18.0058C230.407 15.2318 228.801 13.4798 226.319 13.4798C223.837 13.4798 222.085 15.3778 222.085 18.0058V101.372C222.085 102.978 221.063 104 219.457 104H206.901C205.295 104 204.273 102.978 204.273 101.372V18.0058C204.273 15.2318 202.667 13.4798 200.039 13.4798C197.557 13.4798 195.951 15.2318 195.951 18.0058V101.372C195.951 102.978 194.929 104 193.323 104H180.621C179.015 104 177.993 102.978 177.993 101.372V22.5318C177.993 8.66183 186.169 0.631836 199.893 0.631836Z" fill="white"/>
<path d="M108.797 104C107.337 98.0138 107.337 92.1738 108.797 86.1878H119.893C116.535 74.6538 111.863 56.8418 111.863 41.9498C111.863 28.0798 121.645 19.9038 135.807 19.9038C149.969 19.9038 158.145 27.9338 158.145 41.9498C158.145 45.0158 157.561 48.0818 156.393 51.1478C155.663 52.8998 154.495 53.7758 152.889 53.7758H140.187C138.581 53.7758 137.705 52.8998 138.143 51.1478C139.457 46.6218 140.333 42.2418 140.333 37.7158C140.333 34.7958 138.435 32.8978 135.661 32.8978C132.887 32.8978 130.697 34.7958 130.697 37.8618C130.697 54.5058 135.661 77.2818 138.289 86.1878H155.517C157.123 86.1878 158.145 87.2098 158.145 88.8158V101.372C158.145 102.978 157.123 104 155.517 104H108.797Z" fill="white"/>
<path d="M90.0592 128.674C88.4532 128.674 87.4312 127.652 87.4312 126.046V118.016C87.4312 116.702 87.7232 115.972 88.3072 115.388C89.0372 114.658 89.4752 113.636 89.4752 112.176V25.8897C89.4752 24.2837 90.4971 23.2617 92.1031 23.2617H105.097C106.703 23.2617 107.725 24.2837 107.725 25.8897V86.1877H109.331V104H107.725V112.03C107.725 121.666 101.739 128.674 91.6651 128.674H90.0592Z" fill="white"/>
<path d="M61.896 104C60.436 98.0137 60.436 92.1737 61.896 86.1877H67.006V25.7437C67.006 24.1377 68.028 23.1157 69.634 23.1157H82.336C83.942 23.1157 84.964 24.1377 84.964 25.7437V101.372C84.964 102.978 83.942 104 82.336 104H61.896ZM74.16 119.914C72.554 119.914 71.532 118.892 71.532 117.286V111.446C71.532 109.84 72.554 108.818 74.16 108.818H78.102C79.708 108.818 80.73 109.84 80.73 111.446V117.286C80.73 118.892 79.708 119.914 78.102 119.914H74.16Z" fill="white"/>
<path d="M30.9155 124.148C9.01546 124.148 0.547455 114.366 0.547455 98.0136V66.1856C0.547455 64.5796 1.56946 63.5576 3.17546 63.5576H15.7315C17.3375 63.5576 18.3595 64.5796 18.3595 66.1856V98.1596C18.3595 106.628 20.5495 111.3 30.9155 111.3C38.9455 111.3 42.4495 108.234 42.7415 103.562L34.5655 102.102C33.1055 101.81 32.2295 100.788 32.2295 99.1816V88.8156C32.2295 87.2096 33.2515 86.1876 34.8575 86.1876H62.5975V104H60.4075C58.9475 116.556 50.1875 124.148 30.9155 124.148ZM23.3235 139.04C21.7175 139.04 20.6955 138.018 20.6955 136.412V130.572C20.6955 128.966 21.7175 127.944 23.3235 127.944H27.4115C29.0175 127.944 30.0395 128.966 30.0395 130.572V136.412C30.0395 138.018 29.0175 139.04 27.4115 139.04H23.3235ZM34.8575 139.04C33.2515 139.04 32.2295 138.018 32.2295 136.412V130.572C32.2295 128.966 33.2515 127.944 34.8575 127.944H38.7995C40.4055 127.944 41.4275 128.966 41.4275 130.572V136.412C41.4275 138.018 40.4055 139.04 38.7995 139.04H34.8575Z" fill="white"/>
</svg>
