<svg width="744" height="123" viewBox="0 0 744 123" fill="none" xmlns="http://www.w3.org/2000/svg">
<path d="M0.45 94H13.506V26.408H13.642L40.978 89.24C42.882 93.456 45.602 95.36 50.09 95.36C54.442 95.36 57.162 93.592 59.066 89.24L86.402 26.408H86.538V94H99.594V1.52H83.682L50.09 79.856H49.954L16.362 1.52H0.45V94ZM136.981 95.36C147.181 95.36 155.477 91.144 159.829 84.344C160.781 90.328 165.133 94 171.933 94H180.229V83.392H171.797V54.016C171.797 38.104 161.597 28.992 143.781 28.992C128.277 28.992 116.173 37.56 116.173 47.08C116.173 50.48 118.349 52.52 121.885 52.52C124.605 52.52 126.373 51.432 127.869 48.984C132.085 41.912 136.165 39.328 143.781 39.328C154.117 39.328 159.557 44.36 159.557 54.016V56.872H138.069C122.973 56.872 113.861 64.216 113.861 76.184C113.861 87.88 122.837 95.36 136.981 95.36ZM126.373 75.776C126.373 69.792 130.453 66.528 138.069 66.528H159.557V67.344C159.557 77.408 150.581 85.024 138.749 85.024C131.133 85.024 126.373 81.488 126.373 75.776ZM129.365 20.56L163.909 6.552V1.52L129.365 15.528V20.56ZM189.265 94H201.505V1.52H189.265V94ZM236.989 95.36C247.189 95.36 255.485 91.144 259.837 84.344C260.789 90.328 265.141 94 271.941 94H280.237V83.392H271.805V54.016C271.805 38.104 261.605 28.992 243.789 28.992C228.285 28.992 216.181 37.56 216.181 47.08C216.181 50.48 218.357 52.52 221.893 52.52C224.613 52.52 226.381 51.432 227.877 48.984C232.093 41.912 236.173 39.328 243.789 39.328C254.125 39.328 259.565 44.36 259.565 54.016V56.872H238.077C222.981 56.872 213.869 64.216 213.869 76.184C213.869 87.88 222.845 95.36 236.989 95.36ZM226.381 75.776C226.381 69.792 230.461 66.528 238.077 66.528H259.565V67.344C259.565 77.408 250.589 85.024 238.757 85.024C231.141 85.024 226.381 81.488 226.381 75.776ZM315.552 122.56C335.816 122.56 348.056 110.728 348.056 91.144V30.352H336.088V43.272C332.552 34.432 324.256 28.992 313.92 28.992C296.648 28.992 283.864 43 283.864 62.04C283.864 80.808 296.512 94.408 313.784 94.408C324.528 94.408 332.824 88.832 336.224 79.72V91.144C336.224 104.744 328.88 112.224 315.688 112.224C305.352 112.224 298.688 107.6 297.464 99.304H285.36C286.856 113.72 298.28 122.56 315.552 122.56ZM296.512 62.04C296.512 48.848 304.536 40.144 316.368 40.144C328.2 40.144 336.224 48.984 336.224 62.04C336.224 74.96 328.2 83.8 316.368 83.8C304.4 83.8 296.512 75.096 296.512 62.04ZM383.614 95.36C393.814 95.36 402.11 91.144 406.462 84.344C407.414 90.328 411.766 94 418.566 94H426.862V83.392H418.43V54.016C418.43 38.104 408.23 28.992 390.414 28.992C374.91 28.992 362.806 37.56 362.806 47.08C362.806 50.48 364.982 52.52 368.518 52.52C371.238 52.52 373.006 51.432 374.502 48.984C378.718 41.912 382.798 39.328 390.414 39.328C400.75 39.328 406.19 44.36 406.19 54.016V56.872H384.702C369.606 56.872 360.494 64.216 360.494 76.184C360.494 87.88 369.47 95.36 383.614 95.36ZM373.006 75.776C373.006 69.792 377.086 66.528 384.702 66.528H406.19V67.344C406.19 77.408 397.214 85.024 385.382 85.024C377.766 85.024 373.006 81.488 373.006 75.776ZM498.161 95.36C519.921 95.36 533.113 85.296 533.113 67.208C533.113 54.424 525.769 46.4 509.313 43.408L493.673 40.552C480.073 38.104 475.857 33.752 475.857 26C475.857 17.16 482.793 11.72 496.937 11.72C508.769 11.72 514.073 16.48 518.289 24.504C520.057 27.768 522.097 29.128 525.361 29.128C529.713 29.128 531.753 26.544 531.753 22.872C531.753 9 516.385 0.159992 496.937 0.159992C474.497 0.159992 462.665 10.496 462.665 26.136C462.665 39.872 470.689 48.168 488.369 51.432L504.009 54.288C515.297 56.328 519.921 60.952 519.921 67.752C519.921 77.816 512.033 83.8 498.161 83.8C484.561 83.8 476.129 78.088 474.769 67.072H461.713C463.209 84.888 476.265 95.36 498.161 95.36ZM564.77 95.36C574.97 95.36 583.266 91.144 587.618 84.344C588.57 90.328 592.922 94 599.722 94H608.018V83.392H599.586V54.016C599.586 38.104 589.386 28.992 571.57 28.992C556.066 28.992 543.962 37.56 543.962 47.08C543.962 50.48 546.138 52.52 549.674 52.52C552.394 52.52 554.162 51.432 555.658 48.984C559.874 41.912 563.954 39.328 571.57 39.328C581.906 39.328 587.346 44.36 587.346 54.016V56.872H565.858C550.762 56.872 541.65 64.216 541.65 76.184C541.65 87.88 550.626 95.36 564.77 95.36ZM554.162 75.776C554.162 69.792 558.242 66.528 565.858 66.528H587.346V67.344C587.346 77.408 578.37 85.024 566.538 85.024C558.922 85.024 554.162 81.488 554.162 75.776ZM617.054 94H629.294V59.184C629.294 47.216 636.774 40.28 648.062 40.28C658.67 40.28 664.654 46.536 664.654 58.776V94H676.894V55.784C676.894 38.92 667.646 28.992 652.006 28.992C640.854 28.992 632.286 33.888 629.022 42.592V30.352H617.054V94ZM716.155 95.36C733.291 95.36 743.083 88.016 743.083 75.504C743.083 65.576 736.691 59.728 724.043 57.96L713.299 56.464C704.595 55.24 700.515 52.928 700.515 47.76C700.515 41.776 705.683 38.376 715.203 38.376C723.499 38.376 727.579 41.096 730.027 45.176C731.523 47.624 733.019 49.256 736.691 49.256C739.819 49.256 741.315 47.216 741.315 44.36C741.315 34.84 730.435 28.992 715.339 28.992C698.067 28.992 688.547 36.336 688.547 48.032C688.547 57.824 695.347 63.672 708.131 65.576L718.875 67.208C727.987 68.568 731.115 71.016 731.115 76.184C731.115 82.576 725.947 85.976 716.155 85.976C706.635 85.976 700.651 82.304 699.971 75.912H687.867C688.819 88.152 698.747 95.36 716.155 95.36Z" fill="white"/>
</svg>
