<svg width="378" height="97" viewBox="0 0 378 97" fill="none" xmlns="http://www.w3.org/2000/svg">
<path d="M87.0049 0.749999H74.0049L44.1299 82.125L43.5049 86.5L42.8799 82.125L13.0049 0.749999H0.129884V95H10.3799V14.5L11.7549 24.125L39.0049 95H48.1299L75.1299 24.375L76.7549 14.875V95.125H87.0049V0.749999ZM138.188 88C123.063 88 116.813 79.75 116.563 62H163.438C163.438 37.25 155.188 25.375 136.063 25.375C116.438 25.375 106.438 38.125 106.438 61.25C106.438 84.625 116.938 96.25 136.813 96.25C145.688 96.25 154.438 94 161.313 90.375L158.563 83.75C152.313 86.375 146.313 88 138.188 88ZM136.438 33.5C148.188 33.5 153.188 40.625 154.188 56H116.688C117.813 40.75 124.313 33.5 136.438 33.5ZM197.637 96.25C212.137 96.25 223.637 89.75 223.637 76.875C223.637 63.625 212.387 59.375 202.012 56C193.387 53.25 186.012 51 186.012 43.875C186.012 36.875 192.387 33.5 200.887 33.5C207.137 33.5 213.262 35.375 217.512 37L220.012 29.5C215.012 27.125 208.137 25.375 200.762 25.375C187.012 25.375 176.637 31.5 176.637 43.5C176.637 54.875 185.762 58.625 195.512 62C205.137 65.25 214.262 68.125 214.262 76.375C214.262 84.5 206.887 88.25 197.762 88.25C189.762 88.25 182.262 85.375 177.137 83.25L175.137 90.75C181.137 93.875 188.887 96.25 197.637 96.25ZM257.332 87.5C253.082 86.25 251.582 83.125 251.582 75.625V33.75H262.957L263.707 26.375H251.582V8.12499L243.207 8.62499L241.707 26.375H234.207V33.75H241.707V77.25C241.707 88.375 246.082 93.375 254.957 95.25C257.832 96 261.082 96 263.957 95.75L264.457 88.5C261.207 88.5 259.207 88.125 257.332 87.5ZM309.534 25.375C301.534 25.375 292.909 29.25 287.409 35L286.284 26.375L277.409 27.5L278.034 42V95H287.909V44.25C292.659 38 302.534 34 311.034 34C312.659 34 314.159 34.125 315.534 34.5L316.534 26.5C314.284 25.75 312.034 25.375 309.534 25.375ZM352.421 88C337.296 88 331.046 79.75 330.796 62H377.671C377.671 37.25 369.421 25.375 350.296 25.375C330.671 25.375 320.671 38.125 320.671 61.25C320.671 84.625 331.171 96.25 351.046 96.25C359.921 96.25 368.671 94 375.546 90.375L372.796 83.75C366.546 86.375 360.546 88 352.421 88ZM350.671 33.5C362.421 33.5 367.421 40.625 368.421 56H330.921C332.046 40.75 338.546 33.5 350.671 33.5Z" fill="white"/>
</svg>
