<svg width="759" height="87" viewBox="0 0 759 87" fill="none" xmlns="http://www.w3.org/2000/svg">
<path d="M12.0131 85L16.0731 17.66H16.6331L47.4331 71.42H57.9331L88.5931 17.66H89.1531L93.4931 85H106.513L101.053 1.56H84.9531L53.8731 56.02H53.3131L22.5131 1.56H5.71313L0.253125 85H12.0131ZM153.217 86.4C173.237 86.4 186.817 74.36 186.817 56.72C186.817 38.8 173.097 26.48 153.217 26.48C133.057 26.48 119.477 38.8 119.477 56.72C119.477 74.5 133.057 86.4 153.217 86.4ZM153.217 76.6C140.197 76.6 132.217 69.18 132.217 56.72C132.217 44.12 140.197 36.42 153.217 36.42C165.957 36.42 174.217 44.12 174.217 56.72C174.217 69.18 166.097 76.6 153.217 76.6ZM211.74 85V60.78C211.74 46.64 217.76 36.98 230.64 36.98C232.74 36.98 234.42 37.26 236.38 37.68V27.04C234.42 26.62 232.32 26.48 230.64 26.48C218.74 26.48 212.72 33.2 210.34 43.14H209.78L208.52 27.88H199.42V85H211.74ZM253.568 17.38C259.028 17.38 262.948 13.88 262.948 8.7C262.948 3.79999 259.168 0.159999 253.568 0.159999C248.108 0.159999 244.188 3.79999 244.188 8.7C244.188 13.88 248.108 17.38 253.568 17.38ZM259.728 85V27.88H247.408V85H259.728ZM288.429 85V1.56H276.109V85H288.429ZM316.593 85V1.56H304.273V85H316.593ZM358.197 26.48C351.897 26.48 344.197 27.74 338.317 29.7V40.34C344.197 37.82 351.477 36.42 357.637 36.42C368.417 36.42 373.037 39.92 373.737 48.88H356.937C338.177 48.88 328.937 55.04 328.937 67.78C328.937 79.4 337.337 86.4 351.197 86.4C361.977 86.4 371.637 80.66 375.417 72.12H375.977L376.957 85H386.057V51.68C386.057 35.16 376.397 26.48 358.197 26.48ZM353.997 76.6C345.877 76.6 341.397 73.38 341.397 67.36C341.397 60.36 346.017 57.28 356.937 57.28H373.737C373.737 68.62 365.617 76.6 353.997 76.6ZM424.153 86.4C439.413 86.4 449.213 79.4 449.213 68.62C449.213 59.8 444.313 55.6 430.173 52.24L424.993 50.98C415.473 48.46 412.393 46.64 412.393 42.72C412.393 38.38 417.013 36.14 426.113 36.14C432.693 36.14 439.413 37.96 444.453 40.76V29.7C439.833 27.74 432.413 26.48 425.833 26.48C409.733 26.48 399.793 33.06 399.793 43.7C399.793 52.52 404.973 57.14 419.113 60.78L424.433 62.18C434.793 64.84 436.753 66.1 436.753 69.88C436.753 74.36 432.133 76.74 424.013 76.74C415.473 76.74 406.513 74.36 399.513 70.02V81.22C405.113 84.3 414.913 86.4 424.153 86.4ZM518.329 86.4C539.749 86.4 552.769 77.3 552.769 62.32C552.769 50 546.189 44.26 526.449 38.52L518.329 36C503.629 31.66 498.869 28.3 498.869 22.14C498.869 14.72 506.009 10.52 518.469 10.52C529.249 10.52 538.909 13.74 547.169 20.04V6.88C540.589 2.53999 530.649 0.159999 519.589 0.159999C498.729 0.159999 485.989 8.7 485.989 22.7C485.989 35.3 493.269 42.02 513.009 47.76L522.249 50.56C535.829 54.48 539.889 57.42 539.889 63.44C539.889 71.14 532.049 76.04 518.889 76.04C506.569 76.04 492.989 71.56 484.449 64.7V77.86C492.429 83.18 504.889 86.4 518.329 86.4ZM591.986 26.48C585.686 26.48 577.986 27.74 572.106 29.7V40.34C577.986 37.82 585.266 36.42 591.426 36.42C602.206 36.42 606.826 39.92 607.526 48.88H590.726C571.966 48.88 562.726 55.04 562.726 67.78C562.726 79.4 571.126 86.4 584.986 86.4C595.766 86.4 605.426 80.66 609.206 72.12H609.766L610.746 85H619.846V51.68C619.846 35.16 610.186 26.48 591.986 26.48ZM587.786 76.6C579.666 76.6 575.186 73.38 575.186 67.36C575.186 60.36 579.806 57.28 590.726 57.28H607.526C607.526 68.62 599.406 76.6 587.786 76.6ZM648.283 85V52.94C648.283 42.72 655.143 36.42 666.343 36.42C677.123 36.42 682.723 42.44 682.723 52.8V85H695.043V51.26C695.043 35.58 685.243 26.48 669.703 26.48C657.943 26.48 650.243 31.52 646.883 40.34H646.323L645.062 27.88H635.963V85H648.283ZM733.138 86.4C748.398 86.4 758.198 79.4 758.198 68.62C758.198 59.8 753.298 55.6 739.158 52.24L733.978 50.98C724.458 48.46 721.378 46.64 721.378 42.72C721.378 38.38 725.998 36.14 735.098 36.14C741.678 36.14 748.398 37.96 753.438 40.76V29.7C748.818 27.74 741.398 26.48 734.818 26.48C718.718 26.48 708.778 33.06 708.778 43.7C708.778 52.52 713.958 57.14 728.098 60.78L733.418 62.18C743.778 64.84 745.738 66.1 745.738 69.88C745.738 74.36 741.118 76.74 732.998 76.74C724.458 76.74 715.498 74.36 708.498 70.02V81.22C714.098 84.3 723.898 86.4 733.138 86.4Z" fill="white"/>
</svg>
