<svg width="410" height="90" viewBox="0 0 410 90" fill="none" xmlns="http://www.w3.org/2000/svg">
<path d="M98.7428 89L86.7748 6.72C86.2308 2.912 83.3748 1.008 78.7508 1.008H70.8628C66.3748 1.008 63.9268 2.63999 62.8388 6.584L49.2388 56.904L36.1828 6.584C34.9588 2.63999 32.6468 1.008 28.1588 1.008H20.2708C15.5108 1.008 12.7908 2.912 12.2468 6.72L0.00681275 89H18.3668L25.5748 33.104L39.3108 78.936H58.3508L72.4948 32.56L79.9748 89H98.7428ZM131.844 89.816C149.388 89.816 159.044 80.976 159.044 64.792V44.664C159.044 28.344 149.388 19.504 131.844 19.504C114.436 19.504 104.644 28.48 104.644 44.664V64.792C104.644 80.84 114.436 89.816 131.844 89.816ZM131.844 75.536C128.716 75.536 126.54 74.856 124.908 73.088C123.548 71.456 122.732 68.056 122.732 63.432V45.888C122.732 40.992 123.412 37.864 124.908 36.232C126.676 34.6 128.988 33.648 131.844 33.648C134.564 33.648 137.012 34.464 138.644 36.232C140.276 37.864 140.956 40.992 140.956 45.888V63.432C140.956 68.056 140.14 71.592 138.644 73.088C137.148 74.856 134.972 75.536 131.844 75.536ZM191.827 89.816H202.435L205.155 75.4H196.315C192.643 75.4 191.147 73.768 191.147 69.416V32.696H202.707L205.427 20.32H191.147V4.272H173.195V20.32H162.723V32.696H173.195V72.544C173.195 84.784 178.635 89.816 191.827 89.816ZM238.492 89.816C256.036 89.816 265.692 80.976 265.692 64.792V44.664C265.692 28.344 256.036 19.504 238.492 19.504C221.084 19.504 211.292 28.48 211.292 44.664V64.792C211.292 80.84 221.084 89.816 238.492 89.816ZM238.492 75.536C235.364 75.536 233.188 74.856 231.556 73.088C230.196 71.456 229.38 68.056 229.38 63.432V45.888C229.38 40.992 230.06 37.864 231.556 36.232C233.324 34.6 235.636 33.648 238.492 33.648C241.212 33.648 243.66 34.464 245.292 36.232C246.924 37.864 247.604 40.992 247.604 45.888V63.432C247.604 68.056 246.788 71.592 245.292 73.088C243.796 74.856 241.62 75.536 238.492 75.536ZM309.356 43.168L306.636 58.4H318.876V59.896C318.876 69.416 314.932 73.496 306.228 73.496C301.604 73.496 298.476 72.408 296.3 69.96C293.988 67.92 292.764 64.112 292.764 59.352V30.656C292.764 25.624 294.124 21.544 296.572 19.64C299.156 17.464 301.876 16.512 306.228 16.512C314.796 16.512 318.196 20.32 318.196 30.248V31.472H337.1V29.84C337.1 10.12 326.628 0.191992 306.228 0.191992C297.388 0.191992 290.316 2.09599 285.148 5.632C277.532 10.8 273.86 19.096 273.86 30.792V59.216C273.86 69.008 276.444 76.216 281.748 81.656C287.188 86.824 295.756 89.816 306.228 89.816C326.9 89.816 337.78 79.616 337.78 60.032V43.168H309.356ZM348.542 89H367.31V62.752C367.31 60.168 368.534 58.536 370.846 58.536H374.654C399.542 58.536 409.198 50.512 409.198 29.84C409.198 9.712 398.726 1.008 375.198 1.008H348.542V31.472H367.31V16.784H374.518C385.126 16.784 390.158 18.824 390.158 29.568C390.158 39.768 386.758 42.896 375.47 42.896H363.23C353.71 42.896 348.542 47.792 348.542 57.04V89Z" fill="white"/>
</svg>
