<svg width="773" height="103" viewBox="0 0 773 103" fill="none" xmlns="http://www.w3.org/2000/svg">
<path d="M77.0466 77.792L14.2146 1.36H0.0706264V102H14.7586V24.616L77.5906 102H91.7346V1.36H77.0466V77.792ZM141.727 102V1.36H127.039V102H141.727ZM281.83 102L233.55 1.36H211.79L163.51 102H179.966L190.574 79.016H254.766L265.374 102H281.83ZM219.95 15.232H225.39L248.374 65.144H196.966L219.95 15.232ZM344.819 102.68C369.571 102.68 391.603 88.536 391.603 71.4V45.56H344.411V59.432H377.459V71.4C377.459 79.968 361.547 88.808 344.819 88.808C322.651 88.808 307.691 73.848 307.691 51.68C307.691 29.512 322.651 14.552 344.819 14.552C358.419 14.552 369.571 19.72 379.635 30.6L390.379 19.584C379.227 7.34399 363.179 0.679991 344.819 0.679991C314.763 0.679991 292.731 22.304 292.731 51.68C292.731 81.056 314.763 102.68 344.819 102.68ZM525.541 102L477.261 1.36H455.501L407.221 102H423.677L434.285 79.016H498.477L509.085 102H525.541ZM463.661 15.232H469.101L492.085 65.144H440.677L463.661 15.232ZM605.874 59.16C626.41 59.16 638.786 48.144 638.786 30.056C638.786 12.104 626.546 1.36 605.874 1.36H547.258V102H561.946V59.16H588.058C596.082 84.456 619.066 101.592 644.09 102.68V88.536C626.546 87.176 610.498 76.84 603.018 59.16H605.874ZM606.962 15.232C618.25 15.232 623.826 20.128 623.826 30.056C623.826 40.12 618.114 45.288 606.962 45.288H561.946V15.232H606.962ZM772.572 102L724.292 1.36H702.532L654.252 102H670.708L681.316 79.016H745.508L756.116 102H772.572ZM710.692 15.232H716.132L739.116 65.144H687.708L710.692 15.232Z" fill="white"/>
</svg>
