<svg width="405" height="99" viewBox="0 0 405 99" fill="none" xmlns="http://www.w3.org/2000/svg">
<path d="M46.3171 98.816C73.6531 98.816 91.7411 79.64 91.7411 50.672C91.7411 21.296 73.6531 1.984 46.3171 1.984C18.8451 1.984 0.893125 21.296 0.893125 50.672C0.893125 79.64 18.8451 98.816 46.3171 98.816ZM17.4851 50.672C17.4851 28.64 28.6371 15.04 46.3171 15.04C63.9971 15.04 75.0131 28.64 75.0131 50.672C75.0131 72.296 64.1331 85.624 46.3171 85.624C28.5011 85.624 17.4851 72.296 17.4851 50.672ZM105.895 98H121.807V58.288C121.807 46.32 127.111 40.336 137.447 40.336C147.647 40.336 152.543 46.184 152.543 58.288V98H168.455V58.288C168.455 38.16 159.887 27.688 143.839 27.688C134.047 27.688 126.431 31.904 121.671 39.656H120.991V28.504H105.895V98ZM245.716 28.504H229.805V68.216C229.805 80.184 224.501 86.168 214.165 86.168C203.965 86.168 199.069 80.32 199.069 68.216V28.504H183.157V68.216C183.157 88.344 191.725 98.816 207.773 98.816C217.565 98.816 225.181 94.6 229.941 86.848H230.621V98H245.716V28.504ZM302.578 98.816C320.938 98.816 332.498 85.08 332.498 63.32C332.498 41.424 321.074 27.824 302.578 27.824C293.058 27.824 284.626 32.448 279.866 40.336H279.322V0.0799961H263.41V98H278.506V86.44H279.186C283.538 94.192 292.65 98.816 302.578 98.816ZM278.642 63.32C278.642 48.768 285.85 39.928 297.41 39.928C309.106 39.928 316.178 48.768 316.178 63.32C316.178 78.008 309.106 86.712 297.41 86.712C285.714 86.712 278.642 77.872 278.642 63.32ZM366.145 98.816C376.209 98.816 384.369 94.6 388.993 86.848H389.537V98H404.769V28.504H349.689V40.336H388.857V51.76L366.145 55.84C351.457 58.424 343.433 66.584 343.433 78.824C343.433 91.336 351.865 98.816 366.145 98.816ZM358.801 77.736C358.801 71.208 363.017 67.128 371.449 65.632L388.857 62.504V68.624C388.857 79.504 381.105 87.12 370.225 87.12C362.881 87.12 358.801 83.72 358.801 77.736Z" fill="white"/>
</svg>
