<svg width="777" height="124" viewBox="0 0 777 124" fill="none" xmlns="http://www.w3.org/2000/svg">
<path d="M0.357188 96V0.799994H32.9972C51.9012 0.799994 64.2772 11.952 64.2772 29.088C64.2772 46.088 51.9012 57.376 32.9972 57.376H13.2772V96H0.357188ZM13.2772 45.272H32.9972C44.2852 45.272 51.0852 39.152 51.0852 29.088C51.0852 19.024 44.2852 12.904 32.9972 12.904H13.2772V45.272ZM104.408 97.496C86.1838 97.496 73.1278 83.08 73.1278 62.952C73.1278 42.688 86.1838 28.272 104.408 28.272C114.608 28.272 123.992 33.304 127.936 40.648V29.768H140.176V96H127.936V84.576C123.72 92.464 114.744 97.496 104.408 97.496ZM85.5038 62.952C85.5038 76.688 94.3438 86.344 106.856 86.344C119.368 86.344 128.344 76.688 128.344 62.952C128.344 49.08 119.504 39.424 106.856 39.424C94.3438 39.424 85.5038 49.216 85.5038 62.952ZM160.614 123.2V29.768H172.854V41.192C177.07 33.304 186.046 28.272 196.382 28.272C214.606 28.272 227.662 42.688 227.662 62.816C227.662 83.08 214.606 97.496 196.382 97.496C186.182 97.496 176.798 92.464 172.854 85.12V123.2H160.614ZM172.446 62.816C172.446 76.688 181.286 86.344 193.934 86.344C206.446 86.344 215.286 76.552 215.286 62.816C215.286 49.08 206.446 39.424 193.934 39.424C181.422 39.424 172.446 49.08 172.446 62.816ZM271.22 97.496C252.996 97.496 239.94 83.08 239.94 62.952C239.94 42.688 252.996 28.272 271.22 28.272C281.42 28.272 290.804 33.304 294.748 40.648V29.768H306.988V96H294.748V84.576C290.532 92.464 281.556 97.496 271.22 97.496ZM252.316 62.952C252.316 76.688 261.156 86.344 273.668 86.344C286.18 86.344 295.156 76.688 295.156 62.952C295.156 49.08 286.316 39.424 273.668 39.424C261.156 39.424 252.316 49.216 252.316 62.952ZM346.603 96C335.043 76.824 326.067 54.792 319.947 29.768H332.867C336.539 48.4 342.931 65.672 353.131 84.848C363.331 65.672 369.723 48.4 373.395 29.768H386.315C380.467 53.296 371.491 75.872 361.563 92.736C353.947 105.656 350.139 113.952 348.099 123.2H335.179C338.307 113.136 341.707 105.112 346.603 96ZM424.486 97.496C406.262 97.496 393.206 83.08 393.206 62.952C393.206 42.688 406.262 28.272 424.486 28.272C434.686 28.272 444.07 33.304 448.014 40.648V29.768H460.254V96H448.014V84.576C443.798 92.464 434.822 97.496 424.486 97.496ZM405.582 62.952C405.582 76.688 414.422 86.344 426.934 86.344C439.446 86.344 448.422 76.688 448.422 62.952C448.422 49.08 439.582 39.424 426.934 39.424C414.422 39.424 405.582 49.216 405.582 62.952ZM516.732 96V0.799994H573.172V12.904H529.652V43.096H571.132V55.2H529.652V96H516.732ZM617.257 97.496C597.673 97.496 583.393 82.808 583.393 62.952C583.393 42.824 597.673 28.272 617.257 28.272C636.705 28.272 650.985 42.824 650.985 62.952C650.985 82.808 636.705 97.496 617.257 97.496ZM595.769 62.952C595.769 76.688 604.609 86.344 617.257 86.344C629.769 86.344 638.609 76.688 638.609 62.952C638.609 49.08 629.769 39.424 617.257 39.424C604.609 39.424 595.769 49.08 595.769 62.952ZM667.294 96V29.768H679.534V39.832C683.07 32.76 690.822 28.272 699.526 28.272C713.806 28.272 722.918 37.928 722.918 53.432V96H710.678V55.608C710.678 45.272 705.102 39.424 695.31 39.424C686.198 39.424 679.534 46.632 679.534 57.104V96H667.294ZM748.174 96V40.648H735.118V29.768H748.174V9.63999H760.414V29.768H776.19V40.648H760.414V96H748.174Z" fill="white"/>
</svg>
