<svg width="685" height="104" viewBox="0 0 685 104" fill="none" xmlns="http://www.w3.org/2000/svg">
<path d="M71.2651 92.296L55.2171 59.248C67.7291 55.848 74.5291 47.416 74.5291 33.952C74.5291 17.088 64.6011 8.52 39.5771 8.52H0.817063V15.456H12.6491V92.296L0.817063 95.968V101H35.9051V94.064H27.8811V60.744H41.3451L58.3451 101H81.6011V95.56L71.2651 92.296ZM27.8811 15.456H39.4411C52.6331 15.456 58.7531 21.168 58.7531 33.816C58.7531 43.88 54.9451 50.408 47.0571 53.808H27.8811V15.456ZM117.979 103.176C137.971 103.176 148.715 90.8 148.715 67.952C148.715 44.832 137.971 32.32 117.979 32.32C98.1229 32.32 87.3789 44.832 87.3789 67.952C87.3789 90.8 98.1229 103.176 117.979 103.176ZM118.251 95.832C108.051 95.832 103.427 87.264 103.427 67.272C103.427 47.824 107.915 39.528 117.979 39.528C128.179 39.528 132.667 47.96 132.667 67.544C132.667 87.536 128.179 95.832 118.251 95.832ZM188.306 103.176C197.826 103.176 205.986 99.912 212.514 94.88L211.018 89.576C205.714 92.568 199.322 94.2 193.474 94.2C181.642 94.2 176.474 85.088 176.474 66.728C176.474 49.728 180.826 39.664 191.57 39.664C194.154 39.664 196.874 39.936 199.322 41.024L202.042 55.304H210.474V37.76C205.578 34.224 198.914 32.32 192.114 32.32C173.754 32.32 160.426 46.192 160.426 68.088C160.426 88.896 168.042 103.176 188.306 103.176ZM245.3 94.064V0.903992L220.956 4.712V9.88L230.612 12.192V92.568L221.092 95.832V101H253.596V94.064H245.3ZM283.652 94.608L259.988 61.968L276.852 42.112L286.508 40.344V34.496H258.9V41.296H268.012L248.7 64.416V68.632L266.244 93.928C268.828 97.736 273.18 103.176 279.572 103.176C284.332 103.176 288.82 101.816 293.308 98.552V94.608H283.652ZM405.484 94.064L397.596 84.408C402.492 77.2 405.348 68.224 405.348 58.16C405.348 52.04 404.26 46.736 401.54 42.792L392.836 49.32C395.012 53.672 396.236 59.52 396.236 64.96C396.236 69.992 395.148 74.752 393.244 78.832L373.524 54.352C365.092 44.016 356.388 36.128 356.388 25.928C356.388 16.952 362.78 12.328 371.212 12.328C374.068 12.328 377.196 12.872 380.324 13.96L383.996 28.784H389.164V11.104C383.86 7.83999 377.468 6.34399 371.484 6.34399C358.428 6.34399 346.46 13.416 346.46 27.424C346.46 36.536 351.9 44.56 358.428 52.72C343.06 60.472 336.94 68.632 336.94 79.92C336.94 96.104 349.18 103.176 363.732 103.176C373.66 103.176 383.18 99.232 390.66 92.432L397.596 101H415.684V96.648L405.484 94.064ZM366.044 95.832C353.124 95.832 347.548 87.536 347.548 73.664C347.548 71.624 347.684 69.448 347.956 67.272C351.22 64.144 357.068 60.472 362.508 57.752C363.324 58.704 364.276 59.792 365.092 60.88L386.852 87.808C381.684 92.84 374.476 95.832 366.044 95.832ZM528.971 101L509.795 63.192C521.083 58.976 527.883 49.864 527.883 35.856C527.883 16.68 514.827 8.52 490.755 8.52H466.819V101H482.323V65.912H492.931H495.651L512.651 101H528.971ZM482.323 54.896V19.536H490.891C504.763 19.536 511.835 24.568 511.835 37.08C511.835 48.096 505.443 54.896 492.115 54.896H482.323ZM567.925 103.176C587.781 103.176 598.797 90.936 598.797 68.632C598.797 45.104 587.781 32.184 567.925 32.184C548.069 32.184 537.325 45.104 537.325 68.632C537.325 90.936 548.069 103.176 567.925 103.176ZM567.925 92.024C557.725 92.024 553.101 84.544 553.101 67.952C553.101 51.088 557.725 43.336 567.925 43.336C578.261 43.336 583.021 51.088 583.021 67.952C583.021 84.544 578.261 92.024 567.925 92.024ZM630.308 103.176C633.028 103.176 636.564 102.768 640.372 101.816L642.82 90.12C640.372 90.664 637.924 91.072 635.476 91.072C630.172 91.072 627.588 88.08 627.588 80.328V1.176L612.628 3.08V82.504C612.628 97.464 619.836 103.176 630.308 103.176ZM671.745 103.176C674.465 103.176 678.001 102.768 681.809 101.816L684.257 90.12C681.809 90.664 679.361 91.072 676.913 91.072C671.609 91.072 669.025 88.08 669.025 80.328V1.176L654.065 3.08V82.504C654.065 97.464 661.273 103.176 671.745 103.176Z" fill="white"/>
</svg>
