<svg width="692" height="101" viewBox="0 0 692 101" fill="none" xmlns="http://www.w3.org/2000/svg">
<path d="M53.3713 60.92C66.0193 57.248 74.1793 47.184 74.1793 32.768C74.1793 16.312 62.7553 3.79999 43.4433 3.79999H0.195282V99H14.6113V62.416H38.2753L63.0273 99H78.9393V97.64L53.3713 60.92ZM42.4913 16.584C53.3713 16.584 59.6273 22.704 59.6273 32.768C59.6273 43.376 53.5073 49.496 42.4913 49.496H14.6113V16.584H42.4913ZM128.417 99V16.584H159.425V3.79999H83.1287V16.584H114.137V99H128.417ZM239.048 99V86.216H188.728V3.79999H174.312V99H239.048ZM324.221 100.36C348.837 100.36 363.661 86.76 363.661 63.64V3.79999H349.381V63.096C349.381 78.872 340.541 87.304 324.221 87.304C308.173 87.304 299.197 78.872 299.197 63.096V3.79999H284.781V63.64C284.781 86.624 299.877 100.36 324.221 100.36ZM397.032 99V60.648C397.032 47.728 404.104 40.112 415.8 40.112C427.36 40.112 432.528 46.232 432.528 56.976V99H446.264V54.12C446.264 37.8 436.2 27.872 419.744 27.872C408.592 27.872 401.112 32.632 397.032 39.568H396.488L395.4 29.368H383.296V99H397.032ZM478.076 16.04V0.943998H462.98V16.04H478.076ZM477.396 99V29.368H463.66V99H477.396ZM537.255 99V87.576H527.871C521.479 87.576 517.943 84.176 517.943 78.056V40.384H537.255V29.368H517.943V10.328H504.207V29.368H490.199V40.384H504.207V77.92C504.207 91.792 511.279 99 525.423 99H537.255ZM580.73 100.36C596.914 100.36 610.786 91.384 612.826 78.192H599.226C597.05 84.992 589.842 88.664 580.73 88.664C566.586 88.664 558.562 80.368 558.562 68.128H613.778V62.008C613.778 42.152 601.402 27.872 579.642 27.872C557.202 27.872 544.418 43.24 544.418 64.184C544.418 85.128 557.338 100.36 580.73 100.36ZM558.698 57.656C559.242 47.32 566.178 39.704 579.642 39.704C592.834 39.704 599.498 47.32 599.634 57.656H558.698ZM622.379 64.048C622.379 86.216 634.755 100.36 654.339 100.36C663.859 100.36 671.883 96.688 677.051 89.752H677.731L679.363 99H691.467V3.79999H677.731V38.48H677.187C671.747 31.544 663.451 27.872 653.523 27.872C634.483 27.872 622.379 41.88 622.379 64.048ZM656.651 88.256C643.867 88.256 636.251 79.416 636.251 64.048C636.251 48.816 643.731 40.112 656.651 40.112C670.251 40.112 678.139 49.088 678.139 64.048C678.139 79.008 670.251 88.256 656.651 88.256Z" fill="white"/>
</svg>
