<svg width="730" height="103" viewBox="0 0 730 103" fill="none" xmlns="http://www.w3.org/2000/svg">
<path d="M36.1398 102C37.7718 101.864 39.2678 101.32 40.8998 100.912C42.6678 100.368 44.4358 99.824 46.2038 99.144C48.3798 98.6 50.4198 98.056 52.4598 97.104C54.7718 95.744 56.8118 93.976 58.5798 92.208C60.0758 90.984 61.0278 89.488 61.4358 87.72C62.2518 85 62.5238 82.008 62.1158 79.016C61.8438 76.568 61.5718 74.12 60.8918 71.536C59.2598 65.552 55.7238 60.792 51.3718 56.576C49.0598 54.264 46.3398 52.36 43.8918 50.32L29.6118 38.896C28.2518 37.672 26.8918 36.448 26.2118 34.408C24.9878 31.824 25.3958 29.104 25.9398 26.52C26.0758 25.84 26.4838 25.024 26.8918 24.616C28.3878 22.984 30.2918 22.848 32.1958 23.256C36.0038 24.208 38.5878 26.112 39.5398 29.92C40.0838 32.504 40.7638 35.36 40.2198 37.944C40.2198 38.488 40.3558 39.032 40.3558 39.44C40.7638 39.712 41.0358 39.984 41.4438 40.12V39.712L59.8038 39.168C60.7558 38.352 61.2998 37.264 61.0278 35.904C60.7558 33.728 60.2118 31.416 60.2118 29.376C60.2118 25.432 59.2598 21.76 57.4918 18.36C54.9078 13.056 51.3718 8.70399 45.9318 5.984C40.7638 3.67199 35.4598 2.584 30.0198 3.80799C27.2998 4.35199 24.8518 5.168 22.4038 6.392C19.1398 7.752 16.1478 9.52 13.1558 11.288C11.9318 12.24 10.5718 12.92 9.75584 14.144C8.39584 17 7.30784 19.992 6.21984 22.984C5.40384 25.976 5.40384 29.104 5.94784 32.096C6.21984 35.496 7.17184 38.488 8.93984 41.344C10.2998 43.112 11.7958 44.472 13.1558 46.24C14.1078 47.192 14.7878 48.28 15.6038 49.368C16.8278 50.32 18.0518 51.408 19.1398 52.496C21.8598 54.944 24.3078 57.664 26.7558 60.248C29.0678 62.56 31.5158 64.736 33.5558 67.184C35.4598 69.496 37.0918 72.08 38.5878 74.528C39.2678 75.616 39.2678 77.112 40.0838 78.064C40.8998 80.24 39.5398 83.776 37.3638 84.32C35.0518 84.728 32.7398 84.728 30.4278 84.32C26.6198 83.64 23.6278 81.6 21.9958 78.064C21.3158 76.568 21.4518 74.528 21.3158 72.76C21.1798 70.72 21.1798 68.408 19.6838 66.504C18.8678 66.232 17.7798 66.096 16.8278 66.096C12.4758 66.096 8.25984 66.232 3.90784 66.64C2.95584 66.64 1.45984 66.776 1.45984 68.408C1.32384 68.544 1.18784 68.816 0.779844 68.952C0.915844 70.72 1.32384 72.488 1.32384 74.12C1.45984 77.656 1.45984 80.92 1.32384 84.32C1.32384 87.448 2.13984 90.168 3.90784 92.48C6.49184 95.608 9.61984 97.92 13.5638 99.008C16.0118 99.688 18.3238 100.368 20.6358 100.912C21.8598 101.32 23.0838 101.048 24.3078 101.32C26.4838 101.32 28.5238 101.32 30.4278 101.456H32.7398C33.9638 101.592 35.0518 102.136 36.1398 102ZM36.0038 99.824C31.5158 99.824 27.1638 99.552 22.6758 99.144C21.1798 99.008 19.5478 98.328 17.9158 97.92C17.6438 97.784 17.0998 97.512 16.6918 97.512C12.6118 96.696 9.21184 94.52 6.76384 91.392C4.85984 88.944 3.63584 86.496 3.77184 83.096C4.17984 79.016 3.90784 74.936 3.90784 70.72V69.632L13.5638 68.544C13.8358 71.4 14.2438 74.12 14.7878 76.704C15.3318 79.424 16.6918 81.6 18.5958 83.368C19.8198 84.456 21.3158 85.136 22.9478 85.952C23.7638 86.224 24.9878 86.496 26.2118 86.632C26.7558 86.768 27.4358 86.632 27.9798 86.496C30.6998 86.768 33.2838 86.496 36.0038 85.952C39.1318 85.136 41.9878 82.688 42.3958 80.104C42.8038 77.248 41.9878 74.528 40.2198 72.352C37.3638 68.272 34.2358 64.464 30.6998 60.928C27.1638 57.392 23.6278 53.856 20.2278 50.184C17.3718 47.192 15.3318 43.792 13.5638 40.12C13.0198 38.488 12.4758 36.72 12.0678 35.224C11.5238 31.144 10.9798 27.064 10.8438 22.984C10.7078 19.584 11.7958 16.456 13.6998 13.736C14.3798 12.92 15.4678 12.376 16.2838 11.696C16.8278 10.88 17.6438 10.472 18.3238 9.92799C20.2278 8.976 22.1318 7.752 24.1718 7.072C27.7078 5.984 31.3798 5.168 35.0518 5.57599C41.4438 6.528 47.1558 8.432 50.9638 14.008C52.4598 16.048 53.9558 17.952 55.1798 20.128C57.4918 24.752 57.7638 29.512 57.8998 34.408C57.8998 35.496 58.0358 36.448 58.4438 37.808H42.6678C43.6198 36.176 43.3478 34.272 42.8038 32.368L41.5798 27.064C40.8998 24.208 37.3638 21.352 34.5078 21.08C33.1478 20.808 31.5158 20.264 30.1558 20.672C26.7558 21.08 22.9478 24.208 22.9478 28.288C22.6758 30.6 22.6758 32.64 23.3558 34.952C24.1718 37.264 25.5318 39.168 27.2998 40.664C31.2438 44.064 35.3238 47.056 39.1318 50.32C42.5318 53.04 45.9318 55.488 49.0598 58.48C52.5958 61.88 55.7238 65.688 57.4918 70.584C58.3078 72.76 58.4438 75.48 58.4438 77.928C58.3078 81.464 57.4918 84.864 55.7238 87.992C54.3638 90.984 52.0518 93.568 48.9238 94.928C46.3398 96.016 44.2998 97.512 41.8518 98.6C40.0838 99.28 37.9078 99.824 36.0038 99.824ZM114.371 101.864C117.771 100.776 121.307 99.824 124.299 97.784C126.747 96.152 128.923 94.384 130.283 91.8C132.459 88.4 133.683 84.728 134.499 80.784C135.587 75.888 136.131 70.72 135.995 65.552C135.859 64.464 135.043 63.784 134.091 63.92C133.275 64.192 132.731 64.464 132.051 64.736C130.147 64.736 128.243 64.736 126.203 64.872C123.891 64.872 121.851 64.872 119.539 65.008C118.451 65.28 117.227 65.552 116.003 65.96C115.595 68.272 115.459 70.584 115.323 72.624C115.323 75.344 113.283 77.928 110.699 78.608C109.475 79.016 108.251 79.016 107.027 79.016C105.803 79.016 104.307 79.152 103.219 78.88C101.723 78.336 99.9547 78.064 99.0027 76.568C98.8667 76.16 98.7307 76.024 98.4587 75.888C96.5547 74.12 95.4667 71.808 94.7867 69.496C94.1067 67.048 94.2427 64.192 93.4267 61.744C92.6107 59.16 92.8827 56.712 93.0187 54.128V43.248C93.0187 39.168 92.6107 35.224 92.8827 31.144C93.0187 25.432 100.227 19.448 106.075 22.44C109.339 24.208 111.379 26.384 111.923 29.92C112.331 32.64 112.875 35.496 113.283 38.76C116.411 38.216 119.131 37.264 121.987 37.128C124.979 36.992 127.971 37.264 130.963 37.264L133.003 35.36C132.731 35.36 132.595 35.224 132.459 35.224C132.595 34.408 132.731 33.728 133.003 33.184L133.139 32.504C133.003 31.28 133.139 30.056 132.731 28.832C132.459 25.568 132.051 22.44 131.235 19.448C130.691 17.136 129.467 14.824 128.515 12.648C128.243 12.512 127.835 12.512 127.699 12.512C125.931 10.2 124.163 8.15999 122.123 6.11999C121.987 5.984 121.987 5.57599 121.987 5.43999C120.083 3.67199 117.635 3.12799 114.915 2.99199L110.699 2.44799C108.387 2.31199 106.075 1.76799 103.763 1.76799C100.499 1.90399 97.0987 2.31199 93.6987 2.44799C90.1627 2.584 86.7627 3.12799 84.0427 5.304C81.4587 7.208 79.2827 9.38399 76.6987 11.288C75.7467 12.24 75.2027 13.192 75.2027 14.688C75.2027 14.96 74.7947 15.368 74.7947 15.776C74.3867 16.456 74.1147 17.136 74.1147 17.952L73.5707 23.256C73.5707 24.888 73.4347 26.52 73.5707 27.88C73.5707 31.144 74.7947 34.272 73.9787 37.4V37.944C74.1147 40.8 74.3867 43.792 74.3867 46.648C74.3867 50.32 74.2507 54.264 74.1147 58.208C73.9787 60.112 74.1147 62.152 73.7067 64.192C72.3467 70.992 73.4347 77.656 76.0187 83.912C77.6507 87.72 79.9627 91.256 83.2267 93.976C86.3547 96.696 89.6187 98.464 93.4267 99.688C98.3227 101.456 103.219 101.864 108.251 101.456C108.931 101.32 109.475 101.456 110.019 101.456V101.592C110.291 101.592 110.563 101.456 110.835 101.456C111.923 101.864 113.283 102.136 114.371 101.864ZM107.843 96.832C105.939 96.56 103.763 96.696 101.723 96.288C97.0987 95.472 92.4747 93.84 88.3947 91.392C84.0427 88.672 81.0507 85 79.2827 80.376C77.5147 76.024 76.0187 71.536 76.9707 66.64C77.5147 64.192 77.2427 61.472 77.5147 58.888C77.6507 53.856 77.7867 48.824 77.7867 43.792C77.7867 41.888 77.1067 40.12 76.9707 38.216C76.6987 36.72 76.6987 35.36 76.6987 33.864C76.6987 31.96 76.6987 30.056 77.1067 28.152C77.7867 22.984 79.0107 17.816 82.0027 13.6C83.2267 11.832 85.4027 10.744 87.1707 9.656C89.8907 8.15999 93.0187 7.616 96.0107 7.616C99.4107 7.616 102.539 7.888 105.939 8.296C108.523 8.432 111.243 8.70399 113.691 8.976C116.411 9.52 118.859 10.744 120.763 12.648C121.715 13.6 122.667 14.144 123.755 14.96C124.435 15.504 125.251 16.184 125.931 17C125.931 17 125.931 17.136 125.659 17.136C126.475 17.272 127.019 17.544 127.699 17.544C130.283 22.984 130.011 28.832 130.147 34.816L127.155 34.272C125.659 34.272 124.299 33.864 122.939 34.136C120.763 34.272 118.859 34.68 116.683 34.952H116.003C115.595 33.184 115.595 31.688 115.051 30.056C114.235 25.568 112.331 21.76 108.251 19.448C105.939 17.952 103.083 18.36 100.499 19.04C94.2427 20.808 91.1147 25.296 90.0267 31.416C89.8907 33.864 90.0267 36.448 90.0267 38.76C90.1627 45.56 90.7067 52.496 89.6187 59.432C89.0747 63.648 88.8027 68 88.5307 72.352C88.2587 76.296 89.0747 80.24 91.3867 83.776C92.0667 84.728 93.0187 85.544 94.1067 86.224C95.3307 87.176 96.5547 87.72 97.7787 88.4C99.5467 89.216 101.179 88.536 102.947 88.536C105.395 88.4 107.843 88.264 110.155 87.72C112.331 87.176 114.235 86.224 115.595 84.456C118.995 80.784 119.539 76.16 119.675 71.4V68.408C123.755 67.456 128.243 67.864 132.595 67.456C132.595 68.952 132.731 70.584 132.595 71.944C132.051 77.112 131.235 82.144 129.467 87.176C127.699 92.072 124.163 95.472 118.995 96.696C115.459 97.512 111.787 97.784 107.843 96.832ZM196.052 101.048C196.324 100.64 196.868 100.096 197.276 99.688H200.948C203.804 99.552 206.66 99.28 209.516 99.28C212.78 99.28 216.044 99.552 219.308 99.552C222.708 99.688 226.108 99.688 229.372 99.688C231.956 99.688 234.404 99.28 236.852 99.28C239.98 99.144 243.244 99.008 246.1 97.512C248.004 96.696 249.908 95.608 251.676 94.384C253.852 92.616 255.076 89.76 255.892 87.176C257.388 82.688 257.252 78.064 256.98 73.576C256.844 66.232 253.308 60.384 249.228 54.808C246.916 51.408 243.38 49.096 239.572 47.6L236.172 46.512C237.804 45.288 239.3 44.336 240.524 42.976C244.06 39.44 246.372 35.224 248.004 30.6C249.092 27.744 249.772 24.752 250.18 21.76C250.452 19.04 249.772 16.456 248.684 13.736C246.916 9.656 244.468 6.392 240.252 4.89599C237.396 4.08 234.54 3.536 231.684 2.99199C228.556 2.44799 225.428 1.90399 222.164 1.76799C217.54 1.632 212.78 1.90399 208.02 1.90399C204.484 1.90399 201.084 2.584 197.82 3.536C197.14 3.67199 196.324 4.08 195.78 4.21599V6.392L195.372 14.416V19.448C195.372 21.216 195.372 23.12 195.1 24.888V40.664C195.1 44.88 194.828 49.368 194.964 53.584C195.1 57.392 195.372 61.472 194.964 65.416C194.828 66.504 194.556 67.456 194.828 68.408C194.964 71.4 195.372 74.392 195.372 77.384C195.372 82.552 194.964 87.72 194.828 92.752C194.828 94.248 194.964 95.744 194.556 97.24C194.284 98.872 194.828 99.824 196.052 101.048ZM198.5 94.792C198.5 93.976 198.364 93.024 198.364 91.936C198.5 88.672 199.044 85.544 199.044 82.144C199.044 76.84 198.5 71.536 198.5 66.232C198.5 63.648 198.908 61.2 198.908 58.616C198.908 55.896 198.636 53.04 198.636 50.32C198.5 47.872 198.5 45.424 198.364 43.112C198.364 38.76 198.364 34.272 198.092 29.648V18.768C198.092 15.368 197.956 12.24 197.956 8.976C197.82 7.888 197.956 7.072 197.956 5.848C198.092 5.848 198.5 5.57599 198.908 5.57599C201.9 5.304 204.892 4.89599 207.884 4.89599C211.556 4.76 215.228 4.76 219.036 5.168C223.252 5.43999 227.468 6.392 231.684 6.93599C233.18 7.34399 234.54 7.616 235.764 8.15999C238.756 9.112 240.796 11.152 242.292 13.6C245.012 17.68 245.828 22.032 245.012 27.064C244.332 30.872 243.108 34.68 241.068 37.944C239.028 41.48 236.172 43.792 232.228 45.288C227.876 46.784 223.66 48.28 219.172 49.64C217.404 50.32 217.268 51.408 218.628 53.04C224.068 52.088 229.372 52.496 234.54 54.128C236.172 54.672 237.804 55.08 239.164 55.896C240.524 56.576 242.02 57.664 243.38 58.616C245.692 60.384 247.324 62.56 248.684 65.008C252.22 71.264 252.356 77.792 251.54 84.456C251.404 85.544 251.404 86.632 250.996 87.72C250.316 89.624 248.82 90.984 247.052 92.208C245.284 93.568 243.244 93.704 241.068 93.704C237.396 93.84 233.724 93.84 229.78 93.976L217.404 94.52H216.18V86.224C219.172 85.544 222.572 85.136 225.836 85.408C230.46 85.68 233.996 83.64 236.716 79.832C238.484 77.384 237.94 72.352 236.036 69.632C233.86 66.504 230.46 65.008 226.924 64.872C223.66 64.464 220.26 64.736 216.86 64.736C216.588 64.736 216.044 64.872 215.772 65.008C215.5 65.552 215.228 66.096 214.956 66.504C214.548 75.888 213.052 85 213.46 94.792H198.5ZM213.188 37.672C215.228 37.264 217.268 37.264 219.308 36.992C220.94 36.584 222.572 36.448 223.932 35.632C225.428 34.952 226.652 33.728 227.468 32.368C230.188 28.152 230.732 23.8 227.604 19.448C226.38 17.68 224.884 16.184 222.572 16.048C219.172 15.504 215.772 15.504 212.508 15.368C211.42 15.368 210.468 15.776 209.788 15.912C209.244 17.136 208.972 18.36 208.7 19.448C208.564 21.352 208.564 23.256 208.428 25.296C208.156 28.832 208.156 32.096 209.516 35.496C210.196 37.808 210.876 38.216 213.188 37.672ZM215.636 33.592C216.588 28.56 216.316 23.528 214.548 18.496C219.308 17.544 223.116 18.904 225.156 22.032C226.652 24.208 226.788 29.512 224.476 31.824C223.116 33.184 221.348 33.184 219.58 33.456C218.356 33.592 216.996 33.592 215.636 33.592ZM216.724 83.368C216.996 78.064 217.54 72.624 217.948 67.048C219.716 67.184 221.484 67.184 223.388 67.32C225.7 67.728 227.876 68.272 229.916 69.632C232.908 71.536 234.948 75.616 233.724 79.152C232.908 80.92 231.548 82.416 229.644 82.552C225.156 82.96 220.94 83.096 216.724 83.368ZM306.623 100.776C310.567 100.368 314.103 99.144 317.503 97.512C321.855 95.336 324.303 91.256 326.479 86.904C327.839 84.184 328.791 81.192 330.015 78.336C332.327 72.624 333.551 66.64 334.095 60.656C334.639 54.128 334.911 47.328 335.183 40.8C335.319 36.176 335.183 31.416 335.183 26.792C335.183 23.528 335.319 20.264 335.319 17.136C335.183 12.512 334.775 8.15999 334.639 3.67199C334.639 2.99199 334.503 2.31199 334.231 1.76799C334.095 1.76799 333.959 1.632 333.959 1.632C328.383 1.632 322.943 1.36 317.503 1.76799C314.239 1.90399 313.423 2.04 313.423 6.392C313.559 11.832 313.967 17.272 313.967 22.848C313.967 26.112 313.287 29.512 313.015 32.64L312.471 45.288C312.199 52.496 311.927 59.976 311.791 67.184C311.791 68.544 311.791 70.176 311.519 71.536C310.567 75.072 309.751 78.472 308.663 82.008C307.983 85 306.351 86.496 303.631 86.496C302.271 86.224 300.639 86.088 299.279 85.408C297.511 84.728 295.607 83.912 293.975 82.688C291.527 80.784 290.983 77.792 290.575 74.936L290.031 67.184C289.759 63.92 289.351 60.928 289.351 57.8C289.215 53.856 289.351 50.048 289.487 46.104C289.487 43.656 290.031 41.208 290.303 38.76C290.575 35.224 290.575 31.688 290.711 28.152C290.711 25.84 290.711 23.256 290.983 21.08L291.527 7.34399C291.663 5.57599 291.527 3.80799 291.527 1.90399L290.031 2.31199C289.895 2.04 289.487 1.90399 289.215 1.90399C287.583 1.76799 285.815 1.632 284.183 1.632C283.367 1.632 282.415 1.76799 281.735 1.36C280.375 0.679991 278.743 0.815998 277.383 1.08799L270.447 1.90399C270.447 2.31199 270.311 2.44799 270.311 2.584C270.039 4.76 269.903 6.93599 269.903 8.976C270.039 11.288 270.583 13.464 270.583 15.504C270.447 21.216 269.903 26.792 269.495 32.504C269.223 37.4 268.815 42.432 268.679 47.328C268.543 50.048 268.679 52.632 268.271 55.352C267.727 59.16 268.271 63.104 268.679 67.048C269.087 69.768 269.359 72.76 269.087 75.888C268.679 80.784 270.039 85 272.759 89.08C274.799 92.208 277.655 94.928 281.463 96.288C284.591 97.784 287.719 99.28 291.119 100.232C296.287 101.592 301.591 101.456 306.623 100.776ZM296.015 97.512C292.479 97.104 289.215 96.016 285.815 94.792C283.367 93.704 280.647 92.48 278.335 90.848C275.887 89.08 274.119 86.768 272.759 83.912C271.535 81.328 271.535 78.472 271.535 75.616C271.535 72.76 271.127 70.04 270.991 67.32C270.855 63.92 270.991 60.656 271.263 57.12C272.079 52.088 272.079 46.784 272.351 41.752C272.623 39.44 273.031 36.992 273.303 34.408C273.847 30.736 273.983 26.792 274.391 23.12C274.663 19.448 274.119 15.912 273.031 11.832H279.695C281.871 11.968 284.047 12.24 286.223 12.24C287.039 12.376 287.719 12.24 288.671 11.968C288.535 14.688 288.263 17.272 288.263 20.128C288.263 24.344 288.535 28.832 288.127 33.184C287.991 37.128 287.447 40.936 287.039 45.016C286.903 46.512 286.903 47.872 286.903 49.096C286.767 50.592 286.767 51.952 286.767 53.312C286.767 56.576 286.903 59.704 287.039 62.968C287.447 67.32 287.583 71.808 288.127 76.16C288.535 78.472 288.943 80.92 290.031 83.096C291.119 85.408 293.431 86.632 295.879 87.448C298.599 88.4 301.183 89.216 304.039 88.672C306.487 88.4 308.935 87.72 310.023 85.136C311.519 82.008 312.335 78.88 313.287 75.48C314.783 70.584 314.783 65.416 314.783 60.384C314.783 54.128 315.191 47.736 315.463 41.344C315.735 35.36 316.279 29.512 316.551 23.528C316.551 21.352 316.279 19.312 316.279 17V14.688C317.775 14.688 319.543 14.824 321.175 14.688C323.487 14.416 325.799 14.144 328.111 14.008C328.791 14.008 329.471 14.144 330.015 14.28C330.559 14.28 331.103 14.416 331.647 14.416C331.783 14.416 331.919 14.28 332.327 14.144V29.376C332.327 33.728 332.463 38.216 332.327 42.568C332.327 45.968 331.783 49.096 331.783 52.496C331.647 59.024 331.239 65.416 329.607 71.536C328.111 77.656 326.071 83.64 323.079 89.08C320.495 93.568 316.415 95.744 311.519 97.104C306.351 98.328 301.183 98.328 296.015 97.512ZM368.393 102C368.529 100.912 369.073 100.096 369.073 99.144C369.209 94.928 369.345 90.44 369.345 86.224C369.617 78.88 369.617 71.4 369.617 63.92C369.617 60.792 369.753 57.392 369.753 54.264V41.752C369.753 38.896 369.617 36.04 369.617 33.048V24.888C369.753 25.296 369.753 25.432 369.889 25.568C371.521 29.104 372.881 32.912 374.649 36.448C377.641 42.704 381.041 49.368 384.033 55.896C386.073 59.976 387.841 64.192 389.609 68.272L394.641 80.24C395.729 82.416 397.089 84.32 398.041 86.632C399.265 90.032 400.353 93.568 401.577 97.104C402.121 98.464 402.937 99.824 403.753 101.048C403.889 101.456 404.433 101.592 404.705 101.592C405.793 101.456 407.017 101.32 408.105 101.32C411.097 101.048 413.953 100.912 416.945 100.912H423.337C423.609 100.368 424.017 100.232 424.153 99.824C423.881 99.552 423.473 99.28 423.473 99.28C423.609 98.328 423.881 97.24 423.881 96.288C423.609 90.168 423.473 83.776 423.473 77.384C423.473 74.12 423.609 70.72 423.881 67.184C424.017 61.88 424.425 56.576 424.697 51.272C424.697 46.784 424.697 42.432 424.969 38.216V29.92C424.697 27.608 424.697 25.296 424.697 22.984C424.697 21.488 424.969 20.128 424.697 18.496C424.561 15.232 424.153 11.696 424.017 8.15999C424.017 6.664 424.425 5.304 424.425 4.08C418.713 4.21599 413.001 4.35199 407.425 4.35199C407.289 4.35199 407.289 4.21599 407.289 4.08C405.521 4.35199 405.113 4.76 405.113 6.528C405.113 11.424 405.249 16.592 405.113 21.76C404.977 30.056 404.433 38.352 404.025 46.784C403.889 50.592 404.025 54.4 404.025 58.344C403.889 64.192 403.889 70.04 403.889 75.888C403.889 76.296 403.889 76.84 404.025 77.384C403.889 77.384 403.753 77.656 403.753 77.656C402.121 74.256 400.353 70.992 398.857 67.728C396.953 63.24 395.185 58.888 393.281 54.672C392.329 52.632 391.377 51.136 390.425 49.096C388.657 45.016 387.025 40.8 385.257 36.584C384.033 33.728 382.673 31.144 381.177 28.288C380.769 27.064 379.681 25.84 379.001 24.616C377.641 21.488 376.689 18.36 375.193 15.504C373.833 12.648 372.065 10.064 370.433 7.208C370.161 6.93599 369.753 6.528 369.345 5.984C369.073 5.43999 368.665 4.76 368.529 4.21599H368.393C368.121 4.08 368.121 3.80799 367.985 3.12799H357.921C356.697 3.12799 355.609 3.4 354.521 3.4C353.161 3.12799 351.937 2.99199 350.441 2.99199C348.945 3.12799 347.585 4.08 346.905 5.304C347.313 6.528 347.585 7.616 347.585 8.70399C347.585 10.472 347.313 12.376 347.313 14.144C347.313 21.76 347.177 29.512 347.177 37.128C347.177 38.896 346.905 40.528 346.905 42.296C346.633 45.424 346.225 48.552 346.225 51.816C346.089 56.44 346.225 60.792 346.225 65.416C346.225 66.232 346.361 67.32 346.361 68.272L347.177 77.112C347.177 80.784 346.769 84.456 346.769 88.264C346.905 92.072 347.585 96.016 346.769 99.824C346.769 100.368 346.905 100.912 347.177 101.32H366.897C367.033 101.456 367.577 101.592 368.393 102ZM406.201 99.688C406.337 96.288 406.473 92.616 406.473 89.08C406.745 85.952 406.473 82.96 406.473 79.696C406.337 74.256 406.201 68.816 406.201 63.24C406.201 60.112 406.473 56.712 406.745 53.584C406.745 50.864 406.473 48.28 406.473 45.832L407.017 38.488C407.289 36.04 407.289 33.456 407.425 30.736L407.969 21.76V6.392L422.113 5.57599C421.841 7.34399 421.705 8.976 421.705 10.608C421.841 13.6 422.249 16.592 422.249 19.584C422.249 21.488 421.841 23.528 422.113 25.432C422.113 28.288 422.657 31.28 422.657 34.136C422.793 36.992 422.657 39.712 422.657 42.432C422.385 45.832 422.657 48.96 422.385 52.36C422.249 57.936 421.841 63.648 421.569 69.088L421.025 81.464C421.025 83.912 421.433 86.496 421.433 88.944V99.688H406.201ZM353.297 100.776V91.8C353.161 88.944 353.161 86.088 353.161 83.232C352.889 78.472 352.889 73.712 352.889 68.952V51.952C352.889 49.096 353.161 46.24 353.161 43.52C353.161 40.936 352.753 38.488 352.617 36.04C352.481 35.36 352.617 34.408 352.617 33.728V27.88C352.617 25.84 352.753 23.528 352.753 21.352C352.753 18.904 352.617 16.592 352.481 14.144L351.937 7.752C351.937 7.208 351.393 6.664 351.121 5.848H366.081C366.217 8.432 366.625 10.744 366.625 13.192C366.897 20.128 366.897 27.2 367.033 34.136V50.048C367.033 51.816 367.305 53.584 367.305 55.352C367.305 57.936 367.033 60.792 367.033 63.512C367.033 71.944 366.897 80.376 366.897 88.672C366.897 91.256 367.033 93.84 367.033 96.288C367.033 97.24 366.897 98.328 366.761 99.144C365.129 99.144 363.769 99.008 362.273 99.144C360.233 99.28 358.193 99.688 356.289 100.096C355.201 100.232 354.249 100.368 353.297 100.776ZM440.399 102C441.623 101.592 442.711 101.048 443.663 101.048C445.975 100.912 448.287 101.048 450.599 101.048H465.695C468.279 101.048 470.727 100.912 473.447 100.912C476.439 100.912 479.023 100.232 481.607 98.464C483.375 97.24 484.871 95.744 486.503 94.384C488.271 93.024 490.039 91.392 491.671 89.76C492.351 89.216 492.623 88.4 493.439 87.448C494.119 86.496 495.207 85.544 495.751 84.32C497.655 80.104 499.015 75.888 499.559 70.992C499.967 66.776 499.559 62.696 497.519 58.888C494.935 54.4 491.263 51.136 487.319 48.008C485.551 46.648 483.511 45.832 481.743 44.744C482.967 42.432 484.327 40.256 485.415 37.944C486.367 36.04 487.319 33.864 487.863 31.824C488.815 29.512 488.135 27.064 487.727 24.616C487.183 19.584 484.599 15.504 481.607 11.832C479.567 9.38399 476.711 7.752 474.127 6.11999C469.503 3.4 464.743 1.632 459.439 1.36C457.671 1.36 455.767 1.632 453.727 1.36C450.191 1.08799 446.927 0.679991 443.663 2.856C443.663 2.99199 443.527 3.12799 443.527 3.4L442.303 3.80799C442.167 4.08 441.895 4.35199 441.759 4.35199C440.943 4.89599 440.671 5.57599 440.943 6.528C440.943 7.34399 440.943 8.432 440.671 9.38399C440.671 12.376 440.535 15.232 440.399 18.224V19.312C440.399 21.352 440.127 23.664 440.127 25.84V37.4C440.535 41.888 441.079 46.512 441.215 50.864C441.351 55.08 441.351 59.432 441.351 63.512L440.943 71.944C440.671 76.16 440.127 80.24 439.991 84.32C439.991 88.264 440.127 91.936 440.127 95.744C440.127 97.104 439.991 98.464 439.991 99.688C439.991 100.64 440.127 101.32 440.399 102ZM457.671 99.552C454.679 99.552 451.687 99.144 448.831 99.008C446.927 99.008 445.159 99.144 443.119 99.28C442.983 99.28 442.439 99.144 442.303 99.008C442.847 93.024 442.711 87.176 442.439 81.328C442.303 79.016 442.711 76.704 442.847 74.528C443.119 71.264 443.527 68 443.663 64.736C443.935 61.472 443.663 58.208 443.663 54.944C443.663 52.632 443.935 50.592 443.663 48.416C443.527 44.744 442.983 40.8 442.847 37.128C442.711 33.864 442.847 30.736 442.847 27.608C442.847 26.792 442.711 25.976 442.847 25.296V14.96C442.983 12.512 443.391 9.92799 443.527 7.34399C443.527 6.93599 443.527 6.11999 443.391 5.304C444.887 5.304 446.383 5.168 447.743 5.168C448.831 5.168 450.055 5.168 451.143 5.43999C454.271 5.984 457.127 7.208 459.575 9.38399C464.607 13.6 467.463 19.312 468.823 25.432C469.911 30.736 468.279 35.224 465.695 39.576L460.119 47.736C459.983 48.28 459.847 48.96 459.983 49.368C460.119 49.64 460.799 49.64 461.343 49.776C463.519 50.32 465.831 50.728 467.871 51.544C470.455 52.496 472.903 53.312 475.215 54.808C477.799 56.44 480.247 58.48 482.423 60.656C485.143 63.24 487.047 66.504 488.271 70.04C490.719 77.248 490.175 83.776 485.415 90.032C482.423 93.568 478.887 96.56 474.535 98.056C472.903 98.6 471.135 99.008 469.367 99.144C465.423 99.28 461.615 99.552 457.671 99.552ZM478.343 42.704C474.671 41.48 471.271 40.528 467.735 39.44C468.687 37.4 469.639 35.496 470.455 33.456C472.223 28.56 471.815 23.8 469.911 19.04C468.415 15.776 466.375 12.512 464.063 9.656C462.975 8.296 461.615 6.93599 460.391 5.57599C461.751 5.984 463.519 6.11999 465.151 6.93599C468.959 8.296 472.767 10.064 475.895 12.648C478.479 14.824 480.247 17.68 482.015 20.672C484.055 23.8 484.735 27.608 484.327 31.28C484.191 34.68 482.423 37.4 480.519 40.256C479.839 41.208 479.023 42.024 478.343 42.704ZM451.959 37.672C453.455 36.72 455.359 37.4 456.447 36.176C456.447 34.68 456.039 33.048 456.311 31.688C456.447 28.56 456.855 25.568 457.127 22.576C457.263 20.536 457.535 18.36 456.311 16.048C455.087 15.232 453.591 14.824 452.911 15.912C452.231 17 451.687 18.224 451.551 19.448C451.143 21.08 451.279 22.576 451.143 24.208C450.735 27.336 450.463 30.736 450.463 33.864C450.191 35.224 450.055 36.992 451.959 37.672ZM453.047 90.44C454.543 90.44 455.495 90.44 456.583 90.304L464.879 88.672C467.055 88.264 469.231 87.856 471.135 86.904C472.767 86.496 474.127 85.408 474.807 83.64C475.487 81.6 476.711 80.104 477.255 78.336C478.071 75.072 477.119 72.08 475.351 69.224C472.903 65.416 469.639 63.104 465.287 62.56C462.295 62.016 459.031 62.152 455.903 62.424C453.727 62.424 453.455 62.968 453.727 64.872V65.008C453.455 65.008 453.319 65.008 452.911 65.28C453.319 65.416 453.455 65.552 453.727 65.96L453.319 70.04L452.503 75.616C452.367 79.152 451.959 82.688 452.775 86.224C452.911 87.448 452.911 88.944 453.047 90.44ZM457.263 86.904C456.855 86.904 456.039 86.768 455.223 86.768C455.223 80.104 455.495 73.576 456.583 66.776C458.215 66.776 459.847 66.776 461.343 66.64C467.735 66.64 473.175 73.168 473.175 78.472C473.175 81.6 471.271 83.368 468.959 84.864C468.143 85.408 467.055 85.544 466.103 85.68C463.111 86.088 460.391 86.632 457.263 86.904ZM544.106 102.408C547.778 102.952 551.722 102.408 555.258 101.456C557.162 100.912 558.93 100.232 560.698 99.688C563.146 98.872 565.73 98.328 568.042 96.696C570.49 94.928 572.53 93.16 574.57 90.712C576.61 87.72 578.378 84.32 579.466 80.92C580.418 78.472 581.234 76.16 581.642 73.848C581.914 70.856 581.914 67.864 581.914 65.008C582.186 59.432 582.322 53.72 582.186 48.28C582.186 44.88 581.778 41.48 581.778 38.352C581.642 34.952 581.37 31.688 581.37 28.424C581.234 24.072 581.37 19.448 581.098 14.96C580.826 12.648 580.418 10.472 580.418 8.15999C580.418 7.072 579.874 6.11999 579.466 4.89599C578.786 5.304 578.378 5.304 578.106 5.43999C577.29 5.304 576.61 5.304 575.93 5.43999C574.706 5.43999 573.482 5.848 572.258 5.57599C570.082 5.43999 567.77 5.304 565.458 5.984C564.506 6.392 564.098 6.93599 564.098 7.888C564.234 8.83999 564.234 9.656 564.234 10.472C564.234 15.368 564.506 20.264 564.506 25.296C564.506 28.56 564.234 32.096 564.234 35.496C564.098 37.944 564.098 40.528 563.962 42.976C563.418 47.192 563.01 51.408 562.466 55.624C562.466 56.032 562.33 56.44 562.194 56.848C562.194 57.256 562.33 57.8 562.33 58.344C561.922 61.336 561.378 64.328 559.882 67.048C558.386 69.224 556.346 70.584 553.898 70.72C551.722 70.992 549.41 70.72 547.098 70.312C545.738 70.176 544.106 69.768 543.426 68.816C541.93 66.64 540.57 64.328 540.026 61.88C539.346 58.344 539.21 54.808 538.938 51.272C538.802 45.832 538.802 40.12 538.666 34.408C538.666 32.368 538.666 30.192 538.394 28.152C538.258 24.072 537.986 19.992 537.714 15.912C537.578 12.92 537.714 10.064 537.714 7.072H537.578C537.714 6.664 537.714 6.392 537.986 5.984C537.714 5.984 537.578 5.848 537.442 5.848C534.722 5.57599 531.866 5.304 529.282 5.304C526.018 5.168 522.89 5.43999 519.898 5.43999C517.994 5.43999 515.954 5.57599 514.186 5.304C512.826 5.168 511.738 4.89599 510.922 6.392V11.424C510.65 13.056 510.514 14.416 510.514 16.048C510.514 17 510.65 17.816 510.65 18.768C510.65 21.896 510.514 24.888 510.514 28.152C510.514 31.824 510.65 35.496 510.65 39.168C511.058 46.104 511.194 53.04 511.466 59.976C511.602 62.424 511.602 64.872 511.602 67.456C511.602 68.952 511.738 70.584 511.874 71.944C512.282 74.936 512.418 77.928 513.234 80.92C513.914 84.456 515.682 87.856 517.586 90.848C518.81 93.024 520.034 95.064 522.074 96.56C524.25 98.464 527.106 99.008 529.826 99.688L544.106 102.408ZM542.338 99.824L530.098 97.24C526.426 96.56 523.434 94.792 521.258 91.528C518.81 87.992 516.498 84.32 515.682 79.832C515.138 77.112 514.73 74.256 514.594 71.536C514.186 68.272 513.914 64.872 513.642 61.744L513.234 54.808C513.234 50.184 512.962 45.56 512.962 40.936C512.962 34.816 512.826 28.56 512.826 22.576C512.962 18.768 513.37 14.824 513.506 10.744V10.064C521.258 10.472 527.786 13.736 535.266 15.912C535.266 17.68 535.13 19.448 535.266 21.352C535.402 25.568 535.81 29.92 536.218 34.136V39.168C536.354 43.52 536.218 47.6 536.49 51.544C537.034 57.392 537.578 63.512 538.666 69.224C539.346 73.576 541.658 77.112 545.058 79.696C547.642 81.872 550.634 83.096 554.17 82.688C558.794 82.008 561.922 79.56 564.098 75.48C564.914 73.304 565.186 71.264 565.458 68.952C566.41 63.784 566.002 58.48 566.41 53.312C566.546 48.416 566.546 43.52 566.682 38.488V27.608C566.682 24.888 566.546 22.304 566.546 19.584V8.15999C567.226 7.888 567.77 7.752 568.45 7.752C570.762 7.616 572.938 7.616 575.114 7.616C575.386 7.616 576.066 7.888 576.338 8.296C576.61 9.52 577.154 10.88 577.154 12.376C577.562 15.368 577.834 18.496 578.106 21.76C578.106 24.344 577.834 27.064 577.834 29.648C578.106 33.456 578.242 37.264 578.242 40.936C578.378 46.784 578.65 52.904 578.65 58.616C578.65 62.968 578.378 67.048 578.242 71.264C578.106 77.792 576.066 83.912 572.53 89.216C571.17 91.392 568.858 93.16 566.41 94.384C562.738 96.288 558.658 97.512 554.714 99.28C550.634 101.048 546.418 100.64 542.338 99.824ZM662.076 92.752C659.22 88.536 656.092 84.728 653.372 80.376C649.292 74.392 645.756 68 641.948 61.88C640.316 59.16 638.548 56.712 636.78 54.128C636.644 53.72 636.236 53.176 636.1 52.904L642.22 49.096C644.396 47.872 644.532 45.288 646.164 43.656C646.572 42.432 647.116 41.208 647.388 40.12C647.932 38.352 648.612 36.72 649.02 34.952C650.108 30.192 649.7 25.432 648.612 20.672C647.388 14.824 644.26 10.2 639.228 6.93599C637.324 5.57599 635.692 3.80799 633.788 2.99199C631.476 2.04 629.028 1.76799 626.58 1.632C622.5 1.08799 618.284 0.815998 613.932 0.679991C609.58 0.543993 604.956 0.815998 600.74 2.31199C599.652 2.44799 598.428 2.584 597.884 3.4C597.068 4.624 595.98 5.984 595.844 7.616C595.3 12.376 594.892 17.272 594.756 22.032C594.484 25.024 594.756 27.88 594.484 30.736C594.348 36.72 594.076 42.976 593.804 48.96C593.668 51.816 594.076 54.672 594.076 57.392C594.076 59.704 593.804 62.016 593.668 64.328C593.668 68.816 593.804 73.168 593.668 77.656C593.26 84.456 592.716 91.256 593.532 98.056C593.804 100.776 594.076 101.048 596.66 101.048C596.796 101.32 597.204 101.32 597.34 101.32H613.66L615.02 98.464C614.748 98.464 614.34 98.328 613.796 98.056C615.564 88.672 616.244 79.424 616.244 69.632C616.652 69.768 616.788 70.04 617.06 70.176C619.508 73.168 621.82 76.16 624.404 79.152L631.476 87.176C634.332 90.304 637.324 93.16 640.18 96.288C640.86 97.104 641.54 97.92 642.084 98.872C642.628 99.28 643.036 99.824 643.172 100.232L662.62 101.32L663.164 101.456L665.204 97.92C664.252 96.152 663.3 94.384 662.076 92.752ZM614.476 53.72C612.436 53.72 610.26 53.72 608.22 53.584C605.364 53.584 602.508 53.312 599.652 53.176C598.836 53.176 597.884 53.312 596.796 53.584C597.068 50.592 597.204 47.6 597.612 44.744C597.748 42.024 597.884 39.44 597.884 36.72L598.428 26.52C598.428 24.344 598.02 22.304 598.292 20.264C598.292 17.544 598.564 14.824 598.836 11.968C599.652 11.832 600.332 11.424 601.148 11.424C605.364 11.424 609.444 11.696 613.66 11.696C617.06 11.832 620.324 11.832 623.588 11.968C626.308 12.376 629.164 13.192 632.02 13.464C636.1 13.736 638.276 16.592 640.316 19.448C642.492 22.304 643.852 25.432 644.26 28.968C644.804 32.368 645.076 35.904 644.532 39.168C644.396 39.984 643.852 40.664 643.58 41.208L642.492 44.064C640.86 47.736 638.004 50.184 634.196 51.272C630.796 52.088 627.668 53.176 624.268 53.584C621.004 53.856 617.876 53.72 614.476 53.72ZM628.348 41.48C630.796 39.168 632.02 36.176 632.428 33.048C632.7 31.416 632.564 29.92 631.612 28.424C631.204 27.608 631.204 26.384 630.388 25.432L627.532 22.576L628.484 22.848C628.484 22.576 628.62 22.576 628.62 22.44C627.668 22.032 626.58 21.896 625.492 21.76L626.036 21.896C625.9 22.032 625.9 22.304 625.628 22.304C625.628 22.032 625.628 21.896 625.492 21.76C624.948 21.488 624.268 21.488 623.588 21.488H620.732C620.188 21.488 619.78 21.896 619.508 21.896C617.196 22.304 614.884 22.848 613.116 24.208C609.716 26.656 607.812 29.92 607.404 33.864C607.268 37.672 608.22 40.936 611.756 43.248C613.524 44.472 615.292 45.424 617.332 45.016C618.284 44.88 619.1 44.472 620.052 44.472C623.18 44.336 626.036 43.656 628.348 41.48ZM612.164 40.528C610.396 39.032 610.124 36.992 609.716 34.816C609.444 33.184 609.988 31.824 610.94 30.6L613.932 26.792L615.564 26.384C617.74 25.976 620.052 25.568 622.364 25.432C623.86 25.568 625.492 25.84 626.716 26.656C632.428 31.688 629.436 40.8 623.316 42.568C621.548 43.112 619.644 43.52 617.332 44.064L612.164 40.528ZM645.076 97.24L644.532 95.744C644.532 96.016 644.396 96.016 644.396 96.016C643.852 95.472 643.172 95.064 642.764 94.384C639.772 90.168 636.644 86.088 633.652 81.6C631.612 78.472 629.572 75.344 627.94 71.944C625.628 66.504 622.364 61.744 619.1 56.712V56.576L632.428 53.856C641.54 68.544 649.836 83.64 660.444 97.24H645.076ZM612.028 93.16C611.756 94.792 611.756 96.56 611.484 98.328H608.22V98.464L597.612 99.008V98.872C597.748 97.92 597.884 97.104 597.884 96.016C598.02 93.568 597.884 90.848 598.02 88.4C598.292 84.32 598.564 80.104 598.972 76.024C599.108 72.624 599.108 69.224 599.38 66.096C599.38 63.784 599.516 61.744 599.516 59.568C599.652 58.48 599.516 57.392 599.38 56.032C603.732 56.168 607.948 56.44 612.164 56.576V65.552C612.436 71.264 612.436 77.112 612.708 82.688C613.116 86.224 612.98 89.624 612.028 93.16ZM675.372 102C676.188 101.592 677.14 101.048 677.82 100.912H683.94C684.484 101.32 684.892 101.592 685.028 101.592C685.708 101.456 686.116 101.32 686.388 101.32L693.868 101.864C694.82 101.864 695.772 102.136 696.316 101.592C697.268 100.776 698.356 99.552 698.492 98.328C699.036 94.248 699.172 90.168 699.58 86.224C699.852 80.648 700.26 74.8 700.804 69.088C700.804 67.32 701.076 65.416 701.892 63.784C703.932 59.432 706.38 55.08 708.556 50.728C710.868 45.968 713.18 41.208 715.22 36.448C718.076 30.192 720.932 23.8 723.924 17.68C725.692 14.008 728.14 10.472 729.228 6.392C729.364 5.848 729.364 5.304 729.636 4.624H728.548C728.14 4.08 727.596 3.80799 727.324 3.80799C723.108 3.67199 719.028 3.4 714.676 2.99199C711.684 2.856 710.868 3.4 710.324 5.848C709.916 6.664 709.916 7.616 709.372 8.432L703.796 21.08C701.484 25.976 699.036 31.144 696.86 36.176C695.772 38.352 695.228 40.664 694.412 42.704H694.276C692.236 29.92 687.748 17.272 687.204 4.08C679.316 2.99199 671.836 2.99199 663.812 3.80799C663.812 4.76 663.676 5.43999 663.812 6.11999L666.532 15.504C667.484 19.04 668.436 22.848 669.252 26.384C670.476 31.144 671.836 35.632 673.74 39.984C675.1 43.248 676.596 46.512 676.324 50.184C676.324 53.04 676.596 56.032 676.596 58.888C676.596 60.656 676.868 62.424 676.732 64.328C676.732 68.544 676.596 72.76 676.324 77.248V84.864C676.188 89.216 675.78 93.84 675.644 98.328C675.644 99.144 675.372 99.824 674.964 101.048C674.964 101.32 675.1 101.592 675.372 102ZM697.404 93.16C694.548 93.024 691.964 93.024 689.244 92.616C686.796 92.208 684.348 91.528 681.9 90.984V56.44L674.556 36.992C673.332 33.456 672.516 29.512 671.428 25.84C670.34 21.76 669.524 17.544 668.436 13.464C667.756 11.152 666.804 8.976 665.988 6.664C665.716 6.392 665.716 5.848 665.58 5.168C672.108 5.304 678.636 5.43999 685.164 5.43999C685.436 6.528 685.708 7.34399 685.708 8.296C686.116 15.776 687.884 22.984 689.516 30.192C690.332 34.816 691.42 39.032 692.236 43.52C692.644 45.288 692.644 47.056 692.78 48.552C693.052 48.96 693.324 49.096 693.324 49.504C694.412 53.04 695.228 56.576 696.18 60.112C696.86 62.696 697.404 65.416 698.084 68C698.356 68.544 698.492 68.952 698.764 69.632C698.356 77.248 697.812 85.136 697.404 93.16ZM700.532 62.424C700.396 62.152 700.26 62.152 700.26 62.152L697.54 52.36L695.5 45.968V44.744C696.18 43.112 696.724 41.48 697.404 40.12C698.628 36.448 699.852 32.64 701.484 28.968C702.3 26.656 703.932 24.344 705.02 21.896C706.652 18.496 708.012 14.824 709.372 11.288C709.916 11.424 710.46 11.696 711.004 11.696C712.5 11.696 713.86 11.696 715.22 11.832C718.076 11.968 721.068 12.376 723.788 12.648C716.036 29.376 708.148 45.832 700.532 62.424Z" fill="white"/>
</svg>
