<svg width="531" height="121" viewBox="0 0 531 121" fill="none" xmlns="http://www.w3.org/2000/svg">
<path d="M46.2946 83.576L47.2466 83.304L49.0146 83.576L50.6466 83.304L51.5986 82.896L52.9586 83.168L54.1826 82.216L54.0466 80.992L54.3186 80.04L54.0466 78.544L54.5906 77.32L54.3186 76.504L53.9106 75.96L54.3186 75.552L54.1826 73.92H54.5906V73.512L54.9986 72.152L54.5906 71.064L53.7746 69.84L54.3186 69.568L54.5906 68.072L54.3186 65.896L54.0466 64.536L53.0946 64.128L52.8226 63.992L52.6866 63.856L53.7746 63.584L53.6386 62.496L52.8226 61.544L52.6866 60.728L52.1426 59.912L52.0066 59.64L51.7346 59.912L51.4626 59.64L51.1906 58.96H50.3746L50.6466 58.28L49.9666 57.328L48.8786 56.24L48.6066 55.832L47.6546 55.56L47.5186 54.744L46.8386 54.2L46.2946 53.112L45.7506 53.928L45.3426 52.568L44.1186 52.296L43.5746 51.48L42.7586 50.936L41.9426 50.12L41.5346 49.576L40.1746 48.76L38.1346 47.4L37.4546 46.72L36.3666 45.904L35.9586 45.632L35.4146 44.68L34.0546 44L32.5586 42.912L29.7026 41.144L28.7506 41.008L28.2066 40.6L27.6626 39.648L26.0306 38.424L24.8066 37.336L23.4466 36.656L19.0946 33.528L17.7346 32.44L16.9186 31.352L15.1506 28.632L14.1986 26.048L13.7906 23.192V20.2L13.9266 18.16L13.7906 16.936L13.9266 15.032V12.856L15.4226 12.584L17.4626 12.72L20.4546 12.584L22.7666 12.72L24.6706 12.448L25.3506 12.04L25.6226 12.72H32.6946L34.3266 12.856L36.0946 12.72V12.312L36.5026 12.448L37.8626 12.856L40.3106 12.72L41.5346 13.4L41.9426 15.576L41.6706 18.296L41.9426 20.744L42.2146 22.648L42.0786 22.92L42.2146 23.736L41.9426 25.368L42.2146 27.136L43.7106 27.816L44.9346 27.408H47.9266L49.6946 27.272L50.5106 27.952L50.9186 28.088L51.0546 27.408L51.4626 27L52.0066 27.816L53.0946 27.544L53.7746 26.456L54.3186 25.912V23.872L54.5906 22.24L54.1826 19.656L54.3186 15.984L53.9106 13.4L53.6386 12.04L51.0546 11.904L49.2866 11.36L46.9746 12.04H43.7106L41.5346 12.312L41.3986 11.224L41.1266 10.68L40.5826 10.408L40.7186 9.728L41.3986 9.456V8.09599L40.9906 7.688L41.1266 7.41599L40.7186 6.6L41.1266 5.784L41.3986 5.37599L41.2626 4.28799L41.9426 3.88V2.24799L41.6706 1.432L41.1266 1.02399H39.9026L38.9506 0.887996L38.2706 1.15999L38.5426 1.432H37.8626L36.7746 0.751997L36.0946 0.887996L34.4626 1.15999L32.2866 0.887996H29.9746L28.8866 1.02399L27.5266 0.887996L26.0306 1.296L24.8066 1.02399L22.6306 1.15999L22.4946 0.751997L20.7266 0.887996L20.1826 1.02399L18.8226 0.751997L16.5106 0.887996H15.0146L13.2466 1.15999L12.9746 2.52L13.3826 4.016V5.37599L13.7906 7.688L13.1106 9.18399L13.3826 10.952L13.1106 12.856H9.98263L7.94263 12.992L6.31063 13.4L4.13463 12.856L1.55063 13.264L1.00663 14.352L0.598625 15.032L0.870625 15.848L0.598625 17.208L0.734625 19.248V21.424L0.462625 23.872L0.598625 26.184L0.734625 28.632L1.55063 30.672L1.68663 31.624L2.91063 33.8L3.99863 35.704L4.95063 36.52L6.31063 38.424L7.94263 39.784L9.03063 40.328L10.7986 42.096L11.3426 42.232L11.8866 42.64L12.8386 43.456L13.1106 43.864L13.5186 44.544L14.6066 45.088L16.2386 46.176L18.0066 47.808L18.8226 48.352L19.9106 49.304L20.7266 49.984L23.0386 51.48L24.3986 52.568L25.0786 53.248L26.7106 54.336L28.2066 55.288L29.5666 55.832L32.0146 57.464L32.8306 58.144L33.1026 58.688L34.7346 59.912L36.5026 60.728L37.4546 60.592L37.9986 59.776L38.4066 59.912L39.0866 60.32L39.6306 61L39.2226 61.544L38.4066 61.816L38.1346 61.544L37.1826 61.408L37.3186 62.632L38.9506 63.992L39.3586 64.944L39.9026 65.76L41.2626 66.984L41.5346 68.616L42.0786 70.792L41.9426 74.192V76.912L42.2146 77.456L43.5746 77.184L44.2546 77.456L44.3906 78L44.1186 78.544H43.4386L42.2146 78.136L41.6706 80.04L41.9426 81.808L43.1666 83.304L43.4386 82.352H43.5746V82.624L44.1186 82.76L44.2546 82.624L44.6626 83.304L46.2946 83.576ZM33.7826 3.88L32.9666 3.06399L33.7826 1.976L33.9186 2.38399L33.7826 3.336V3.88ZM37.5906 2.92799L36.0946 2.656V2.52L37.5906 2.38399V2.92799ZM27.6626 4.016L27.7986 3.2L27.6626 2.52H28.2066L28.0706 3.06399L28.2066 3.47199L27.6626 4.016ZM24.3986 3.336L23.0386 3.2L22.9026 2.656L24.3986 3.06399V3.336ZM36.3666 4.016L35.6866 3.88L36.3666 3.336V4.016ZM37.8626 4.424V4.016L38.1346 3.88L38.4066 4.016L37.8626 4.424ZM33.7826 6.05599L33.6466 5.104L34.0546 5.24L33.7826 6.05599ZM29.7026 12.448L29.5666 11.904H30.1106L29.7026 12.448ZM28.4786 53.112L27.5266 52.704L27.7986 52.296L28.4786 53.112ZM41.9426 54.472L41.6706 53.656L42.3506 54.336L41.9426 54.472ZM38.5426 55.424V55.016L40.1746 54.744L40.0386 55.288H39.2226L38.5426 55.424ZM43.7106 55.696L43.0306 55.288L43.7106 55.016V55.696ZM36.9106 59.504L36.0946 59.368L35.4146 58.96L36.0946 58.144L35.9586 57.192L36.3666 57.328L36.7746 57.736L36.9106 58.552V59.504ZM45.3426 58.144L44.9346 57.464L45.7506 57.736L45.3426 58.144ZM34.3266 58.144L33.7826 57.736L34.4626 57.6L34.3266 58.144ZM42.4866 58.688L40.7186 58.552L39.3586 58.416L39.0866 57.736L40.7186 58.144L42.4866 57.872V58.688ZM47.6546 63.448L46.9746 63.312L47.6546 62.904V63.448ZM45.3426 64.128L44.6626 63.992L44.3906 63.72L45.3426 63.856L45.7506 63.992L45.3426 64.128ZM42.3506 64.672L41.3986 64.4L40.1746 64.536L40.4466 63.992H42.3506V64.672ZM43.8466 70.928L43.3026 69.84L44.2546 69.704L43.8466 70.928ZM18.8226 96.088L20.4546 95.952H24.8066L25.8946 95.272H26.7106L27.1186 94.184L27.5266 93.776L28.0706 93.912L28.2066 93.64H28.8866L29.1586 93.912L29.0226 94.048L28.6146 94.32L27.9346 94.864V95.136L28.7506 95.408L29.4306 95L29.5666 95.408L30.1106 96.088L31.8786 95.816L32.1506 95.272L33.3746 96.088L34.8706 95.952L35.9586 95.136L36.7746 94.728L38.4066 94.864L40.3106 94.184L39.3586 95.136L37.5906 95.272H36.3666L35.9586 95.952H41.1266L41.9426 95.272L42.3506 94.32V93.64L42.4866 92.96L42.3506 91.872L43.1666 91.6V90.104L42.4866 90.24L41.3986 89.832L41.5346 89.152L41.2626 88.744L41.3986 88.336L42.6226 88.608L43.3026 87.656V86.84L43.1666 86.296V85.616L42.3506 85.344V84.528L42.0786 83.848L41.3986 84.256L40.5826 83.984L40.0386 84.392L38.9506 83.984L39.0866 84.8V85.616L38.4066 85.48L38.1346 85.208L38.2706 84.936L38.5426 84.664L38.4066 84.392L37.5906 84.256H36.3666L35.6866 84.528L35.2786 83.848L34.7346 84.528L33.7826 85.208L33.1026 84.664L33.3746 84.528L32.8306 83.984L30.9266 83.712L30.2466 84.256L31.7426 84.392L32.5586 84.936V85.344L30.7906 84.664L30.1106 85.344L29.4306 85.888L28.6146 86.296L28.0706 86.024L27.9346 86.976L26.9826 86.84L25.4866 86.432L25.8946 85.752L27.6626 85.888L28.2066 85.344L27.9346 84.8L28.2066 84.664L28.4786 84.256L27.6626 83.984L26.7106 84.392H24.8066L23.0386 83.848L21.4066 83.712L20.7266 83.984L20.1826 84.392L19.7746 84.528L19.0946 83.984L17.5986 83.848L16.5106 83.984L16.2386 84.256L15.5586 83.984H14.3346L13.9266 82.896L12.8386 82.624L12.0226 82.488L12.2946 81.536L12.5666 81.4V81.672L12.8386 82.352H13.9266V78.272L13.2466 77.592V77.456L13.3826 77.32L13.5186 76.64L13.1106 76.504L12.9746 76.096L13.7906 74.464V71.336L12.2946 70.792L9.71063 70.112L8.89463 70.656L7.94263 71.064L7.12663 70.792L6.71863 70.112L6.58263 70.248L4.81463 69.976L3.18263 70.248L1.95863 71.2L1.14263 71.472L0.462625 72.832L0.598625 74.328L0.870625 74.872L0.598625 76.368L1.00663 77.32L0.734625 78.408L1.41463 78.68H2.09463L3.18263 79.088L3.72663 79.224L3.18263 79.768V80.176L2.36662 79.36L1.00663 80.72V81.672L1.95863 81.808L1.68663 82.624L1.00663 82.76L0.734625 83.44V86.296L2.50263 86.84L4.54263 86.024L5.22263 86.84L6.03863 87.248L6.71863 86.568L6.17463 86.432L5.63063 86.024L6.31063 85.752L6.03863 85.344L6.58263 84.8L7.26263 84.256V82.488L8.07863 81.672L8.62263 82.08L7.94263 83.168L7.39863 83.44L8.21463 83.712L7.80663 84.256L7.12663 85.752L7.94263 86.568L8.89463 85.752H10.1186L10.5266 85.616L10.9346 86.432L12.0226 86.568H13.1106V88.608L13.3826 88.88L12.4306 90.784L12.8386 92.96V94.864L14.0626 95.816L15.9666 95.952L16.6466 95.272L17.5986 94.728V95.136L18.8226 96.088ZM47.2466 75.144L46.9746 74.056L47.5186 74.192L47.3826 75.144H47.2466ZM48.4706 75.28L48.0626 74.192L48.7426 74.328L48.4706 75.28ZM2.91063 76.912L1.68663 76.504V76.096H2.91063V76.912ZM52.8226 78.408L51.1906 78.272L50.9186 78H51.5986L52.6866 78.272L52.8226 78.408ZM12.0226 79.496L12.4306 78.952L13.1106 79.088L12.8386 79.496H12.0226ZM42.7586 80.176V79.36L43.3026 79.496L42.7586 80.176ZM2.77463 82.896L2.91063 82.08H3.59063L3.04663 82.488L2.77463 82.896ZM28.8866 85.208H29.5666L29.0226 84.664H28.4786L28.8866 85.208ZM21.4066 85.752L22.4946 85.48L22.6306 85.616L22.4946 85.752H21.4066ZM9.71063 87.656L10.2546 87.52L9.98263 86.568L9.16663 86.296L8.89463 86.84L9.71063 87.656ZM36.2306 87.52L36.0946 87.248V86.704L36.2306 86.296H36.7746L36.9106 86.976H36.3666L36.2306 87.52ZM32.9666 87.384L32.5586 86.704H33.1026L32.9666 87.384ZM34.1906 89.424L33.1026 89.016V88.88L33.9186 88.608L34.4626 89.152L34.1906 89.424ZM25.6226 89.968V89.56L26.1666 89.832L25.6226 89.968ZM28.2066 92.688L29.0226 91.872L29.1586 92.552L28.4786 92.688H28.2066ZM21.4066 95.136L20.7266 94.864L21.4066 94.728V95.136ZM123.533 90.24L123.669 89.016L123.397 88.336L122.717 88.608L122.309 88.336L122.853 88.064L123.125 87.792V86.84L123.533 86.432L123.669 85.752L123.533 85.208L122.037 84.8L119.317 84.936L117.005 84.664L116.869 85.344V85.616L116.597 85.888L116.461 85.48L115.781 85.208H115.101V84.936L114.421 84.8H112.109L110.749 84.936L109.117 85.208L107.757 84.936L106.397 85.208L105.309 84.936L103.949 84.8L103.269 84.664L102.725 84.8L101.365 84.664L99.8691 84.936L98.5091 84.8L97.4211 84.936L95.6531 84.528L92.7971 84.8H89.2611L84.9091 84.528L83.2771 84.936L83.1411 82.624L83.4131 79.632L83.0051 78.544L83.5491 78.272L83.1411 76.912L82.3251 75.824L81.6451 75.552L82.0531 75.144L83.1411 73.24L83.0051 66.032L82.4611 66.168L81.6451 71.472L81.3731 71.744L80.6931 71.064L79.6051 70.792L78.7891 71.064L78.6531 71.744V72.968L77.9731 72.288V71.064L78.9251 70.112L80.0131 70.656L81.6451 68.616L79.7411 67.12L78.2451 68.48L78.3811 67.664L77.5651 67.936L77.1571 69.024L77.2931 69.84L77.1571 70.112L77.2931 70.928L76.4771 70.656L75.9331 69.84L75.3891 70.112H75.2531L75.6611 69.16L76.3411 69.024L76.4771 68.072L75.9331 67.664L75.2531 68.072L75.6611 67.12L76.2051 66.032L76.4771 65.896L76.6131 65.488L76.8851 64.944L76.4771 63.448L75.5251 61.816V61.68L76.2051 61.952L77.2931 61.816L77.7011 62.496L77.5651 63.312L78.3811 62.36L79.0611 61.816L79.8771 61.68V61.544L80.2851 60.456L80.6931 59.504L81.5091 58.688L81.3731 59.368L81.7811 59.776H82.5971L82.4611 60.592L81.5091 61.816L80.6931 62.496L80.2851 62.904L79.0611 63.584L79.3331 64.128L78.9251 64.944L80.2851 65.76V64.128L80.4211 63.448L81.3731 63.04L82.0531 62.36L82.5971 63.04L81.9171 64.128L81.7811 64.944L82.3251 64.536L82.8691 63.856L83.1411 61.816V55.152L83.4131 53.656V52.16L83.1411 49.44L83.0051 47.808L83.1411 45.904V44.68L83.0051 42.776L83.4131 40.736L83.1411 39.104L83.5491 37.744V36.384L83.1411 34.208L83.5491 32.168L83.4131 30.672L82.7331 29.04L82.8691 28.632L83.4131 27.136L83.1411 25.504L83.4131 23.736L83.1411 22.24L83.4131 20.744L83.0051 18.84L82.8691 18.16L83.1411 16.664L83.4131 12.856L84.5011 11.768L86.2691 12.04L89.8051 11.904L93.0691 12.04L95.3811 11.768H97.4211L99.0531 11.496L100.821 11.768H103.949L106.125 11.632L106.805 11.768L107.893 12.04L109.933 11.904H111.565L112.381 11.768H113.333L113.877 11.36L114.285 11.904L115.781 11.768L116.869 11.904L117.549 11.768L118.637 11.904L119.317 11.768L120.949 11.632L121.493 10.136L122.173 8.50399L121.765 7.824L120.949 7.41599L121.629 6.73599L122.173 5.51199L122.037 4.56L121.493 4.016L121.357 3.336L122.309 2.24799L121.493 0.887996L120.541 1.02399L118.909 0.887996L116.189 0.751997L114.829 0.887996L112.109 1.02399L110.885 0.887996L108.709 0.751997L107.621 0.887996H106.397L104.357 0.479993H102.997L101.501 0.751997L99.8691 0.887996L97.0131 1.02399L95.2451 0.887996L93.8851 1.02399H85.0451L83.8211 1.976L84.5011 3.2L84.7731 3.336L84.9091 3.88L84.5011 4.28799L83.5491 5.648L85.7251 6.73599L87.2211 7.144L87.6291 7.41599H86.1331L84.0931 7.688L83.8211 8.50399L83.5491 9.592L83.1411 10.952L82.3251 11.632L81.5091 11.224L78.3811 11.496L77.4291 11.904L75.1171 11.496H73.4851L72.5331 12.856V14.896L72.3971 15.984L72.1251 16.664L72.5331 16.936L72.6691 18.024L72.2611 18.976L72.5331 19.792L72.2611 20.744L72.6691 21.968L72.1251 22.376L71.7171 22.648L72.3971 23.192L72.5331 23.872L72.6691 24.28L72.9411 24.552L73.2131 24.96L72.3971 25.776L72.6691 26.592L73.4851 26.864L73.7571 27.544L73.0771 28.224L72.9411 29.312L73.2131 30.4L73.4851 30.944L72.9411 31.08L73.6211 31.488H74.1651L74.0291 32.032L73.3491 32.168L73.6211 33.392L73.3491 34.208L72.6691 34.752V35.704L72.9411 36.248L73.3491 35.568L74.1651 35.84L73.0771 37.2L74.3011 37.472V37.88L73.2131 38.016L73.0771 38.832L73.4851 38.696L73.6211 38.424H74.4371L74.8451 38.832L74.4371 38.968L74.0291 38.832V39.512L73.2131 40.056L72.2611 40.464L72.3971 40.872L72.6691 41.008H73.0771L72.6691 41.552L73.0771 42.096L73.7571 41.96L73.0771 42.64L73.2131 43.184L73.0771 43.864L72.3971 44L72.6691 44.544L72.5331 44.816L73.2131 45.224L73.3491 45.36V46.176L73.2131 46.72L72.5331 47.672L72.3971 48.08L73.0771 48.352L73.6211 48.488L73.3491 49.848L72.3971 49.576L71.9891 49.44L71.3091 49.984L71.9891 50.12L72.1251 50.8L72.9411 50.936L73.0771 51.208L73.4851 52.568L73.3491 54.064L72.3971 55.016L72.2611 55.424L72.5331 55.696L73.2131 55.424L73.4851 55.56L73.3491 56.104H73.0771L73.2131 57.328L73.0771 57.736L72.6691 57.6L72.2611 58.28L71.7171 58.416L72.3971 58.824L72.9411 58.688L73.7571 58.96L73.4851 60.184L72.6691 60.456L73.2131 60.864L74.0291 61.272L74.7091 60.32L74.8451 59.776L75.7971 59.912L75.6611 58.96H76.2051L76.4771 59.912L76.3411 60.728L75.7971 61L75.5251 60.592H75.1171L74.3011 61.68L73.4851 62.496L73.2131 63.312L73.7571 64.128L74.5731 63.992L74.4371 63.448L74.5731 62.224L75.1171 62.496L74.8451 63.584L75.1171 65.352L74.7091 67.936V70.656L74.3011 71.744L74.1651 67.256L73.4851 67.8L73.3491 68.208L73.4851 69.16L73.2131 69.976L72.2611 70.384L72.3971 70.928L72.6691 72.424L73.7571 73.104L74.5731 73.512L74.0291 74.056L74.5731 74.328L75.2531 74.056L75.3891 73.376L75.2531 72.696L75.3891 71.336L75.7971 71.88V72.152L76.6131 71.88L76.4771 71.472L76.7491 71.336L77.2931 72.152L77.4291 73.104V73.784L77.5651 74.464L77.1571 74.6L76.8851 73.784L75.9331 73.104V74.872L75.5251 75.28H77.4291V75.96L76.6131 75.824L76.2051 76.096V76.504L75.7971 77.048L75.3891 76.232L75.2531 75.416L74.5731 74.872L73.6211 74.464L74.0291 73.92V73.784H73.2131L72.3971 74.6V76.232L73.4851 77.864L73.0771 78.408L72.9411 78.952L72.3971 79.088L72.2611 80.312L71.9891 81.4L72.5331 81.128L72.9411 81.264L71.9891 82.624L72.1251 84.392L72.3971 83.576L72.6691 83.44L72.5331 84.392L72.1251 84.8L71.7171 85.344L72.2611 85.48V86.024L72.5331 86.704L73.0771 87.656V87.792L74.0291 87.248L74.3011 86.84V87.384L74.5731 88.064L75.1171 87.384H75.9331L76.6131 87.928H77.4291L77.8371 86.84L78.6531 86.704L78.7891 87.928L79.3331 87.384H80.5571L80.8291 86.84L81.5091 87.52H82.3251L82.5971 87.112L82.4611 88.064L82.5971 89.832L83.0051 90.512L82.5971 90.92L82.4611 92.28L82.3251 94.32L83.9571 95.68H86.2691L87.7651 95.136H88.3091L89.1251 95.408H89.8051L89.9411 95.952L90.3491 95.68L90.7571 96.088L94.4291 95.408L95.2451 95.68L96.3331 96.088V95.136H97.1491L97.4211 95.272L97.9651 95.68L98.1011 95.272L98.5091 95.408L99.4611 95L99.5971 95.816L100.685 95.272H102.725L102.997 96.088H103.813L104.221 95.952L104.357 95.272L104.765 95.136H105.581L105.989 94.864L106.533 95.272L107.349 95.68L108.165 95.272L109.117 94.728L109.525 94.592L108.981 95.272V95.816L109.797 95.68H110.749L112.245 95.952L112.925 95.68L113.469 95.136L113.877 95L114.829 95.408L116.053 95.816L116.597 95.68L119.045 95.272L120.269 95.408L120.405 94.864L120.677 95.136L121.357 95.272L122.309 94.728L123.125 94.048L122.853 93.232L122.717 92.688L123.669 92.28L123.261 91.872V90.92L123.533 90.24ZM94.4291 3.60799H97.5571L96.0611 4.016H94.7011L94.4291 3.60799ZM90.4851 7.144L91.0291 7.552L89.6691 7.41599L90.4851 7.144ZM78.7891 17.888L79.8771 18.024L80.0131 18.16L79.7411 18.296L78.5171 18.568L78.7891 17.888ZM81.1011 19.52L81.5091 19.928V20.064L80.9651 19.928L81.1011 19.52ZM74.0291 24.28L73.6211 24.008L74.4371 23.464L74.5731 24.008L74.0291 24.28ZM76.8851 26.456H77.1571V26.864L77.5651 27.272L78.2451 27.408V27.544L77.5651 27.952L76.7491 27.408L76.4771 26.864L76.8851 26.456ZM81.3731 27.544L81.6451 27.816L81.5091 28.224V28.496L80.9651 28.224L81.3731 27.544ZM72.2611 30.944V29.312H71.5811L71.9891 30.672L72.2611 30.944ZM76.4771 29.992H77.2931L77.7011 30.536H78.2451L77.9731 31.08H77.1571L76.7491 31.216L76.2051 30.672L76.4771 29.992ZM81.6451 31.08L81.9171 32.168L81.3731 32.304L81.5091 31.624L81.1011 31.352L80.9651 30.944L81.6451 31.08ZM77.2931 33.664L76.4771 34.072L76.3411 33.392V33.12L76.8851 33.256L77.2931 33.664ZM81.3731 33.256L81.1011 34.072L80.8291 33.528L81.3731 33.256ZM79.6051 33.664V34.208L79.4691 34.616H79.0611V33.8L79.6051 33.664ZM81.3731 36.384V36.928L80.8291 36.656L81.3731 36.384ZM82.4611 38.016L81.9171 38.56L82.0531 38.016L81.7811 37.472L82.4611 38.016ZM80.6931 37.608L80.9651 38.288L81.7811 38.968V39.92L80.9651 39.648V38.832L80.4211 37.88L80.6931 37.608ZM76.3411 38.016L76.6131 38.424L76.7491 39.104L77.7011 39.376H77.9731L78.6531 39.104L79.3331 39.376L79.8771 40.056L81.1011 40.736L81.9171 41.008L81.7811 41.416H80.9651L80.4211 41.144L80.6931 40.872L79.8771 40.736H78.7891L78.6531 40.056L77.9731 40.328L77.5651 40.6L76.8851 39.92L75.9331 39.104L76.3411 38.016ZM78.7891 42.776L79.4691 42.64L79.3331 43.456L78.7891 42.776ZM80.6931 44V43.456L81.1011 43.048V42.912L81.3731 43.456L80.6931 44ZM79.6051 45.224L78.9251 44.952L78.6531 44.272L80.0131 44.544L81.3731 44.952L82.0531 44.68V44.952L81.9171 45.632L80.8291 46.04V46.72L81.7811 46.992H82.0531L81.5091 47.264L80.8291 47.672L80.4211 47.128L80.2851 46.312L80.4211 45.904L80.5571 45.224H79.6051ZM75.9331 45.904L76.6131 45.768L77.5651 45.36L77.8371 45.632L77.5651 46.04V46.72L77.2931 46.856L77.4291 47.128V47.264L76.8851 46.992L76.4771 47.4L76.2051 47.264L75.9331 46.72L76.6131 46.992L76.8851 46.856V46.176L75.9331 45.904ZM78.9251 47.128V46.448H79.4691V47.4L78.9251 47.128ZM81.6451 49.168L80.5571 50.8L80.0131 50.528L80.5571 49.576V49.168L80.6931 49.032L81.5091 48.76L81.7811 48.216L81.6451 49.168ZM77.9731 50.256L77.7011 50.8L77.1571 50.12L77.9731 50.256ZM81.5091 51.208V51.888L80.5571 51.616L81.5091 51.208ZM77.1571 51.888H76.6131L76.3411 51.344L76.7491 51.48L77.1571 51.888ZM80.0131 52.568L80.6931 52.432L81.5091 53.112H80.9651L80.6931 53.384L80.2851 53.248L80.0131 52.568ZM79.0611 52.568L78.9251 53.384L78.6531 52.568H79.0611ZM78.9251 53.656L79.3331 55.288L78.5171 55.696V54.064L78.9251 53.656ZM80.5571 54.2V53.928L81.1011 53.656L81.9171 54.336L81.7811 54.744L80.9651 54.608L80.5571 54.2ZM76.3411 58.28L75.9331 57.872L75.7971 57.464L75.6611 56.24H75.9331L76.4771 57.056L77.2931 56.104L77.1571 55.288L76.4771 55.152L76.2051 55.016L76.8851 54.608L77.8371 55.56L77.5651 56.376L77.4291 57.056L77.7011 57.464L76.7491 57.736L76.6131 58.144L76.3411 58.28ZM82.0531 57.328L81.7811 57.872L81.1011 58.144L80.9651 57.6V57.192L80.6931 56.512L80.8291 55.696L81.6451 56.24L82.3251 56.512L82.5971 56.376L82.0531 57.328ZM78.9251 59.912L78.3811 61V57.464L79.3331 57.736L79.6051 58.688L78.9251 59.912ZM71.9891 61.816L73.0771 62.224L72.3971 61L71.9891 61.816ZM75.9331 63.584V64.672L75.6611 65.08L75.5251 63.856L75.9331 63.584ZM72.6691 66.848L73.3491 66.984L74.3011 65.896L73.4851 64.536L72.3971 64.944L72.5331 65.488L73.0771 65.352H73.3491L73.2131 66.44L72.6691 66.848ZM78.2451 66.712L78.5171 65.352L77.7011 64.536L77.5651 65.488L77.8371 66.576V66.848L78.2451 66.712ZM80.2851 72.968V72.424L80.5571 72.832L80.9651 73.104L80.5571 73.24L80.2851 72.968ZM78.5171 74.464L78.7891 74.6L78.6531 75.416L78.5171 75.28V74.464ZM81.1011 75.416L80.5571 75.28L80.8291 74.872L81.1011 75.416ZM74.3011 76.096V76.504H74.1651L73.7571 76.368L73.6211 75.96L74.4371 75.552L74.7091 75.824L74.3011 76.096ZM78.6531 75.96L78.9251 76.64H78.3811L78.6531 75.96ZM72.5331 77.456L72.1251 77.864L72.5331 78.136V77.456ZM74.4371 78.136L73.7571 77.864L74.5731 77.456L74.4371 78.136ZM82.5971 79.088L82.0531 78.952V78.272L82.5971 78.136V79.088ZM76.7491 79.088L76.6131 79.496L76.8851 79.632L76.2051 80.04L75.9331 79.224L76.7491 79.088ZM78.5171 80.72L78.9251 79.768L79.3331 80.72H78.5171ZM81.6451 82.216L80.8291 82.08L80.5571 81.264L81.1011 81.4L81.7811 82.352L81.6451 82.216ZM77.4291 84.8L76.7491 84.936L75.6611 83.984L75.7971 83.44L76.2051 83.576L75.9331 83.848H76.7491L77.5651 83.576L77.4291 84.8ZM78.6531 84.8L78.3811 85.208V83.712L78.6531 83.848V84.8ZM80.8291 85.48L80.5571 84.8L80.9651 83.984L81.5091 84.664L80.8291 85.48ZM109.253 86.432L109.525 85.888L109.933 86.432H109.253ZM109.933 91.736H109.525L109.661 91.056L110.069 91.192L110.205 91.056L109.933 91.736ZM106.669 91.736H106.125L105.853 91.464L106.669 91.192L106.941 91.6L106.669 91.736ZM260.935 11.36L261.343 9.456L261.887 8.09599V7.688L261.071 7.008L260.935 5.784L261.343 4.96799L261.071 4.016L261.207 3.06399L261.071 2.38399L260.663 2.112L260.255 1.296H259.711L259.303 1.15999L258.215 1.02399H257.127L255.903 0.479993L254.407 0.887996L253.727 1.296L252.775 0.479993L252.503 0.751997L252.095 0.343995L251.687 0.887996L252.095 1.568L251.959 1.976L251.007 1.83999L249.919 0.887996L248.423 0.751997H247.607L247.471 1.15999L246.519 1.976H245.703L245.567 1.568L246.383 1.15999L245.431 0.751997L244.751 1.296H243.527L242.575 1.02399L241.487 0.887996H241.215L240.671 1.432L239.991 1.296L239.583 1.02399L238.495 0.887996L237.951 1.15999L236.998 0.887996L236.047 0.751997L234.959 1.02399L235.095 1.15999L233.87 0.887996H232.783L231.695 0.751997L230.471 0.887996L228.703 2.112L228.431 3.47199L228.159 5.24V6.464L228.431 7.552L228.023 8.368L228.159 9.456L228.431 10.952L228.159 12.04L229.927 12.992L231.151 13.264L232.511 12.856L233.191 13.264H234.687L235.639 12.856H236.998L238.359 12.584H239.447L240.943 12.856L242.575 12.992L243.527 12.72V12.448L244.479 12.584L245.159 12.312L245.431 12.448L245.023 12.856L245.703 12.992L246.519 12.584L246.791 12.312L247.607 12.992L248.287 13.264L249.511 12.856H251.279L251.415 12.448L251.823 11.904L252.095 12.448L252.911 12.856L253.863 12.448L254.679 12.992L256.311 12.856L257.127 12.448L259.167 12.856L260.935 11.36ZM217.415 11.496L218.095 10.136L217.687 8.776L217.959 8.63999L217.687 6.464L218.231 5.648L218.095 5.104L217.687 4.016L218.095 2.52L217.143 1.296H216.735L216.327 1.432L215.919 1.02399L213.879 1.296L212.519 0.751997L210.343 1.02399L208.983 0.887996L202.863 0.479993L202.319 0.887996L201.503 0.479993L198.239 0.887996L196.607 1.02399L194.295 0.887996L192.935 0.751997L190.623 0.479993L189.807 0.887996L187.087 1.15999L185.047 1.432L184.911 3.336L185.863 4.56L186.271 4.96799L185.591 5.104L184.775 5.648L184.639 7.41599L184.775 9.86399V12.448L182.871 12.04L180.831 11.904L181.103 12.584V13.536L180.014 13.672L179.607 12.72L179.743 12.04H178.791L178.111 12.448L177.703 12.856L177.567 12.72L177.023 12.04L176.071 12.312L175.799 12.448L175.391 12.584L174.847 12.856L174.303 13.264L174.167 12.856L173.215 12.992L173.079 13.944L172.671 14.352L173.351 14.896L172.807 15.44V15.712L172.671 16.528L173.351 16.936L173.487 17.208L173.079 18.024L173.351 18.704L173.079 19.52L172.263 20.608L172.807 21.288L173.895 21.152L174.983 21.696L174.575 21.968L174.167 22.376L174.847 23.056L175.255 24.008L174.711 24.552L173.623 25.232L173.079 25.368V25.912L173.351 26.456V27.272L174.303 27.408L174.847 27.544L174.983 28.088V28.496L175.255 28.904L175.799 28.496V27.272L174.711 26.184L175.799 25.776L175.255 24.96L176.071 24.416L176.751 24.28L177.295 24.416L176.615 25.096L176.479 27.136V28.36L176.343 29.72V30.128L176.479 31.352L175.799 32.168L176.071 32.712L176.343 34.208L176.479 34.752H175.799L174.983 35.568L174.439 36.656L174.167 35.568L174.847 34.752V33.392L174.167 32.576L174.575 31.352L175.935 30.944L175.663 30.4H174.575L173.895 29.312L173.487 28.36L172.807 28.904L173.215 30.4V32.848L173.623 33.392L173.351 33.8L172.807 34.344L173.215 35.432L173.079 36.656L173.351 36.928L172.807 37.608L173.079 39.104L173.215 40.6L173.487 41.416L172.671 41.552V43.048L173.215 45.224L172.807 46.992L173.215 47.128L173.351 48.08L173.079 50.936V52.568L173.215 53.52L174.303 54.472L175.799 53.928L176.071 53.384L176.343 54.608L174.983 55.56L173.895 55.424L173.351 56.104L172.807 58.28L173.351 59.912L174.439 61.408V62.36L172.807 62.904L172.671 64.672L172.535 66.032L172.671 66.848L173.215 67.528V68.48L173.079 69.84L172.807 71.336V73.784L172.671 75.144L173.079 76.096L173.895 76.368L173.215 77.048L172.671 79.224L173.079 81.536L173.351 82.08L173.079 84.528L173.215 88.608L173.079 90.92L173.487 94.184L174.847 95.272H176.071L178.111 95.68L179.743 95.816L180.967 95.272L181.511 95.136L182.871 95.68L185.047 95.816L186.135 94.184L185.863 90.648V87.656L185.727 84.8L185.999 82.624L185.727 81.672L185.591 80.72L185.863 78.952V76.504L186.135 75.28L185.863 75.008L185.591 74.328L186.135 73.376V71.744L185.863 69.976L185.591 69.704H184.639L183.823 68.888L184.367 67.664L184.911 68.888L186.135 68.752L186.271 67.8L185.863 66.576V65.352L185.183 64.808L184.911 64.4L185.591 64.128L185.999 63.72L185.319 62.768L184.367 62.904L183.959 62.224L184.367 61.952L185.999 62.224L186.271 61.952L186.135 60.864L185.591 60.592L185.047 61L184.639 60.864H183.959L183.823 60.184H184.231L185.183 59.912L186.135 59.504L186.679 58.96L185.999 58.28L184.911 58.144L185.591 56.784L185.863 56.512L186.271 56.24V54.472L185.591 53.52L184.911 53.928L184.775 53.52L185.047 52.704L185.863 52.296V51.344L184.911 49.576L185.591 49.848L186.135 50.12L185.863 48.76L184.639 48.488L184.231 47.808L185.591 47.672L186.271 46.992L185.727 46.72L185.183 45.36L184.639 45.224L184.231 44.952L184.775 44.272L185.183 44.544L185.863 45.088L186.679 44.544L186.271 44H185.319L185.591 42.912L186.271 42.096L184.911 41.688L183.687 41.416L184.095 39.784L184.639 38.696L185.319 38.424L186.271 37.744L185.863 36.928L185.319 35.568L186.271 35.16V34.208L186.135 33.528L186.679 33.256L185.863 32.576L186.271 31.624L187.087 31.08L186.271 30.4L185.863 30.536L185.047 30.128L184.911 31.08L184.231 30.672L183.823 29.992L183.143 28.632L183.823 28.904L184.775 29.448L185.319 29.176L185.999 28.632L185.183 28.496L184.911 29.04L184.367 28.224V26.048L183.823 24.008L182.054 25.504L181.647 25.232L181.103 25.368L180.967 26.184V27.272L181.239 28.632L180.695 29.448V30.4L181.103 30.944L181.919 31.216L182.054 30.4L182.735 30.672L182.599 31.488H180.559L179.743 29.992L179.879 28.496L179.743 26.456L179.607 25.232L179.062 25.368H178.383V24.552L179.062 24.96L179.199 24.552L179.879 22.92L179.743 21.968H180.014L180.151 21.424L180.559 20.336L180.967 21.968L181.919 23.192V23.872L181.511 23.736L180.967 24.008L181.783 24.552L183.551 23.464V21.968L184.367 23.328L185.183 23.736L184.911 22.648L184.367 21.832L184.911 21.152L185.047 21.424H186.271L186.679 21.016L186.271 20.336L186.135 19.928L186.271 18.704L185.727 18.296L185.591 19.112L185.319 19.792L184.911 19.112L184.095 18.568L184.775 17.208L184.639 16.528L184.367 15.44H185.591L186.407 14.488L186.271 13.672L188.039 12.856L189.263 12.992H191.031L191.575 12.312H192.119L192.255 12.72H192.935V12.448L192.663 12.312L193.207 12.04L193.343 11.632H193.615V11.904L193.343 12.312L194.159 12.72L195.111 12.992L196.471 12.584L196.743 12.856L197.287 12.72V12.04L198.103 12.72L199.327 12.992L199.871 12.856L199.599 12.448L200.415 11.904L200.551 12.992L201.231 12.856L201.775 12.448L202.455 12.312L202.591 12.72L202.999 12.448L203.135 11.632L203.543 11.496L203.951 12.312H204.495L204.903 12.584H206.671L207.487 12.992L208.303 12.72L209.391 12.856H210.751L211.839 12.448L212.111 12.856L212.383 12.584H213.199L213.471 12.856L214.831 12.72L214.559 12.04L215.103 11.768L215.511 12.04H215.919L216.327 12.448H217.279L217.415 11.496ZM202.999 2.92799L202.591 2.656L202.727 2.112L203.135 2.24799L202.999 2.92799ZM243.119 2.656L242.303 2.38399L242.575 2.112L243.255 2.52L243.119 2.656ZM206.807 3.336L206.535 2.92799L206.671 2.24799L207.215 2.656L206.807 3.336ZM192.119 3.06399L191.711 3.2L191.575 3.06399L191.711 2.656L192.255 2.52L192.119 3.06399ZM199.463 3.2L199.599 2.656L199.871 3.06399L199.735 3.336L199.463 3.2ZM209.663 3.336L209.255 4.016L208.847 3.06399L209.663 2.92799V3.336ZM210.207 3.88V3.2L210.751 3.336L210.207 3.88ZM208.847 8.776L208.167 8.50399H207.487L207.895 8.09599L209.119 8.50399L208.847 8.776ZM212.111 8.776L212.383 8.368L212.791 8.912L212.111 8.776ZM246.383 11.36L245.839 11.224L245.295 10.68L245.567 10.544L246.383 10.952V11.36ZM254.679 10.952L255.631 10.544L255.767 10.816L254.679 10.952ZM270.319 95.136L271.271 94.048L271.407 93.776L271.543 92.824L272.359 93.096L272.495 92.552L271.951 91.6L271.135 90.512L271.407 89.832V89.424L271.679 88.336L271.271 88.064L270.863 87.928L271.135 87.248V86.568L271.951 86.432L272.903 86.024L272.631 85.616H272.223L271.951 85.208L271.815 85.344L271.407 84.8V82.896L270.863 81.4L270.455 81.128L270.319 80.04L271.679 79.768L271.951 78.68H271.407L271.271 77.864L271.543 76.64H272.767V76.096H271.951L271.135 75.28L270.863 74.464L271.951 74.192L271.407 73.784L271.135 73.104L272.359 72.288L271.951 72.016L271.271 71.336L271.679 71.2L271.951 71.064V69.568L272.359 68.072L272.767 67.12H271.679L271.271 66.032L271.815 65.488L272.903 65.08L272.223 64.4L272.631 63.72L272.359 62.496L271.543 62.768L270.183 63.04L268.551 62.496L269.231 62.36L270.183 62.496L270.591 62.632L271.135 61.952L270.863 61L271.951 61.272L272.495 60.32L272.223 58.552L272.631 57.464V56.376L271.543 55.696L270.863 54.336L271.815 53.928L272.495 53.52L271.815 52.976L271.407 52.432L272.631 51.208L271.951 51.072L271.135 50.392L270.591 49.304L271.135 48.488L271.815 47.944L271.951 47.264H272.223L272.767 46.992L272.495 46.04V43.048L271.815 42.096L271.271 41.824L271.815 41.552L271.951 40.872L271.543 40.056L271.679 38.968L272.359 38.56L271.815 38.424L271.407 37.608L272.223 36.656V35.704L271.543 35.84L271.135 36.792L270.727 36.52L270.863 35.296L271.407 34.616L272.223 34.072V32.848L272.495 32.168L272.359 30.672V29.992L272.223 28.496L271.815 28.36L272.359 27.816L272.223 26.184V24.552L272.495 23.328L272.359 22.784L272.495 21.152L272.359 19.656V17.888L272.495 17.616V15.168L272.223 13.672L271.135 12.72L270.183 12.584H269.503L269.231 12.72L268.143 12.584L266.511 12.72L265.151 12.312L263.519 12.72H262.159L260.391 12.856L259.711 14.488L259.847 17.072V18.976L259.711 20.608L259.847 21.832V22.92L259.983 23.464V24.28L259.711 26.048L260.119 27.544V28.496L259.711 29.176L259.847 30.128V31.624L259.711 33.256L259.847 34.208L260.391 34.48L260.119 35.296L259.847 35.568V37.88L260.391 38.288L259.847 38.832L259.983 39.648L259.711 39.784L260.119 41.008L262.567 41.416L262.431 42.64L262.023 43.048L261.751 42.504L261.887 41.688L261.343 41.824H260.119L259.167 42.504L259.847 42.912V43.728L260.255 44.272L260.799 44.952L260.935 45.088V45.224L260.391 45.088L260.255 45.632L259.983 45.904L259.711 46.448L259.439 47.128L260.391 48.08L260.663 48.76L259.847 49.168L259.711 50.12L260.255 50.8V51.072L259.983 52.024V52.568L259.303 53.656L259.983 54.336L260.663 54.744L261.751 54.064L262.023 54.336L260.799 55.696L259.711 56.512L260.119 57.328H260.663L259.983 58.28L260.255 59.232L260.663 59.64L260.119 60.32L259.847 61.408L260.255 61.544L260.935 61.68L261.479 61.272L262.431 60.864L262.975 61L262.295 61.408V61.952L261.071 62.36L259.711 62.904L259.983 63.448V64.944L260.799 66.032L260.119 67.12L260.663 68.208L261.071 68.072L261.479 66.984V66.168L261.343 66.032L262.023 65.624L262.975 66.576L262.023 66.984L262.159 68.888L262.295 70.656L261.751 71.064L261.479 70.928L261.343 70.656L261.751 69.704L260.799 69.16L260.119 69.84L260.799 71.744L260.119 71.88V72.288L261.071 72.832L261.207 73.104L260.255 73.512L259.983 74.464L260.799 74.872L261.479 74.464L262.023 75.144L262.159 75.96L262.295 76.096L262.839 75.552L262.975 76.368L262.431 77.32V77.864L261.887 77.456L260.799 78.272L260.255 77.864L260.119 79.088V81.808L259.983 82.488L259.439 82.352L259.711 83.44L260.119 84.256L260.663 84.392L260.935 84.664L260.119 85.344L259.847 86.432H261.479L262.159 87.248L261.071 86.704L260.255 87.248L259.847 87.792L259.439 88.472L259.983 88.88L260.799 89.016L260.255 89.56L259.847 90.648L260.663 91.736L261.479 91.192L261.751 89.968L262.431 90.24L262.159 90.92L262.023 92.008L261.343 92.144L260.663 92.688L260.119 92.824L259.983 93.912L260.119 95L261.343 95.408L262.159 94.728L262.431 93.912L262.159 93.096H262.567L262.839 93.912L262.431 95.136L264.335 95.952L266.103 95.136L266.375 94.184L266.783 94.728L267.055 95.272L268.279 95.68L268.823 95.408V96.224L270.319 95.136ZM227.887 69.704L227.343 71.88L227.751 73.784L227.615 76.096L227.343 75.552L226.799 73.512L226.527 70.928L227.343 69.024L227.071 68.072L226.391 66.44L226.663 64.944V63.856L226.119 62.632V61.816L226.663 61.408L226.935 61.68L227.343 61.272L226.935 60.32L226.391 58.144L226.527 54.608L226.391 52.976L226.527 51.888L226.391 49.848L225.983 49.032L226.391 47.808L225.983 47.672L226.527 46.992L226.663 45.632L226.391 44.68V37.2L225.847 34.344V33.12L225.983 32.576V31.624L224.895 31.08L223.943 29.992L224.759 29.584L225.847 29.992L225.983 29.04V27.816L226.119 27.408V25.912L227.071 24.416L228.975 23.736L228.159 21.696L226.799 22.104L226.935 23.464L226.527 23.736L226.391 22.376L226.119 21.152L226.527 21.016L226.119 20.064L226.391 18.976L226.119 18.16V17.48L226.391 16.392L224.895 16.8L224.215 16.936L224.623 15.44L225.847 15.168L225.439 13.536L223.263 13.808L221.359 13.264L220.271 13.808L219.319 13.536L218.367 13.808L217.415 13.536L217.143 14.76L217.551 15.848L217.415 16.528L217.007 17.752V19.656L217.959 19.792L219.183 18.704L218.503 20.064L217.551 21.016L216.735 21.696L216.599 22.92L217.415 24.824H218.231L219.183 25.232L219.455 26.32L219.591 27.136L219.183 26.864L218.503 26.32H218.095L217.279 26.184L216.735 29.04L217.551 29.992L218.639 29.176L218.231 28.36L218.639 27.952L219.591 29.448L218.775 30.128L218.231 29.992L218.639 31.08L219.183 32.032V32.848L218.775 33.528L218.367 35.16H219.319L220.135 35.704L219.455 37.2L219.047 36.792L218.367 37.336L219.047 38.288L219.591 38.968L219.047 39.648L218.367 40.464H217.959V39.512L217.551 38.288L217.143 40.872L218.367 43.456L219.319 44L219.863 43.592L219.727 44.68V45.768L219.455 46.72L219.727 48.216L219.183 49.984L218.639 50.392L218.231 50.936L217.551 49.848L217.279 50.8L217.143 52.024L217.687 52.296L218.367 52.024L218.503 54.2L218.095 55.696L217.687 55.152L217.551 54.2L217.279 55.56L217.143 57.872L217.415 58.552L217.143 60.728L217.959 60.456L218.095 57.872L219.047 56.512L219.319 55.288L219.047 54.472L219.319 52.432L219.727 52.296L219.591 56.512L219.455 58.824L220.407 58.144L221.359 58.416L220.815 59.232L219.863 59.912L219.727 60.864L221.087 61.408L221.495 62.36L221.903 63.856L221.495 64.672L221.087 65.08L220.815 64.944L220.543 63.856V62.768L220.407 61.816L219.727 61.68V67.528L219.591 69.024L219.047 68.48L218.639 69.296L218.503 69.84L218.231 68.072L218.775 66.576L219.047 63.856L219.319 60.864L219.047 59.912L218.503 60.32V62.224L218.231 63.856L217.551 64.4L217.279 65.896L217.415 68.888V71.2L218.367 72.152L218.639 73.104H218.231L217.687 73.512L217.279 75.552L218.095 75.416L218.231 75.008L218.095 74.192L218.639 74.464V75.416L218.231 76.096L217.959 76.368V76.912H218.367L218.503 77.32L218.231 78L217.551 77.048L217.007 76.368L217.143 79.36L217.007 82.08L217.143 82.76L217.415 83.304L217.007 83.712L217.143 86.432V91.736L217.415 95L218.639 95.408L220.135 95.816L221.359 94.32L222.991 94.048L224.351 94.32L225.711 95.272L227.751 95.408L228.975 94.32V87.792L228.839 84.256L228.975 79.36V77.32L228.839 75.416L228.703 72.288L228.975 70.656L227.887 69.704ZM227.343 16.8L226.799 17.752L227.071 18.296L227.343 19.112L227.751 20.744L228.703 20.2L228.975 18.704L228.703 14.896L227.615 13.944L226.527 14.352L226.935 15.848L227.343 16.8ZM176.071 19.112L175.935 19.52L175.391 20.336L175.663 20.744H176.071L175.935 21.152L175.391 21.016L174.711 20.608H173.623L173.759 20.2L174.303 20.064L174.575 19.792L175.255 19.928L175.527 19.52L175.663 17.208V15.712L176.071 14.488V19.112ZM181.103 18.296L181.919 19.248V19.792L181.647 19.248L180.423 19.52L179.607 19.656L179.062 18.568L179.607 18.16L180.014 17.208L180.423 15.984V14.896H180.831L180.967 15.848L181.511 16.664L181.919 17.208L180.831 17.888L181.103 18.296ZM220.679 14.896L221.087 15.848L220.543 15.984L220.679 14.896ZM221.631 15.168L222.311 15.848L223.399 15.984L222.583 16.936L221.631 16.8L221.767 15.848L221.631 15.168ZM174.303 15.44L174.575 16.12H173.759L174.303 15.44ZM185.863 17.208H186.407L186.271 16.528L185.863 16.664V17.208ZM183.007 17.752V17.072L183.823 17.48L183.007 17.752ZM174.575 17.616L175.255 17.888L174.575 18.16L173.759 17.888L174.575 17.616ZM223.399 21.152H222.855L222.311 20.744L223.399 20.064L223.671 21.016L223.399 21.152ZM220.543 20.2L221.223 21.152L220.271 21.424L220.543 20.2ZM225.439 20.744L225.303 21.424L224.759 21.152L225.439 20.744ZM186.407 22.376H185.591L185.999 22.92L186.407 22.376ZM222.175 23.056L222.311 22.648L222.719 22.92L222.583 24.28L222.175 23.056ZM224.351 24.416L224.623 24.824L225.031 25.368L224.759 27.136L224.215 26.592V25.776L223.535 26.184L222.583 27.408H221.903V25.912L223.263 24.416H224.351ZM177.567 27.136L177.703 26.048L178.383 27L177.567 27.136ZM184.911 26.456L185.591 27.408L185.999 27.136L185.727 26.864L185.863 26.048L184.911 26.456ZM228.567 33.392V31.08L228.023 29.992L228.567 29.448V27.816L227.751 26.456L227.479 32.44L227.615 34.616L227.751 36.384L226.935 36.656V37.608L227.751 40.6V43.864L228.839 43.456L228.567 40.872L228.839 36.792L228.567 33.392ZM223.671 29.584L222.991 31.488H222.447L221.903 30.4L222.447 29.04L223.671 29.584ZM220.135 30.128L220.543 29.176L221.223 30.128L220.543 31.488L220.135 30.128ZM217.415 34.888L217.551 33.8L217.959 32.168L218.639 31.76L217.959 31.352L217.279 31.216L216.735 31.352L217.007 32.712L216.599 34.616L217.415 34.888ZM177.839 32.848L177.431 32.44V32.168L177.975 32.576L177.839 32.848ZM180.151 32.304L180.831 32.576L180.695 33.12H180.014L180.151 32.304ZM181.919 33.392L182.463 33.8L181.783 34.072L181.919 33.392ZM178.791 33.528V34.616L178.111 35.16L178.383 34.072L178.791 33.528ZM179.879 34.208H181.103L180.967 35.16L180.831 36.792L180.559 37.744L180.423 38.424L180.014 37.744L179.879 35.704V34.208ZM221.223 35.432L220.679 36.248V34.616L221.223 35.432ZM222.175 40.056L221.631 38.968L221.767 38.696L222.311 38.016L222.175 36.792L222.311 35.704L222.855 34.752L223.399 35.16L223.263 37.2L222.855 38.968L222.991 40.056L224.351 38.968L225.303 40.6H223.943L223.263 41.552L223.535 41.96L223.671 43.456L224.351 43.592L224.895 42.912L225.439 44.68L224.895 45.224H224.487L223.263 46.04L222.583 46.448L221.903 45.088L222.311 43.592L222.447 41.96V41.416L222.175 40.056ZM217.551 36.792V35.432H217.007L216.735 36.792H217.551ZM183.279 35.568L183.687 35.84V37.608L183.279 37.472V35.568ZM268.279 35.976L268.415 36.52H267.735L268.279 35.976ZM176.479 37.472V38.56L175.527 39.104L174.303 38.832L174.439 37.744L175.255 37.608L175.663 36.792L176.751 36.52L176.887 36.928L176.479 37.472ZM184.775 39.512L185.591 40.328L186.407 40.056L186.679 39.648L185.727 39.104L184.775 39.512ZM179.879 40.328L180.151 39.376L180.831 39.784V41.416L180.695 42.64L179.879 42.912L179.607 41.416L179.879 40.328ZM220.815 39.648L220.679 40.872L220.407 39.92L220.815 39.648ZM268.279 43.184L268.143 41.824L268.551 42.232L268.279 43.184ZM218.775 42.912L219.047 42.232L219.455 42.912H218.775ZM175.527 44.544L174.711 43.864L174.303 43.592L174.575 42.912L175.799 43.456L176.071 44.272L175.527 44.544ZM271.679 43.728L271.951 44.136L271.271 44.544L271.679 43.728ZM180.423 46.176L179.879 44.952V44.136H180.559L180.967 45.904L180.014 47.264L179.607 47.128L180.423 46.176ZM267.327 44.272H267.735L267.463 45.088L266.647 44.952L266.375 44.136L267.327 44.272ZM217.415 45.768L217.007 46.72L217.415 48.08L218.095 47.672V46.992L217.959 46.448L218.095 45.224L217.415 45.768ZM227.887 46.448L227.343 48.488L227.071 49.032L228.159 49.304L228.839 48.216V47.672L229.111 46.176L228.567 45.224L227.887 46.448ZM218.775 46.176L219.183 45.768L218.367 45.632L218.775 46.176ZM271.135 46.04L271.679 45.632L271.951 45.904L271.679 46.312L270.727 46.448L271.135 46.04ZM174.847 47.128L174.711 45.768L175.391 46.72L175.527 48.08L174.847 47.128ZM268.687 48.488V49.304L268.007 49.168H266.647L266.375 48.896L266.511 48.76L267.599 48.352L268.007 47.264L268.279 46.856L267.599 46.448L267.735 45.768H268.551L268.687 46.448L268.551 47.808L268.415 48.08L268.687 48.488ZM219.047 48.08L219.455 47.264L219.047 46.992L218.775 47.672L219.047 48.08ZM221.087 49.44L220.543 48.488L220.815 47.808L221.767 48.76L221.087 49.44ZM222.855 48.08L223.535 49.032L222.719 50.256L222.175 49.032L222.855 48.08ZM180.831 49.44L180.014 49.576L180.423 48.488L180.831 49.44ZM271.679 49.984L271.951 50.528L272.631 49.984L272.903 48.896H271.815L271.679 49.984ZM174.439 50.528L173.487 50.392L174.167 49.848L174.711 49.44L175.255 49.984L174.439 50.528ZM227.479 51.48L228.159 52.976L228.975 51.48L227.887 50.8L227.479 51.48ZM262.295 52.976L261.751 51.888L262.023 50.936L262.159 50.8L262.295 51.48L262.567 52.16L263.111 52.568L262.295 52.976ZM267.191 50.936L267.599 50.8L267.463 51.344L268.143 51.208V51.888L267.055 52.024L266.103 51.344L267.191 50.936ZM224.895 54.608L224.487 55.696L224.351 54.608L224.759 53.384L225.575 53.248L224.895 54.608ZM180.014 55.424L179.879 54.336L179.607 53.656L180.014 53.384L180.695 53.928V55.56L180.967 57.192L180.695 58.416L181.919 59.232L180.967 59.504L180.695 60.184L180.559 60.864L180.014 61.544L179.607 61L180.014 60.32L179.743 59.368L179.471 59.232L179.743 58.28L180.695 56.648L180.014 55.424ZM267.191 54.2L266.783 53.928L267.191 53.656L267.599 53.928L268.007 54.608H267.735L267.191 54.2ZM227.887 54.472L227.479 55.288L227.751 56.512V61.816L228.159 62.768L228.839 61.68L228.431 59.504L228.839 55.56L227.887 54.472ZM185.591 54.608L185.999 55.424H184.775L184.639 54.608H185.591ZM174.303 57.192L174.983 56.784L174.847 57.328L174.303 57.192ZM185.999 57.6H186.679V56.784L186.135 57.192L185.999 57.6ZM175.799 58.96L175.527 59.368L174.847 60.184L174.711 59.232L176.071 58.144L176.479 58.28L175.799 58.96ZM266.375 61.544L266.783 62.904H266.103L266.375 61.544ZM180.014 65.352V63.04L180.967 63.448L181.511 63.856L181.647 64.128L180.695 65.76L179.743 66.168L179.471 65.76L180.014 65.352ZM262.295 64.944L262.023 64.4L261.887 63.856L262.159 63.584L262.431 64.536L262.295 64.944ZM174.711 64.128L174.847 64.808L174.303 64.672L174.711 64.128ZM227.751 67.12L228.023 68.072L228.839 65.896L227.615 64.944L227.479 65.488L227.751 67.12ZM176.071 65.896L176.343 65.08L176.751 65.896H176.071ZM267.735 66.44V65.76L267.599 65.624L268.415 66.168V67.12L267.735 66.44ZM181.783 66.712V66.168L182.054 65.896L182.191 66.576L181.783 66.712ZM175.255 67.528L174.303 66.576L175.391 66.984L175.255 67.528ZM220.815 68.48L220.679 66.984L221.631 67.664L220.815 68.48ZM267.055 67.8L266.239 68.072L265.967 67.664L267.055 67.8ZM180.014 67.936L180.695 67.8V68.752L180.014 67.936ZM268.143 68.888L267.327 69.568L266.783 69.976L266.103 69.704L266.783 69.024L267.463 68.208L268.279 67.8L268.143 68.888ZM272.767 69.704V70.384L273.583 69.976L272.767 69.704ZM180.695 71.472L179.879 71.336L180.151 70.384L180.967 70.792L180.695 71.472ZM219.455 70.656L219.863 71.336L219.591 71.88L219.183 71.336L219.455 70.656ZM268.279 71.744L268.143 71.88L267.735 71.744L267.463 70.792L268.007 71.064L268.279 71.744ZM267.327 71.744L267.463 72.696L266.239 72.424L265.967 71.744H267.327ZM262.295 73.376L261.751 72.016H262.295L262.431 72.696L262.975 73.104L262.295 73.376ZM223.943 73.512L223.263 72.696H223.671L224.351 72.288L224.623 73.512H223.943ZM220.135 80.176L219.183 82.488V81.536L218.775 81.264H218.503L218.095 81.128L218.775 80.584L219.591 78.952L219.183 77.32L219.319 76.912L219.591 75.96V72.832L220.135 74.056L219.863 76.504L219.591 77.456L220.135 80.176ZM268.687 76.912L267.735 77.32L267.599 77.048L268.007 76.368H267.463L267.191 76.232L267.463 75.416L267.327 75.008L267.463 73.784L268.007 73.104L268.415 74.056L268.007 75.008L268.143 75.28L268.279 75.96L269.367 76.232L268.687 76.912ZM267.055 74.192L266.239 75.008L266.103 74.056L267.055 74.192ZM223.535 78L222.719 76.368L223.263 75.416L223.535 76.504L223.943 77.048L223.535 78ZM261.751 76.912L261.887 76.096L261.071 75.96L259.847 76.232L260.255 76.912H261.751ZM184.231 76.232V76.912L183.823 76.368L184.231 76.232ZM266.239 83.984L266.103 83.44L266.647 82.352L265.695 80.992L266.239 80.72L266.783 81.264L267.327 80.992L267.055 79.768L265.695 79.632L266.239 78.272L266.783 78.136L267.191 78.68L268.007 78.952L268.551 80.584L268.143 81.128L267.055 82.216L267.735 82.624L268.415 82.896L268.007 83.984L267.327 83.848L266.239 83.984ZM226.935 83.712L225.983 83.168L226.119 80.176L227.071 78.408V79.36L226.799 80.176L227.343 80.584L227.751 81.536L226.935 83.712ZM220.679 82.216V81.264L221.359 81.672L220.679 82.216ZM272.223 81.264V82.08L272.767 81.536L272.223 81.264ZM222.719 83.304L222.855 82.216L223.263 82.488L222.719 83.304ZM261.343 83.44V82.488H262.159L261.343 83.44ZM272.903 83.576L272.631 83.44L272.495 83.712L272.767 84.392L272.903 83.576ZM262.431 84.256L262.295 83.576L262.975 83.848L262.431 84.256ZM268.143 90.784L268.007 89.424L267.735 89.016L267.463 88.88V88.472L267.327 87.656L266.647 86.432L266.375 85.616H267.463L267.735 85.48L267.327 86.432L267.735 86.704L268.551 86.976L268.279 87.52L268.007 88.336L268.279 88.608L268.415 89.56L268.687 90.648L268.143 90.784ZM223.263 86.84H222.855V85.752L223.399 86.432L223.263 86.84ZM226.527 87.928V86.296L227.071 86.84L226.527 87.928ZM272.767 90.784V89.832L271.951 90.648L272.767 90.784ZM271.951 94.592L272.767 94.728H273.447L272.767 94.048L271.951 94.592ZM270.319 96.36L271.679 95.816L271.407 94.592L270.319 96.36ZM304.802 82.08L304.53 80.72V79.224L304.666 77.592L304.394 76.912V71.744L304.258 70.928V63.312L304.394 60.728L304.258 58.28L304.666 55.832V55.288L304.122 55.016L304.666 54.608L305.074 54.064L304.394 53.928L304.258 52.432V50.8L304.394 49.44V47.4L305.074 46.312L304.53 46.04L304.258 44.952L304.394 42.504L304.666 40.736V39.512L304.802 38.016L305.074 36.384L304.53 35.704L304.666 35.568L306.434 35.704H309.018L310.514 35.84H313.506L315.274 35.568L316.226 35.704L317.722 35.84L320.306 35.568H323.026L323.842 35.704L324.522 35.84L326.29 35.976L328.602 35.704L329.554 35.84L329.69 35.432H331.322L332.138 34.208V33.528L332.274 32.44L332.546 32.304L332.954 31.624L331.866 31.352L331.186 31.488L330.778 31.08L329.826 31.216L327.514 30.944L327.786 30.536H328.602L329.69 30.128L330.506 30.4H331.594L332.818 29.176L332.682 28.36L331.866 27.816L331.322 27.408L332.41 27L332.818 25.776L331.866 24.28L329.418 23.872L327.786 24.008H326.29L322.21 23.872H316.09L315.002 23.736H312.69L311.33 23.872L307.93 23.464L305.346 23.736L304.802 24.824L304.53 25.776L305.21 26.864L305.074 27.136L304.53 28.904L304.802 30.536L305.074 31.08L304.258 32.304L304.122 33.256L303.986 34.616L303.17 35.704L301.538 35.296L299.906 35.16L298.954 35.704H298.274L297.458 35.84L297.05 36.248L296.506 35.704H293.378L292.698 36.928L292.154 38.56V39.376L292.29 40.056L292.97 40.872L293.378 41.552H294.602L293.786 41.96L292.018 42.232V42.912L291.746 43.864L292.154 44L292.834 44.136L292.97 44L293.65 44.68L294.738 44.544L295.962 44.68L296.234 44.816L295.69 45.36L293.242 45.088L291.882 45.904L292.29 46.856L293.106 47.128H294.058L294.194 46.312L295.01 46.04L295.962 46.312L296.37 46.856L295.962 46.992L295.01 46.448L294.602 47.128L293.922 47.808L293.106 48.08L292.834 48.76L293.786 49.032L294.602 49.168L295.146 49.848V50.256L294.738 50.8L294.194 51.48L293.922 51.208L293.242 50.8L292.834 51.888L294.058 53.248H294.738V54.064L294.194 54.2L293.65 53.928L293.378 54.336L292.562 54.064L291.882 54.336L292.562 55.016L292.29 55.424L293.65 56.24L294.602 56.784L293.106 57.328L292.562 56.512L291.746 56.24L291.882 57.328L292.834 57.6L292.97 58.28L293.65 58.96L294.33 59.776L294.874 60.592L294.33 60.864L293.922 61.408L294.738 62.36L295.282 62.768L293.922 63.04L292.834 63.72L293.106 63.992L292.29 65.624L294.33 65.352V65.896L293.65 66.44L293.378 67.256L294.194 68.072V68.888L293.65 69.16L293.378 70.112L293.786 70.248L294.33 70.384L293.922 70.928L293.786 71.336L292.97 71.88V72.152L292.29 72.424L291.882 73.24L292.154 74.056L292.698 73.512L292.834 72.968L293.786 72.424L294.194 72.968L293.786 73.512L294.602 73.92V74.872L293.922 75.28L293.65 75.144L293.378 75.552L293.922 76.912L293.786 77.592L292.698 79.224L292.97 80.04L292.562 80.72V81.4L292.698 81.808V84.256L293.106 84.528L292.834 84.936L293.786 85.888L295.418 86.024L295.69 85.48L296.098 86.024L296.234 86.568L297.458 86.296H298.546V86.976H299.498L299.634 86.296H300.314L300.994 87.248L301.266 86.704L301.674 86.024L303.714 86.704L304.802 84.8V82.08ZM332.546 28.088L333.226 27.272H332.274L332.546 28.088ZM329.69 33.528L329.826 33.256L330.37 33.392L331.322 33.528L330.642 33.664L329.554 34.072L329.69 33.528ZM341.794 66.576L341.658 66.44H342.202L342.61 65.352V64.536L342.338 63.584L341.93 63.04L342.066 62.36L342.61 61.68L341.658 60.728L342.066 60.184V59.232L342.338 58.144L342.202 56.648L342.338 56.104L341.93 55.288L341.794 54.608L342.202 54.2L342.61 53.656L342.202 52.296L342.066 51.344L342.338 50.8L342.202 50.12V49.848L342.338 49.304L342.066 49.168L342.61 48.216L342.338 47.672L342.066 46.312L342.61 45.768L342.066 44.816L342.746 44.544V44L342.338 43.456L342.61 42.912L342.746 42.232L342.882 41.688L342.61 41.416V39.648L342.338 37.744L341.658 35.704L340.298 34.888L338.122 35.296L336.762 34.616L335.81 34.752L335.538 35.432L334.586 35.704L333.634 35.432H332.41L332.138 35.976L331.322 35.704L330.37 36.384L330.234 39.104L330.778 41.008V41.416L330.37 41.824L330.778 42.504L331.458 42.776L330.914 42.912L330.642 43.864L330.506 44.136L330.37 44.68V45.768L331.186 46.72L330.914 47.264L330.234 47.944L331.458 48.352H331.73L331.458 48.896V49.168L331.322 49.848L330.642 49.168L330.234 49.848L330.642 50.8L331.594 50.528L332.41 50.8L332.682 51.208L331.594 51.072L330.914 51.344L330.642 51.888L330.914 52.568L331.866 52.976L331.458 53.248L331.186 53.928L331.458 54.472L330.914 55.56V57.192H330.098L329.554 57.736L329.826 58.416L330.37 57.736L330.642 57.872L330.234 58.824L330.37 60.728L330.098 62.36L330.642 63.312V63.856L330.37 64.128L330.098 64.808L330.914 64.672L331.594 64.808L330.914 65.76L331.458 66.576L331.594 66.984L330.778 66.848L330.234 66.712L329.826 67.528L330.234 67.936L331.458 68.208H332.41L331.322 69.84L331.866 70.112L331.594 70.928L330.778 70.656H330.098L330.234 71.2L330.37 71.88V72.016H331.73L331.594 73.104L330.914 72.832L330.234 73.104L330.37 73.512L331.186 74.872L331.322 74.6L331.866 74.328H332.682L332.954 74.6L330.914 75.28L330.37 75.144L329.69 75.28L329.554 75.824L329.826 76.232L329.418 77.048L329.826 77.184L330.642 76.504L331.322 76.232L331.866 76.368V76.64L331.322 77.048L330.506 77.184L330.914 77.864L330.778 78.544L329.826 79.224L330.098 80.04H330.778V80.448L330.914 80.584V80.992H330.098L329.826 81.536L330.506 82.216L330.914 82.896L330.37 83.44L330.098 83.576L329.418 83.848L329.69 84.392L329.146 84.528L327.514 84.256L326.698 84.528H326.154L325.338 83.712L322.482 83.984L322.21 84.392L321.802 84.528V83.848H320.85L320.306 84.392L319.762 84.256L319.082 83.848L318.266 84.392H317.994L317.586 83.984H316.906L316.226 84.528L314.458 83.984L312.962 84.664L311.466 84.256L310.65 84.8L309.834 84.392L308.202 84.528L307.25 85.208L306.162 85.344L304.394 86.296L304.122 88.744L304.258 90.104V91.872L304.394 93.368L304.666 94.592L306.434 95.952L307.794 95.272L307.93 95.68L309.698 95.816L310.922 96.632L312.826 96.36L312.69 95.68L313.098 95.272H313.642V96.088L314.866 96.36L315.954 96.224H316.77V96.632L317.178 96.768L317.314 95.68L318.13 95.816L318.402 96.224H319.082L319.626 96.768L320.17 96.36L319.898 96.224L320.442 95.272H322.074L323.162 94.864L323.026 95.272V95.816L322.346 96.088L323.434 96.632L324.25 96.224L323.978 95.68L324.658 95.272L324.93 95.408L324.658 95.952L325.066 96.36L326.018 96.224L326.562 96.088H327.106L327.378 95.68H328.194L328.466 95H330.642V94.592L329.69 93.776L330.778 92.824L331.594 91.736L329.418 91.192L329.554 90.648L331.594 89.696L332.138 88.608L331.594 87.792V85.48L333.77 85.208L333.906 84.936L334.45 84.528H334.722L335.538 84.8H335.81V84.936L336.49 86.024L337.714 86.432L338.53 85.888H339.618L340.57 86.024L340.706 85.888L341.25 86.024L342.066 84.936L342.338 83.712L342.882 82.624L342.61 80.448L342.338 79.36L342.202 79.224L341.93 78.408V78L342.202 77.184L342.338 76.368L342.066 75.824L342.202 75.144V74.328L342.338 73.104V72.152L342.61 71.472L342.338 69.976L341.658 69.568L341.93 68.752L342.61 68.072L342.882 67.664V67.528L342.202 67.12L341.794 66.576ZM294.194 39.104L293.922 39.376L293.786 38.832H294.194V39.104ZM292.154 40.872L291.338 41.688L292.698 41.552L292.154 40.872ZM298.274 41.552L298.546 42.096L297.866 41.96L298.274 41.552ZM292.834 43.456L292.97 43.048L293.922 42.912L294.194 43.184L292.834 43.456ZM302.354 43.864L301.946 44.272L301.674 43.728L302.354 43.864ZM335.674 45.904L335.538 46.448L334.994 46.176L335.674 45.904ZM299.498 47.944L298.954 48.352L298.274 48.488L298.546 47.944H299.498ZM336.354 51.616L336.626 52.296L335.946 52.024L336.354 51.616ZM296.37 52.16L296.506 52.432H297.186L297.594 52.296L297.458 53.112L296.914 52.976L296.234 52.704L296.098 52.296L296.37 52.16ZM330.234 52.16L329.826 54.336L330.778 54.608L330.234 52.16ZM298.818 54.064H298.138L298.274 53.384H298.546L298.818 54.064ZM334.858 53.928H335.538L335.81 54.608L335.13 55.424L334.994 55.016L335.402 54.608L334.858 54.472V53.928ZM330.506 56.376L330.37 55.56L329.69 55.696L330.506 56.376ZM334.722 57.192H335.538L335.674 57.736L335.538 57.872H335.13L334.722 58.28V57.192ZM302.49 57.872L302.354 58.144L301.946 57.6L302.082 57.464L302.49 57.872ZM331.458 59.504L330.642 59.368L330.778 58.552L332.138 58.96L331.458 59.504ZM334.722 59.504L335.538 59.232L335.81 59.912L335.13 60.32L334.994 60.456L334.722 60.32L334.586 60.184L334.722 59.504ZM292.154 61.408L292.834 61.952L293.242 61.408L292.97 60.184L292.562 60.32L292.834 60.864L292.562 61.272L292.154 61.408ZM334.722 62.36L335.402 63.04L334.994 63.312L334.314 62.904L334.722 62.36ZM339.21 63.584L338.802 63.312L339.074 62.768L339.754 63.448L339.21 63.584ZM295.962 64.4H296.506L297.186 64.808L296.506 65.08H295.962V64.4ZM301.538 64.672L301.266 66.032L300.45 65.624L301.538 64.672ZM295.826 66.032L297.05 65.624L297.458 66.032L295.826 66.576V66.032ZM336.626 65.76L336.49 66.032L335.674 65.896L334.994 66.168L334.858 65.896L335.674 65.624L336.626 65.76ZM292.562 67.664L292.698 67.528L292.29 66.848L291.882 66.984L292.562 67.664ZM302.626 67.936V67.528L303.306 67.664L302.626 67.936ZM296.37 68.208H296.506L297.322 67.936L298.002 68.208L297.186 68.888H296.234L295.826 68.48L296.37 68.208ZM293.106 70.928V70.384L292.97 70.248L292.834 68.48L292.154 69.976L291.338 70.384L291.61 70.928L292.562 71.064L293.106 70.928ZM334.722 70.792V69.704L335.674 69.976L335.538 70.384L335.13 70.656L335.946 71.336L335.81 72.152H334.858L334.994 71.472L334.722 70.792ZM295.962 70.384L296.778 70.656L297.05 70.928H296.37L295.962 70.384ZM298.002 71.88L298.274 71.472H298.41L299.09 71.064L300.586 71.2L301.13 71.064L301.946 71.336L300.314 71.88H298.002ZM338.258 71.88L338.802 71.336L339.482 71.472L339.21 72.016L338.258 71.88ZM296.506 72.696L296.778 72.152L297.05 72.696V72.968L296.506 72.696ZM333.906 75.144L333.362 75.008L333.77 74.192L334.314 74.328L334.858 74.056V73.92L335.402 73.784V74.328L334.722 74.6L333.906 75.144ZM299.09 74.464L298.818 74.192L299.498 73.92L299.09 74.464ZM297.05 74.056L298.274 74.464L296.506 75.008L297.05 74.056ZM339.618 75.28L339.074 74.464H339.754L339.618 75.28ZM293.242 76.64L292.834 75.96L292.29 75.416H291.882L292.018 76.368L292.698 77.32L293.242 76.64ZM296.098 77.048V76.096L297.186 76.232L298.274 77.32L298.002 77.864L296.914 77.32L296.098 77.048ZM336.626 77.864L335.81 78L335.946 79.088L335.674 79.224L334.722 78.272L334.858 77.456L335.538 76.504L335.81 77.048L336.898 77.456L336.626 77.864ZM297.186 78.272L296.37 78.68L296.506 78.136L297.186 78.272ZM298.546 80.584L297.322 80.72L297.05 81.128L296.914 80.72L296.234 80.176L297.186 80.04H298.818L298.546 80.584ZM300.722 80.04L301.266 80.312L301.946 80.992L301.402 81.264L300.994 80.448L300.722 80.04ZM335.674 80.72H334.994V80.176H335.81L336.626 80.448L335.674 80.72ZM297.186 82.488V82.08L298.002 82.624L297.186 82.488ZM302.082 83.848L301.266 84.528L301.13 83.984L300.994 83.576L301.402 82.896L302.354 83.168L302.762 83.44L302.082 83.848ZM320.986 95.816L321.802 96.36L321.53 95.816H320.986ZM410.088 36.656L410.224 35.296L409.136 34.072H407.368L406.96 33.664L406.28 33.12L404.784 32.848L403.696 33.664L403.56 34.616L403.424 36.384L403.152 37.472V40.6L403.016 42.912L403.832 43.048H404.648L403.696 44L402.88 45.088V46.312L403.424 46.448L402.744 47.264L402.88 49.168L403.016 51.48V53.656L403.152 54.744L403.832 55.152L403.152 57.328L403.016 58.96L403.56 61L403.152 61.408L402.744 63.312L403.424 65.488L403.696 65.896L402.88 66.712V67.936L402.744 68.888L402.2 68.208V67.12H401.928L401.52 67.528L401.384 66.848L402.064 66.168L401.112 65.488V64.808L402.2 64.4L402.608 62.224L401.928 61L402.064 60.592L401.656 59.912L400.432 59.64L399.48 60.32L399.208 60.184L399.48 59.776L399.344 59.504L398.8 59.912L397.848 59.64V61.544H398.392L398.256 61.952L398.664 62.36L398.256 62.768L397.712 62.904L398.392 63.992L397.984 64.808L398.256 65.624L398.392 66.712L397.712 67.664L398.528 68.48L397.984 68.888L397.44 69.568L398.392 69.704L398.256 70.384L397.304 71.744L397.984 72.152L398.392 72.696L398.8 73.104L399.616 73.512H399.208L397.984 74.056L397.848 74.328L398.664 74.6L399.344 74.872L399.48 75.96L398.664 76.64L397.848 76.912L397.44 76.504V77.048L397.576 77.864L397.848 77.456L397.984 77.592V78.136L398.664 78.68H399.208L398.936 79.36L399.208 79.632H399.888L399.48 80.448L398.936 80.72L398.392 81.264L397.984 80.72L397.576 80.04L397.304 81.264L397.44 83.304L397.304 84.528L394.176 84.8L391.728 84.664L389.96 84.528L386.968 84.664L385.2 84.392H379.896L378.4 84.528L375.544 84.392L371.328 84.528L371.056 82.216L371.192 80.448V77.456L371.328 75.96V74.464L371.6 72.968V70.384L371.464 69.84L371.328 68.072L371.464 66.848L371.192 66.44L371.464 65.896V64.128L371.736 61.816L371.192 59.912L370.512 60.32L369.832 61.408L369.016 61.544L368.064 61.408L367.656 61.272L368.336 60.592L369.288 59.776L369.016 58.824V57.328L368.744 56.648L369.152 55.832L367.656 55.56L368.336 55.288L368.608 54.608L368.336 54.472H368.064L368.2 53.52L369.016 52.704L368.336 52.296L368.2 51.616L368.472 51.48L369.152 50.8L368.2 49.984L366.976 49.44L368.2 49.032L369.152 48.08L368.744 47.808L368.608 46.992L367.656 47.264V46.856L367.248 45.904V45.224L368.064 44.816L368.472 45.088L369.152 44.544L368.472 43.864L367.792 43.728L368.608 43.048L368.336 42.64L368.064 42.096L369.016 41.144L368.472 40.872L367.792 40.6L368.472 39.92L369.152 38.968L368.472 38.016L368.336 37.336L369.152 36.384L369.288 35.976L369.56 37.2L370.512 37.744L371.192 38.288L371.464 37.744L371.6 36.384L372.28 35.296L375.408 35.16H378.4L379.896 35.432L381.664 35.568L383.024 35.296H384.656L386.152 35.568L387.784 35.296L389.28 35.432L390.912 35.296L392.272 35.432L394.856 35.296L396.624 35.16L396.76 34.208L397.168 33.392L398.256 31.352L398.392 29.176L397.984 28.632V27.544L398.528 27.272L397.712 26.32L398.392 25.368L397.848 24.416L398.392 23.872L397.712 23.464L395.264 23.872L391.728 23.464H389.96L388.872 23.328L387.784 23.736L387.24 24.416L386.968 24.144L385.472 23.464L384.792 23.328L384.248 23.464L384.384 24.144H383.976L383.704 23.464L383.024 23.872H382.888L381.256 23.464L379.76 24.552L379.488 24.008L377.856 23.328L376.496 23.464L373.368 23.328L371.328 24.824L371.192 26.32L371.464 27.816L371.328 28.496L371.192 29.72L371.464 32.168V33.256L371.056 34.208L370.376 35.296L369.696 34.48L368.064 33.664L366.976 34.072L365.888 33.528L364.936 34.344H364.392L363.168 33.256L361.808 33.528L361.4 34.344L360.176 33.8L359.36 34.344L359.904 35.16L360.448 36.384L361.672 36.656L361.808 37.472L361.672 38.288L361.128 38.832L360.72 39.104L360.448 39.648L360.992 40.056L362.216 39.92L362.76 40.6H361.944L360.856 41.144L360.72 42.096V44.136L361.264 44.952L360.448 45.632L360.04 46.312L359.224 46.856L359.088 47.944V48.488L360.992 50.528L360.448 51.616L360.176 52.296L359.768 51.208L359.632 50.256H358.816L359.088 51.888L359.224 53.112L359.088 54.2L359.224 54.744L359.36 55.696L359.768 57.056L359.904 56.784L360.04 55.424L360.72 54.472L360.856 55.016V55.832L361.672 56.376L362.216 56.24L362.352 56.376L361.808 56.648L360.856 57.328L360.992 57.872L360.72 58.688V60.184L360.856 60.456L360.448 60.864L359.904 61.272L359.224 61.816L358.68 62.768V63.72L359.36 64.4V64.944L358.68 65.76V66.168L358.952 66.712L358.408 67.8L359.088 68.208H359.496L359.904 68.752L359.36 68.888L358.68 70.112L358.408 72.424L358.816 74.328L358.408 75.96L359.088 76.232L359.224 76.912L358.68 78.68V80.176L358.408 81.672L359.632 83.44L361.128 83.984L363.576 84.392H365.616L366.976 84.664L368.064 84.256L369.016 83.576L370.376 84.8L370.104 85.888L370.24 87.248L370.512 88.472L370.648 89.152L369.832 90.784L370.648 93.232L371.056 94.184L370.104 94.32L369.832 95L370.104 95.816L371.872 96.224L373.912 96.632L376.904 96.224L378.536 96.088L380.984 96.224L382.072 96.088L384.248 96.36H386.016L388.056 96.224L392.544 96.632L394.04 96.36H395.4L397.576 96.224L397.712 97.448V103.296L397.576 105.064V107.648L396.624 108.464H391.32L389.552 109.416L389.144 109.824L388.6 110.232L388.328 109.552H389.144L389.28 109.008L387.784 108.464L385.744 109.28L386.152 109.824L384.928 109.96L385.064 109.552L384.928 109.008H385.336L385.064 108.464L383.296 108.736H381.8L378.4 108.6L376.768 108.328H374.864L371.736 108.464L370.24 109.96L370.104 111.864L371.192 112.816L370.648 113.904L369.832 114.856V115.808L369.424 116.488L369.696 117.576L370.648 117.984L370.24 118.664L369.696 119.752L370.784 120.704L372.688 120.432L374.184 120.296L377.448 120.704L380.848 120.432H387.24L390.504 120.296H392.136L394.72 120.432L396.08 120.024L395.672 119.208H394.856L395.128 119.072L395.4 118.8L396.08 118.528L396.352 117.848L396.624 117.304L396.896 116.488L397.168 115.128L396.896 114.04L394.448 113.768H387.376L386.288 113.904H380.712L376.496 113.768L374.592 113.496L375.272 113.088L376.904 113.496H379.896L381.8 113.632L383.432 113.496H385.472V113.36L386.016 113.088L387.104 113.496H387.784L388.056 112.816L388.6 113.088L389.28 113.632L389.824 113.088V112.68L390.368 112.816L391.592 113.36L393.224 112.816L393.632 113.088L394.584 113.36L395.4 112.816L395.808 112.68L396.216 112.816L396.896 112.408L397.576 111.32L397.44 110.504L396.76 109.688L398.256 109.28L398.936 108.872L399.344 108.736L400.704 109.552L402.2 109.28L403.56 109.552L405.736 109.688L406.824 108.736L407.096 109.28L408.048 109.688L409.272 108.872L409.68 106.696L409.272 105.2L409.408 104.656L409.68 103.16V101.528L409 101.664L409.68 100.44L408.864 98.536L408.184 99.216L407.232 98.536L406.688 98.264L405.872 97.72L406.28 97.448L407.232 97.176L407.912 97.312L408.048 97.72L408.32 98.128L409.136 97.312V96.632L409.272 95.816L408.728 95.68L409 94.592V93.776L408.32 93.096L408.048 92.144L407.912 91.6L407.64 91.056L407.232 90.92L406.552 89.968L407.096 89.56L407.912 89.968L408.456 89.832L408.728 89.152L409 88.608L408.456 87.928L409.272 86.976L408.864 86.296V85.888L408.048 85.208L408.728 84.528L408.864 83.848L408.728 83.168V82.352L408.184 82.624L407.368 82.76H406.688L406.28 82.352L406.688 82.216L407.776 82.08L408.456 81.264H408.864L409.68 81.672V80.72L409.136 79.768L407.096 79.496L407.232 80.448L408.048 80.992L407.232 81.4H406.552V80.584L406.28 79.632L406.144 79.088L406.008 78.952L406.688 78L406.008 76.912L405.328 76.504L405.736 76.096L406.008 75.144L406.144 74.192L406.688 73.376L407.096 72.968V73.24L407.368 74.328L408.456 74.192H409L409.136 74.464L409.816 74.328L409.272 73.376L409.68 72.152L409.408 70.928V69.024L409.136 68.208L409.272 67.528L409.136 66.712L409.272 65.76V64.944L408.864 64.128L409.272 63.856V62.904L409.68 62.632V59.776L409.408 58.552L409 57.872L409.272 56.784L409 55.696L409.68 55.016L409.816 54.744L409.68 54.2L409.272 53.384L408.456 52.976L409.408 52.432L409.68 51.208L409.136 50.528L409.408 49.168L409.136 48.488L409.272 47.944L409 47.4L408.728 46.992L408.32 46.312V46.176L409.68 45.632L409.136 44.952L409.408 43.728L409.816 41.144L409.136 40.736L409.816 39.784V38.968L409.68 38.288L408.864 37.472L410.088 36.656ZM391.048 32.712L390.64 33.256L390.232 32.712H391.048ZM398.256 35.16V36.928L397.712 38.288H398.8L399.344 36.792L399.616 37.2H400.432L400.024 37.744L399.208 38.424L398.392 38.968L398.8 39.784L399.752 39.648V39.376L400.024 38.832L400.296 39.104V39.512L399.616 41.008L399.344 41.416L398.256 40.872L397.848 42.096V43.048L398.392 42.912H398.664L398.936 43.456L399.48 42.64H399.888L400.568 43.592L399.344 44L398.936 44.68L399.344 45.768L398.8 45.904L398.664 46.312L399.208 46.856L397.848 46.992L398.256 47.4L397.712 47.808L397.848 48.352L397.984 49.168L397.712 50.12L398.392 50.256L398.664 49.44L398.936 49.304L398.8 50.392L399.616 50.936L399.888 51.616L399.616 52.296L399.752 52.976H399.48L398.936 52.568L398.392 52.976L397.848 53.248L398.936 53.52L398.8 54.064V55.016L400.704 54.2V54.608L400.024 55.696L399.208 56.24L399.616 56.784L399.752 57.6H400.432L400.84 57.328H401.656L401.384 57.872L400.976 58.416V58.824L401.52 59.232L401.928 59.504L402.2 59.368V58.416L402.472 57.328V54.472L402.608 52.704L402.2 51.344L402.472 48.76L401.384 47.944L400.296 47.672V47.128H401.112L402.2 45.768L402.472 44.136L402.608 42.232L402.472 40.736L402.744 39.104V37.608L402.472 35.84L401.928 35.568L402.88 34.48L401.52 32.848L399.752 33.392L398.8 33.256L397.984 33.664L398.256 35.16ZM381.664 33.256H382.616L382.752 33.664L382.072 33.528L381.528 33.392L381.664 33.256ZM399.752 34.072V34.752L399.344 34.616L399.752 34.072ZM361.808 35.16L362.08 34.616L362.352 34.48L362.488 35.296L361.808 35.16ZM408.456 35.16L408.184 34.616H408.864L408.456 35.16ZM366.704 35.704L367.112 35.16V35.976L366.704 35.704ZM360.448 36.792L359.904 36.248L359.768 35.704L359.36 36.656L359.224 37.336L359.904 37.2L360.448 36.792ZM406.28 36.928V37.608L406.008 36.928L406.144 35.84L406.552 36.52L406.28 36.928ZM359.904 38.288L358.816 38.968L359.904 40.056V38.288ZM371.6 39.104L370.512 38.56L369.832 38.424L370.104 39.376L370.784 39.512V39.784L371.736 40.056L371.6 39.104ZM371.736 41.96V41.144H371.056L370.784 42.096L371.736 41.96ZM359.904 42.64L359.768 42.096L359.36 41.96V41.416L358.816 41.96L359.36 42.776L359.904 42.64ZM364.936 43.048L364.664 44L363.984 43.728L363.304 43.048V42.776L362.896 42.912V44L362.352 43.728V43.184L362.896 42.096L363.576 42.232L364.12 43.048L364.392 42.64L364.936 42.232V43.048ZM407.368 44L407.776 42.912L408.184 43.728L408.456 43.864L408.728 44.136L407.368 44ZM370.648 44.136L370.376 44.68V45.36L371.192 45.768V44.68L371.328 43.728L371.192 43.864L370.648 44.136ZM398.256 45.904L398.528 44.68L397.576 43.864L397.848 44.816V45.632L398.256 45.904ZM360.04 44.816L359.088 44L358.816 44.952L359.632 45.904L360.04 44.816ZM364.12 46.72V45.36L364.528 46.04L364.12 46.72ZM409.68 46.04L409 46.312L409.408 46.72L409.68 46.04ZM371.056 46.448L370.784 47.128L371.056 47.808L371.464 47.264L371.056 46.448ZM370.784 49.984L370.512 50.8L371.192 51.344L371.464 50.8L371.328 49.984L370.784 49.168V49.984ZM399.344 51.344L398.256 51.48L397.984 51.888L398.936 52.16L399.344 51.344ZM363.984 52.568L364.256 52.024L364.528 52.704L363.984 52.568ZM371.6 52.296L370.512 52.432L370.648 52.976L371.736 53.112L371.6 52.296ZM404.104 54.336L403.832 53.656H404.24L404.104 54.336ZM370.512 58.688L371.464 57.464V55.016L370.512 54.472L369.832 56.784L370.512 58.688ZM398.256 55.832L397.712 56.512L397.576 57.328L397.984 57.736L398.8 56.512L398.256 55.832ZM360.72 56.376L360.176 57.192L360.992 56.648L360.72 56.376ZM358.952 57.464L358.816 58.688L359.632 57.736L358.952 57.464ZM399.752 59.504L400.432 58.824L399.208 58.28L399.752 59.504ZM397.848 58.96L398.664 59.504L398.528 58.824L397.984 58.552L397.848 58.96ZM359.768 60.184L359.904 59.504L359.088 59.368L358.816 59.776L359.36 60.184H359.768ZM399.888 61.408L399.208 61.272L399.616 60.864L399.888 60.728H400.84L400.976 60.592L401.112 61.408L400.704 62.224L400.296 62.36L400.568 61.816L399.888 61.408ZM369.288 62.36L369.832 63.04L370.104 63.584L370.24 64.536L369.424 65.08L368.608 63.856L369.288 62.36ZM407.776 63.448L407.232 63.312L407.64 62.904L407.912 63.312L407.776 63.448ZM407.776 65.896L407.232 65.624L407.776 65.352V65.896ZM359.904 66.168L359.36 65.896L359.904 65.624V66.168ZM369.288 66.848L370.24 67.664L369.696 67.8V69.704L369.016 69.024L368.608 67.664L368.336 66.848H369.288ZM399.48 67.664H399.208L399.752 66.984L400.024 67.12L399.48 67.664ZM403.016 85.344L402.064 84.256L401.52 83.576L400.432 83.44L401.112 83.168L402.064 81.264L401.928 79.088L401.656 78.544L402.064 78.136L400.976 77.592L401.52 77.048L401.928 76.232V75.28L400.976 75.824L400.568 75.28L400.84 75.008H401.928L402.064 73.512L401.928 72.696L402.064 70.928L402.744 69.296L402.608 71.2L402.88 73.24L402.608 75.28V79.224L402.744 82.76L403.56 84.528L403.016 85.344ZM359.36 70.384L359.224 69.84H359.768L359.904 70.248L359.36 70.384ZM369.832 71.064L369.152 70.928L369.424 69.976L369.832 71.064ZM407.776 72.424L407.096 72.288L407.232 70.792L407.776 72.016V72.424ZM370.376 76.368L369.424 76.64L369.152 75.28L368.608 73.512L368.744 72.832L369.832 72.696L370.512 72.968L370.376 73.104H369.832V74.056L370.24 74.6L370.648 75.28L370.376 76.368ZM361.128 74.464L360.448 74.328L361.264 74.056L361.128 74.464ZM407.096 74.872L406.96 76.232L408.32 75.144L407.096 74.872ZM369.696 76.096L370.24 75.28L369.56 75.416L369.696 76.096ZM408.728 76.096L409 77.048L409.408 75.96L408.864 75.28L408.728 76.096ZM408.32 79.088L408.728 77.592L407.64 76.504L407.232 77.048L407.368 78.136L408.32 79.088ZM369.424 78.952V79.768L368.744 81.4H368.472L368.608 80.72L368.744 80.448L368.336 79.632L368.472 78.408L368.744 77.456L369.288 77.048L369.56 77.592L369.288 78.408L369.424 78.952ZM400.296 78.272L399.48 78.136L399.208 78.272L399.344 77.592L400.296 77.864V78.272ZM408.184 90.512L408.456 92.144L409.408 92.008L408.728 90.512H408.184ZM407.64 92.008L407.912 92.552L407.368 92.688L406.96 92.28L406.824 91.872L407.64 92.008ZM406.688 95.136L406.96 96.088L406.688 96.904L406.28 96.088L406.688 95.136ZM402.472 98.808L401.928 98.128L402.608 98.264L402.472 98.808ZM394.312 109.96L393.224 109.824L392.408 109.96L392.68 109.28L393.632 108.872H394.176L394.448 109.416L394.584 109.552L395.128 109.96H394.312ZM383.024 110.504L382.888 110.232L383.024 109.96L383.432 109.28L383.976 110.232L383.024 110.504ZM386.696 109.688L387.24 109.416L387.376 109.96L386.696 109.688ZM395.536 113.088L395.808 113.768L396.352 113.36L395.672 112.952L395.536 113.088ZM375.816 117.984L377.856 118.256L379.76 117.712L380.984 117.576L383.16 118.256L387.24 117.848L387.92 117.984L389.008 117.712L389.144 118.256H388.328L386.832 118.664L385.744 118.8L384.248 118.664L382.344 118.936L380.304 118.8L377.856 118.528L376.768 118.256H375.544L375.816 117.984ZM392.952 117.848L393.496 118.256L392 118.528L391.184 117.848H392.952ZM468.04 95.68L468.856 95.272V94.32L469.264 94.728L470.08 95.408L470.352 94.592L471.032 94.728V95.272H471.984L473.072 95.136H475.52L476.336 94.864L477.016 94.048L477.288 93.096L477.56 92.008L477.152 90.648L477.424 89.152L477.56 87.792V86.704L477.288 85.888L477.152 85.344L477.424 83.712L477.832 83.304L477.152 82.896V82.216L477.56 81.536L477.288 80.992L477.696 80.584L478.104 80.04L477.016 80.176L476.472 80.04L475.792 79.768L475.112 80.04V79.224L477.288 78.952L478.104 78.68L478.24 78.272V77.864L477.832 77.456L477.424 78.272H477.152L476.336 77.864H475.384L475.112 78L475.384 77.32L476.2 76.64L477.288 76.504L476.336 75.824L475.52 75.96L476.064 75.28L476.744 75.824L477.696 74.6L478.104 73.92L477.424 74.056L477.152 73.92L476.2 74.464L474.568 73.512L475.112 73.24L475.656 73.376L476.472 72.696L476.744 73.104L477.56 72.288L477.424 71.472V71.2L476.472 71.744L475.112 71.472L475.656 71.064L476.744 70.656L477.424 69.296L477.56 68.616L477.696 68.072H477.016L476.2 68.48L475.248 68.616L475.112 68.072L475.248 67.664L476.064 67.256L476.472 66.576L476.2 65.896L475.384 65.76L476.064 65.488L477.152 65.624L477.56 65.488L477.016 64.944L476.336 64.808L476.608 64.128L477.424 63.312L476.472 62.496L476.608 61.544L477.288 60.456L477.152 59.64L476.336 59.504L475.656 58.96L475.384 59.504L475.112 60.456L474.976 59.504L475.248 58.688V57.872L477.152 58.552H478.104L477.832 57.872H477.288L477.424 57.192L478.104 56.376L477.288 55.424L477.152 54.744L477.288 54.2L477.424 53.384L477.696 52.024L477.288 50.936L476.472 51.208L475.792 52.024V53.112H475.112L475.384 52.024L474.704 51.208L474.296 50.936L475.112 50.256L476.608 49.848L477.016 49.168L477.424 48.896V48.352L476.744 48.08L476.2 48.488L475.52 49.032L475.112 48.488L475.792 47.944L476.472 46.992H477.016L477.696 46.312L476.744 45.224L477.016 44.272L476.472 43.184L476.336 42.096L476.2 41.416L475.656 41.144L474.976 41.008V40.736L475.384 39.92L475.656 39.648L475.52 39.104L475.248 38.696V37.88L474.432 36.656V35.84L473.888 36.384L473.616 35.704L473.888 34.752L473.344 34.616L472.392 33.664L471.168 33.12L471.032 32.168L470.76 31.76L469.808 32.44L469.4 31.76L469.808 31.08L469.128 30.536L468.72 30.672H468.04L468.312 30.128L468.176 29.312L467.224 28.36L465.184 26.864L463.008 25.912L462.056 25.232H461.512L461.648 25.912L461.376 26.592L460.56 25.504L459.608 24.824L458.384 24.28L454.304 24.008L453.216 24.144L453.08 23.872L450.632 23.464H446.96L443.696 24.008L440.024 24.28L438.392 23.872L434.856 24.008L434.992 25.232L434.856 26.32L434.448 27L434.312 28.088L435.808 28.36L436.352 28.904L434.856 29.584L433.904 31.216L434.72 32.44L435.536 33.12L436.08 33.392L434.856 33.664L433.496 34.344V35.432L434.856 36.656L438.664 36.52L440.024 36.656H442.2L444.24 36.52L448.184 36.384H449.952L454.032 36.52L455.664 36.656L457.296 36.928L458.656 37.608L460.832 39.376L461.648 40.464L462.6 41.688L463.96 44L464.504 45.36L464.64 46.72L464.912 49.304L464.776 51.48L464.64 52.976L464.096 53.248L463.416 52.704L461.104 52.568L459.608 53.112H458.928L457.432 52.976L455.936 52.568L454.848 53.384L456.344 53.656L457.976 54.064L459.744 53.656H464.64L464.776 54.336L464.232 55.016L463.416 54.608L462.056 54.744L460.968 55.016L460.56 54.744L459.744 54.336L459.336 54.744L458.928 55.016L458.384 55.152L457.704 54.744H456.344L455.664 54.608L455.12 55.288L454.44 55.016L453.76 55.152L453.216 54.744L451.992 54.472L450.632 54.608L450.496 54.744H449.136L446.552 55.288L443.968 55.152L443.152 55.56L443.016 55.424L443.152 55.152L441.656 54.744H440.16L437.984 55.152L437.168 56.376V57.328L437.984 57.056L438.664 57.328V57.464L438.528 58.144L437.576 59.232L437.032 60.32L437.712 61L438.528 61.68L437.712 62.36L436.488 64.4L435.672 64.128L434.72 63.856L433.36 64.808L432.408 64.944L432.272 64.672L431.456 64.536H430.232L428.6 65.624L428.328 65.76L427.784 65.624L428.192 66.44L427.784 67.528L427.376 66.712L426.016 65.624L424.928 67.256L425.064 68.616L425.2 69.704L425.064 70.112L425.2 70.792L425.064 70.928V71.336L425.2 72.016L424.928 72.152L425.2 72.696H425.608L426.016 73.104H425.336L425.2 73.376L424.928 74.464L424.52 76.232L424.928 77.456V78.272L424.656 80.176L424.52 82.624L425.064 84.256L425.2 84.936L425.608 85.344H426.288L426.56 85.48L426.968 86.432L427.648 86.024H428.464L430.096 85.752L430.504 84.936L430.096 84.256L430.504 83.984V84.528L430.776 84.936L430.504 85.616L430.912 86.024H431.592L432.68 86.296L434.312 86.024L434.856 84.528V82.488L434.72 80.992L434.856 80.312L434.992 79.224L435.672 78.952L436.488 78.68L436.896 79.224L437.44 78.68L436.76 78H435.536L434.992 77.592V76.232L435.4 75.144L434.992 73.92L435.536 72.968L434.992 71.472L435.536 70.248L435.4 69.704L435.672 68.752V67.528L436.08 68.208V71.064L436.624 71.2L436.76 70.792L436.896 70.112V67.936L437.032 65.76L439.888 64.944H442.064L442.88 65.08L443.968 65.488L444.784 65.08L445.328 64.944L446.824 65.352H448.184L449.408 65.08L450.496 64.808L451.72 65.08H453.08L455.528 64.808L457.16 64.944H458.248L459.88 65.08L461.376 64.944L463.416 64.808L464.64 64.944H464.912L465.184 65.488L465.32 66.576L465.184 66.984V67.664L465.32 68.616L465.184 69.296L465.048 70.792L465.184 73.104V78.272L465.32 79.496L464.912 80.448L465.32 81.536L464.912 82.624L463.96 83.304L462.872 83.712L463.824 84.664L464.64 84.936L464.096 85.208L462.192 85.344H460.696L459.472 85.208H457.84L455.8 85.344L453.352 85.208L450.768 85.344L449.272 84.936L446.552 85.48H439.48L438.8 84.664L439.888 84.392H440.568L441.112 84.256H444.24L443.696 83.712L441.928 83.576L439.888 83.44L438.664 83.576L436.896 84.392L436.624 86.296L437.848 86.976L438.8 87.52V87.792L437.712 88.336L436.624 88.608L436.896 88.88L436.624 89.56L436.352 90.784L437.032 91.6L437.984 92.144L437.44 92.96L436.352 93.912L436.896 95.136H437.712L438.936 95.272H440.704L441.792 95.408L442.064 95.136L443.696 94.592V94.728L443.968 95.136L445.464 95.272L446.824 95.136H447.368L448.048 95L448.456 95.408L450.088 95.136H451.448L451.72 95.272L453.08 95.408L454.44 95.136L455.12 95.272H455.664L456.616 95.136L456.888 94.728L457.84 95.272H458.384L459.336 95.136H460.424L460.968 95.272L461.512 94.864L462.872 95.272L464.096 95.136L465.048 95.272L466 94.32L465.864 95.136H467.088L467.904 94.592L468.04 95.68ZM457.16 26.048L456.48 25.912L455.664 25.504L454.712 25.776L454.032 25.368L451.992 25.776H448.456L448.184 25.096L449.952 24.96L452.264 25.232L456.208 25.096L459.336 25.504L459.744 26.048H459.064L458.52 25.912L457.976 26.048H457.16ZM440.704 26.048L440.024 25.776L442.336 25.504L444.104 25.912L440.704 26.048ZM459.88 35.16L458.52 34.752L458.792 34.48L459.88 35.16ZM461.784 37.2L460.832 35.704L461.512 36.384L462.192 36.928L461.784 37.2ZM474.024 39.648L473.344 39.104L474.16 38.832L474.024 39.648ZM475.384 43.048V42.096L475.792 42.64L475.384 43.048ZM472.664 51.208L472.12 50.8L472.664 50.528V51.208ZM476.608 53.112V52.024H477.152L476.608 53.112ZM437.848 54.2L439.48 53.928L442.608 54.2H443.968L447.368 53.928H449L451.312 53.656L453.08 54.064L454.576 53.384L453.624 52.568L451.448 52.704L450.224 53.112V52.976H450.088L448.32 52.568L447.368 53.112L446.824 52.704L446.144 53.248L445.328 53.384L444.784 53.112H443.832L442.064 53.248L438.936 53.112H437.712L437.44 53.52L437.848 54.2ZM476.336 56.648L475.656 56.512L475.384 56.24L475.112 55.696L475.52 55.832L476.472 55.56L477.288 56.512L476.336 56.648ZM453.76 58.28L452.264 57.872L453.08 57.328L454.168 57.192L454.848 57.328L455.664 57.056L456.888 56.784L457.976 57.192L459.472 57.328L459.064 57.872L457.704 57.464L457.16 57.192L456.888 57.6V57.736L455.8 58.144L453.76 58.28ZM446.552 58.144L446.96 57.056L448.32 57.464L448.048 57.872L446.552 58.144ZM449.544 57.872L448.864 57.6L449.544 57.056L451.176 57.192L450.632 57.736L449.544 57.872ZM462.736 57.872L462.464 57.464L462.6 57.328H462.872L462.736 57.872ZM442.744 57.736L442.336 57.6L442.2 57.464H443.424L443.288 57.736H442.744ZM458.792 61.816L457.84 61.544L458.792 61.272V61.816ZM455.8 64.128L455.392 63.312L455.8 62.36L456.344 61.952V61.544L457.432 61.408L457.568 62.224L457.16 63.448H455.8V64.128ZM461.648 62.496L461.376 62.224L462.056 61.952L461.648 62.496ZM476.064 63.992L475.384 63.584L475.656 62.224L476.064 63.992ZM453.76 64.672L452.672 64.128L450.496 63.992L449.136 63.584L449.544 63.448L450.768 63.584L452.536 63.312L452.808 62.496L453.08 62.36H453.76L454.712 62.768L454.032 63.312L453.216 63.448L453.352 64.128L453.76 64.672ZM448.864 64.4L448.048 64.128H447.504L447.912 63.72L448.184 63.856L448.864 64.4ZM477.016 66.984H477.696V66.576H476.744L477.016 66.984ZM432.272 72.016L431.728 71.88L431.456 71.472L432 71.2L432.68 71.336L432.272 72.016ZM436.896 73.376L437.168 72.288L436.624 72.016L436.08 72.832L436.896 73.376ZM432.68 75.008L431.864 74.328L432.68 73.784V75.008ZM436.624 76.912L437.576 75.552L436.76 74.6L436.08 75.008V76.232L436.624 76.912ZM477.832 76.096H478.376L478.104 75.416L477.832 76.096ZM473.072 77.048L472.528 76.504L473.072 76.368V77.048ZM432.544 78L431.864 77.32L432.272 77.048L432.68 76.504L432.816 77.184L432.544 78ZM426.696 78.68L426.968 77.592L427.24 77.456V77.864L427.104 78.408L426.696 78.68ZM430.504 78.408V78L431.184 78.408H430.504ZM431.592 80.72L431.864 79.768L432.408 80.312L431.592 80.72ZM435.808 82.76L436.896 82.216V80.992L436.76 79.768L435.944 80.04L436.08 80.72L435.944 81.4L435.4 82.352L435.808 82.76ZM475.384 81.672L475.792 81.264L476.336 81.536L475.384 81.672ZM444.92 84.256L445.872 83.848L444.92 83.304L443.968 83.576L444.92 84.256ZM446.416 83.984H449L449.136 83.576L449 83.44L447.912 83.576L447.232 83.304L446.28 83.44L446.416 83.984ZM436.352 84.392L436.76 83.848L436.352 83.44L435.672 83.984L436.352 84.392ZM449.952 84.256L450.224 83.712L449.68 83.44L449.544 83.848L449.952 84.256ZM456.752 84.528L459.064 84.392L458.248 83.44L456.752 84.528ZM461.648 84.664L461.92 83.848L461.648 83.44L461.376 83.848L461.648 84.664ZM460.696 84.392L460.832 83.848L460.288 83.576L460.016 83.984L460.696 84.392ZM454.848 84.664L455.936 84.256L454.848 83.984L453.352 83.712H450.768L451.312 84.256L453.216 84.528L454.848 84.664ZM450.36 87.384V86.704L450.632 86.84H451.448L451.312 87.384H450.36ZM456.616 87.52L455.936 87.384V86.704L456.48 86.84L456.616 87.52ZM457.976 87.928L457.704 87.656L457.432 87.248V86.704L458.248 87.792L457.976 87.928ZM445.736 87.928V87.52L445.872 87.384L446.28 87.52L447.368 86.84L448.048 87.656L447.368 87.792L446.28 87.928H445.736ZM453.488 88.064L453.216 87.928L453.08 87.52L453.76 87.248L454.712 87.384L455.12 87.52L454.576 87.792L454.304 87.656L453.76 88.064H453.488ZM449.68 87.928L449 87.52L449.68 87.384L450.224 87.656L449.68 87.928ZM450.768 89.832L449.272 89.696L450.36 89.152L451.176 89.424L451.584 89.696H451.72L450.768 89.832ZM453.624 90.104L453.352 89.696L453.488 89.152L454.032 89.424L454.168 89.696L453.624 90.104ZM463.96 89.968L464.64 89.696L465.184 89.424L466.272 89.696L465.592 89.968H463.96ZM443.968 89.968L443.832 89.696H444.24L444.376 89.968H443.968ZM452.536 93.912L452.264 93.368L451.992 93.232H450.632L450.088 92.688L449.272 92.28L449 92.688L449.544 92.824V93.096H449.272L448.184 92.96L447.504 92.28V92.008L448.592 91.872L449.952 92.28L450.088 91.872L451.72 92.688L452.4 92.008H453.216L454.168 93.232L453.08 93.776L452.536 93.912ZM456.344 93.096L455.936 92.688L456.48 91.872L457.296 92.28L457.432 92.688H457.976L457.84 93.096L457.432 92.96L456.344 93.096ZM460.968 92.688V91.872L461.784 92.552L460.968 92.688ZM462.736 92.824L462.464 92.552L463.144 92.008L463.416 92.824H462.736ZM455.12 93.096L454.712 92.552L454.848 92.144L455.392 92.824L455.12 93.096ZM464.096 93.368L464.232 92.96V92.824L465.048 92.144L464.776 93.096L464.096 93.368ZM445.056 94.32L444.784 94.048H444.512L445.056 93.64L445.192 94.184L445.056 94.32ZM503.378 1.83999L503.922 1.976H504.738L504.874 1.432L504.33 1.296L502.698 1.02399L502.562 1.432H502.97L503.378 1.83999ZM493.314 10.816L493.178 11.224L493.042 12.312L493.45 13.4L495.218 13.808L497.394 13.672L498.482 12.992L499.026 12.312L499.842 12.04L500.658 12.312L501.202 12.04L501.882 11.768L502.562 11.36L502.698 11.768H503.242L503.378 11.224H504.33L503.378 10.544H501.61L500.522 10.816L500.25 10.272L502.154 10.136L502.97 9.31999L504.058 8.912L505.01 9.18399L505.282 9.456L505.01 9.728L505.282 10.816L504.738 11.632L504.874 11.768L504.738 12.584L503.378 12.72L499.434 12.856L499.162 13.808H505.282L505.01 16.12L505.554 17.208L505.01 17.752V18.568L505.554 19.248V20.2L505.01 21.424L504.874 22.104V23.192L505.282 24.416L504.874 25.096L505.826 25.368L506.778 26.048L507.05 26.184L506.778 26.592L505.826 26.32L504.874 27.136L505.418 27.272L505.554 27.952L504.874 29.04L505.418 30.4L505.01 30.944L504.874 31.488L505.69 31.216L506.642 31.76L505.962 32.304L505.01 32.44L505.69 34.208L507.05 35.568L507.458 36.248L508.002 36.52L507.73 36.928L507.322 38.016L506.506 38.56H505.282L505.01 39.512L505.554 39.92L504.874 40.464V41.008L505.282 41.688H505.69L506.098 41.144L506.37 40.736L506.642 41.416L505.962 41.824L505.69 41.96L505.418 42.64L504.874 43.048L505.282 43.592V45.632L504.874 46.448L505.01 47.128L505.282 48.352V49.984L504.874 52.704L505.69 55.016L505.418 55.288L505.962 55.56L505.282 56.24V57.056L505.69 57.736H506.506L506.914 58.28L507.73 57.872L508.682 58.416L508.002 58.96L506.778 59.776L506.914 59.368L507.322 58.824H506.098L505.826 59.232L505.418 59.912L505.282 60.184L504.602 60.592L505.418 60.728L505.962 61L507.05 60.728H507.458L507.866 61.272L506.506 61.816L504.738 62.224L504.874 62.496L505.01 62.632L505.554 62.904L505.69 63.584L505.282 63.856L505.554 64.128H507.05L508.002 64.672L507.73 64.944L506.506 64.808L505.554 64.536L504.874 64.808L505.01 65.76L504.738 66.44L505.01 66.712L505.282 67.12L504.874 67.936L504.738 68.48L505.554 69.16L506.506 69.024L507.05 69.568L507.458 69.84L508.138 70.384L509.09 70.112L509.906 69.296H510.586L510.994 69.84L511.538 69.976H513.17L514.122 70.248L514.666 71.2L515.346 71.064L515.21 70.792V69.704L516.434 69.296L517.25 69.568V68.616L517.114 67.664L515.89 67.8L514.938 67.936L513.714 67.8L512.082 68.48L511.81 67.936L512.626 67.12L513.85 66.848L513.986 66.44L513.714 65.624L514.122 65.352L514.258 65.896V66.576L515.89 66.848L517.25 66.168L517.114 65.352V64.536L517.25 63.856V60.456L516.842 58.824L517.25 57.464L517.114 54.744L516.978 53.248L517.25 52.024L516.978 50.256L516.842 49.44L517.114 45.088L516.434 44.544V45.088L516.298 45.768L515.89 46.176L515.482 47.264L516.026 48.352L515.346 47.944L515.21 47.264L514.666 47.4L513.986 47.264L513.306 46.992L511.81 46.856L510.586 47.4L510.042 47.944L510.858 48.352L511.13 48.896L510.722 49.032H509.906L509.226 48.352L508.954 48.216L509.498 47.944L510.042 47.4L509.09 47.264L508.41 47.672L508.002 48.352L507.73 47.944L506.914 46.992H508.138L509.906 46.176H510.042L510.45 46.312L511.674 46.04L513.034 46.72L514.122 46.312L514.938 46.04L515.074 45.36L515.754 45.088L516.026 44.544L516.162 44L514.394 44.272L513.17 44.136L513.986 43.456L514.938 42.64L514.666 41.552L514.938 40.056L513.85 38.832L513.034 37.744L514.122 37.472L514.938 36.792L514.666 35.84L514.122 35.16L513.85 34.616L513.442 35.16L513.17 34.616L513.442 34.48L513.85 34.344L514.394 34.616V33.392L513.85 32.848L513.17 32.304L513.034 31.488L513.442 31.08L514.122 31.216L514.802 30.944L514.394 30.536L514.258 30.128L514.122 29.584L513.442 29.04L514.258 28.904L514.802 28.496V26.864L513.17 26.456L512.082 26.592H511.674L510.858 27.136L510.586 27.408L510.994 28.224L511.946 28.904L512.626 29.04L512.218 29.312H510.45L510.178 29.72L510.586 30.536V31.352L510.45 32.032L509.77 30.536L509.498 29.448L510.042 29.176L509.77 27.816L510.042 26.864L510.178 26.32H510.722L511.538 26.048L511.81 26.184H513.17L514.258 25.776H514.802L514.938 24.008L514.666 23.056L515.074 22.648L515.482 23.328L515.754 24.008V24.416L515.89 25.232H517.114L516.978 23.328L517.114 21.424L516.978 19.52V18.568L517.25 17.48L516.978 15.984L517.114 14.488V10.136L517.25 8.63999L516.978 6.464L517.114 3.88L516.842 1.568L515.754 1.15999H513.714V1.568L513.442 1.83999L512.762 1.432L508.41 1.15999H507.458L505.826 1.568L505.01 2.112L505.554 2.38399L505.826 2.656V4.28799L505.282 4.696L504.874 4.96799L505.282 5.24L505.69 5.784L505.826 6.328L505.418 6.73599L504.602 6.6L502.834 7.008L501.338 6.19199L501.746 5.104L502.29 5.648L503.242 6.05599L504.058 6.19199L503.786 5.784V5.24L503.922 4.96799L504.058 4.15199L503.378 4.016H502.29V3.47199L502.154 2.92799L502.562 2.656L502.97 2.92799L502.834 2.38399L502.29 2.112L501.338 2.92799L501.474 1.976L501.338 1.296H499.842L499.162 1.15999L498.21 1.296L496.714 1.15999L496.17 1.568L494.674 1.83999L494.538 1.432L493.45 1.296L493.178 2.38399L493.314 4.28799V5.37599L492.77 7.144V9.31999L492.906 10.68L493.314 10.816ZM503.378 2.656L503.786 3.47199L504.33 2.656L503.786 2.38399L503.378 2.656ZM499.706 6.328L499.842 5.784V5.37599L500.386 5.104L500.794 5.51199L500.522 6.328L499.706 6.73599L499.162 6.464L499.706 6.328ZM501.61 7.688L501.746 8.232H501.338L501.202 8.09599L501.61 7.688ZM503.922 9.86399L503.514 9.456V10.272L503.922 9.86399ZM494.946 11.632L495.082 11.224L495.898 12.04L496.714 12.448H497.53L497.122 12.992H496.034L495.354 12.312L494.946 12.04V11.632ZM515.346 13.672H515.754V13.944L515.21 14.08L515.346 13.672ZM510.858 14.08L510.994 14.896L510.586 14.624L510.858 14.08ZM514.802 16.392L514.258 16.8L514.122 16.664L513.986 16.392H514.802ZM510.858 16.528V16.936L510.042 16.8L510.858 16.528ZM513.986 19.112H514.666L515.21 19.656L515.346 20.608L514.938 20.88L514.258 20.608L513.714 20.2L513.986 19.112ZM510.042 22.784L510.178 21.968L510.042 20.744L510.45 20.336L510.722 20.2L510.586 21.696L510.722 22.376L511.266 22.648L512.082 22.92L512.762 23.192L512.218 23.464L511.13 23.192L510.45 23.872L509.906 23.464L510.042 22.784ZM507.458 21.696L508.682 21.968L507.458 22.104V21.696ZM515.89 21.968L516.026 22.376L515.21 22.24V22.104L515.89 21.968ZM507.322 23.056L507.458 23.328L506.37 23.464L507.322 23.056ZM516.162 26.32L515.482 27L515.754 27.408L516.434 28.224L516.026 29.584V31.08H516.842L517.114 27L516.162 26.32ZM505.826 29.312L506.778 28.904L507.05 29.72L505.826 29.312ZM510.858 33.256L510.042 33.8L509.498 33.392L510.178 32.712L511.538 32.032L512.082 32.712L511.81 34.072L511.674 34.344L512.218 35.296L511.538 35.704L510.858 35.432L510.45 35.704L509.906 36.384L509.498 35.432L510.45 34.344L511.81 33.256H510.858ZM516.57 32.44H516.026L515.482 32.848L515.21 33.528V33.8L515.346 34.48L515.754 35.432L516.978 35.568L516.57 34.616L516.842 33.528L516.57 32.44ZM505.418 35.704L505.69 35.84L505.554 34.888L504.874 35.296L505.01 35.704H505.418ZM516.298 39.784L516.978 39.512L516.434 37.88L516.842 36.52L515.754 36.656L516.026 37.744L515.754 38.696L516.298 39.784ZM505.01 37.2L505.826 36.928L505.69 36.656H505.01L504.738 36.792L505.01 37.2ZM506.642 36.656V37.336L507.05 37.472V36.928L506.642 36.656ZM509.77 37.608L510.042 36.792L510.858 37.2L510.178 37.744L510.45 38.56L510.994 38.968H509.906L509.77 37.608ZM511.674 37.744V37.472L511.946 37.608L512.218 37.88L512.082 38.696L511.81 37.88L511.674 37.744ZM510.722 42.64L511.13 43.592L510.994 43.728L510.722 43.456L509.906 41.688L510.45 40.056L511.13 40.6L511.81 40.736L511.674 41.144L510.586 41.688L510.722 42.64ZM515.89 43.456L516.842 42.912L517.114 42.64L516.978 41.416L516.57 40.328L515.754 40.464L515.346 40.872L515.754 41.008L516.162 41.824L515.754 42.504L515.89 43.456ZM513.714 40.6L514.122 40.736L513.714 41.552L513.306 40.872L513.714 40.6ZM507.73 40.872L508.41 41.144L507.594 41.824L506.642 42.096L507.73 40.872ZM508.546 42.096L508.682 42.64L508.546 44L508.002 43.456L508.546 42.096ZM506.778 43.864V43.048L507.73 43.728L506.778 43.864ZM512.354 43.048V43.456L511.946 44.272L511.674 44L512.354 43.048ZM510.586 45.36L509.906 44.68L510.586 44.544V45.36ZM509.226 45.224L508.546 45.36L508.138 46.04L508.002 45.768L508.41 45.088L509.09 44.952L509.226 45.224ZM510.994 49.984L511.946 49.44L512.762 49.984H513.306L513.85 49.168L514.802 48.488H515.346L514.666 49.168L514.802 49.304L515.754 49.44L516.162 50.256L514.666 50.12L512.354 50.392L510.722 50.936L511.13 52.16L512.354 52.296L510.994 52.976L509.906 51.208L510.994 49.984ZM507.322 49.168L507.866 50.256L506.506 50.12L505.418 49.304L505.962 49.032H506.642L507.322 49.168ZM513.714 53.112L514.802 52.16L515.21 52.704L513.714 53.112ZM506.642 53.112H505.554L506.37 52.296L506.914 52.432L506.642 53.112ZM508.138 52.432L507.866 53.112L507.594 52.568L508.138 52.432ZM516.162 55.288L515.754 56.376L514.394 56.512L514.122 56.648L513.714 55.832L514.258 54.608L515.21 53.52L516.298 53.248L515.89 53.928L515.482 54.472L516.162 55.288ZM509.634 58.144L509.906 57.192L509.77 55.696L509.906 54.608L510.45 54.336L510.858 55.288L511.13 55.424L511.538 55.56L511.674 56.376L510.858 56.648L511.674 57.6L513.442 58.28L514.258 57.872V58.416L514.802 58.552L514.394 58.824L513.714 59.64L513.034 59.368L511.674 58.688L510.178 59.504L510.722 60.184L510.586 61L510.45 61.408L510.858 61.68V61.952L510.042 62.768L509.634 62.632L509.498 62.224L509.77 61.952L509.634 61.408V60.184L509.498 58.96L509.226 58.28L509.634 58.144ZM508.546 55.696L507.322 55.56L507.458 54.744L508.546 55.696ZM515.482 56.784L516.026 57.328L515.754 57.6L515.482 56.784ZM515.346 60.456L515.074 59.64L515.346 58.96L516.162 59.64L515.346 60.456ZM512.354 61.544L511.946 61.952L511.81 61.408L512.218 60.864L512.354 61.544ZM516.162 61.952H514.802L513.442 61.272L514.938 60.864L516.162 61.272V61.952ZM507.594 63.312L507.73 62.496L508.138 62.768L507.594 63.312ZM515.21 63.448L515.754 63.04L516.026 63.856L515.21 63.448ZM509.226 64.128L510.178 63.992L511.674 64.4L512.898 63.856L514.802 64.4L514.938 64.672L514.122 64.808L513.306 64.4H513.034L512.626 64.672L511.81 64.808H509.226V64.128ZM505.69 68.48V67.256L506.37 66.576L506.506 67.664L505.69 68.48ZM510.45 68.752L509.634 67.8L509.77 66.848L510.45 67.528V68.752ZM507.866 67.936L507.322 68.208L507.458 67.664L508.002 66.984L508.546 67.256L507.866 67.936ZM529.762 91.872V91.056L528.674 90.784L529.49 90.512L529.898 89.968L530.034 89.424L528.946 89.152V88.472L530.306 87.792L530.034 87.248V86.568L529.898 85.752L529.762 85.344V84.8L527.994 84.664L526.498 84.936L525.274 84.664H522.146L521.194 84.528L520.378 84.8L519.426 85.208L519.154 84.664L518.474 84.8V84.664L517.93 84.256L517.25 84.8L516.434 83.984L516.978 82.76V82.352L517.25 82.08L516.298 81.808L515.482 82.216L515.89 82.76L514.938 83.168L514.122 83.304L513.714 83.168L514.122 82.216H512.082L511.674 81.808L512.762 81.672L513.442 81.536L513.85 81.4H514.666L514.802 80.992L514.938 80.72L515.21 81.808L515.482 82.08V81.264L516.162 81.128H516.842V80.72L517.25 80.448V79.768L516.978 78.952L517.114 77.592L516.978 75.824V74.328L517.114 72.968L517.386 71.2L516.842 70.112L516.298 70.384L516.026 71.744H514.802L514.122 72.016L515.074 72.696L516.434 73.512L516.162 74.328L516.026 74.6L516.298 75.416L515.21 75.552L514.666 74.464L515.346 74.328L514.666 73.784L513.85 73.24L513.442 72.152L513.986 71.2L512.354 70.656L509.634 70.792L508.41 70.928L507.594 71.336L507.458 72.016L507.05 71.88L505.826 70.384L504.602 70.792L505.554 71.2V71.472L504.874 72.016L505.418 72.696L507.322 72.832L507.866 72.968L508.546 73.104L507.73 74.192L506.914 74.328L505.554 73.92L505.282 75.28L505.826 77.456L505.01 78.136L504.738 77.592L504.33 78.272L505.418 79.632L505.69 80.176L505.554 80.448L505.01 80.04L504.874 80.448L504.738 80.584L504.874 80.72L504.738 81.128L504.874 81.264L505.554 81.536V82.488L506.098 82.624L506.506 82.352L506.37 82.216V81.536L507.05 81.808L507.866 82.352L506.914 82.624L505.826 83.168H504.738L504.874 82.76L505.282 82.352L504.874 82.216L504.33 82.352V82.76L503.922 84.392H501.338L501.202 84.8L500.794 84.528L500.114 84.664L498.618 84.528L497.394 84.8L496.17 84.528L494.674 84.664H493.314L491.682 85.888L491.274 87.52L491.002 88.472L491.41 89.56L490.73 91.6L491.138 94.184L492.498 95.408H494.266L494.946 95.68L494.674 95L496.442 94.32L499.57 94.048L500.658 95L499.842 95.136L498.754 94.728H497.666V95.136L499.706 95.816L501.746 95.136L501.338 94.728L501.746 93.912L502.698 94.048H504.33L505.418 94.32L506.642 95H509.498L510.994 94.592L512.354 95.136L515.21 94.592H516.978L518.338 94.32L520.514 94.728L522.554 94.32L523.098 94.864L523.778 95.68L525.41 95.408L527.586 95.272L527.994 95L527.45 94.728L527.314 94.184L528.81 94.048L529.49 93.368L530.306 93.232L529.898 92.552L529.762 91.872ZM509.906 72.696L510.586 72.016L510.178 71.472L510.858 71.744L511.13 72.152L511.674 72.424L512.354 72.968L512.082 73.512L510.45 74.328L509.498 73.784L509.906 72.696ZM511.674 73.104L511.266 72.696L510.45 73.24L510.994 73.784L511.674 73.104ZM510.586 77.184L510.178 77.456L509.498 76.368H509.09L508.818 76.096L509.906 75.008L510.178 75.144L510.586 75.552L511.81 75.96L512.898 76.096L512.218 76.64H511.13L510.586 77.184ZM514.394 75.824L515.482 76.368L516.162 77.048V78L515.754 78.408L515.21 78.544L516.162 79.496L515.754 80.04H514.122L513.85 80.312L513.714 78.544L513.442 77.184L514.394 75.824ZM504.874 76.232L504.466 76.096L504.602 76.64H505.282L504.874 76.232ZM514.938 77.592L515.346 76.912L514.666 76.64L513.986 78L514.666 78.408L514.938 77.592ZM510.178 78.544L510.722 78.272L510.994 78.68L510.178 78.544ZM512.218 79.768L512.082 79.36L512.354 79.088L512.762 79.224L512.218 79.768ZM509.498 80.448L509.77 79.632L510.45 80.04L510.586 80.312L509.77 80.72L509.498 80.448ZM510.45 82.488L509.498 82.76L509.09 82.216L509.498 81.808L510.45 81.672L510.722 82.488H510.45ZM515.346 85.208L514.938 83.848L515.074 83.576L515.21 83.712L515.482 84.528L515.346 85.208ZM503.242 89.424L502.698 89.016L503.242 88.608V89.424ZM524.866 94.864L524.458 94.32L524.866 94.184V94.864ZM496.17 95.68L496.578 95.136L496.17 94.728V95.68ZM504.466 94.864H502.834L502.97 95.952L504.738 95.816L506.098 95.408L505.554 95L504.466 94.864ZM510.45 95.952H510.858L510.722 95.136L510.45 95.952ZM517.794 95.136H515.754L516.026 95.68H516.298L516.978 95.816L517.386 96.088L518.066 96.36L519.29 95.408H518.202L517.794 95.136ZM507.05 96.088L507.322 95.272L506.778 95.408L507.05 96.088Z" fill="white"/>
</svg>
