<svg width="851" height="108" viewBox="0 0 851 108" fill="none" xmlns="http://www.w3.org/2000/svg">
<path d="M41.6166 77.24C44.7916 77.24 48.0936 77.113 51.2686 77.113C53.5546 77.113 55.7136 76.986 57.9996 77.113H61.6826C63.3336 76.986 64.9846 76.986 66.5086 76.732C67.6516 76.605 68.6676 76.986 69.8106 76.732C71.3346 76.732 72.6046 76.986 74.0016 76.605C75.2716 76.478 76.2876 76.605 77.5576 76.605C79.4626 76.478 81.4946 76.224 83.5266 75.843H85.0506C85.9396 75.716 86.9556 75.843 87.8446 75.716C89.1146 75.462 90.5116 75.208 91.9086 75.208C92.6706 75.208 93.4326 75.462 94.1946 75.462C95.0836 75.462 95.7186 75.462 96.7346 75.081C97.3696 74.954 98.0046 74.954 98.5126 74.827L105.752 74.319C108.165 74.065 110.578 73.557 112.991 73.303C115.277 72.922 117.817 73.176 119.849 72.541C122.77 71.652 125.691 71.398 128.612 70.89C131.533 70.255 133.946 68.985 136.613 68.096C136.994 67.969 137.375 67.842 137.629 67.461C139.153 65.937 139.915 64.413 139.915 62.762C139.915 62.508 139.915 62.508 139.534 61.238C139.407 60.603 139.407 59.968 139.153 59.46C138.01 57.301 137.375 54.634 134.835 53.618C134.073 53.364 133.565 52.856 133.184 52.094C131.279 50.316 129.247 48.792 126.961 47.649C125.818 47.268 124.929 46.887 123.913 46.252L120.611 44.347C119.595 43.585 118.325 42.696 117.182 42.442C115.785 42.315 115.023 41.426 114.007 40.791L112.864 40.41C111.848 40.156 110.959 39.902 110.197 39.267C109.816 39.14 109.562 39.267 109.054 39.267L107.53 38.886C107.911 38.124 107.403 37.87 106.895 37.743C104.355 36.727 101.942 35.584 99.2746 34.695C96.4806 33.552 93.6866 32.282 90.6386 31.393C88.2256 30.504 85.8126 29.234 83.2726 28.218C82.3836 27.71 81.4946 27.075 79.7166 25.678C79.2086 25.297 79.0816 24.916 79.0816 24.662C79.0816 24.154 79.2086 23.9 79.7166 23.392C79.9706 23.138 80.0976 23.138 80.2246 23.138C83.2726 21.106 85.0506 20.217 86.9556 19.836C87.8446 19.455 88.6066 19.074 89.6226 18.693C90.7656 18.312 91.9086 17.804 93.0516 17.55C93.9406 17.296 94.9566 17.296 95.8456 16.915C97.7506 16.026 100.037 15.391 102.831 14.883C104.228 14.629 105.625 13.994 106.895 13.74C108.927 13.232 110.451 13.105 111.721 12.978L121.119 11.962C123.405 11.708 124.675 11.708 125.691 11.708C127.342 11.708 128.485 11.708 130.263 11.962C132.041 12.216 134.073 12.47 136.486 12.978C138.772 13.359 140.169 13.867 141.439 14.629C142.328 15.391 142.328 15.391 141.82 16.407C141.439 17.296 141.185 18.058 140.931 20.852C140.931 21.36 141.185 21.741 141.693 21.741C142.201 21.741 142.201 21.741 142.328 21.614C142.709 21.36 143.09 20.979 143.217 20.725L144.614 18.693C144.741 18.312 144.995 18.058 145.503 18.058C146.519 18.439 147.027 17.931 147.027 16.915C147.027 16.407 146.9 15.772 147.027 15.518C147.916 13.994 148.805 12.343 150.075 11.073C151.599 9.422 153.25 7.771 154.647 5.739C155.155 5.104 155.409 4.215 155.409 3.326C155.409 2.564 155.155 1.675 154.647 1.04C154.139 0.531997 153.885 0.404998 153.631 0.404998C153.123 0.404998 152.996 0.404998 152.615 0.785997L152.107 1.167C149.567 4.215 146.9 7.009 144.614 10.311C144.487 10.692 144.233 11.073 143.852 11.2C143.725 11.454 143.471 11.073 142.963 10.692C141.693 10.184 140.423 9.549 139.28 9.168C138.01 8.66 136.994 8.152 135.724 8.152C135.343 8.152 134.962 8.152 134.581 8.406C133.946 8.152 133.438 8.025 133.057 8.025C132.549 8.025 132.422 8.025 132.041 8.152C131.787 7.898 131.279 7.771 130.517 7.771H129.374C128.866 7.771 128.485 7.644 127.215 7.39C126.58 7.39 126.326 7.39 125.945 7.263C123.405 7.009 120.992 8.152 118.198 8.025C118.071 8.025 117.944 8.152 117.817 8.152C117.309 8.406 117.055 8.533 116.674 8.533C115.658 8.406 114.515 8.787 113.499 8.787C112.864 8.787 112.229 8.66 111.848 8.406H111.34L108.673 9.295C108.165 9.422 107.53 9.168 106.895 9.168C106.514 9.168 106.133 9.168 105.879 9.422C105.625 9.549 105.244 9.549 104.99 9.676L103.593 10.438C102.704 10.946 102.196 11.073 101.561 10.692C101.307 10.311 100.672 10.438 100.418 10.946C100.037 11.454 99.6556 11.581 99.1476 11.2C99.0206 11.073 98.7666 11.073 98.7666 11.2C98.3856 11.708 98.1316 11.835 97.4966 11.835C96.9886 11.835 96.6076 11.708 95.9726 11.708C95.4646 11.708 94.7026 11.962 94.3216 12.343C93.9406 12.343 93.8136 12.724 93.6866 12.724C92.6706 12.724 91.9086 13.359 91.1466 13.74C90.5116 13.867 90.0036 14.121 89.6226 14.121C89.2416 14.121 89.1146 14.121 88.9876 13.994C88.6066 13.867 87.8446 13.994 87.7176 14.121C87.3366 14.756 86.5746 15.01 85.3046 15.01C84.6696 15.264 84.0346 15.264 83.6536 15.518C83.0186 16.153 82.1296 16.28 81.3676 16.534C80.2246 17.042 79.2086 17.677 77.0496 19.074C76.1606 19.836 75.5256 20.979 75.3986 22.503C75.2716 25.678 76.6686 28.472 79.2086 30.25C80.7326 31.52 82.3836 32.536 84.5426 33.679C86.8286 34.695 89.1146 35.457 91.4006 36.346L101.434 40.41L110.451 43.966C112.61 44.728 115.023 45.998 118.071 47.522C120.23 48.411 122.008 49.681 124.04 50.57C126.199 51.459 127.85 52.983 129.628 54.253C129.755 54.38 130.136 54.507 130.263 54.507C132.041 55.396 133.565 56.793 136.232 59.841C136.867 60.603 136.867 60.984 136.232 61.873C134.835 63.27 133.819 64.032 132.422 64.413C131.025 64.921 129.628 65.302 128.231 65.937C127.088 66.445 126.199 67.08 124.929 67.08H124.167C124.04 66.826 123.913 67.08 123.659 67.08C123.278 67.461 122.897 67.588 122.135 67.461C121.627 67.207 121.246 67.969 120.611 67.969C118.833 68.096 118.833 68.096 117.563 69.112C117.436 69.366 117.182 69.366 116.801 69.112L114.007 68.731C113.372 68.731 113.245 68.731 113.245 68.858C112.991 69.747 112.61 69.62 111.975 69.62H111.721C111.086 69.62 110.451 69.874 110.197 70.382C109.943 70.382 109.816 70.509 109.816 70.382C109.435 70.255 109.181 70.255 107.911 70.255C106.895 70.255 105.879 70.382 104.99 70.636C104.482 70.89 104.101 71.144 103.593 71.144H100.037L98.7666 71.017C98.0046 71.017 97.3696 71.144 96.6076 71.652C96.2266 71.779 95.7186 71.652 95.2106 71.652C93.5596 71.652 92.0356 71.398 90.3846 71.779C89.3686 71.906 88.3526 71.398 87.5906 72.16C87.4636 72.414 87.0826 72.541 86.9556 72.414C86.5746 72.033 86.0666 71.906 85.5586 71.906C85.1776 71.906 84.6696 72.16 84.2886 72.795L84.0346 72.668C83.6536 72.414 83.2726 72.414 83.1456 72.795C82.8916 73.303 82.7646 73.303 82.3836 72.922C82.1296 72.541 81.7486 72.414 81.2406 72.414C80.9866 72.414 80.7326 72.541 80.2246 72.668C79.7166 72.795 79.2086 72.922 78.5736 72.668C78.4466 72.541 77.9386 72.541 77.6846 72.668C77.0496 72.668 76.6686 72.795 76.0336 72.795H75.5256C71.8426 72.795 69.8106 72.922 67.2706 73.303C66.5086 73.43 66.0006 73.303 65.4926 72.795C65.3656 72.541 64.9846 72.541 64.6036 72.668C63.3336 73.303 61.9366 73.557 60.6666 73.557C59.9046 73.557 59.1426 73.43 58.3806 73.303C58.1266 73.176 57.9996 73.176 57.2376 73.176C55.5866 72.922 53.9356 73.303 52.2846 73.43C50.8876 73.557 49.6176 73.684 48.4746 73.684L43.1406 73.303C42.3786 73.303 42.1246 73.303 41.8706 73.176C40.8546 72.795 39.8386 73.176 38.8226 73.176C37.9336 73.303 36.7906 72.795 35.9016 72.795C35.6476 72.668 35.5206 72.795 35.1396 72.795L33.3616 73.303C32.8536 73.43 32.2186 72.795 31.7106 72.541C31.2026 72.414 30.6946 72.16 30.3136 72.414C29.1706 72.795 28.1546 72.414 27.1386 72.16C26.6306 72.033 26.3766 72.033 25.1066 72.033C23.8366 72.033 23.4556 72.033 23.0746 71.906C22.6936 71.779 22.1856 71.652 21.5506 71.652H19.7726C19.0106 71.652 18.2486 71.271 17.9946 70.636C17.6136 70.255 17.3596 70.128 16.7246 70.128C16.4706 70.128 16.2166 70.128 15.9626 70.255C15.3276 70.382 15.0736 70.382 14.5656 69.874C14.1846 69.62 13.6766 69.493 13.4226 69.493C12.9146 69.493 12.6606 69.62 12.2796 69.62C12.0256 69.62 11.6446 69.747 11.3906 69.62C10.3746 69.366 9.73957 68.35 8.46957 68.35H8.21557C7.83457 67.334 6.94557 67.334 6.18357 67.08C5.92957 67.08 5.54857 66.826 5.04057 66.318C4.27857 65.683 4.27857 64.921 5.04057 64.286C7.70757 61.746 10.3746 59.841 13.1686 58.825C15.4546 57.682 17.7406 56.793 20.2806 55.777C20.7886 55.396 21.8046 55.269 22.3126 55.015L23.3286 54.38C23.4556 53.364 24.3446 52.856 24.8526 52.221C24.3446 51.586 23.8366 51.459 22.8206 51.459H22.0586C21.1696 51.459 20.6616 52.602 20.0266 52.729C19.1376 52.856 18.5026 52.983 17.4866 52.983C17.2326 53.618 16.7246 53.745 15.7086 53.745C15.2006 53.745 15.0736 53.745 14.6926 53.872C14.1846 54.253 13.4226 54.38 12.7876 54.634C12.0256 55.142 11.2636 55.777 10.3746 55.777H9.86657C9.61257 55.777 9.23157 55.904 9.10457 56.031C8.08857 56.793 6.81857 56.92 5.92957 57.936C4.53257 57.428 3.89757 58.698 3.00857 59.46C1.61157 60.349 0.722574 62 0.722574 63.651C0.722574 66.572 1.99257 68.985 4.27857 70.382C6.56457 71.906 8.85057 72.795 11.3906 73.303C12.7876 73.557 14.1846 73.684 15.4546 74.192C18.7566 75.208 22.0586 75.208 25.2336 75.843C26.3766 75.97 27.5196 75.97 28.7896 76.224C29.8056 76.351 30.5676 76.478 31.3296 76.478C32.0916 76.478 32.5996 76.478 33.2346 76.224C33.7426 76.224 33.9966 76.224 34.1236 76.351C35.2666 76.732 36.5366 76.732 37.9336 76.986C39.3306 77.24 40.2196 77.24 41.6166 77.24ZM185.894 78.891C188.18 78.891 189.704 78.891 191.736 78.637C194.403 78.51 196.943 78.129 199.737 78.002C200.118 78.129 200.499 78.129 201.515 78.129C205.198 78.129 208.754 76.732 212.564 76.986C212.691 77.113 212.945 76.732 213.326 76.732C214.977 76.605 216.755 76.351 218.66 76.224C219.676 75.97 220.946 75.97 221.962 75.716C224.375 75.208 226.788 74.446 229.328 74.192C233.138 73.557 236.567 72.033 240.25 71.779C243.552 71.398 246.6 70.128 249.648 68.858C251.553 68.223 253.458 67.588 254.982 66.064C255.236 65.937 255.363 65.937 255.998 65.937C257.522 66.064 259.173 65.556 261.078 64.286C261.459 64.159 261.713 63.778 261.84 63.778C262.983 64.032 263.745 63.397 264.38 62.889C265.269 62.127 266.158 61.873 267.047 61.873C267.682 61.873 268.444 61.365 269.079 61.111C269.46 60.984 269.841 60.476 270.222 60.349C272 59.714 272.762 57.682 274.54 57.174C274.54 56.666 274.54 56.539 274.413 56.539C273.778 55.904 273.143 55.904 272.762 56.412C272.127 56.793 271.365 56.92 270.857 57.428C269.46 58.317 267.809 58.444 266.666 59.714C266.285 59.968 265.65 59.968 265.269 60.222C264.634 60.349 263.999 60.349 263.618 60.984C263.237 61.238 262.602 61.492 262.221 61.365C261.078 61.111 260.824 62.508 260.062 62.508V62.889L260.189 63.524C259.808 63.524 259.554 63.524 259.427 63.397C259.046 63.016 258.792 62.762 258.284 62.762H257.903C255.617 63.651 253.331 64.413 251.045 65.175L248.124 65.81C247.108 65.81 246.346 65.937 245.838 66.445C245.457 66.826 244.822 67.08 244.568 67.08C243.425 66.826 242.536 67.588 241.647 67.588H241.266C239.996 67.334 239.234 68.096 237.964 68.096C235.805 68.096 234.408 68.35 233.392 69.112C232.884 69.366 232.63 69.874 232.376 69.874C232.122 69.874 231.868 69.62 231.741 69.366C231.741 69.112 231.36 69.112 231.36 69.366C230.852 69.874 230.217 69.62 229.582 69.62H229.328C228.693 69.874 227.931 70.255 227.296 70.255H227.042C224.375 70.128 222.089 71.271 219.549 71.144C218.787 71.144 217.898 71.271 215.993 71.779C215.739 71.779 215.231 72.033 214.977 72.414C214.215 71.779 213.58 72.033 212.818 72.16C211.929 72.668 210.532 72.795 208.881 72.795C208.119 72.795 207.484 72.922 206.595 73.176L205.198 73.43H199.864C197.07 73.684 194.403 74.192 191.736 74.065C189.069 74.065 186.275 74.192 183.735 74.446C182.846 74.446 181.83 74.319 180.941 74.319C180.179 74.192 179.544 74.065 178.782 74.065C177.131 74.065 174.972 73.684 171.924 73.303C167.606 72.16 164.05 70.636 161.002 68.604C157.954 66.318 156.43 63.27 156.43 59.206C156.43 57.936 156.684 56.539 157.954 53.364C159.351 50.062 161.129 47.014 164.05 43.204C165.574 41.299 167.352 39.394 169.13 37.616C172.686 33.806 177.131 29.996 182.084 26.313C185.132 23.9 188.561 21.868 191.99 19.836C195.038 17.677 198.848 15.772 204.182 13.867C208.119 12.343 212.564 11.073 218.025 10.057C220.692 9.422 222.597 9.168 224.248 8.914C225.137 8.787 226.026 8.787 227.804 8.787C228.947 8.787 230.217 8.787 231.233 8.914C232.122 8.914 232.503 8.914 233.265 9.295C233.646 9.422 234.027 9.93 233.646 10.311C232.884 11.835 232.503 13.74 231.106 14.883L227.423 18.058C227.169 18.312 227.042 18.693 227.169 18.82C227.296 19.201 227.804 19.328 228.058 19.455C228.185 19.582 228.566 19.328 228.82 19.201C230.852 18.439 232.122 16.153 234.789 16.026C234.916 16.026 235.17 15.518 235.551 15.391C235.932 14.629 236.694 13.74 237.202 12.978C237.837 11.835 237.964 11.073 237.964 10.692C237.964 10.311 237.964 10.311 237.71 9.168C236.694 6.12 235.17 4.342 232.757 4.088C231.995 3.961 231.36 3.834 230.852 3.834C228.82 3.58 226.661 3.834 224.756 3.834C219.041 3.834 213.707 5.358 208.373 6.501C205.452 7.136 202.912 8.152 198.086 10.311C193.641 12.343 191.609 13.232 189.831 14.502C187.672 16.026 185.259 17.042 183.1 18.566C180.56 20.217 178.02 22.249 175.607 24.027C173.194 26.059 170.908 28.218 168.495 30.25C166.336 32.282 164.304 34.568 162.272 36.854C160.367 39.14 159.732 39.775 159.351 40.664C158.716 42.188 157.827 43.458 155.922 45.998C155.16 46.887 154.906 47.522 154.398 48.284C154.017 49.173 153.636 50.062 153.255 51.205C152.366 53.364 151.858 55.65 151.858 58.063C151.985 60.349 152.62 62.508 153.636 64.54C155.541 68.096 158.081 71.017 161.764 73.303C166.082 75.716 170.019 77.113 173.829 77.748C175.734 78.002 177.893 78.129 179.925 78.51C181.83 78.764 183.862 78.891 185.894 78.891ZM325.664 107.593C326.172 107.593 326.807 107.212 327.188 106.831C327.696 106.196 327.95 105.688 328.331 104.926C329.347 103.148 329.982 102.259 330.744 101.37C332.141 99.465 333.792 97.687 334.554 95.528C334.808 95.02 334.808 94.893 335.062 94.766C336.84 93.75 337.348 91.591 338.618 90.067C339.761 88.797 340.523 87.4 341.539 86.13C342.809 84.352 343.063 82.066 345.349 81.558C345.73 81.304 345.73 81.304 345.73 81.05C346.238 79.272 347.762 78.002 348.905 76.605C350.302 74.954 350.81 72.922 352.334 71.398C353.477 70.509 354.366 69.493 355.382 68.604C356.398 67.842 356.906 66.826 357.922 64.794C358.176 64.032 358.303 63.778 358.811 63.778H359.7C360.208 63.778 360.335 63.651 360.208 63.27C359.954 62.762 359.827 62.508 360.589 62.508L361.224 62.254C361.351 61.238 361.986 60.603 363.383 60.476C363.764 60.349 364.018 59.714 363.637 59.206C363.51 58.952 363.256 58.698 362.748 58.317C362.494 58.063 362.494 57.555 362.748 57.301C364.018 56.158 364.399 55.269 364.399 54.126C364.399 53.872 364.272 53.618 364.272 53.364C364.145 52.729 364.399 52.221 365.288 51.586C366.812 51.078 367.574 50.062 367.574 48.919V48.538C367.574 48.03 367.828 47.649 368.59 47.268C369.606 46.125 369.606 46.125 369.606 45.871C369.733 44.474 370.495 44.22 371.384 43.458C372.908 41.934 374.686 40.41 375.067 37.87C375.448 36.981 375.702 36.6 375.956 36.346C377.226 35.457 377.861 33.933 379.512 33.298C380.02 33.044 380.401 32.409 380.528 31.774C381.036 30.504 381.925 29.488 382.687 28.345C383.449 27.075 383.83 25.551 384.719 24.408C385.608 23.138 387.005 22.249 387.894 20.979C390.18 17.931 392.339 14.883 394.498 11.835C395.006 11.2 395.387 10.438 396.022 9.676C396.276 9.168 396.276 8.406 396.022 7.771C395.514 6.374 394.244 5.485 393.228 4.596C393.101 4.342 392.339 4.215 392.212 4.342C390.942 5.104 389.418 5.485 388.783 6.882C388.656 7.136 388.402 7.39 388.021 7.644C386.497 8.152 385.481 9.93 383.576 10.311C383.195 10.311 382.814 10.946 382.56 11.454C381.798 12.343 380.782 13.232 380.274 14.629C380.147 14.883 379.385 15.01 378.75 15.264L378.623 15.01L379.512 13.867H379.639C379.766 13.74 380.02 13.359 379.766 13.359C379.766 13.232 379.766 13.232 379.385 13.232C378.75 13.232 378.242 13.486 377.734 14.248C376.718 16.026 375.702 16.915 373.924 17.042C373.162 17.042 372.654 17.55 372.527 18.312C372.4 19.201 372.019 19.074 371.257 19.201C370.368 19.328 369.352 20.09 368.336 20.725C367.955 20.979 367.574 21.487 367.574 22.122V22.503C367.574 22.63 367.32 23.138 367.193 23.265C365.542 24.027 363.637 24.535 362.494 26.059C362.24 26.186 361.986 26.313 361.732 26.313C360.716 26.186 359.954 26.44 359.573 27.456C359.446 27.583 358.938 27.71 358.684 27.837C356.906 28.345 355.763 29.107 351.445 31.774C348.143 33.933 344.46 35.457 341.158 37.362C339.634 38.251 338.11 38.886 335.062 39.648C332.776 40.41 330.49 40.664 328.204 41.172C327.569 41.299 326.934 41.172 325.918 40.918C324.648 40.664 324.394 40.156 324.394 39.267V38.886C324.394 37.87 324.521 36.854 324.775 35.838C326.299 31.266 328.585 26.821 332.268 22.122L335.062 18.693C337.475 16.026 339.38 12.978 342.936 11.454C343.571 11.073 343.825 10.692 343.825 10.057C343.825 9.549 343.825 9.295 343.571 8.787C343.444 8.406 343.19 8.025 342.936 7.898C342.047 6.501 341.666 6.374 340.904 6.374C340.523 6.374 339.888 6.501 339.253 6.882C336.84 7.771 334.681 9.422 332.903 12.47C332.014 13.486 330.744 13.994 329.982 15.01C329.22 16.153 328.966 17.296 327.823 18.439C326.934 19.328 326.172 20.344 324.775 22.884C323.251 25.551 322.108 28.345 320.711 31.266C319.949 32.917 319.822 34.568 319.314 36.346C319.314 37.743 319.822 39.14 320.584 40.029C320.838 40.537 321.346 41.172 321.473 41.553C321.727 42.442 322.362 42.95 323.251 43.585L324.775 44.474C325.537 45.49 326.68 45.998 329.093 46.125C331.506 46.252 334.3 45.49 337.348 43.966L341.158 42.442C342.809 41.934 344.206 40.791 345.984 40.664L346.111 40.537C346.873 39.14 348.27 39.14 349.54 38.632C350.683 38.378 351.826 37.616 352.334 36.727C353.731 36.854 354.874 36.092 356.017 35.457L356.525 35.33L364.78 29.869C365.161 29.488 365.669 29.234 366.685 28.218C367.828 27.456 368.844 26.186 369.86 25.678C373.289 24.535 375.194 23.265 376.591 21.487C376.972 21.106 377.226 20.725 377.734 20.725C379.004 20.344 380.147 19.328 381.163 18.566C381.671 18.312 382.306 18.058 382.814 17.931C383.068 17.931 383.322 18.566 383.322 18.693C381.925 20.344 381.671 20.979 381.671 21.868C380.528 22.249 380.528 23.011 380.401 23.773C380.274 24.535 379.512 24.916 379.004 25.551C378.623 26.059 377.988 26.313 377.734 26.821C376.464 28.345 375.448 29.996 374.178 31.647C373.416 32.79 373.289 33.171 372.908 33.679C372.527 35.076 371.892 36.219 371.638 37.489C371.13 38.632 370.495 39.394 369.479 39.902C368.971 40.029 369.098 40.537 369.606 40.664L370.114 41.172C369.86 41.299 369.733 41.426 369.606 41.426C368.59 41.426 367.828 42.061 367.32 42.95C367.193 43.204 367.066 43.458 366.05 44.347C365.669 44.728 365.542 45.236 365.796 45.871C366.05 46.633 365.923 47.268 365.034 47.776C364.526 48.157 364.145 48.157 363.764 48.284C362.748 48.538 362.24 49.046 362.24 49.935C362.24 50.316 362.494 50.57 362.494 50.824C362.494 51.332 362.621 51.586 362.113 51.586C361.351 51.586 361.351 51.586 361.351 52.602C361.351 53.618 361.097 54.253 360.335 54.253H359.827C359.446 54.253 359.192 54.507 359.573 55.142C360.208 56.158 359.954 56.158 358.938 57.174C358.811 57.174 358.811 57.174 358.43 57.428C357.922 58.19 357.541 59.206 356.398 59.46C356.144 59.46 356.017 59.714 356.144 59.841C356.652 61.238 355.636 61.365 354.62 61.873C353.731 62.127 353.604 62.254 353.604 62.762C353.604 62.889 353.731 63.016 354.112 63.778C354.239 64.032 354.239 64.159 354.239 64.413C352.969 64.159 352.969 65.556 352.207 65.683C351.191 66.064 350.556 66.699 350.302 67.969C350.048 68.35 349.794 68.858 349.54 68.985C348.27 69.62 347.635 70.89 346.746 71.779C345.349 73.43 345.095 74.192 345.095 75.208C345.095 75.97 344.714 76.351 343.952 76.351C343.571 76.351 343.444 76.478 343.571 76.986C343.952 77.494 343.825 78.002 343.063 78.129C341.92 78.256 341.158 78.764 340.65 79.78C339.761 81.558 339.38 82.066 338.872 82.447C337.729 83.209 337.348 83.59 337.348 84.225L337.475 84.86C337.602 85.622 337.348 86.13 336.332 86.13L335.824 86.257C335.189 87.908 333.284 88.162 332.776 89.686C332.141 91.591 331.379 92.48 330.109 92.988L329.728 93.496C329.474 94.512 328.966 95.274 327.823 96.163C326.934 97.179 326.299 97.814 326.172 98.449C326.045 99.338 325.537 100.1 324.013 101.624C322.87 103.021 322.489 103.402 322.362 104.164C322.362 104.799 322.489 105.307 322.87 105.561C323.251 106.196 323.759 106.704 324.394 106.958C325.156 107.466 325.41 107.593 325.664 107.593ZM377.099 49.3H377.734C379.004 49.173 380.02 48.411 381.036 47.649C381.671 47.268 382.306 46.506 382.814 46.252C384.084 45.998 385.1 45.236 385.608 44.347C386.243 43.585 386.878 43.077 387.767 42.95C388.148 42.95 388.656 42.823 389.164 42.442C390.434 41.68 392.339 41.934 393.355 40.664C393.482 40.537 393.736 40.537 393.863 40.537C396.022 40.664 397.038 39.775 397.292 37.489L397.546 37.362L397.927 36.981L398.054 37.489C397.927 37.743 397.8 38.378 397.8 38.886V39.013C398.308 39.902 398.689 38.886 399.324 38.886C399.451 38.632 399.578 38.632 399.832 38.632C401.61 38.632 403.007 37.87 404.15 36.219C404.912 35.457 405.674 35.203 406.817 35.203C407.96 35.203 408.341 35.203 408.722 35.076C409.484 34.822 410.119 34.568 410.5 34.314C411.262 32.79 412.405 32.917 413.802 32.79C414.564 32.536 415.326 32.79 416.088 32.409C417.612 31.647 419.136 31.393 420.406 31.393H421.168C422.692 31.52 423.581 31.266 423.835 30.25C424.343 29.742 424.597 29.361 424.978 29.361C425.232 29.361 425.486 29.742 425.867 30.123C425.994 30.25 426.121 30.25 426.883 30.25C428.788 29.869 430.566 29.234 432.344 28.599C433.106 28.599 433.36 28.599 433.614 28.472C434.503 28.472 434.63 28.472 435.011 28.345C435.392 28.345 435.9 28.218 436.154 28.218H436.535C437.551 28.345 438.313 28.218 439.202 27.71C439.964 27.583 440.98 27.202 441.742 27.202C442.25 27.202 442.504 27.202 442.631 27.456C443.647 27.71 444.79 27.837 445.806 27.837C446.568 27.837 447.33 27.71 448.854 27.583C449.489 27.583 450.124 27.456 450.505 27.71C451.14 27.964 451.648 28.218 452.156 28.218C452.537 28.218 452.791 27.964 453.172 27.964C453.426 27.837 453.68 27.837 454.315 28.218C455.585 28.599 456.728 29.234 457.871 29.742C458.887 30.123 459.395 30.758 459.522 31.774C459.649 33.044 460.157 34.06 461.046 35.203C461.3 35.457 462.062 35.838 462.697 35.838C463.332 35.584 463.586 35.076 463.586 34.441C463.84 33.933 463.84 33.806 463.84 32.917C463.586 32.536 463.84 31.647 463.459 31.012C462.57 29.488 461.681 27.964 460.538 26.694C460.03 25.678 459.014 25.17 457.871 25.17H457.49C455.712 25.297 454.188 24.789 452.791 23.773C452.537 23.392 452.029 23.265 451.648 23.265H451.394C450.378 23.646 449.362 23.265 448.219 23.138C447.457 22.884 447.076 23.138 446.822 23.773C446.695 23.9 446.314 24.027 445.933 24.027L442.885 23.646C442.631 23.646 442.25 23.265 442.123 23.392C441.742 23.9 441.234 24.027 440.599 24.027C440.218 24.027 439.71 23.9 439.075 23.9C438.821 23.9 438.694 24.027 438.313 24.027C437.424 24.154 436.916 24.408 436.662 24.408C436.027 24.408 435.392 24.154 434.884 23.9C434.63 23.646 434.249 23.773 433.868 23.773C432.725 24.027 431.582 24.535 430.439 24.789C429.804 24.916 429.169 25.297 428.788 25.297C427.772 25.17 426.629 25.424 424.978 26.059C424.216 26.313 423.454 26.694 422.819 26.694C422.311 26.694 422.184 26.694 421.93 26.44C421.422 26.44 421.295 26.44 421.168 26.694C420.787 27.075 420.66 27.837 420.152 28.218C419.771 28.599 419.009 28.599 418.374 28.98C418.374 28.98 418.374 29.107 418.247 29.107C417.866 29.869 417.739 29.869 417.358 29.107C416.85 28.345 416.723 27.964 416.215 27.964C415.961 27.964 415.58 28.345 415.072 28.726C414.437 29.234 413.675 29.488 412.024 30.25C411.77 30.123 411.516 30.123 410.754 30.123C407.96 30.123 406.182 32.155 404.023 33.298C403.642 33.552 403.642 33.806 403.007 33.806C400.848 33.679 399.832 33.806 398.816 34.695C398.054 35.457 396.911 36.092 395.768 36.219C395.641 36.219 395.514 36.727 395.514 36.981C395.514 37.362 395.641 37.743 395.768 38.124C395.768 38.251 395.768 38.251 395.514 38.505H394.879C394.117 37.87 393.863 37.743 393.355 37.743C393.101 37.743 392.72 37.87 391.958 38.505C391.577 38.886 390.942 39.14 390.815 39.394C390.307 40.029 389.672 40.41 389.291 40.41C388.783 40.41 388.529 40.156 388.021 39.902C387.005 39.267 386.243 39.902 385.481 40.537C384.973 40.791 384.719 41.426 384.211 41.68L379.766 44.474C379.512 44.728 379.385 45.236 379.258 45.49C379.004 46.125 379.004 47.014 377.988 46.125C377.353 45.49 376.337 45.871 375.956 46.633C375.575 47.014 375.448 47.395 375.448 47.649C375.448 48.03 375.448 48.157 375.575 48.284C376.21 49.173 376.464 49.3 377.099 49.3ZM366.685 58.19C366.812 58.19 367.066 58.063 367.32 57.682C367.574 57.428 367.574 57.301 367.574 57.174C368.082 55.904 368.844 55.269 370.114 54.888C371.003 54.507 371.892 53.618 372.654 52.221C373.162 51.586 372.781 50.697 372.019 50.57C371.638 50.443 371.003 50.443 370.495 50.57C370.241 50.57 370.114 51.205 369.86 51.459C369.86 51.967 369.733 52.094 369.352 52.221C368.844 52.221 368.336 52.602 367.828 52.602C367.066 52.602 366.812 52.983 367.193 53.745C367.32 54.126 367.193 54.38 366.685 54.888L365.923 56.031C366.05 56.793 366.05 57.301 366.304 57.682C366.304 57.936 366.558 58.19 366.685 58.19ZM451.721 60.603C453.753 60.603 455.658 60.349 457.436 59.714C460.103 59.46 462.262 58.063 464.548 56.793C465.31 56.539 465.818 56.031 466.58 55.269L468.993 53.618C471.406 52.221 472.803 49.681 474.327 47.395C475.343 45.363 475.978 43.458 475.978 41.426C475.978 40.41 475.978 39.775 475.724 38.632V38.251C475.343 37.743 475.089 36.346 475.089 35.584C475.089 35.33 475.089 35.33 475.216 35.33H478.01C481.058 35.203 484.106 34.568 487.154 34.568C491.218 34.568 495.282 34.695 499.346 34.695C500.235 34.695 501.124 34.568 501.886 34.568C503.918 34.568 504.299 34.441 505.823 34.441C506.966 34.441 508.49 34.568 511.538 34.695C513.57 34.695 514.205 34.695 514.967 34.822C516.999 34.822 518.142 35.076 520.047 35.203C520.936 35.203 521.19 34.695 521.19 33.806C521.19 33.298 520.809 33.044 520.809 33.171C520.428 31.647 520.174 31.393 519.285 31.393C518.904 31.393 518.523 31.52 518.015 31.52C516.999 31.52 515.856 31.393 514.84 31.393C514.332 31.266 514.205 31.266 512.808 31.266C511.792 31.012 511.03 31.012 507.982 31.012C504.934 31.012 504.172 31.012 503.156 31.266H501.886C501.124 31.012 500.489 31.012 498.076 31.012C494.266 31.012 490.456 31.52 486.646 31.393C484.36 31.266 481.058 31.774 478.772 31.52C476.486 31.266 474.708 32.409 472.676 32.409C472.295 32.409 471.914 32.282 470.898 32.155C469.882 31.774 469.12 32.155 469.12 33.044C469.12 33.298 469.247 33.552 469.247 33.806C469.247 34.314 469.374 34.568 469.755 34.822L471.533 36.854C472.803 37.87 473.184 39.013 473.184 40.537C473.057 42.442 472.422 44.22 471.406 45.49C470.136 46.887 469.628 49.173 467.723 50.062C467.596 50.062 467.469 50.443 467.342 50.57C465.056 52.094 462.77 53.745 460.23 55.142C458.706 56.031 456.674 55.904 454.896 56.412C453.88 56.666 452.864 56.793 451.594 56.793C450.832 56.793 450.197 56.666 449.308 56.539C447.784 56.158 447.657 55.904 447.657 54.507C447.53 53.11 447.911 51.84 449.181 50.316L450.959 48.03C452.483 45.363 454.769 43.585 456.674 41.172C456.928 40.537 457.436 40.537 457.817 41.172C458.198 41.426 458.579 41.553 458.96 41.299C460.992 39.648 462.008 38.886 462.77 37.87C463.278 37.362 463.659 36.727 463.659 36.092C463.659 35.203 463.278 34.568 462.516 33.933C462.008 33.298 461.373 33.044 460.611 33.044C460.103 33.044 459.976 33.044 459.849 33.171C458.706 33.298 458.198 33.679 457.563 34.314C457.055 34.822 456.42 35.33 456.039 35.838C451.848 39.267 448.673 42.823 446.26 46.506C444.99 48.538 443.72 50.57 443.974 53.11C443.974 55.142 444.228 56.412 444.863 57.174C447.149 59.714 449.308 60.73 451.721 60.603ZM513.75 62C514.385 62 515.02 61.746 515.401 61.238L517.687 58.825C520.989 55.269 524.037 51.84 527.339 48.538C528.863 46.887 530.514 45.49 532.8 44.22C533.308 43.966 533.562 43.712 534.07 43.585C536.229 42.188 538.515 41.172 540.928 40.41C543.595 39.267 546.262 38.632 548.675 38.505L549.564 38.378C551.088 38.251 552.612 37.87 554.136 37.743C558.581 37.616 561.121 37.616 563.407 38.124C566.709 38.378 568.995 39.14 571.027 40.791C572.297 41.553 573.186 40.918 573.186 39.394C573.186 37.616 572.17 36.092 570.519 35.33L567.471 34.441C563.661 33.298 560.994 33.044 558.708 33.298C557.946 33.298 557.057 33.552 556.295 33.298C555.787 33.171 555.533 33.171 554.263 33.171C552.739 33.171 551.215 33.298 548.675 33.933L546.516 34.314C542.325 35.33 537.88 36.092 534.07 38.505C533.435 39.013 532.546 39.267 531.784 39.775C530.514 40.41 529.371 41.299 526.577 43.585C523.783 45.998 521.116 48.411 518.83 51.332L516.163 54.253C516.036 54.253 515.909 54.253 515.909 54.38C515.782 54.253 515.782 54.126 515.782 53.872C516.036 53.11 516.163 52.221 516.671 51.586C518.195 48.919 519.211 46.252 520.227 43.966C520.735 42.061 521.497 40.156 522.132 38.378C522.64 37.108 522.894 35.838 523.275 34.568L522.259 31.52C522.005 31.012 521.497 30.758 521.116 30.758H520.735C520.354 30.758 519.846 31.266 519.719 31.774C519.592 32.409 519.465 33.171 519.084 34.568C518.83 36.6 518.195 38.505 517.179 41.172C516.925 41.553 516.798 41.934 516.544 42.442C515.782 44.347 514.893 46.125 514.131 48.03L511.083 55.65C510.702 56.158 510.575 56.793 510.575 57.428C510.575 58.444 511.083 59.714 511.845 60.73C512.353 61.746 512.988 62 513.75 62ZM620.415 66.572C621.939 66.572 623.463 66.445 626.511 65.81C627.146 65.683 627.527 65.302 628.289 65.302C630.067 65.175 631.591 64.794 635.655 63.27C639.719 61.746 644.037 60.222 647.847 58.063C648.609 57.555 649.498 57.301 650.133 56.92C652.546 55.396 654.959 53.745 657.499 52.348C659.531 51.205 661.055 49.3 662.579 47.649C662.96 47.268 663.087 46.76 663.087 46.252V45.744C662.579 45.363 662.071 45.236 661.563 45.236C660.674 45.236 659.531 45.871 658.642 46.76C657.626 47.395 656.483 48.157 654.197 49.808C651.53 51.967 648.482 53.364 645.307 54.888C641.751 56.539 637.941 58.063 634.258 59.587C630.194 61.238 625.749 62.254 620.542 62.762C620.161 62.889 619.78 62.889 618.256 62.889C616.478 62.889 614.827 62.635 613.049 62C610.509 61.238 608.477 59.587 607.588 57.174C606.699 54.38 606.191 51.586 606.191 48.919C606.191 45.363 606.826 42.188 607.207 38.632C607.207 37.743 607.334 36.854 606.826 35.965C606.572 35.33 606.699 34.822 607.334 34.568C609.874 32.917 612.033 31.647 614.065 30.758C615.589 30.123 617.113 29.107 618.637 28.472C621.431 27.075 624.479 25.932 627.4 24.662C631.083 23.265 634.385 21.487 638.195 20.344C641.243 19.455 644.164 17.804 647.593 18.058H647.72C648.355 17.931 648.609 17.677 648.609 17.042C648.609 15.391 647.085 13.867 645.434 13.867H645.053C643.275 14.121 642.005 14.502 640.735 14.883C637.306 15.772 634.385 17.677 631.083 18.439L630.575 18.693C629.051 19.328 627.4 20.09 625.749 20.852C623.971 21.487 622.955 21.868 622.066 22.376C621.812 22.503 621.431 22.503 621.304 22.884C620.923 23.392 620.415 23.646 619.526 23.646L618.002 24.027C614.954 25.678 612.922 26.694 611.144 27.583C610.255 28.218 608.985 28.472 608.096 29.107C605.81 30.885 603.016 32.155 600.73 33.933C598.317 35.838 595.396 37.489 593.11 39.775C592.475 40.41 591.586 40.918 590.951 41.553C590.824 41.68 590.824 41.68 590.57 41.68V41.426C590.697 40.918 590.951 40.664 591.205 40.156C592.348 37.743 593.999 35.584 595.269 33.171C596.539 30.885 598.19 28.599 598.952 26.059C598.952 25.932 598.952 25.932 599.079 25.678C600.857 23.138 602 20.217 603.397 17.296C603.905 16.153 604.413 14.756 604.667 13.359C605.175 11.708 604.159 9.93 602.635 9.549C602 9.549 601.492 9.93 601.365 10.311L599.968 14.502C598.19 18.566 596.158 22.503 594.38 26.694C594.253 26.948 593.999 27.075 593.999 27.202C591.713 30.123 590.824 33.806 588.538 36.727C588.411 36.854 588.411 36.981 588.411 36.981L586.252 41.172C584.855 43.458 583.204 45.49 582.061 48.03C580.664 50.316 579.013 52.983 576.346 56.539C575.711 57.555 575.33 58.698 574.822 59.587C574.441 60.222 574.568 61.111 575.33 61.492L576.219 62.508C577.235 63.016 578.251 62.889 579.013 61.873C580.918 59.46 582.315 57.682 584.093 55.142C584.855 54.126 585.49 52.729 586.379 51.967C588.665 49.935 590.443 47.268 592.983 45.49C595.396 42.95 598.317 40.791 602.127 38.505C602.254 38.378 602.635 38.251 602.889 38.251C602.889 38.505 603.143 38.886 603.016 39.14C603.016 41.299 603.016 42.823 602.762 46.633C602.762 47.649 602.762 48.538 603.016 50.57C603.397 55.269 604.921 58.825 607.715 61.492C610.255 63.778 612.795 65.302 615.335 65.937C616.732 66.445 618.383 66.572 620.415 66.572ZM669.787 69.112C674.613 68.858 679.058 67.969 683.757 66.064C685.662 65.302 687.313 64.413 689.091 63.651C694.806 61.111 697.092 59.968 699.124 58.825C700.394 58.19 700.648 57.936 701.029 57.428C701.156 57.174 701.664 56.793 702.045 56.666C703.95 56.158 705.601 55.015 707.252 54.126C707.887 53.745 708.141 53.11 708.649 52.729C709.03 52.348 709.411 51.84 709.792 51.586C711.57 50.697 712.713 49.808 714.618 47.649C715.126 47.014 715.634 46.506 716.269 45.363C716.65 44.474 717.158 44.22 717.158 43.712C717.158 43.204 717.158 43.077 716.904 42.823C715.507 42.823 714.745 43.077 713.602 44.22C711.697 46.125 709.792 48.284 707.379 49.681C706.617 49.935 706.236 50.57 705.601 50.824L704.204 51.84C701.918 53.11 699.632 54.38 697.473 55.777C696.711 56.412 696.33 56.539 695.568 56.793L694.425 57.301C691.885 58.444 689.472 59.968 686.932 61.111C683.757 62.508 681.217 63.397 678.55 64.286C675.502 65.175 672.327 65.81 668.898 65.937C667.755 66.318 666.866 66.064 665.088 65.302C662.548 64.54 661.278 62.889 661.024 60.476C662.04 57.682 662.167 55.015 663.056 52.348C664.453 48.157 665.85 43.712 667.882 39.775C668.898 38.251 669.025 36.981 670.041 35.33C670.676 34.568 670.549 34.06 671.438 33.933C673.089 33.933 674.486 33.552 675.756 33.552C676.137 33.552 676.518 33.679 676.772 33.679C677.28 33.806 677.661 33.679 678.169 33.679C678.931 33.806 679.566 33.806 681.09 33.806H682.233C683.63 34.441 685.027 34.568 686.551 34.568C687.44 34.568 688.71 34.441 690.361 34.314C690.615 34.06 691.123 34.06 692.012 34.06C695.187 33.933 698.362 33.933 701.664 33.806C702.68 33.806 703.696 33.552 704.839 33.298L705.982 32.917C706.363 32.79 706.49 32.282 706.617 32.028C706.617 31.774 706.363 31.52 705.982 31.52C704.966 31.012 704.331 30.885 703.696 30.885C702.807 30.758 702.172 30.758 699.632 30.758C695.568 30.758 691.25 30.885 687.186 30.758C686.043 30.758 685.027 30.885 683.884 30.885C682.614 30.885 681.598 30.758 680.836 30.123C679.058 30.25 677.026 29.869 675.248 30.25H674.232C673.597 30.25 673.47 29.996 673.724 29.361C674.232 28.472 674.994 26.059 675.248 25.17C675.883 23.9 676.772 22.884 677.661 21.741C678.55 20.598 679.058 20.09 679.312 19.836C681.852 16.915 684.138 13.74 686.932 11.073L687.948 10.057C689.472 8.406 690.742 6.628 692.901 5.612C693.282 5.358 693.536 5.104 693.663 4.977C694.171 4.088 693.663 2.31 692.901 1.548C692.647 1.167 692.139 1.04 691.758 1.04C691.25 1.04 690.742 1.167 690.234 1.675C689.726 1.802 689.472 1.929 689.091 2.31C688.202 3.199 687.186 4.088 686.424 4.977L678.55 13.486C676.264 16.026 674.359 18.693 672.327 22.249L668.263 28.599C667.628 29.488 666.993 29.996 666.231 29.996L660.008 30.885C658.357 30.758 657.087 30.631 656.198 30.631C653.15 30.631 650.102 31.012 646.927 31.52C646.546 31.647 646.165 31.647 645.784 31.774C645.276 32.028 644.768 32.409 644.768 33.044C644.768 33.552 644.895 33.806 645.276 34.06C645.657 34.441 646.165 34.822 646.546 34.822C648.07 35.076 649.594 35.076 650.991 35.076C651.753 35.076 652.515 34.822 653.277 34.822C656.325 34.822 658.992 34.695 662.167 34.568C662.929 34.568 663.691 34.695 664.072 35.076C664.707 35.457 664.072 36.092 663.945 36.6C663.818 36.981 663.691 37.362 663.31 37.743C662.421 40.029 661.405 42.315 660.262 44.601C660.008 45.363 660.135 46.252 659.754 46.887C658.738 48.411 658.484 50.316 658.23 51.967C657.468 55.777 657.468 55.269 657.468 56.158C657.468 56.666 657.595 56.92 657.595 57.428C657.595 58.19 657.849 59.079 657.849 59.841C657.849 61.365 658.484 62.762 660.135 64.794C662.167 66.826 664.707 68.35 667.628 68.985C668.136 69.112 668.517 69.112 669.787 69.112ZM715.271 60.603C717.303 60.603 719.208 60.349 720.986 59.714C723.653 59.46 725.812 58.063 728.098 56.793C728.86 56.539 729.368 56.031 730.13 55.269L732.543 53.618C734.956 52.221 736.353 49.681 737.877 47.395C738.893 45.363 739.528 43.458 739.528 41.426C739.528 40.41 739.528 39.775 739.274 38.632V38.251C738.893 37.743 738.639 36.346 738.639 35.584C738.639 35.33 738.639 35.33 738.766 35.33H741.56C744.608 35.203 747.656 34.568 750.704 34.568C754.768 34.568 758.832 34.695 762.896 34.695C763.785 34.695 764.674 34.568 765.436 34.568C767.468 34.568 767.849 34.441 769.373 34.441C770.516 34.441 772.04 34.568 775.088 34.695C777.12 34.695 777.755 34.695 778.517 34.822C780.549 34.822 781.692 35.076 783.597 35.203C784.486 35.203 784.74 34.695 784.74 33.806C784.74 33.298 784.359 33.044 784.359 33.171C783.978 31.647 783.724 31.393 782.835 31.393C782.454 31.393 782.073 31.52 781.565 31.52C780.549 31.52 779.406 31.393 778.39 31.393C777.882 31.266 777.755 31.266 776.358 31.266C775.342 31.012 774.58 31.012 771.532 31.012C768.484 31.012 767.722 31.012 766.706 31.266H765.436C764.674 31.012 764.039 31.012 761.626 31.012C757.816 31.012 754.006 31.52 750.196 31.393C747.91 31.266 744.608 31.774 742.322 31.52C740.036 31.266 738.258 32.409 736.226 32.409C735.845 32.409 735.464 32.282 734.448 32.155C733.432 31.774 732.67 32.155 732.67 33.044C732.67 33.298 732.797 33.552 732.797 33.806C732.797 34.314 732.924 34.568 733.305 34.822L735.083 36.854C736.353 37.87 736.734 39.013 736.734 40.537C736.607 42.442 735.972 44.22 734.956 45.49C733.686 46.887 733.178 49.173 731.273 50.062C731.146 50.062 731.019 50.443 730.892 50.57C728.606 52.094 726.32 53.745 723.78 55.142C722.256 56.031 720.224 55.904 718.446 56.412C717.43 56.666 716.414 56.793 715.144 56.793C714.382 56.793 713.747 56.666 712.858 56.539C711.334 56.158 711.207 55.904 711.207 54.507C711.08 53.11 711.461 51.84 712.731 50.316L714.509 48.03C716.033 45.363 718.319 43.585 720.224 41.172C720.478 40.537 720.986 40.537 721.367 41.172C721.748 41.426 722.129 41.553 722.51 41.299C724.542 39.648 725.558 38.886 726.32 37.87C726.828 37.362 727.209 36.727 727.209 36.092C727.209 35.203 726.828 34.568 726.066 33.933C725.558 33.298 724.923 33.044 724.161 33.044C723.653 33.044 723.526 33.044 723.399 33.171C722.256 33.298 721.748 33.679 721.113 34.314C720.605 34.822 719.97 35.33 719.589 35.838C715.398 39.267 712.223 42.823 709.81 46.506C708.54 48.538 707.27 50.57 707.524 53.11C707.524 55.142 707.778 56.412 708.413 57.174C710.699 59.714 712.858 60.73 715.271 60.603ZM807.382 78.002C808.525 78.002 808.906 78.002 809.16 77.875C812.97 77.24 815.129 76.732 817.034 76.224C819.32 75.589 821.479 74.446 823.765 73.684C826.686 72.668 829.226 71.144 831.893 69.62C834.941 67.588 838.37 66.064 841.164 63.651C841.291 63.524 841.672 63.524 841.926 63.397C844.974 61.238 847.26 59.206 849.038 57.174C849.673 56.158 850.054 55.396 850.054 54.634C850.054 53.745 849.8 52.983 849.292 52.094C849.038 51.84 848.53 51.586 848.276 51.967C848.149 52.094 848.022 52.348 847.768 52.856C846.752 54.634 845.228 56.412 842.942 58.063C839.767 60.349 836.465 62.254 833.036 64.413C832.147 65.048 831.385 65.81 830.496 66.318C828.337 67.334 826.051 68.096 823.892 69.112C819.193 71.271 815.764 72.541 812.462 73.303C810.557 73.684 808.525 74.319 806.366 74.192C805.096 74.319 803.318 74.065 801.413 73.43C799.127 72.668 797.857 71.398 797.603 69.62C797.476 69.112 797.476 68.858 797.476 67.334C797.476 66.064 797.476 65.683 797.603 65.175C798.365 60.984 799.762 56.412 801.667 51.84C802.556 49.554 803.191 47.268 804.08 42.696C804.461 40.791 803.953 39.013 802.81 37.362C802.048 36.092 800.905 35.457 799.508 35.33C799 35.203 798.238 35.33 797.476 35.33C794.936 35.838 792.904 36.727 790.872 38.124C786.808 40.918 784.522 42.696 782.617 44.474C782.363 44.728 782.236 45.363 781.601 44.982C781.474 44.982 781.601 44.347 781.855 43.839C781.855 43.585 781.982 43.204 782.236 43.077C783.506 41.68 783.76 39.775 784.649 38.251C784.903 37.87 784.903 37.616 784.903 36.6C785.03 35.457 784.649 34.568 783.379 33.298C783.125 32.917 782.49 32.917 781.728 33.298C781.474 33.552 781.093 33.806 780.966 34.06L778.934 37.108C778.807 37.489 778.934 38.124 779.188 38.251C779.569 38.505 779.696 39.013 779.315 39.648C778.426 41.172 777.791 42.823 776.902 44.347C775.378 46.633 773.981 49.046 772.076 51.332C771.187 52.602 770.425 53.872 769.663 56.031C769.536 56.412 769.536 56.793 769.663 57.174C770.171 58.444 771.314 59.587 772.584 59.587C773.473 59.587 774.108 59.206 774.743 58.444L780.204 52.348C783.76 48.792 787.189 45.363 790.872 42.442C793.031 40.918 795.19 39.902 797.73 39.013C797.984 38.886 798.746 38.886 799 39.013C800.016 39.902 799.508 39.394 799.508 39.775C799.762 39.902 799.762 40.029 799.762 40.918C799.762 41.68 799.762 41.934 799.508 42.188C799.254 43.585 799 44.728 797.857 48.919C796.714 52.602 795.317 56.031 794.047 59.714C793.793 60.73 793.412 61.746 793.031 63.778C792.65 65.048 792.65 65.683 792.65 66.572C792.65 68.096 793.031 69.493 793.666 70.89C794.809 73.303 797.73 75.589 801.667 76.986C803.191 77.748 805.223 78.002 807.382 78.002Z" fill="white"/>
</svg>
