<svg width="786" height="102" viewBox="0 0 786 102" fill="none" xmlns="http://www.w3.org/2000/svg">
<path d="M38.951 101.904C61.663 101.904 74.719 90.344 74.719 73.616C74.719 60.696 66.831 52.264 48.335 47.776L32.967 44.104C20.455 41.248 16.103 36.76 16.103 29.688C16.103 20.168 23.991 14.456 37.319 14.456C48.743 14.456 57.719 18.808 62.479 26.56L72.407 20.304C67.511 10.24 54.863 2.89599 37.591 2.89599C16.103 2.89599 3.04703 14.048 3.04703 29.824C3.04703 42.88 12.023 51.176 29.567 55.528L44.935 59.2C56.631 61.92 61.527 66.68 61.527 74.16C61.527 83.816 53.231 90.344 39.087 90.344C25.895 90.344 15.559 84.496 10.391 73.752L0.191032 79.872C5.76703 93.472 19.503 101.904 38.951 101.904ZM144.718 62.056L108.542 4.79999H94.6696V100H107.182V24.248L139.414 75.384H149.886L182.118 24.248V100H194.494V4.79999H180.758L144.718 62.056ZM253.115 4.79999V100H266.035V64.096H292.419C313.227 64.096 324.923 52.944 324.923 34.584C324.923 16.224 313.227 4.79999 292.419 4.79999H253.115ZM266.035 52.536V16.632H291.467C305.611 16.632 311.459 22.072 311.459 34.584C311.459 46.96 305.611 52.536 291.467 52.536H266.035ZM376.168 29.96C366.104 29.96 358.352 35.128 355.224 43.968V31.184H343.12V100H355.36V64.912C355.36 48.728 363.248 41.384 376.168 41.384C377.936 41.384 380.248 41.52 382.424 41.928V30.912C380.52 30.232 378.48 29.96 376.168 29.96ZM404.626 17.176C409.522 17.176 412.922 13.64 412.922 8.88C412.922 4.11999 409.522 0.583999 404.626 0.583999C399.73 0.583999 396.33 4.11999 396.33 8.88C396.33 13.64 399.73 17.176 404.626 17.176ZM410.746 100V31.184H398.506V100H410.746ZM515.001 29.28C503.441 29.28 494.329 34.72 490.793 43.424C487.665 34.312 480.185 29.28 469.577 29.28C459.105 29.28 450.673 34.176 446.865 42.744V31.184H434.761V100H447.001V59.2C447.001 47.64 455.025 40.568 466.313 40.568C476.241 40.568 480.457 46.144 480.457 58.52V100H492.697V59.2C492.697 47.64 500.857 40.568 512.145 40.568C522.073 40.568 526.289 46.144 526.289 58.52V100H538.529V55.528C538.529 38.664 530.233 29.28 515.001 29.28ZM588.927 29.28C576.959 29.28 566.895 33.904 560.231 42.2L567.983 49.68C573.151 43.56 580.359 40.296 588.383 40.296C598.583 40.296 604.159 45.464 604.159 54.984V59.608H584.303C565.943 59.608 556.151 67.904 556.151 80.552C556.151 93.336 565.807 101.36 580.495 101.36C592.599 101.36 601.439 96.056 604.703 88.032V100H616.127V54.984C616.127 38.936 606.063 29.28 588.927 29.28ZM582.535 91.296C573.695 91.296 568.663 87.08 568.663 80.144C568.663 73.208 573.831 68.992 584.983 68.992H604.159V72.256C604.159 83.272 594.911 91.296 582.535 91.296ZM672.606 29.96C662.542 29.96 654.79 35.128 651.662 43.968V31.184H639.558V100H651.798V64.912C651.798 48.728 659.686 41.384 672.606 41.384C674.374 41.384 676.686 41.52 678.862 41.928V30.912C676.958 30.232 674.918 29.96 672.606 29.96ZM701.064 17.176C705.96 17.176 709.36 13.64 709.36 8.88C709.36 4.11999 705.96 0.583999 701.064 0.583999C696.168 0.583999 692.768 4.11999 692.768 8.88C692.768 13.64 696.168 17.176 701.064 17.176ZM707.184 100V31.184H694.944V100H707.184ZM758.13 29.28C746.162 29.28 736.098 33.904 729.434 42.2L737.186 49.68C742.354 43.56 749.562 40.296 757.586 40.296C767.786 40.296 773.362 45.464 773.362 54.984V59.608H753.506C735.146 59.608 725.354 67.904 725.354 80.552C725.354 93.336 735.01 101.36 749.698 101.36C761.802 101.36 770.642 96.056 773.906 88.032V100H785.33V54.984C785.33 38.936 775.266 29.28 758.13 29.28ZM751.738 91.296C742.898 91.296 737.866 87.08 737.866 80.144C737.866 73.208 743.034 68.992 754.186 68.992H773.362V72.256C773.362 83.272 764.114 91.296 751.738 91.296Z" fill="white"/>
</svg>
