<svg width="559" height="99" viewBox="0 0 559 99" fill="none" xmlns="http://www.w3.org/2000/svg">
<path d="M33.3365 98C20.6885 98 14.0245 91.336 14.0245 78.688V38.16H0.152469V29.048H10.3525C12.9365 29.048 14.5685 27.552 14.5685 24.832V8.648H25.3125V29.048H44.4885V38.16H25.3125V79.504C25.3125 85.76 28.5765 89.024 34.6965 89.024H44.4885V98H33.3365ZM56.3778 67.672V57.608H99.0818V67.672H56.3778ZM149.194 98.68C128.658 98.68 115.466 84.944 115.466 63.592C115.466 42.512 128.93 28.368 149.194 28.368C165.378 28.368 176.938 37.752 178.842 51.76H167.826C165.922 42.376 159.394 37.616 149.194 37.616C135.322 37.616 126.89 47.68 126.89 63.592C126.89 79.776 135.322 89.432 149.194 89.432C159.53 89.432 166.058 84.944 168.37 75.424H179.386C177.21 89.296 165.786 98.68 149.194 98.68ZM214.194 66.72C212.834 64.952 211.61 64.136 209.298 64.136H204.674V98H193.522V0.0799961H204.674V55.16H209.57C211.746 55.16 212.562 54.48 214.466 52.304L236.77 29.048H249.146L221.402 59.24V59.784L251.05 98H238.538L214.194 66.72ZM320.125 98.68C303.397 98.68 293.605 90.792 292.653 76.648H303.533C304.757 85.76 310.061 89.84 320.125 89.84C328.829 89.84 334.133 85.76 334.133 79.096C334.133 73.112 331.141 70.664 321.621 68.76L314.277 67.4C300.269 64.68 294.285 58.832 294.285 47.952C294.285 36.12 303.805 28.368 318.493 28.368C333.453 28.368 342.429 35.712 343.653 48.632H332.773C331.549 40.744 327.061 37.208 318.493 37.208C310.197 37.208 305.301 41.016 305.301 47.272C305.301 52.848 308.157 55.84 317.541 57.744L325.429 59.24C340.797 62.096 345.149 67.128 345.149 78.552C345.149 91.336 336.173 98.68 320.125 98.68ZM379.928 98.68C365.648 98.68 357.216 91.336 357.216 79.096C357.216 65.768 366.6 58.016 383.056 58.016H403.048V51.352C403.048 42.376 397.608 37.616 387.816 37.616C378.568 37.616 372.448 42.24 371.088 50.4H360.072C361.704 36.528 372.176 28.368 388.088 28.368C404.952 28.368 414.336 37.48 414.336 54.072V82.904C414.336 87.392 415.56 89.024 419.232 89.024H422.496V98H415.832C409.576 98 404.952 95.96 403.32 86.032H403.048C398.56 94.056 390.128 98.68 379.928 98.68ZM368.504 78.688C368.504 85.624 373.4 89.568 381.832 89.568C394.344 89.568 403.048 80.864 403.048 68.624V67.128H383.056C373.4 67.128 368.504 71.072 368.504 78.688ZM434.577 98V29.048H445.321V41.016H445.729C450.489 32.856 458.241 28.368 468.305 28.368C484.217 28.368 492.921 38.84 492.921 58.696V98H481.633V58.696C481.633 44.688 476.057 38.024 464.089 38.024C452.121 38.024 445.729 45.096 445.729 58.696V98H434.577ZM533.821 98.68C517.093 98.68 507.301 90.792 506.349 76.648H517.229C518.453 85.76 523.757 89.84 533.821 89.84C542.525 89.84 547.829 85.76 547.829 79.096C547.829 73.112 544.837 70.664 535.317 68.76L527.973 67.4C513.965 64.68 507.981 58.832 507.981 47.952C507.981 36.12 517.501 28.368 532.189 28.368C547.149 28.368 556.125 35.712 557.349 48.632H546.469C545.245 40.744 540.757 37.208 532.189 37.208C523.893 37.208 518.997 41.016 518.997 47.272C518.997 52.848 521.853 55.84 531.237 57.744L539.125 59.24C554.493 62.096 558.845 67.128 558.845 78.552C558.845 91.336 549.869 98.68 533.821 98.68Z" fill="white"/>
</svg>
