<svg width="771" height="99" viewBox="0 0 771 99" fill="none" xmlns="http://www.w3.org/2000/svg">
<path d="M2.81469 1.79999C1.18269 1.79999 0.230688 2.752 0.230688 4.38399V20.704C0.230688 22.472 1.18269 23.424 2.81469 23.424H25.1187V94.416C25.1187 96.048 26.0707 97 27.8387 97H45.5187C47.2867 97 48.1027 96.048 48.1027 94.416V37.568C48.1027 29.68 43.8867 25.872 35.5907 25.872C34.5027 25.872 34.0947 25.464 34.0947 24.648C34.0947 23.832 34.5027 23.424 35.5907 23.424H70.4067C72.1747 23.424 73.1267 22.472 73.1267 20.704V4.38399C73.1267 2.752 72.1747 1.79999 70.4067 1.79999H2.81469ZM104.314 97C110.57 97 114.65 94.008 116.418 88.024L124.986 58.784C125.122 58.376 125.53 57.968 125.802 57.968C126.346 57.968 126.482 58.104 126.618 58.784L135.186 88.024C136.954 94.008 141.034 97 147.29 97H151.37C157.626 97 161.706 94.008 163.474 88.024L179.522 33.488C180.066 31.72 179.25 30.496 177.346 30.496H160.21C158.714 30.496 157.762 31.176 157.354 32.672L148.65 67.216C148.514 67.76 148.242 68.032 147.834 68.032C147.29 68.032 147.018 67.76 146.882 67.216L136.41 32.672C136.002 31.312 134.914 30.496 133.418 30.496H118.186C116.69 30.496 115.602 31.312 115.194 32.672L104.722 67.216C104.586 67.76 104.314 68.032 103.77 68.032C103.362 68.032 103.09 67.76 102.954 67.216L94.2503 32.672C93.8423 31.176 92.8903 30.496 91.3943 30.496H74.2583C72.4903 30.496 71.6743 31.584 72.2183 33.488L88.2663 88.024C90.0343 94.008 94.1143 97 100.37 97H104.314ZM208.931 70.208C209.611 70.208 210.835 70.752 212.739 71.296C216.683 72.52 220.899 73.064 225.387 73.064C244.427 73.064 254.083 65.992 254.083 52.256C254.083 37.84 242.387 28.864 223.483 28.864C200.227 28.864 186.219 42.464 186.219 65.312C186.219 86.664 200.091 98.632 224.843 98.632C234.091 98.632 243.203 96.864 247.419 94.28C248.779 93.464 248.915 92.92 248.371 90.88L245.515 79.048C245.107 77.416 244.019 77.008 242.115 77.688C238.307 79.184 233.411 80 227.427 80C218.995 80 212.467 77.824 209.067 73.88C208.387 73.064 207.979 72.112 207.979 71.296C207.979 70.616 208.251 70.208 208.931 70.208ZM222.939 47.496C229.195 47.496 232.595 49.672 232.595 53.48C232.595 57.56 228.923 59.464 220.899 59.464C216.003 59.464 211.787 59.056 208.251 58.104C209.475 51.032 214.507 47.496 222.939 47.496ZM285.428 97C287.06 97 288.012 96.048 288.012 94.416V61.64C288.012 53.48 291.684 48.992 298.484 48.992C304.876 48.992 307.732 52.936 307.732 61.504V94.416C307.732 96.048 308.684 97 310.452 97H326.908C328.54 97 329.492 96.048 329.492 94.416V54.568C329.492 38.52 321.332 28.864 307.596 28.864C299.028 28.864 292.636 33.08 286.38 42.872C285.836 43.824 285.428 44.096 284.884 44.096C284.34 44.096 283.932 43.688 283.932 43.144C283.932 40.968 286.38 37.704 286.38 33.352C286.38 31.448 285.428 30.496 283.796 30.496H268.836C267.204 30.496 266.252 31.448 266.252 33.08V94.416C266.252 96.048 267.204 97 268.836 97H285.428ZM353.591 22.744C361.751 22.744 366.239 18.392 366.239 10.232V2.616C366.239 0.983996 365.287 0.031992 363.655 0.031992H347.063C345.431 0.031992 344.479 0.983996 344.479 2.616V20.16C344.479 21.928 345.431 22.744 347.063 22.744H353.591ZM363.655 97C365.287 97 366.239 96.048 366.239 94.416V33.08C366.239 31.448 365.287 30.496 363.655 30.496H347.063C345.431 30.496 344.479 31.448 344.479 33.08V94.416C344.479 96.048 345.431 97 347.063 97H363.655ZM397.167 97C398.663 97 399.615 96.32 400.295 95.232L409.135 80.68C409.543 80 409.951 79.728 410.495 79.728C411.039 79.728 411.311 80 411.719 80.68L420.559 95.232C421.239 96.32 422.191 97 423.687 97H441.911C444.087 97 444.903 95.504 443.815 93.872L424.231 64.224C423.687 63.408 423.551 63 423.551 62.592C423.551 62.048 423.687 61.64 424.231 60.824L442.863 33.624C444.087 31.856 443.271 30.496 441.095 30.496H423.143C421.919 30.496 420.423 31.176 419.879 32.128L411.719 45.728C411.311 46.408 411.039 46.544 410.495 46.544C410.087 46.544 409.543 46.272 409.271 45.728L400.839 32.128C400.295 31.176 399.071 30.496 397.575 30.496H379.623C377.583 30.496 376.767 31.856 377.991 33.624L396.759 61.096C397.167 61.64 397.303 62.048 397.303 62.592C397.303 63 397.303 63.136 396.759 63.952L377.039 93.872C375.951 95.504 376.767 97 378.943 97H397.167ZM517.777 98.632C538.993 98.632 553.273 85.984 553.273 67.216C553.273 52.8 544.841 43.96 527.841 40.288L517.777 38.112C508.393 36.072 504.721 33.488 504.721 28.864C504.721 23.696 508.937 20.84 516.145 20.84C523.353 20.84 527.977 23.56 530.289 29.544C530.969 31.448 531.649 31.856 533.281 31.448L550.417 27.368C552.049 26.96 552.593 26.008 552.185 24.24C548.513 9.008 535.321 0.167998 516.553 0.167998C495.473 0.167998 481.737 12 481.737 30.088C481.737 43.824 490.577 52.936 507.577 56.88L517.641 59.192C526.753 61.232 530.153 63.952 530.153 68.848C530.153 74.56 525.529 77.96 518.185 77.96C510.569 77.96 505.673 74.832 502.817 67.76C502.001 65.856 501.321 65.448 499.553 65.856L482.417 69.8C480.785 70.208 480.105 71.16 480.513 72.928C484.185 88.704 498.601 98.632 517.777 98.632ZM583.317 98.632C592.837 98.632 600.045 94.008 604.669 85.032C605.077 84.352 605.349 84.08 605.757 84.08C606.165 84.08 606.437 84.352 606.437 85.032C606.437 88.16 604.261 91.152 604.261 94.144C604.261 96.048 605.213 97 606.845 97H621.261C623.029 97 623.845 96.048 623.845 94.416V56.608C623.845 38.248 614.053 28.864 594.877 28.864C578.285 28.864 566.861 36.072 563.325 48.72C563.053 50.216 563.733 50.896 565.501 51.304L581.005 54.432C582.637 54.704 583.453 54.16 584.133 52.664C586.037 48.72 589.573 46.544 594.333 46.544C599.365 46.544 602.085 48.72 602.085 52.528C602.085 54.976 600.997 55.792 596.781 56.472L586.037 58.24C569.445 60.96 561.013 67.896 561.013 79.048C561.013 91.152 569.581 98.632 583.317 98.632ZM590.389 82.448C585.765 82.448 583.045 80.408 583.045 76.872C583.045 73.608 585.357 71.84 590.389 71.024L594.605 70.344C597.869 69.8 600.317 68.712 601.541 68.712C601.949 68.712 602.085 68.984 602.085 69.392C602.085 77.28 597.461 82.448 590.389 82.448ZM658.498 97C660.13 97 661.082 96.048 661.082 94.416V61.64C661.082 53.48 664.754 48.992 671.554 48.992C677.946 48.992 680.802 52.936 680.802 61.504V94.416C680.802 96.048 681.754 97 683.522 97H699.978C701.61 97 702.562 96.048 702.562 94.416V54.568C702.562 38.52 694.402 28.864 680.666 28.864C672.098 28.864 665.706 33.08 659.45 42.872C658.906 43.824 658.498 44.096 657.954 44.096C657.41 44.096 657.002 43.688 657.002 43.144C657.002 40.968 659.45 37.704 659.45 33.352C659.45 31.448 658.498 30.496 656.866 30.496H641.906C640.274 30.496 639.322 31.448 639.322 33.08V94.416C639.322 96.048 640.274 97 641.906 97H658.498ZM742.301 98.632C760.117 98.632 770.589 90.336 770.589 76.056C770.589 65.312 764.197 58.92 750.869 56.064L742.573 54.296C736.861 53.072 734.685 51.712 734.685 49.264C734.685 46.68 737.133 45.32 741.077 45.32C745.293 45.32 748.421 46.816 750.053 49.672C750.869 51.168 751.957 51.712 753.317 51.304L767.733 47.224C769.229 46.816 770.181 45.728 769.637 44.096C766.373 34.576 756.037 28.864 741.893 28.864C724.893 28.864 713.877 37.432 713.877 50.896C713.877 61.096 720.541 67.488 734.141 70.48L742.301 72.248C747.469 73.336 749.781 75.104 749.781 77.688C749.781 80.272 747.333 81.904 743.525 81.904C738.629 81.904 735.229 80.136 733.325 76.872C732.509 75.376 731.693 74.696 730.061 75.104L715.645 78.232C713.877 78.64 713.197 79.864 713.605 81.36C716.461 91.832 727.613 98.632 742.301 98.632Z" fill="white"/>
</svg>
