<svg width="692" height="99" viewBox="0 0 692 99" fill="none" xmlns="http://www.w3.org/2000/svg">
<path d="M30.3113 98.224C15.0793 98.224 5.55925 88.704 5.55925 73.744V18.8C5.55925 8.05599 4.47125 4.38399 0.79925 2.752V1.79999H25.0073V2.752C21.3353 4.38399 20.2473 8.05599 20.2473 18.8V73.744C20.2473 86.8 24.5993 92.784 33.7113 92.784C42.6873 92.784 47.5833 86.256 47.5833 73.744V18.8C47.5833 8.05599 46.4953 4.38399 42.8233 2.752V1.79999H56.4233V2.752C52.7513 4.38399 51.6633 8.05599 51.6633 18.8V73.744C51.6633 89.52 44.0473 98.224 30.3113 98.224ZM61.2608 97V96.048C64.9328 94.416 66.0208 90.744 66.0208 80V18.8C66.0208 8.05599 64.9328 4.38399 61.2608 2.752V1.79999H88.1888C108.181 1.79999 119.333 18.392 119.333 49.4C119.333 80.408 108.181 97 88.1888 97H61.2608ZM80.7088 93.464H85.7408C98.2528 93.464 102.741 82.312 102.741 51.712V46.952C102.741 17.712 97.8448 5.336 85.7408 5.336H80.7088V93.464ZM149.581 97V96.048C153.253 94.416 154.341 90.744 154.341 80V18.8C154.341 8.05599 153.253 4.38399 149.581 2.752V1.79999H175.149V2.752C170.253 4.38399 169.029 7.92 169.029 18.8V93.464H179.229C186.709 93.464 190.517 87.072 195.005 66.128H195.685V97H149.581ZM237.221 96.048C239.669 93.872 240.621 91.288 240.621 86.664C240.621 83.672 239.941 80.272 238.173 71.704L237.901 70.48H214.781L214.101 73.744C212.741 80.272 212.197 83.4 212.197 85.984C212.197 91.152 213.557 94.28 216.413 96.048V97H201.453V96.048C205.125 93.464 206.485 89.792 209.749 75.512L225.661 3.432C229.197 2.752 232.461 1.93599 235.861 0.711999L254.221 75.512C257.485 88.704 259.117 92.92 262.789 96.048V97H237.221V96.048ZM215.597 66.944H237.085L226.069 17.576L215.597 66.944ZM287.669 98.224C280.325 98.224 272.709 95.504 266.589 90.744V65.856H267.405C272.437 85.44 279.373 94.96 288.485 94.96C295.421 94.96 299.909 89.112 299.909 80.408C299.909 73.064 296.373 67.216 283.861 52.528C269.445 35.528 266.589 29.816 266.589 20.16C266.589 8.6 275.701 0.575993 288.485 0.575993C295.421 0.575993 302.901 3.02399 307.661 6.696V27.912H306.981C300.453 9.824 295.965 3.70399 288.757 3.70399C282.365 3.70399 278.557 8.19199 278.557 15.4C278.557 22.064 281.549 26.824 294.333 41.512C309.157 58.784 311.197 63.544 311.197 74.016C311.197 88.704 301.949 98.224 287.669 98.224ZM341.495 97V96.048C345.167 94.416 346.255 90.744 346.255 80V18.8C346.255 8.05599 345.167 4.38399 341.495 2.752V1.79999H366.791C385.015 1.79999 394.127 11.184 394.127 28.456C394.127 45.728 385.015 55.112 366.791 55.112H360.943V80C360.943 90.88 362.167 94.416 367.063 96.048V97H341.495ZM360.943 51.576H364.479C374.815 51.576 379.439 43.824 379.439 28.456C379.439 13.088 374.815 5.336 364.479 5.336H360.943V51.576ZM390.655 96.048C394.327 93.464 395.687 89.928 398.951 75.512L400.175 69.936H399.359C393.375 69.936 388.479 67.488 386.711 63.544L387.119 63.136C389.295 64.36 391.471 64.768 395.551 64.768C397.455 64.768 399.495 64.36 401.535 63.952L414.863 3.432C418.399 2.888 421.799 1.93599 425.063 0.711999L443.423 75.512C446.551 88.568 448.319 92.784 451.991 96.048V97H426.423V96.048C428.871 93.872 429.823 91.288 429.823 86.664C429.823 84.08 429.551 81.632 427.375 71.704C426.423 67.216 423.975 65.312 419.759 65.312C414.183 65.312 410.103 68.304 404.255 69.392L403.303 73.744C401.807 80.816 401.399 83.672 401.399 85.984C401.399 91.152 402.759 94.28 405.615 96.048V97H390.655V96.048ZM405.615 62.728C409.151 61.64 412.823 60.552 416.359 60.552C420.303 60.552 423.431 61.912 425.743 64.496L415.271 17.576L405.615 62.728ZM455.847 97V96.048C459.519 94.416 460.607 90.744 460.607 80V18.8C460.607 8.05599 459.519 4.38399 455.847 2.752V1.79999H481.415V2.752C476.519 4.38399 475.295 7.92 475.295 18.8V93.464H485.495C492.975 93.464 496.783 87.072 501.271 66.128H501.951V97H455.847ZM533.879 97L517.015 12.68V80C517.015 90.744 518.103 94.416 521.775 96.048V97H508.175V96.048C511.847 94.416 512.935 90.744 512.935 80V18.8C512.935 8.05599 511.847 4.38399 508.175 2.752V1.79999H529.255L542.991 73.472L557.271 1.79999H578.351V2.752C574.679 4.38399 573.591 8.05599 573.591 18.8V80C573.591 90.744 574.679 94.416 578.351 96.048V97H554.143V96.048C557.815 94.416 558.903 90.744 558.903 80V12.68L542.039 97H533.879ZM617.862 96.048C620.31 93.872 621.262 91.288 621.262 86.664C621.262 83.672 620.582 80.272 618.814 71.704L618.542 70.48H595.422L594.742 73.744C593.382 80.272 592.838 83.4 592.838 85.984C592.838 91.152 594.198 94.28 597.054 96.048V97H582.094V96.048C585.766 93.464 587.126 89.792 590.39 75.512L606.302 3.432C609.838 2.752 613.102 1.93599 616.502 0.711999L634.862 75.512C638.126 88.704 639.758 92.92 643.43 96.048V97H617.862V96.048ZM596.238 66.944H617.726L606.71 17.576L596.238 66.944ZM668.31 98.224C660.966 98.224 653.35 95.504 647.23 90.744V65.856H648.046C653.078 85.44 660.014 94.96 669.126 94.96C676.062 94.96 680.55 89.112 680.55 80.408C680.55 73.064 677.014 67.216 664.502 52.528C650.086 35.528 647.23 29.816 647.23 20.16C647.23 8.6 656.342 0.575993 669.126 0.575993C676.062 0.575993 683.542 3.02399 688.302 6.696V27.912H687.622C681.094 9.824 676.606 3.70399 669.398 3.70399C663.006 3.70399 659.198 8.19199 659.198 15.4C659.198 22.064 662.19 26.824 674.974 41.512C689.798 58.784 691.838 63.544 691.838 74.016C691.838 88.704 682.59 98.224 668.31 98.224Z" fill="white"/>
</svg>
