<svg width="830" height="105" viewBox="0 0 830 105" fill="none" xmlns="http://www.w3.org/2000/svg">
<path d="M27.4739 104.46C11.4139 104.46 4.55188 97.16 4.55188 80.224V16.422L0.317875 2.406H20.4659V16.422V80.224C20.4659 87.524 22.2179 89.86 27.4739 89.86C32.7299 89.86 34.4819 87.524 34.4819 80.224V16.422L30.2479 2.406H50.1039V16.422V80.224C50.1039 97.16 43.2419 104.46 27.4739 104.46ZM60.1881 103V88.984V16.422L55.9541 2.406H96.1041V23.576L81.9421 28.394V16.422H76.1021V44.6H94.3521L83.9861 58.908H76.1021V88.984H83.2561V78.326L97.4181 73.508V103H60.1881ZM104.784 103V88.984V16.422L100.55 2.406H140.7V25.036L126.538 29.708V16.422H120.698V46.352H138.948L128.582 60.66H120.698V88.984H124.64L122.158 103H104.784ZM139.22 103L140.826 88.984L149.44 15.984L145.498 2.406H176.45L186.378 88.984H189.882L187.4 103H171.632L170.464 88.984L169.004 72.048H164.332L160.39 57.886H167.69L166.376 46.498C165.5 38.614 164.624 30.584 164.186 22.7H163.31C162.726 30.584 161.704 38.614 160.828 46.498L156.302 88.984H162.872L160.39 103H139.22ZM219.876 103V88.984V16.422L215.642 2.406H255.792V23.576L241.63 28.394V16.422H235.79V44.6H254.04L243.674 58.908H235.79V88.984H242.944V78.326L257.106 73.508V103H219.876ZM288.82 104.46C272.76 104.46 265.898 97.16 265.898 80.224V16.422L261.664 2.406H281.812V16.422V80.224C281.812 87.524 283.564 89.86 288.82 89.86C294.076 89.86 295.828 87.524 295.828 80.224V16.422L291.594 2.406H311.45V16.422V80.224C311.45 97.16 304.588 104.46 288.82 104.46ZM320.22 103V88.984V16.422L315.986 2.406H338.324C355.698 2.406 362.998 11.166 362.998 31.898C362.998 43.432 359.786 51.316 352.778 56.572L360.224 88.984H364.458L361.976 103H347.522L338.47 62.266H336.134V88.984H340.222L337.74 103H320.22ZM337.01 48.834C344.164 48.834 346.354 45.038 346.354 32.628C346.354 20.218 344.164 16.422 337.01 16.422H336.134V48.834H337.01ZM391.907 104.46C373.365 104.46 368.109 93.072 368.109 52.63C368.109 12.042 373.365 0.653995 391.907 0.653995C410.449 0.653995 415.413 11.75 415.413 52.63C415.413 93.51 410.449 104.46 391.907 104.46ZM391.761 89.86C398.039 89.86 398.769 86.21 398.769 52.63C398.769 19.196 398.039 15.254 391.761 15.254C385.483 15.254 384.753 19.196 384.753 52.63C384.753 86.21 385.483 89.86 391.761 89.86ZM424.76 103V88.984V16.422L420.526 2.406H442.718C460.238 2.406 467.538 11.604 467.538 33.796C467.538 55.988 459.654 66.208 442.718 66.208H440.674V88.984H445.492L443.01 103H424.76ZM441.258 52.192C448.704 52.192 450.894 47.958 450.894 33.796C450.894 20.072 448.85 16.422 441.258 16.422H440.674V52.192H441.258ZM465.296 103L466.902 88.984L475.516 15.984L471.574 2.406H502.526L512.454 88.984H515.958L513.476 103H497.708L496.54 88.984L495.08 72.048H490.408L486.466 57.886H493.766L492.452 46.498C491.576 38.614 490.7 30.584 490.262 22.7H489.386C488.802 30.584 487.78 38.614 486.904 46.498L482.378 88.984H488.948L486.466 103H465.296ZM544.638 103V88.984V16.422L540.404 2.406H560.552V16.422V88.984H567.706V75.406L581.868 70.588V103H544.638ZM589.01 103V88.984V16.422L584.776 2.406H624.926V23.576L610.764 28.394V16.422H604.924V44.6H623.174L612.808 58.908H604.924V88.984H612.078V78.326L626.24 73.508V103H589.01ZM630.687 103L632.293 88.984L640.907 15.984L636.965 2.406H667.917L677.845 88.984H681.349L678.867 103H663.099L661.931 88.984L660.471 72.048H655.799L651.857 57.886H659.157L657.843 46.498C656.967 38.614 656.091 30.584 655.653 22.7H654.777C654.193 30.584 653.171 38.614 652.295 46.498L647.769 88.984H654.339L651.857 103H630.687ZM708.176 104.46C688.32 104.46 683.064 93.656 683.064 53.214C683.064 11.458 688.32 0.653995 708.322 0.653995C715.184 0.653995 721.754 2.552 727.74 6.20199V24.452L713.578 29.27V17.444C712.41 16.276 709.782 15.254 707.738 15.254C700.292 15.254 699.708 17.882 699.708 53.36C699.708 87.086 700.292 89.86 707.446 89.86C709.782 89.86 711.826 89.13 713.14 87.962V62.266H707.154L702.19 47.374H728.908V96.868C723.068 101.686 715.622 104.46 708.176 104.46ZM759.898 104.46C743.838 104.46 736.976 97.16 736.976 80.224V16.422L732.742 2.406H752.89V16.422V80.224C752.89 87.524 754.642 89.86 759.898 89.86C765.154 89.86 766.906 87.524 766.906 80.224V16.422L762.672 2.406H782.528V16.422V80.224C782.528 97.16 775.666 104.46 759.898 104.46ZM792.612 103V88.984V16.422L788.378 2.406H828.528V23.576L814.366 28.394V16.422H808.526V44.6H826.776L816.41 58.908H808.526V88.984H815.68V78.326L829.842 73.508V103H792.612Z" fill="white"/>
</svg>
