<svg width="756" height="98" viewBox="0 0 756 98" fill="none" xmlns="http://www.w3.org/2000/svg">
<path d="M63.9767 1.752H67.5127V46.632C67.5127 51.256 65.8807 57.376 63.9767 60.096V1.752ZM0.464688 54.928V1.752H4.00069V54.928C4.00069 79.68 17.4647 93.824 41.1287 93.824C56.7687 93.824 66.9687 89.2 73.3607 79C65.4727 87.024 55.9527 90.288 41.1287 90.288C19.7767 90.288 7.53669 77.368 7.53669 54.792V1.752H11.0727V54.792C11.0727 75.056 22.0887 86.752 41.1287 86.752C63.7047 86.752 77.0327 77.096 78.9367 59.144C74.3127 74.784 62.2087 83.216 44.2567 83.216H41.1287C23.9927 83.216 14.6087 73.424 14.6087 55.744V1.752H18.1447V55.744C18.1447 71.112 26.3047 79.68 41.1287 79.68H43.9847C66.0167 79.68 78.1207 66.488 78.1207 42.824V1.752H81.6567V54.928C81.6567 82.4 67.3767 97.36 41.1287 97.36C15.1527 97.36 0.464688 81.992 0.464688 54.928ZM21.6807 56.288V1.752H25.2167V56.288C25.2167 66.76 30.7927 72.608 41.1287 72.608H43.9847C61.1207 72.608 71.0487 61.728 71.0487 42.96V1.752H74.5847V42.96C74.5847 64.312 63.2967 76.144 43.0327 76.144H41.1287C28.4807 76.144 21.6807 69.208 21.6807 56.288ZM56.9047 65.672V1.752H60.4407V62.544C59.7607 63.768 58.2647 65.128 56.9047 65.672ZM119.165 42.824V22.968H167.445V26.504H122.701V39.288H164.725V42.824H119.165ZM97.9491 67.712V1.752H167.445V5.28799H101.485V67.712C101.485 80.768 107.061 89.336 117.533 92.464C108.965 87.296 105.021 79.408 105.021 67.712V8.824H167.445V12.36H108.557V67.712C108.557 81.312 114.269 89.608 126.781 93.416C116.309 87.976 112.093 80.224 112.093 67.712V15.896H167.445V19.432H115.629V46.36H164.725V49.896H115.629V67.712C115.629 83.76 124.333 92.464 140.381 92.464H167.445V96H126.237C107.877 96 97.9491 86.072 97.9491 67.712ZM119.165 67.712V53.432H164.725V56.968H122.701V67.712C122.701 79.136 128.957 85.392 140.381 85.392H167.445V88.928H140.381C126.645 88.928 119.165 81.448 119.165 67.712ZM127.461 71.248H167.445V74.784H128.549C127.869 73.696 127.461 72.472 127.461 71.248ZM130.181 78.32H167.445V81.856H140.381C135.213 81.856 131.677 80.632 130.181 78.32ZM249.194 62.408V65.944H207.17V96H203.634V62.408H249.194ZM182.418 30.04C182.418 11.68 192.346 1.752 210.706 1.752H251.914V5.28799H224.85C208.802 5.28799 200.098 13.856 200.098 30.04V48.264H249.194V51.8H196.562V30.04C196.562 17.528 200.778 9.776 211.25 4.336C198.738 8.144 193.026 16.44 193.026 30.04V96H189.49V30.04C189.49 18.344 193.434 10.456 202.002 5.28799C191.53 8.41599 185.954 16.984 185.954 30.04V96H182.418V30.04ZM196.562 96V55.336H249.194V58.872H200.098V96H196.562ZM203.634 30.04C203.634 16.304 211.114 8.824 224.85 8.824H251.914V12.36H224.85C213.426 12.36 207.17 18.616 207.17 30.04V41.192H249.194V44.728H203.634V30.04ZM211.93 26.504C211.93 25.28 212.338 24.056 213.018 22.968H251.914V26.504H211.93ZM214.65 19.432C216.146 17.12 219.682 15.896 224.85 15.896H251.914V19.432H214.65ZM279.22 16.032C282.484 5.96799 290.644 0.391999 302.204 0.391999C313.9 0.391999 321.924 5.83199 325.188 16.032L351.164 96H347.356L344.364 86.48C340.964 75.464 331.852 69.616 318.252 69.616H279.764L271.468 96H267.66L290.644 22.696C292.276 17.664 296.628 14.536 302.204 14.536C307.78 14.536 312.132 17.664 313.764 22.696L325.46 59.552C326.956 59.688 328.044 59.96 328.724 60.368L316.076 20.52C314.036 14.128 309.548 11 302.204 11C294.86 11 290.372 14.128 288.332 20.52L264.26 96H260.452L284.796 19.432C287.38 11.408 293.092 7.464 302.204 7.464C311.316 7.464 317.028 11.408 319.612 19.432L333.076 62C334.844 62.952 336.204 63.904 337.292 64.992L321.924 17.12C319.204 8.824 311.86 3.92799 302.204 3.92799C292.548 3.92799 285.204 8.824 282.484 17.12L257.052 96H253.244L279.22 16.032ZM274.868 96L281.94 73.152H318.252C331.036 73.152 337.7 77.368 341.1 87.568L343.956 96H340.148L337.428 87.84C334.844 79.952 329.132 76.688 318.252 76.688H284.66L278.676 96H274.868ZM318.252 66.08C329.132 66.08 336.34 68.8 342.188 75.6C336.884 66.08 330.492 62.544 318.252 62.544H285.204L296.492 26.096C297.444 23.104 299.348 21.608 302.204 21.608C305.06 21.608 306.964 23.104 307.916 26.096L317.98 59.008H318.252C320.7 59.008 320.836 59.008 321.38 59.144L310.228 23.648C309.004 19.976 306.42 18.072 302.204 18.072C297.988 18.072 295.404 19.976 294.18 23.648L280.852 66.08H318.252ZM290.1 59.008H314.308L304.516 27.048C304.108 25.688 303.428 25.144 302.204 25.144C300.98 25.144 300.3 25.688 299.892 27.048L290.1 59.008ZM320.836 80.36C321.652 80.36 322.876 80.496 324.78 80.904L329.54 96H325.732L320.836 80.36ZM328.316 81.584C330.492 81.992 333.212 85.12 334.436 88.792L336.748 96H332.94L328.316 81.584ZM468.14 29.768C464.876 22.016 457.804 18.072 447.468 18.072C432.644 18.072 424.62 26.504 424.62 42.008V60.096C422.716 57.376 421.084 51.256 421.084 46.632V42.008C421.084 24.192 430.332 14.536 447.468 14.536C459.436 14.536 467.596 19.16 471.404 28.136L468.14 29.768ZM406.94 42.824C406.94 15.216 421.22 0.391999 447.468 0.391999C465.964 0.391999 478.612 7.73599 484.46 21.88L481.196 23.376C475.892 10.592 464.332 3.92799 447.468 3.92799C423.532 3.92799 410.476 17.664 410.476 42.824C410.476 66.488 422.58 79.68 444.612 79.68H447.468C457.532 79.68 464.74 75.6 468.14 67.984L471.404 69.616C467.596 78.456 459.3 83.216 447.468 83.216H444.34C426.388 83.216 414.284 74.784 409.66 59.144C411.564 77.232 424.892 86.752 447.468 86.752C460.524 86.752 469.908 81.312 474.532 70.976L477.796 72.608C472.764 84.168 462.156 90.288 447.468 90.288C432.644 90.288 423.124 87.024 415.236 79C421.628 89.2 431.828 93.824 447.468 93.824C464.06 93.824 475.62 87.024 481.06 74.24L484.324 75.872C478.476 89.88 465.556 97.36 447.468 97.36C421.22 97.36 406.94 82.4 406.94 54.928V42.824ZM414.012 42.96C414.012 19.976 425.708 7.464 447.468 7.464C462.428 7.464 472.9 13.448 477.796 25.008L474.532 26.64C470.18 16.44 460.796 11 447.468 11C428.02 11 417.548 22.288 417.548 42.96C417.548 61.728 427.476 72.608 444.612 72.608H447.468C454.54 72.608 459.436 69.888 461.748 64.856L465.012 66.488C462.156 72.744 456.172 76.144 447.468 76.144H445.564C425.436 76.144 414.012 64.176 414.012 42.96ZM428.156 41.464C428.156 28.544 434.956 21.608 447.468 21.608C456.172 21.608 462.156 25.008 465.012 31.264L461.748 32.896C459.3 27.728 454.54 25.144 447.468 25.144C437.268 25.144 431.692 30.856 431.692 41.464V65.672C430.332 65.128 428.836 63.768 428.156 62.544V41.464ZM534.596 97.36C508.212 97.36 493.932 82.4 493.932 54.928V42.824C493.932 15.624 508.62 0.391999 534.596 0.391999C560.844 0.391999 575.124 15.352 575.124 42.824V54.928C575.124 82.536 560.844 97.36 534.596 97.36ZM497.468 54.928C497.468 80.088 510.524 93.824 534.596 93.824C558.532 93.824 571.588 80.088 571.588 54.928C571.588 31.264 559.484 18.072 537.452 18.072H534.596C519.908 18.072 511.612 26.64 511.612 42.008V55.744C511.612 71.248 519.772 79.68 534.596 79.68C549.42 79.68 557.444 71.248 557.444 55.744V37.656C559.348 40.376 560.98 46.496 560.98 51.12V55.744C560.98 73.56 551.732 83.216 534.596 83.216C517.46 83.216 508.076 73.56 508.076 55.744V42.008C508.076 24.328 517.596 14.536 534.596 14.536H537.724C555.676 14.536 567.78 22.968 572.404 38.608C570.5 20.52 557.172 11 534.596 11C515.556 11 504.54 22.696 504.54 42.96V54.792C504.54 75.464 515.148 86.752 534.596 86.752C554.044 86.752 564.516 75.464 564.516 54.792C564.516 36.024 554.588 25.144 537.452 25.144H534.596C524.26 25.144 518.684 30.992 518.684 41.464V56.288C518.684 66.76 524.26 72.608 534.596 72.608C544.796 72.608 550.372 66.896 550.372 56.288V32.08C551.732 32.624 553.228 33.984 553.908 35.208V56.288C553.908 69.208 547.108 76.144 534.596 76.144C521.948 76.144 515.148 69.208 515.148 56.288V41.464C515.148 28.68 521.948 21.608 534.596 21.608H536.5C556.764 21.608 568.052 33.44 568.052 54.792C568.052 77.776 556.356 90.288 534.596 90.288C512.836 90.288 501.004 77.776 501.004 54.792V42.96C501.004 20.384 513.244 7.464 534.596 7.464C549.42 7.464 558.94 10.728 566.828 18.752C560.436 8.552 550.236 3.92799 534.596 3.92799C510.932 3.92799 497.468 17.936 497.468 42.824V54.928ZM652.203 37.656C654.107 40.376 655.739 46.496 655.739 51.12V96H652.203V37.656ZM588.691 42.824C588.691 15.76 603.379 0.391999 629.355 0.391999C655.603 0.391999 669.883 15.352 669.883 42.824V96H666.347V54.928C666.347 31.4 654.243 18.072 632.211 18.072H629.355C614.667 18.072 606.371 26.504 606.371 42.008V96H602.835V42.008C602.835 24.192 612.355 14.536 629.355 14.536H632.483C650.435 14.536 662.539 22.968 667.163 38.608C665.259 20.656 651.931 11 629.355 11C610.315 11 599.299 22.696 599.299 42.96V96H595.763V42.96C595.763 20.384 608.003 7.464 629.355 7.464C644.179 7.464 653.699 10.728 661.587 18.752C655.195 8.552 644.995 3.92799 629.355 3.92799C605.691 3.92799 592.227 18.072 592.227 42.824V96H588.691V42.824ZM609.907 41.464C609.907 28.544 616.707 21.608 629.355 21.608H631.259C651.795 21.608 662.811 33.712 662.811 54.792V96H659.275V54.792C659.275 36.16 649.483 25.144 632.211 25.144H629.355C619.019 25.144 613.443 30.992 613.443 41.464V96H609.907V41.464ZM645.131 32.08C646.491 32.624 647.987 33.984 648.667 35.208V96H645.131V32.08ZM752.952 62.408V65.944H710.928V96H707.392V62.408H752.952ZM686.176 30.04C686.176 11.68 696.104 1.752 714.464 1.752H755.672V5.28799H728.608C712.56 5.28799 703.856 13.856 703.856 30.04V48.264H752.952V51.8H700.32V30.04C700.32 17.528 704.536 9.776 715.008 4.336C702.496 8.144 696.784 16.44 696.784 30.04V96H693.248V30.04C693.248 18.344 697.192 10.456 705.76 5.28799C695.288 8.41599 689.712 16.984 689.712 30.04V96H686.176V30.04ZM700.32 96V55.336H752.952V58.872H703.856V96H700.32ZM707.392 30.04C707.392 16.304 714.872 8.824 728.608 8.824H755.672V12.36H728.608C717.184 12.36 710.928 18.616 710.928 30.04V41.192H752.952V44.728H707.392V30.04ZM715.688 26.504C715.688 25.28 716.096 24.056 716.776 22.968H755.672V26.504H715.688ZM718.408 19.432C719.904 17.12 723.44 15.896 728.608 15.896H755.672V19.432H718.408Z" fill="white"/>
</svg>
