<svg width="506" height="107" viewBox="0 0 506 107" fill="none" xmlns="http://www.w3.org/2000/svg">
<path d="M86.3052 6.4H62.7592V8.23L70.2012 9.206C71.1772 9.328 71.6652 10.182 71.1772 11.646L47.6312 80.576L23.5972 12.134C22.7432 10.06 22.7432 9.328 23.7192 9.206L31.1612 8.23V6.4H0.905195V8.23L7.3712 9.08399C8.7132 9.206 9.2012 10.06 9.9332 12.134L43.1172 105.586L45.1912 104L76.9112 11.646C77.3992 10.06 77.8872 9.328 78.8632 9.206L86.3052 8.23V6.4ZM123.041 100.218C122.065 100.218 121.089 93.63 121.089 88.994V58.128C121.089 51.784 119.259 40.072 101.569 41.292C96.2015 41.658 92.5415 42.878 88.6375 45.928C84.3675 49.466 81.1955 54.834 82.9035 60.568C84.0015 63.984 87.0515 65.692 89.8575 65.814C92.9075 65.814 95.8355 63.862 95.8355 60.08C95.8355 56.542 93.2735 54.224 90.4675 54.224C86.5635 54.224 85.5875 56.42 85.5875 56.42C85.5875 53.004 88.1495 49.588 92.2975 46.904C96.4455 44.22 103.277 43.122 107.059 46.904C109.133 48.978 109.743 53.492 109.743 59.104V72.158L85.5875 79.722L83.6355 81.674C75.7055 90.702 79.7315 105.83 94.1275 105.83C100.593 105.83 108.035 101.072 109.743 95.46V100.218C109.743 103.512 111.329 105.22 114.623 105.83C117.307 104 122.065 102.048 130.361 102.048V100.218H123.041ZM109.743 87.164C109.743 99.12 101.203 99.73 97.7875 99.12C92.2975 98.144 85.5875 91.068 90.3455 80.82L109.743 74.842V87.164ZM164.866 102.17L157.424 101.194C156.448 101.072 156.448 100.34 156.448 98.266V10.67C156.448 6.88799 155.594 6.034 153.642 6.4C150.714 7.01 145.224 10.182 135.83 10.182V12.988L143.272 12.744C145.102 12.744 145.102 21.894 145.102 24.7V98.266C145.102 100.34 145.102 101.072 144.126 101.194L136.684 102.17V104H164.866V102.17ZM221.104 87.164C220.128 89.604 215.492 101.316 204.268 101.316C193.776 101.316 187.188 95.704 184.504 83.382C183.528 77.892 183.528 74.964 183.528 74.964L221.836 63.496C222.568 63.252 222.934 63.13 222.934 62.642C222.934 57.03 217.322 41.048 199.51 41.048C180.844 41.048 171.084 57.396 170.962 73.622C170.84 89.848 180.234 105.952 199.51 105.952C219.274 105.952 222.69 90.824 222.934 89.116L221.104 87.164ZM198.534 43.976C211.71 43.976 211.71 63.74 211.71 63.74L183.284 72.158C183.284 72.158 181.698 43.976 198.534 43.976ZM294.724 102.17L287.282 101.194C286.306 101.072 286.306 100.34 286.306 98.266V62.276C286.306 45.806 278.742 41.17 268.982 41.17L250.316 46.782C250.316 42.024 249.584 41.048 247.754 41.048C244.948 41.048 239.458 45.074 229.698 45.074V47.88L237.14 47.636C238.97 47.636 238.97 56.908 238.97 59.714V98.266C238.97 100.34 238.97 101.072 237.994 101.194L230.552 102.17V104H258.734V102.17L251.292 101.194C250.316 101.072 250.316 100.34 250.316 98.266V60.69C250.316 56.054 253.122 47.026 263.37 47.026C271.788 47.026 274.96 51.418 274.96 65.936V98.266C274.96 100.34 274.96 101.072 273.984 101.194L266.542 102.17V104H294.724V102.17ZM339.377 96.436C338.767 97.412 334.619 101.926 329.007 101.926C322.785 101.926 321.565 92.898 321.565 88.384V45.074H334.619V43H321.565V27.384H319.369C319.369 27.384 318.027 37.388 313.269 40.316C308.389 43.366 301.435 43 301.435 43V45.074H309.853V88.994C309.853 99.73 311.073 106.44 322.541 106.44C331.691 106.44 339.377 100.096 341.085 97.656L339.377 96.436ZM447.512 102.17L440.07 101.194C439.094 101.072 439.094 100.34 439.094 98.266V62.276C439.094 45.806 429.212 41.17 421.77 41.17L403.104 46.782V29.702C403.104 5.54599 387.854 0.421996 373.092 0.421996C360.526 0.421996 348.936 8.718 352.718 20.064C353.938 23.358 356.744 25.066 359.428 25.31C362.844 25.676 366.016 23.846 366.016 20.186C366.016 14.086 358.086 13.232 358.452 10.182C358.94 6.522 365.894 2.98399 373.336 2.98399C389.684 2.98399 400.054 10.548 400.054 29.214C400.054 41.292 393.1 44.83 382.486 44.83V47.88L389.928 47.636C391.758 47.636 391.758 56.908 391.758 59.714V98.266C391.758 100.34 391.758 101.072 390.782 101.194L383.34 102.17V104H411.522V102.17L404.08 101.194C403.104 101.072 403.104 100.34 403.104 98.266V60.69C403.104 58.006 404.08 47.026 416.158 47.026C424.576 47.026 427.748 51.418 427.748 65.936V98.266C427.748 100.34 427.748 101.072 426.772 101.194L419.33 102.17V104H447.512V102.17ZM366.016 98.266V45.562C366.016 41.536 365.284 40.56 363.332 40.926C360.404 41.414 354.914 45.074 345.398 45.074V47.88L352.84 47.636C354.67 47.636 354.67 56.786 354.67 59.592V98.266C354.67 100.34 354.67 101.072 353.694 101.194L346.252 102.17V104H374.434V102.17L366.992 101.194C366.016 101.072 366.016 100.34 366.016 98.266ZM498.215 100.218C497.239 100.218 496.263 93.63 496.263 88.994V58.128C496.263 51.784 494.433 40.072 476.743 41.292C471.375 41.658 467.715 42.878 463.811 45.928C459.541 49.466 456.369 54.834 458.077 60.568C459.175 63.984 462.225 65.692 465.031 65.814C468.081 65.814 471.009 63.862 471.009 60.08C471.009 56.542 468.447 54.224 465.641 54.224C461.737 54.224 460.761 56.42 460.761 56.42C460.761 53.004 463.323 49.588 467.471 46.904C471.619 44.22 478.451 43.122 482.233 46.904C484.307 48.978 484.917 53.492 484.917 59.104V72.158L460.761 79.722L458.809 81.674C450.879 90.702 454.905 105.83 469.301 105.83C475.767 105.83 483.209 101.072 484.917 95.46V100.218C484.917 103.512 486.503 105.22 489.797 105.83C492.481 104 497.239 102.048 505.535 102.048V100.218H498.215ZM484.917 87.164C484.917 99.12 476.377 99.73 472.961 99.12C467.471 98.144 460.761 91.068 465.519 80.82L484.917 74.842V87.164Z" fill="white"/>
</svg>
