<svg width="300" height="94" viewBox="0 0 300 94" fill="none" xmlns="http://www.w3.org/2000/svg">
<path d="M25.8563 0.023994L23.8163 38.376H16.7443L18.7843 0.023994H5.18434L0.288344 94H13.8883L15.9283 55.104H23.0003L20.9603 94H34.5603L39.4563 0.023994H25.8563ZM39.7337 94H67.8857L68.5657 78.768H54.1497L55.3737 55.104H68.7017L69.5177 39.872H56.1897L57.5497 15.256H71.9657L72.7817 0.023994H44.6297L39.7337 94ZM107.234 94L104.786 0.023994H81.9383L69.9703 94H84.1143L85.6103 78.768H92.8183V94H107.234ZM86.9703 63.944L91.5943 15.664H92.9543L92.8183 63.944H86.9703ZM113.633 94H127.233L131.313 15.256H140.833L141.649 0.023994H108.737L107.921 15.256H117.713L113.633 94ZM144.498 94H160.546L168.298 42.048H169.658V94H185.706L199.85 0.023994H185.162L180.538 62.176H179.178L178.362 0.023994H163.946L156.194 62.176H154.834L157.146 0.023994H142.866L144.498 94ZM229.422 94L226.974 0.023994H204.126L192.158 94H206.302L207.798 78.768H215.006V94H229.422ZM209.158 63.944L213.782 15.664H215.142L215.006 63.944H209.158ZM235.659 94H253.883L268.843 0.023994H254.563L247.355 72.24H245.995V0.023994H231.851L235.659 94ZM266.843 94H294.995L295.675 78.768H281.259L282.483 55.104H295.811L296.627 39.872H283.299L284.659 15.256H299.075L299.891 0.023994H271.739L266.843 94Z" fill="white"/>
</svg>
