<svg width="414" height="122" viewBox="0 0 414 122" fill="none" xmlns="http://www.w3.org/2000/svg">
<path d="M129.698 104.24C129.018 104.24 128.474 104.512 126.57 105.328C120.586 107.912 114.466 109 105.762 109C80.8738 109 64.8258 86.696 37.8978 86.696C33.0018 86.696 25.5218 87.92 24.5698 87.92C24.1618 87.92 24.0258 87.648 24.0258 87.376C24.0258 86.696 25.3858 84.112 27.6978 80.304L73.1218 4.95999C73.8018 3.872 74.2098 3.05599 74.2098 2.37599C74.2098 1.15199 72.5778 0.471995 67.8178 0.471995C61.8338 0.471995 54.4898 1.15199 35.3138 1.15199C19.9458 1.15199 11.2418 0.471995 9.74578 0.471995C8.24978 0.471995 7.70578 1.15199 7.56978 2.37599C7.16178 6.592 6.20978 18.152 6.20978 21.96C6.20978 23.456 6.48178 24 7.43378 24C8.52178 24 9.20178 23.456 9.60978 21.824C12.4658 10.264 19.9458 6.048 31.5058 6.048H37.7618C55.4418 6.048 53.9458 8.632 51.2258 13.12L4.44178 90.64C1.85778 94.992 0.497781 97.304 0.497781 98.256C0.497781 98.8 0.769781 99.208 1.44978 99.208C4.44178 99.208 16.0018 92 29.1938 92C55.8498 92 74.6178 121.24 103.45 121.24C111.066 121.24 119.77 119.2 129.562 107.64C130.378 106.688 130.922 106.008 130.922 105.464C130.922 104.92 130.514 104.24 129.698 104.24ZM136.088 85.336C129.152 86.968 126.976 85.88 126.976 78.672V54.464C126.976 36.24 115.28 31.48 105.488 31.48C93.5197 31.48 84.8157 36.376 80.3277 41.68C79.2397 43.04 79.9197 44.264 81.2797 45.352L88.6237 51.2C90.2557 52.424 91.4797 52.016 92.2957 49.704C95.1517 41.272 97.4637 35.288 104.128 35.288C110.52 35.288 112.152 43.312 112.152 52.696C112.152 55.688 111.88 57.184 109.704 57.728C92.9757 61.944 77.6077 66.024 77.6077 79.896C77.6077 86.288 80.5997 94.04 92.0237 94.04C100.32 94.04 106.44 89.96 111.064 86.832C112.424 85.88 112.832 86.016 113.784 87.24C116.64 90.912 119.088 94.04 123.984 94.04C128.88 94.04 133.912 90.776 136.088 89.008C137.448 87.92 138.264 86.832 138.264 85.88C138.264 85.064 137.856 84.928 136.088 85.336ZM112.152 78.128C112.152 84.112 104.944 86.152 102.224 86.152C96.5117 86.152 93.2477 83.296 93.2477 77.04C93.2477 70.104 98.2797 64.392 109.976 62.08C111.336 61.808 112.152 62.08 112.152 63.304V78.128ZM196.5 77.448C195.82 77.448 195.14 77.992 194.052 79.08C190.38 82.752 184.668 85.608 178.956 85.608C165.9 85.608 160.052 71.192 160.052 57.592C160.052 44.128 165.764 38.008 172.7 38.008C179.228 38.008 184.804 43.312 188.884 47.392C190.788 49.296 192.148 49.024 193.236 47.12L196.908 40.32C197.86 38.552 197.996 38.008 196.364 36.648C193.916 34.608 187.66 31.48 179.364 31.48C162.364 31.48 144.412 44.536 144.412 65.208C144.412 78.944 152.436 94.04 171.884 94.04C184.94 94.04 194.188 87.24 196.772 80.848C197.316 79.488 197.86 77.448 196.5 77.448ZM266.244 85.336C259.308 86.968 257.132 85.88 257.132 78.672V54.464C257.132 36.24 245.436 31.48 235.644 31.48C223.676 31.48 214.972 36.376 210.484 41.68C209.396 43.04 210.076 44.264 211.436 45.352L218.78 51.2C220.412 52.424 221.636 52.016 222.452 49.704C225.308 41.272 227.62 35.288 234.284 35.288C240.676 35.288 242.308 43.312 242.308 52.696C242.308 55.688 242.036 57.184 239.86 57.728C223.132 61.944 207.764 66.024 207.764 79.896C207.764 86.288 210.756 94.04 222.18 94.04C230.476 94.04 236.596 89.96 241.22 86.832C242.58 85.88 242.988 86.016 243.94 87.24C246.796 90.912 249.244 94.04 254.14 94.04C259.036 94.04 264.068 90.776 266.244 89.008C267.604 87.92 268.42 86.832 268.42 85.88C268.42 85.064 268.012 84.928 266.244 85.336ZM242.308 78.128C242.308 84.112 235.1 86.152 232.38 86.152C226.668 86.152 223.404 83.296 223.404 77.04C223.404 70.104 228.436 64.392 240.132 62.08C241.492 61.808 242.308 62.08 242.308 63.304V78.128ZM318.769 31.48C310.065 31.48 303.265 35.424 297.961 39.912C297.281 40.456 296.601 39.912 296.601 38.824V31.344C296.601 29.848 296.465 29.44 295.649 29.44C293.881 29.44 290.753 31.344 285.041 32.976C281.233 34.064 279.329 34.472 274.025 35.424C272.393 35.696 271.849 36.24 271.849 37.192C271.849 38.008 272.257 38.28 273.753 38.824C280.689 41.272 281.777 41.68 281.777 49.296V100.432C281.777 108.048 281.641 112.264 279.873 114.168C278.921 115.256 276.745 116.208 274.977 116.752C273.481 117.16 273.073 117.296 273.073 118.248C273.073 119.336 273.753 120.016 275.249 120.016C276.881 120.016 283.137 119.2 289.121 119.2C296.737 119.2 304.897 120.016 306.801 120.016C308.161 120.016 309.113 119.608 309.113 118.248C309.113 117.296 308.705 117.024 307.209 116.752C304.081 116.208 300.545 115.392 298.641 113.488C296.873 111.72 296.601 109.408 296.601 100.432V93.088C296.601 92.136 297.145 91.592 298.233 92C301.905 93.36 306.529 94.04 310.065 94.04C327.337 94.04 342.977 79.488 342.977 59.632C342.977 38.552 329.785 31.48 318.769 31.48ZM311.969 89.824C304.081 89.824 296.601 85.064 296.601 75.272V49.84C296.601 47.8 297.009 46.304 298.505 44.808C300.953 42.224 304.625 39.912 309.657 39.912C318.633 39.912 327.337 47.256 327.337 65.208C327.337 80.168 322.985 89.824 311.969 89.824ZM411.01 85.336C404.074 86.968 401.898 85.88 401.898 78.672V54.464C401.898 36.24 390.202 31.48 380.41 31.48C368.442 31.48 359.738 36.376 355.25 41.68C354.162 43.04 354.842 44.264 356.202 45.352L363.546 51.2C365.178 52.424 366.402 52.016 367.218 49.704C370.074 41.272 372.386 35.288 379.05 35.288C385.442 35.288 387.074 43.312 387.074 52.696C387.074 55.688 386.802 57.184 384.626 57.728C367.898 61.944 352.53 66.024 352.53 79.896C352.53 86.288 355.522 94.04 366.946 94.04C375.242 94.04 381.362 89.96 385.986 86.832C387.346 85.88 387.754 86.016 388.706 87.24C391.562 90.912 394.01 94.04 398.906 94.04C403.802 94.04 408.834 90.776 411.01 89.008C412.37 87.92 413.186 86.832 413.186 85.88C413.186 85.064 412.778 84.928 411.01 85.336ZM387.074 78.128C387.074 84.112 379.866 86.152 377.146 86.152C371.434 86.152 368.17 83.296 368.17 77.04C368.17 70.104 373.202 64.392 384.898 62.08C386.258 61.808 387.074 62.08 387.074 63.304V78.128Z" fill="white"/>
</svg>
